<svg xmlns="http://www.w3.org/2000/svg" xmlns:xlink="http://www.w3.org/1999/xlink" width="32" height="32" viewBox="0 0 32 32" fill="none"><g opacity="1"  transform="translate(0 0)  rotate(0)"><mask id="mask-0" fill="white"><path d="M0 32L32 32L32 0L0 0L0 32Z"  ></path></mask><g mask="url(#mask-0)"></g><g mask="url(#mask-0)"><path id="路径" fill-rule="evenodd" style="fill:#FF7F5C" opacity="1" d="M1.64 9.53997C1.18 9.63997 0.76 9.89997 0.46 10.27C0.16 10.64 0 11.1 0 11.58L0 16.73C0 17.21 0.16 17.67 0.46 18.04C0.76 18.41 1.18 18.67 1.64 18.77L7.3 20L7.3 8.33997L1.64 9.53997Z"></path></g><g mask="url(#mask-0)"><path id="路径" fill-rule="evenodd" style="fill:#F3A28B" opacity="1" d="M1.5 11.58C1.5 11.44 1.54 11.31 1.63 11.2C1.71 11.1 1.83 11.02 1.96 11L3.13 10.75C3.3 10.71 3.45 10.62 3.55 10.48C3.66 10.35 3.72 10.18 3.72 10.01C3.72 9.90001 3.7 9.79001 3.65 9.69001C3.6 9.59001 3.53 9.50001 3.44 9.43001C3.36 9.36001 3.25 9.31001 3.15 9.28001C3.04 9.25001 2.92 9.25001 2.81 9.28001L1.65 9.53001C1.18 9.63001 0.76 9.88001 0.46 10.26C0.16 10.63 0 11.09 0 11.57L0 13.18C0 13.38 0.08 13.57 0.22 13.71C0.36 13.85 0.55 13.93 0.75 13.93C0.95 13.93 1.14 13.85 1.28 13.71C1.42 13.57 1.5 13.38 1.5 13.18L1.5 11.58Z"></path></g><g mask="url(#mask-0)"><path id="路径" fill-rule="evenodd" style="fill:#FF7F5C" opacity="1" d="M29.0401 27.36C29.4901 27.16 29.8901 26.85 30.2001 26.46C30.5101 26.07 30.7201 25.62 30.8201 25.13C32.3701 17.89 32.3801 10.4 30.8601 3.14C30.7301 2.49001 30.3901 1.89 29.8901 1.44C29.3901 0.990005 28.7601 0.710005 28.0901 0.650005C27.4501 0.580005 26.8001 0.720005 26.2401 1.06L8.24005 11.45C7.77005 11.72 7.37005 12.12 7.10005 12.59C6.82005 13.07 6.68005 13.6 6.68005 14.15C6.68005 14.7 6.82005 15.24 7.10005 15.71C7.37005 16.19 7.77005 16.58 8.24005 16.85L26.1901 27.22C26.6201 27.47 27.1101 27.61 27.6001 27.64C28.1001 27.66 28.5901 27.57 29.0401 27.36Z"></path></g><g mask="url(#mask-0)"><path id="路径" fill-rule="evenodd" style="fill:#FD744E" opacity="1" d="M26.2 27.24C26.63 27.49 27.11 27.63 27.61 27.66C28.11 27.68 28.6 27.59 29.05 27.38C29.5 27.18 29.9 26.87 30.21 26.48C30.52 26.09 30.73 25.64 30.83 25.15C32.38 17.91 32.39 10.41 30.87 3.15001C30.74 2.50001 30.4 1.90001 29.9 1.45001C29.4 1.00001 28.77 0.720015 28.1 0.650015C27.46 0.590015 26.81 0.740015 26.26 1.06001L22.17 3.42001C22.76 5.63001 23.05 7.91001 23.04 10.19C23.05 14.83 21.83 19.38 19.5 23.38L26.2 27.24Z"></path></g><g mask="url(#mask-0)"><path id="路径" fill-rule="evenodd" style="fill:#EF7C5D" opacity="1" d="M15.5499 7.35003C15.4799 7.47003 15.4399 7.60003 15.4399 7.73003C15.4399 7.86003 15.4699 7.99003 15.5399 8.10003C15.6099 8.22003 15.6999 8.31003 15.8099 8.38003C15.9299 8.45003 16.0599 8.48003 16.1899 8.48003C16.3199 8.48003 16.4499 8.45003 16.5699 8.38003L22.1099 5.18003C22.2299 5.11003 22.3199 5.02003 22.3899 4.91003C22.4599 4.79003 22.4999 4.66003 22.4999 4.53003C22.4999 4.40003 22.4699 4.27003 22.3999 4.16003C22.3299 4.04003 22.2399 3.95003 22.1299 3.88003C22.0099 3.81003 21.8799 3.78003 21.7499 3.78003C21.6199 3.78003 21.4899 3.81003 21.3699 3.88003L15.8299 7.08003C15.7099 7.14003 15.6199 7.24003 15.5499 7.35003Z"></path></g><g mask="url(#mask-0)"><path id="路径" fill-rule="evenodd" style="fill:#F5A58E" opacity="1" d="M20.74 5.96995C20.86 5.89995 20.95 5.80995 21.02 5.68995C21.09 5.57995 21.12 5.44995 21.12 5.31995C21.12 5.18995 21.09 5.05995 21.02 4.93995C20.95 4.82995 20.86 4.72995 20.75 4.66995C20.63 4.59995 20.5 4.56995 20.37 4.56995C20.24 4.56995 20.11 4.60995 19.99 4.66995L17.15 6.30995C17.04 6.37995 16.94 6.47995 16.88 6.58995C16.81 6.69995 16.78 6.82995 16.78 6.95995C16.78 7.09995 16.82 7.21995 16.88 7.33995C16.95 7.44995 17.04 7.54995 17.16 7.60995C17.27 7.67995 17.4 7.70995 17.53 7.70995C17.66 7.70995 17.79 7.67995 17.91 7.60995L20.74 5.96995Z"></path></g><g mask="url(#mask-0)"><path id="路径" fill-rule="evenodd" style="fill:#F96B44" opacity="1" d="M28.1 0.650024C27.43 0.720024 26.81 1.00002 26.31 1.46002C25.82 1.91002 25.48 2.51002 25.35 3.17002C25.07 4.48002 24.84 5.83002 24.66 7.17002C24.6 7.62002 24.55 8.05002 24.5 8.50002C24.1 12.26 24.11 16.05 24.53 19.81C24.58 20.25 24.63 20.69 24.69 21.14C24.87 22.46 25.1 23.8 25.37 25.14C25.5 25.79 25.84 26.39 26.33 26.84C26.82 27.28 27.44 27.57 28.1 27.64C28.76 27.57 29.38 27.28 29.87 26.83C30.36 26.38 30.7 25.79 30.83 25.14C32.38 17.89 32.39 10.4 30.87 3.15002C30.74 2.49002 30.4 1.89002 29.9 1.44002C29.4 0.990024 28.77 0.710024 28.1 0.650024Z"></path></g><g mask="url(#mask-0)"><path id="路径" fill-rule="evenodd" style="fill:#F38A6D" opacity="1" d="M8.16 31.3C8.28 31.35 8.42 31.37 8.56 31.37L11.64 31.37C11.92 31.37 12.18 31.26 12.38 31.07C12.57 30.87 12.68 30.61 12.68 30.33L12.68 19.66L7.5 19.66L7.5 30.33C7.5 30.47 7.53 30.6 7.58 30.73C7.63 30.86 7.71 30.98 7.81 31.07C7.91 31.17 8.03 31.25 8.16 31.3Z"></path></g><g mask="url(#mask-0)"><path id="路径" fill-rule="evenodd" style="fill:#FF673D" opacity="1" d="M5.43005 20.63C5.43005 21.78 6.36005 22.71 7.51005 22.71L12.6901 22.71C13.8401 22.71 14.7701 21.78 14.7701 20.63L14.7701 7.68999C14.7701 6.53999 13.8401 5.60999 12.6901 5.60999L7.51005 5.60999C6.36005 5.60999 5.43005 6.53999 5.43005 7.68999L5.43005 20.63Z"></path></g><g mask="url(#mask-0)"><path id="路径" fill-rule="evenodd" style="fill:#FF6F47" opacity="1" d="M7.77003 7.09999L11.81 7.09999C12.22 7.09999 12.55 6.76999 12.55 6.35999C12.55 5.93999 12.22 5.60999 11.81 5.60999L7.77003 5.60999C7.36003 5.60999 7.03003 5.93999 7.03003 6.35999C7.03003 6.76999 7.36003 7.09999 7.77003 7.09999Z"></path></g><g mask="url(#mask-0)"><path id="路径" fill-rule="evenodd" style="fill:#FF6B42" opacity="1" d="M8.80006 7.09999L10.7201 7.09999C11.1301 7.09999 11.4601 6.76999 11.4601 6.35999C11.4601 5.93999 11.1301 5.60999 10.7201 5.60999L8.80006 5.60999C8.39006 5.60999 8.06006 5.93999 8.06006 6.35999C8.06006 6.76999 8.39006 7.09999 8.80006 7.09999Z"></path></g><g mask="url(#mask-0)"><path id="路径" fill-rule="evenodd" style="fill:#F69479" opacity="1" d="M8.36001 10.79L11.72 10.79C12.26 10.79 12.69 10.36 12.69 9.82999C12.69 9.28999 12.26 8.85999 11.72 8.85999L8.36001 8.85999C7.82001 8.85999 7.39001 9.28999 7.39001 9.82999C7.39001 10.36 7.82001 10.79 8.36001 10.79Z"></path></g><g mask="url(#mask-0)"><path id="路径" fill-rule="evenodd" style="fill:#F69479" opacity="1" d="M8.36001 15.1L11.72 15.1C12.26 15.1 12.69 14.67 12.69 14.14C12.69 13.6 12.26 13.17 11.72 13.17L8.36001 13.17C7.82001 13.17 7.39001 13.6 7.39001 14.14C7.39001 14.67 7.82001 15.1 8.36001 15.1Z"></path></g><g mask="url(#mask-0)"><path id="路径" fill-rule="evenodd" style="fill:#F69479" opacity="1" d="M8.36001 19.41L11.72 19.41C12.26 19.41 12.69 18.98 12.69 18.45C12.69 17.91 12.26 17.48 11.72 17.48L8.36001 17.48C7.82001 17.48 7.39001 17.91 7.39001 18.45C7.39001 18.98 7.82001 19.41 8.36001 19.41Z"></path></g><g mask="url(#mask-0)"><path id="路径" fill-rule="evenodd" style="fill:#FC653B" opacity="1" d="M12.68 26.8101L12.7 26.8101C12.97 26.8101 13.22 26.7001 13.41 26.5201C13.59 26.3301 13.7 26.0801 13.7 25.8101C13.7 25.5401 13.59 25.2901 13.41 25.1001C13.22 24.9201 12.97 24.8101 12.7 24.8101L11.5 24.8101C11.23 24.8101 10.98 24.9201 10.79 25.1001C10.61 25.2901 10.5 25.5401 10.5 25.8101C10.5 26.0801 10.61 26.3301 10.79 26.5201C10.98 26.7001 11.23 26.8101 11.5 26.8101L12.68 26.8101Z"></path></g><g mask="url(#mask-0)"><path id="路径" fill-rule="evenodd" style="fill:#FC653B" opacity="1" d="M13.7 28.73C13.7 28.46 13.59 28.21 13.41 28.02C13.22 27.84 12.97 27.73 12.7 27.73L11.5 27.73C11.23 27.73 10.98 27.84 10.79 28.02C10.61 28.21 10.5 28.46 10.5 28.73C10.5 29 10.61 29.25 10.79 29.44C10.98 29.62 11.23 29.73 11.5 29.73L12.68 29.73L12.7 29.73C12.97 29.73 13.22 29.62 13.41 29.44C13.59 29.25 13.7 29 13.7 28.73Z"></path></g><g mask="url(#mask-0)"><path id="路径" fill-rule="evenodd" style="fill:#012C54" opacity="1" d="M24.5 8.50004C24.1 12.26 24.11 16.05 24.53 19.81C24.58 20.25 24.63 20.7 24.69 21.14C25.97 21.03 27 17.94 27 14.14C27 10.29 25.94 7.16004 24.66 7.17004C24.6 7.61004 24.54 8.05004 24.5 8.50004Z"></path></g></g></svg>