<svg xmlns="http://www.w3.org/2000/svg" xmlns:xlink="http://www.w3.org/1999/xlink" width="24" height="24" viewBox="0 0 24 24" fill="none"><g opacity="1"  transform="translate(0 0)  rotate(0)"><mask id="mask-0" fill="white"><path d="M0 24L24 24L24 0L0 0L0 24Z"  ></path></mask><g mask="url(#mask-0)"></g><g mask="url(#mask-0)"><path  id="路径" style="fill:#231E1C; opacity:1;" d="M16.25,6c0,0.34518 -0.1399,0.65768 -0.3661,0.88388l-5.1161,5.11612l5.1158,5.1159l0.0003,0.0002c0.2262,0.2262 0.3661,0.5387 0.3661,0.8839c0,0.6904 -0.5596,1.25 -1.25,1.25c-0.3452,0 -0.6577,-0.1399 -0.8839,-0.3661l-0.0002,-0.0003l-5.99978,-5.9997c-0.48816,-0.4882 -0.48816,-1.2796 0,-1.7678l5.99998,-5.99998c0.2262,-0.22621 0.5387,-0.36612 0.8839,-0.36612c0.6904,0 1.25,0.55964 1.25,1.25z"></path></g></g></svg>