<svg xmlns="http://www.w3.org/2000/svg" xmlns:xlink="http://www.w3.org/1999/xlink" width="20" height="20" viewBox="0 0 20 20" fill="none"><g opacity="1"  transform="translate(0 0)  rotate(0)"><path id="形状结合" fill-rule="evenodd" style="fill:#1ED760" opacity="1" d="M19.94,9.97c0,5.51 -4.46,9.97 -9.97,9.97c-5.51,0 -9.97,-4.46 -9.97,-9.97c0,-5.51 4.46,-9.97 9.97,-9.97c5.51,0 9.97,4.46 9.97,9.97zM4.28,7.67c3.07,-0.92 8.37,-0.75 11.59,1.16c0.44,0.26 1.01,0.11 1.28,-0.33c0.26,-0.44 0.11,-1.01 -0.33,-1.28c-3.7,-2.18 -9.56,-2.39 -13.08,-1.32c-0.49,0.15 -0.77,0.67 -0.62,1.15c0.15,0.5 0.67,0.77 1.16,0.62zM15.5,10.59c-3.08,-1.89 -7.58,-2.42 -11.19,-1.32c-0.41,0.13 -0.65,0.56 -0.52,0.97c0.12,0.4 0.56,0.63 0.97,0.51c3.16,-0.95 7.24,-0.48 9.92,1.16c0.37,0.23 0.85,0.11 1.07,-0.26c0.23,-0.36 0.11,-0.84 -0.25,-1.06zM4.93,13.62c3.47,-0.79 6.42,-0.46 8.76,0.97c0.29,0.18 0.67,0.08 0.85,-0.21c0.18,-0.29 0.09,-0.68 -0.2,-0.86c-2.63,-1.6 -5.89,-1.99 -9.69,-1.11c-0.33,0.08 -0.54,0.41 -0.46,0.75c0.07,0.33 0.4,0.54 0.74,0.46z"></path></g></svg>