<svg xmlns="http://www.w3.org/2000/svg" xmlns:xlink="http://www.w3.org/1999/xlink" width="32" height="32" viewBox="0 0 32 32" fill="none"><g opacity="1"  transform="translate(0 0)  rotate(0)"><mask id="mask-0" fill="white"><path d="M0 32L32 32L32 0L0 0L0 32Z"  ></path></mask><g mask="url(#mask-0)"></g><g mask="url(#mask-0)"><path id="路径" fill-rule="evenodd" style="fill:#FF7F5C" opacity="1" d="M0.24 27.5C0.4 27.88 0.63 28.22 0.92 28.51C1.21 28.8 1.55 29.03 1.93 29.18C2.31 29.34 2.71 29.42 3.12 29.42L22.31 29.42C22.6 29.42 22.87 29.31 23.08 29.1C23.28 28.9 23.4 28.62 23.4 28.33L23.4 3.58998C23.4 3.32998 23.29 3.07998 23.1 2.88998C22.91 2.70998 22.66 2.59998 22.4 2.59998L3.26 2.59998C3.16 2.59998 3.06 2.59998 2.96 2.59998C2.59 2.63998 2.22 2.73998 1.89 2.89998C1.33 3.15998 0.85 3.56998 0.51 4.09998C0.18 4.61998 0 5.22998 0 5.84998L0 26.31C0 26.72 0.08 27.12 0.24 27.5Z"></path></g><g mask="url(#mask-0)"><path id="路径" fill-rule="evenodd" style="fill:#FD744E" opacity="1" d="M10.23 29.41L22.31 29.41C22.6 29.41 22.87 29.3 23.08 29.09C23.28 28.89 23.4 28.61 23.4 28.32L23.4 3.57996C23.4 3.30996 23.29 3.05996 23.11 2.86996C22.92 2.68996 22.66 2.57996 22.4 2.57996L17.36 2.57996C19.66 5.63996 20.9 9.35996 20.89 13.18C20.9 16.63 19.89 20.01 17.99 22.89C16.1 25.77 13.4 28.04 10.23 29.41Z"></path></g><g mask="url(#mask-0)"><path id="路径" fill-rule="evenodd" style="fill:#F3A28B" opacity="1" d="M5.43994 4.57996L14.4999 4.57996C15.0499 4.57996 15.4999 4.12996 15.4999 3.57996C15.4999 3.02996 15.0499 2.57996 14.4999 2.57996L5.43994 2.57996C4.88994 2.57996 4.43994 3.02996 4.43994 3.57996C4.43994 4.12996 4.88994 4.57996 5.43994 4.57996Z"></path></g><g mask="url(#mask-0)"><path id="路径" fill-rule="evenodd" style="fill:#F9CABD" opacity="1" d="M6.96997 4.57996L12.21 4.57996C12.76 4.57996 13.21 4.12996 13.21 3.57996C13.21 3.02996 12.76 2.57996 12.21 2.57996L6.96997 2.57996C6.41997 2.57996 5.96997 3.02996 5.96997 3.57996C5.96997 4.12996 6.41997 4.57996 6.96997 4.57996Z"></path></g><g mask="url(#mask-0)"><path id="路径" fill-rule="evenodd" style="fill:#FF5F33" opacity="1" d="M6.43994 11.19C6.43994 11.79 6.92994 12.28 7.52994 12.28L17.4399 12.28C18.0399 12.28 18.5299 11.79 18.5299 11.19L18.5299 8.42997C18.5299 7.82997 18.0399 7.33997 17.4399 7.33997L7.52994 7.33997C6.92994 7.33997 6.43994 7.82997 6.43994 8.42997L6.43994 11.19Z"></path></g><g mask="url(#mask-0)"><path id="路径" fill-rule="evenodd" style="fill:#012C54" opacity="1" d="M19.06 8.32996C19.14 8.32996 19.22 8.34996 19.29 8.37996L20.57 8.95996C20.65 8.99996 20.74 9.01996 20.84 9.00996C20.93 8.99996 21.02 8.96996 21.09 8.91996C21.17 8.86996 21.23 8.79996 21.28 8.71996C21.32 8.63996 21.34 8.54996 21.34 8.45996L21.34 2.57996L16.79 2.57996L16.79 8.45996C16.79 8.54996 16.81 8.63996 16.86 8.71996C16.9 8.79996 16.96 8.86996 17.04 8.91996C17.11 8.96996 17.2 8.99996 17.29 9.00996C17.39 9.00996 17.48 8.99996 17.56 8.95996L18.84 8.37996C18.91 8.34996 18.99 8.32996 19.06 8.32996Z"></path></g><g mask="url(#mask-0)"><path id="路径" fill-rule="evenodd" style="fill:#002044" opacity="1" d="M20.3501 8.85996L20.5701 8.95996C20.6501 8.99996 20.7401 9.01996 20.8401 9.00996C20.9301 8.99996 21.0201 8.96996 21.0901 8.91996C21.1701 8.86996 21.2301 8.79996 21.2801 8.71996C21.3201 8.63996 21.3401 8.54996 21.3401 8.45996L21.3401 2.57996L17.3501 2.58996C18.7601 4.45996 19.7801 6.58996 20.3501 8.85996Z"></path></g><g mask="url(#mask-0)"><path id="路径" fill-rule="evenodd" style="fill:#FFE7E0" opacity="1" d="M0.92001 24.0901C0.63001 24.3801 0.40001 24.7301 0.25001 25.1001C0.0900098 25.4801 0.0100098 25.8901 0.0100098 26.3001C0.0100098 26.7001 0.0900098 27.1101 0.25001 27.4901C0.40001 27.8601 0.63001 28.2101 0.92001 28.5001C1.21001 28.7901 1.55001 29.0201 1.93001 29.1701C2.31001 29.3301 2.72001 29.4101 3.13001 29.4101L22.31 29.4101C22.6 29.4101 22.87 29.3001 23.08 29.0901C23.28 28.8901 23.4 28.6101 23.4 28.3201L23.4 23.1801L3.13001 23.1801C2.72001 23.1801 2.31001 23.2601 1.93001 23.4201C1.55001 23.5701 1.21001 23.8001 0.92001 24.0901Z"></path></g><g mask="url(#mask-0)"><path id="路径" fill-rule="evenodd" style="fill:#FED0C3" opacity="1" d="M10.23 29.4101L22.31 29.4101C22.6 29.4101 22.87 29.3001 23.08 29.0901C23.28 28.8901 23.4 28.6101 23.4 28.3201L23.4 23.1801L17.79 23.1801C15.91 25.9301 13.29 28.0801 10.23 29.4101Z"></path></g><g mask="url(#mask-0)"><g opacity="1"  transform="translate(0.010009765625 23.1800537109375)  rotate(0)"><path id="路径" fill-rule="evenodd" style="fill:#FF673D" opacity="1" d="M2.17012 4.25C2.45012 4.48 2.81012 4.61 3.18012 4.60001L21.2101 4.60001C21.2901 4.60001 21.3601 4.59 21.4201 4.56001C21.4901 4.53 21.5501 4.49 21.6001 4.44C21.6501 4.39001 21.6901 4.33 21.7201 4.27001C21.7501 4.2 21.7601 4.13 21.7601 4.06001L21.7601 2.18C21.7601 2.03 21.7001 1.89 21.6001 1.79C21.5001 1.69 21.3601 1.63 21.2101 1.63L3.12012 1.63C2.92012 1.63 2.72012 1.67 2.54012 1.74C2.36012 1.81 2.20012 1.93 2.06012 2.06C1.90012 2.23 1.78012 2.42 1.70012 2.64C1.63012 2.86 1.61012 3.09 1.63012 3.31C1.69012 3.68 1.88012 4.01 2.17012 4.25Z"></path><path id="路径" fill-rule="evenodd" style="fill:#FF673D" opacity="1" d="M1.92 0.24C1.54 0.39 1.2 0.62 0.91 0.91C0.62 1.2 0.39 1.55 0.24 1.92C0.08 2.3 0 2.71 0 3.12C0 3.52 0.08 3.93 0.24 4.31C0.39 4.68 0.62 5.03 0.91 5.32C1.2 5.61 1.54 5.84 1.92 5.99C2.3 6.15 2.71 6.23 3.12 6.23L22.39 6.23C22.66 6.23 22.91 6.12 23.1 5.94C23.28 5.75 23.39 5.5 23.39 5.23L23.39 0L3.12 0C2.71 0 2.3 0.08 1.92 0.24Z"></path></g></g><g mask="url(#mask-0)"><path id="路径" fill-rule="evenodd" style="fill:#FF5F33" opacity="1" d="M22.4 29.4101C22.66 29.4101 22.92 29.3001 23.11 29.1201C23.29 28.9301 23.4 28.6801 23.4 28.4101L23.4 23.1801L17.77 23.1801C17.38 23.7501 16.96 24.2901 16.5 24.8101L21.22 24.8101C21.37 24.8101 21.51 24.8701 21.61 24.9701C21.71 25.0701 21.77 25.2101 21.77 25.3601L21.77 27.2401C21.77 27.3101 21.76 27.3801 21.73 27.4501C21.7 27.5101 21.66 27.5701 21.61 27.6201C21.56 27.6701 21.5 27.7101 21.43 27.7401C21.37 27.7701 21.3 27.7801 21.22 27.7801L13.18 27.7801C12.25 28.4201 11.26 28.9601 10.23 29.4101L22.4 29.4101Z"></path></g><g mask="url(#mask-0)"><path id="路径" fill-rule="evenodd" style="fill:#FF5F33" opacity="1" d="M2.95989 2.59996C2.57989 2.62996 2.21989 2.72996 1.88989 2.88996L1.88989 23.43C2.16989 23.27 2.48989 23.18 2.81989 23.18L3.40989 23.18L3.40989 2.57996L3.25989 2.59996C3.15989 2.58996 3.05989 2.58996 2.95989 2.59996Z"></path></g><g mask="url(#mask-0)"><path id="路径" fill-rule="evenodd" style="fill:#002044" opacity="1" d="M31.98 23.53C31.93 23.29 31.82 23.08 31.65 22.91L28.32 19.58C28.1 19.36 27.79 19.23 27.47 19.23C27.15 19.23 26.85 19.36 26.62 19.58C26.4 19.8 26.27 20.11 26.27 20.43C26.27 20.75 26.4 21.05 26.62 21.28L29.95 24.61C30.18 24.83 30.48 24.96 30.8 24.96C31.04 24.96 31.27 24.89 31.47 24.75C31.66 24.62 31.82 24.44 31.91 24.22C32 24 32.02 23.76 31.98 23.53Z"></path></g><g mask="url(#mask-0)"><path id="路径" fill-rule="evenodd" style="fill:#002044" opacity="1" d="M17.71 16.39C17.71 19.55 20.27 22.11 23.43 22.11C26.59 22.11 29.15 19.55 29.15 16.39C29.15 13.23 26.59 10.67 23.43 10.67C20.27 10.67 17.71 13.23 17.71 16.39Z"></path></g><g mask="url(#mask-0)"><path id="路径" fill-rule="evenodd" style="fill:#002044" opacity="1" d="M19.3801 20.43C20.4501 21.5 21.9101 22.1 23.4201 22.1C24.9401 22.1 26.3901 21.5 27.4701 20.43C28.4401 19.46 29.0301 18.18 29.1301 16.82C29.2401 15.46 28.8501 14.1 28.0401 13C27.2401 11.89 26.0601 11.12 24.7301 10.81C23.4001 10.5 22.0001 10.68 20.7901 11.31C20.8501 11.93 20.8801 12.56 20.8901 13.18C20.8901 15.67 20.3701 18.13 19.3501 20.4L19.3801 20.43Z"></path></g><g mask="url(#mask-0)"><path id="路径" fill-rule="evenodd" style="fill:#FBD1C6" opacity="1" d="M19.96 16.39C19.96 18.3 21.51 19.85 23.43 19.85C25.34 19.85 26.89 18.3 26.89 16.39C26.89 14.47 25.34 12.92 23.43 12.92C21.51 12.92 19.96 14.47 19.96 16.39Z"></path></g><g mask="url(#mask-0)"><path id="路径" fill-rule="evenodd" style="fill:#F7C0B1" opacity="1" d="M22.11 13.21C21.69 13.39 21.31 13.64 20.98 13.96C20.95 14 20.91 14.05 20.87 14.09C20.81 15.36 20.61 16.62 20.28 17.84C20.45 18.22 20.69 18.55 20.98 18.84C21.31 19.17 21.69 19.42 22.11 19.6C22.53 19.77 22.98 19.86 23.43 19.86C23.89 19.86 24.34 19.77 24.76 19.6C25.17 19.42 25.56 19.17 25.88 18.84L25.88 18.86C26.2 18.54 26.45 18.16 26.63 17.74C26.8 17.32 26.89 16.87 26.89 16.41C26.89 15.96 26.8 15.51 26.63 15.09C26.45 14.67 26.2 14.29 25.88 13.96C25.56 13.64 25.17 13.39 24.75 13.21C24.33 13.04 23.88 12.95 23.43 12.95C22.98 12.95 22.53 13.04 22.11 13.21Z"></path></g></g></svg>