<svg xmlns="http://www.w3.org/2000/svg" xmlns:xlink="http://www.w3.org/1999/xlink" width="32" height="32" viewBox="0 0 32 32" fill="none"><g opacity="1"  transform="translate(0 0)  rotate(0)"><mask id="mask-0" fill="white"><path d="M0 32L32 32L32 0L0 0L0 32Z"  ></path></mask><g mask="url(#mask-0)"></g><g mask="url(#mask-0)"><path id="路径" fill-rule="evenodd" style="fill:#FF7F5C" opacity="1" d="M23.36 7.57999L16 0.23999L1.07 0.23999C0.79 0.23999 0.52 0.34999 0.31 0.54999C0.11 0.75999 0 1.02999 0 1.31999L0 30.67C0 30.96 0.11 31.23 0.31 31.44C0.52 31.64 0.79 31.75 1.07 31.75L22.29 31.75C22.57 31.75 22.84 31.63 23.04 31.43C23.25 31.23 23.36 30.96 23.36 30.67L23.36 7.57999Z"></path></g><g mask="url(#mask-0)"><path id="路径" fill-rule="evenodd" style="fill:#FD744E" opacity="1" d="M18.68 24.67C17.22 27.49 15.1 29.92 12.5 31.75L22.29 31.75C22.58 31.75 22.85 31.63 23.05 31.43C23.25 31.23 23.37 30.96 23.37 30.67L23.37 7.57999L16 0.23999L13.69 0.23999C14.52 0.92999 15.29 1.67999 16 2.48999C17.34 4.01999 18.43 5.72999 19.24 7.57999C20.34 10.09 20.91 12.8 20.9 15.53C20.91 18.71 20.15 21.85 18.68 24.67Z"></path></g><g mask="url(#mask-0)"><path id="路径" fill-rule="evenodd" style="fill:#F3A28B" opacity="1" d="M3.21999 2.19999L11.6 2.19999C12.14 2.19999 12.58 1.75999 12.58 1.21999C12.58 0.67999 12.14 0.23999 11.6 0.23999L3.21999 0.23999C2.67999 0.23999 2.23999 0.67999 2.23999 1.21999C2.23999 1.75999 2.67999 2.19999 3.21999 2.19999Z"></path></g><g mask="url(#mask-0)"><path id="路径" fill-rule="evenodd" style="fill:#F9CABD" opacity="1" d="M4.35 2.19999L9.51999 2.19999C10.06 2.19999 10.5 1.75999 10.5 1.21999C10.5 0.67999 10.06 0.23999 9.51999 0.23999L4.35 0.23999C3.81 0.23999 3.37 0.67999 3.37 1.21999C3.37 1.75999 3.81 2.19999 4.35 2.19999Z"></path></g><g mask="url(#mask-0)"><path id="路径" fill-rule="evenodd" style="fill:#012C54" opacity="1" d="M16.32 7.27999C16.42 7.37999 16.54 7.45999 16.67 7.50999C16.81 7.56999 16.95 7.58999 17.1 7.58999L23.37 7.58999L16 0.23999L16 6.49999C16 6.63999 16.03 6.78999 16.08 6.91999C16.13 7.04999 16.21 7.16999 16.32 7.27999Z"></path></g><g mask="url(#mask-0)"><path id="路径" fill-rule="evenodd" style="fill:#002044" opacity="1" d="M16 2.48999C17.33 4.00999 18.42 5.72999 19.24 7.57999L23.36 7.57999L16 0.23999L16 2.48999Z"></path></g><g mask="url(#mask-0)"><path id="路径" fill-rule="evenodd" style="fill:#FFE7E0" opacity="1" d="M2.21997 6.67995C2.21997 7.02995 2.50997 7.31995 2.85997 7.31995L9.75997 7.31995C10.11 7.31995 10.4 7.02995 10.4 6.67995L10.4 6.58995C10.4 6.23995 10.11 5.94995 9.75997 5.94995L2.85997 5.94995C2.50997 5.94995 2.21997 6.23995 2.21997 6.58995L2.21997 6.67995Z"></path></g><g mask="url(#mask-0)"><path id="路径" fill-rule="evenodd" style="fill:#FED0C3" opacity="1" d="M2.21997 10.2999C2.21997 10.6499 2.50997 10.9399 2.85997 10.9399L13.55 10.9399C13.9 10.9399 14.19 10.6499 14.19 10.2999L14.19 10.2099C14.19 9.85995 13.9 9.56995 13.55 9.56995L2.85997 9.56995C2.50997 9.56995 2.21997 9.85995 2.21997 10.2099L2.21997 10.2999Z"></path></g><g mask="url(#mask-0)"><path id="路径" fill-rule="evenodd" style="fill:#FFE7E0" opacity="1" d="M2.21997 13.9C2.21997 14.25 2.50997 14.54 2.85997 14.54L8.79997 14.54C9.14997 14.54 9.43997 14.25 9.43997 13.9L9.43997 13.81C9.43997 13.46 9.14997 13.17 8.79997 13.17L2.85997 13.17C2.50997 13.17 2.21997 13.46 2.21997 13.81L2.21997 13.9Z"></path></g><g mask="url(#mask-0)"><path id="路径" fill-rule="evenodd" style="fill:#FED0C3" opacity="1" d="M10.9399 13.94C10.9399 14.29 11.2299 14.58 11.5799 14.58L15.5399 14.58C15.8899 14.58 16.1799 14.29 16.1799 13.94L16.1799 13.85C16.1799 13.5 15.8899 13.21 15.5399 13.21L11.5799 13.21C11.2299 13.21 10.9399 13.5 10.9399 13.85L10.9399 13.94Z"></path></g><g mask="url(#mask-0)"><path id="路径" fill-rule="evenodd" style="fill:#012C54" opacity="1" d="M11.42 26.62C11.36 26.6 11.29 26.6 11.22 26.62C11.16 26.63 11.1 26.66 11.04 26.7C10.99 26.74 10.94 26.79 10.9 26.84C10.79 27.02 10.63 27.15 10.44 27.24C10.25 27.33 10.04 27.37 9.84 27.34C9.62 27.32 9.41001 27.24 9.23001 27.11C9.06001 26.98 8.92 26.81 8.84 26.6C8.72001 26.32 8.63 26.02 8.55 25.73C8.51 25.56 8.42 25.42 8.29 25.31C8.16001 25.2 8 25.14 7.83 25.13C7.67 25.11 7.5 25.14 7.35 25.23C7.20001 25.31 7.09 25.44 7.01 25.59L6.94 25.75C6.73 25.2 6.56 24.63 6.44 24.06C6.41001 23.9 6.33 23.76 6.21 23.65C6.09 23.54 5.94 23.47 5.78 23.46C5.62 23.44 5.46 23.47 5.32 23.55C5.18001 23.63 5.07 23.75 5 23.89C4.25 25.3 3.4 26.66 2.47 27.96C2.39 28.07 2.36 28.2 2.39 28.33C2.41 28.46 2.48 28.58 2.59 28.65C2.68 28.72 2.78 28.75 2.88 28.75C2.96 28.75 3.04 28.74 3.12 28.7C3.19 28.67 3.26 28.62 3.31 28.55C4.14001 27.38 4.91 26.16 5.62 24.91C5.74 25.38 5.89001 25.84 6.08 26.29C6.15 26.46 6.27001 26.6 6.41001 26.7C6.56 26.8 6.74001 26.86 6.92 26.86C7.07 26.86 7.22001 26.82 7.36 26.75C7.5 26.68 7.61 26.57 7.70001 26.45C7.76 26.64 7.83 26.82 7.9 27C8.06001 27.36 8.31001 27.68 8.63 27.91C8.95 28.14 9.33 28.28 9.73001 28.32C10.11 28.37 10.5 28.31 10.86 28.15C11.21 27.99 11.51 27.73 11.73 27.41C11.76 27.41 11.76 27.37 11.76 27.37C11.82 27.26 11.85 27.13 11.82 27C11.79 26.87 11.71 26.76 11.61 26.69C11.55 26.65 11.49 26.63 11.42 26.62Z"></path></g><g mask="url(#mask-0)"><path id="路径" fill-rule="evenodd" style="fill:#F8B3A0" opacity="1" d="M25.9014 7.05904L15.9845 24.312L20.3368 26.8137L30.2537 9.56069C30.5228 9.09252 30.5949 8.54571 30.4498 8.03556C30.3184 7.52172 29.9722 7.08052 29.5127 6.8164L28.6457 6.31806C28.1862 6.05394 27.6307 5.97688 27.1206 6.12195C26.6067 6.25336 26.1705 6.59087 25.9014 7.05904Z"></path></g><g mask="url(#mask-0)"><path id="路径" fill-rule="evenodd" style="fill:#F2A28C" opacity="1" d="M29.42 6.80003L28.57 6.30003C28.11 6.03003 27.56 5.96003 27.05 6.10003C26.54 6.23003 26.1 6.57003 25.84 7.03003L20.91 15.53C20.92 19.04 19.99 22.49 18.22 25.53L20.22 26.69L30.13 9.50003C30.39 9.04003 30.46 8.51003 30.32 8.00003C30.19 7.50003 29.86 7.07003 29.42 6.80003Z"></path></g><g mask="url(#mask-0)"><path id="路径" fill-rule="evenodd" style="fill:#012C54" opacity="1" d="M28.5701 10.95C28.5701 11.02 28.5701 11.09 28.5901 11.15C28.6101 11.21 28.6401 11.28 28.6801 11.33C28.7301 11.38 28.7801 11.42 28.8401 11.45L30.3801 12.34C30.4601 12.39 30.5401 12.41 30.6301 12.41C30.7201 12.41 30.8001 12.39 30.8801 12.35C30.9501 12.31 31.0201 12.25 31.0601 12.18C31.1301 12.06 31.1501 11.93 31.1101 11.8C31.0801 11.67 30.9901 11.56 30.8801 11.5L29.3401 10.59C29.2801 10.55 29.2201 10.53 29.1501 10.52C29.0801 10.51 29.0201 10.51 28.9501 10.52C28.8901 10.54 28.8201 10.57 28.7701 10.61C28.7201 10.65 28.6701 10.7 28.6401 10.76C28.6001 10.82 28.5801 10.88 28.5701 10.95Z"></path></g><g mask="url(#mask-0)"><path id="路径" fill-rule="evenodd" style="fill:#012C54" opacity="1" d="M27.7825 5.21758L26.6475 7.18345L29.5573 8.86345L30.6923 6.89758C30.9023 6.53385 30.9501 6.1111 30.849 5.70629C30.7342 5.30514 30.4764 4.97158 30.1213 4.76658L29.9135 4.64658C29.5584 4.44158 29.1407 4.38514 28.7359 4.48629C28.3347 4.6011 27.9925 4.85385 27.7825 5.21758Z"></path></g><g mask="url(#mask-0)"><path id="路径" fill-rule="evenodd" style="fill:#FD8C6D" opacity="1" d="M30.34 7.98C30.21 7.47 29.87 7.03 29.41 6.77L28.56 6.27C28.1 6 27.56 5.93 27.05 6.07C26.53 6.2 26.1 6.54 25.83 7L21.39 14.71L25.71 17.2L30.14 9.5C30.41 9.04 30.48 8.49 30.34 7.98Z"></path></g><g mask="url(#mask-0)"><path id="路径" fill-rule="evenodd" style="fill:#012C54" opacity="1" d="M15.83 28.3299C15.83 28.4299 15.85 28.5199 15.9 28.6099C15.95 28.6899 16.02 28.7599 16.1 28.8099C16.18 28.8599 16.28 28.8799 16.37 28.8799C16.47 28.8799 16.56 28.8499 16.65 28.7999L17.65 28.2199L15.83 27.1899L15.83 28.3299Z"></path></g><g mask="url(#mask-0)"><path id="路径" fill-rule="evenodd" style="fill:#002044" opacity="1" d="M15.9301 28.6399C16.0101 28.7499 16.1301 28.8299 16.2601 28.8599C16.3901 28.8899 16.5301 28.8599 16.6501 28.7999L17.6501 28.2099L16.7201 27.6899C16.4701 28.0199 16.2001 28.3299 15.9301 28.6399Z"></path></g><g mask="url(#mask-0)"><path id="路径" fill-rule="evenodd" style="fill:#FFFFFF" opacity="1" d="M15.87 27.19L17.65 28.22L20.22 26.7L15.91 24.21L15.87 27.19Z"></path></g><g mask="url(#mask-0)"><path id="路径" fill-rule="evenodd" style="fill:#FEF7F6" opacity="1" d="M16.74 27.69L17.65 28.19L20.21 26.69L18.2 25.54C17.76 26.29 17.27 27.01 16.74 27.69Z"></path></g><g mask="url(#mask-0)"><path id="路径" fill-rule="evenodd" style="fill:#012C54" opacity="1" d="M31.7499 9.97002C31.6299 9.90002 31.4999 9.88002 31.3699 9.92002C31.2399 9.95002 31.1299 10.04 31.0599 10.15L27.7099 15.97C27.6399 16.08 27.6199 16.22 27.6599 16.35C27.6899 16.47 27.7699 16.58 27.8899 16.65C27.9599 16.69 28.0499 16.72 28.1399 16.72C28.2199 16.72 28.3099 16.7 28.3899 16.65C28.4599 16.61 28.5299 16.55 28.5699 16.47L31.9299 10.65C31.9999 10.54 32.0199 10.4 31.9799 10.27C31.9499 10.14 31.8599 10.03 31.7499 9.97002Z"></path></g></g></svg>