<svg xmlns="http://www.w3.org/2000/svg" xmlns:xlink="http://www.w3.org/1999/xlink" width="32" height="32" viewBox="0 0 32 32" fill="none"><g opacity="1"  transform="translate(0 0)  rotate(0)"><mask id="mask-0" fill="white"><path d="M0 32L32 32L32 0L0 0L0 32Z"  ></path></mask><g mask="url(#mask-0)"></g><g mask="url(#mask-0)"><g opacity="1"  transform="translate(0.030029296875 2.4599609375)  rotate(0)"><path id="路径" fill-rule="evenodd" style="fill:#FF7F5C" opacity="1" d="M13.54 22.9C15.56 22.56 17.45 21.68 19.02 20.36C20.59 19.04 21.78 17.33 22.47 15.4C22.63 14.96 22.7 14.48 22.67 14.01C22.65 13.54 22.53 13.07 22.32 12.65C22.12 12.22 21.84 11.84 21.49 11.52C21.14 11.2 20.73 10.96 20.28 10.8L15.97 9.26C15.56 9.11 15.17 8.88 14.84 8.58C14.51 8.29 14.24 7.93 14.05 7.53C13.86 7.12 13.75 6.69 13.73 6.25C13.71 5.8 13.77 5.36 13.92 4.94C14.14 4.34 14.2 3.7 14.1 3.07C13.99 2.44 13.72 1.85 13.32 1.36C12.92 0.87 12.4 0.48 11.8 0.25C11.21 0.02 10.57 -0.05 9.94 0.04C7.91 0.33 5.99 1.15 4.38 2.43C2.78 3.7 1.54 5.38 0.79 7.29C0.05 9.2 -0.18 11.27 0.14 13.29C0.46 15.32 1.31 17.22 2.61 18.81C3.9 20.4 5.6 21.62 7.52 22.34C9.44 23.05 11.51 23.25 13.54 22.9Z"></path><path id="路径" fill-rule="evenodd" style="fill:#FFFFFF" opacity="1" d="M10.3 3.79999C9.64001 2.86999 8.03001 2.88999 6.72001 3.82999C5.41001 4.75999 4.88001 6.27999 5.54001 7.20999C6.21001 8.12999 7.81001 8.10999 9.13001 7.16999C10.44 6.22999 10.97 4.71999 10.3 3.79999Z"></path></g></g><g mask="url(#mask-0)"><path id="路径" fill-rule="evenodd" style="fill:#FD744E" opacity="1" d="M20.31 13.29L16.91 12.08C16.83 14.84 15.98 17.52 14.46 19.82C12.93 22.12 10.79 23.94 8.28003 25.08C11.12 25.94 14.18 25.66 16.83 24.32C19.48 22.98 21.51 20.67 22.5 17.87C22.81 16.97 22.76 15.99 22.34 15.13C21.93 14.27 21.2 13.61 20.31 13.29Z"></path></g><g mask="url(#mask-0)"><path id="路径" fill-rule="evenodd" style="fill:#F3A28B" opacity="1" d="M2 20.46C2.09 20.59 2.22 20.69 2.37 20.75C2.52 20.8 2.69 20.8 2.84 20.76C3 20.71 3.13 20.62 3.23 20.49C3.33 20.36 3.38 20.2 3.38 20.04L3.37 20.04C3.37 19.8899 3.33 19.75 3.24 19.62C2.06 17.8899 1.45 15.82 1.5 13.72C1.55 11.62 2.27 9.58995 3.54 7.91995C3.64 7.78995 3.69 7.62995 3.69 7.46995C3.69 7.30995 3.64 7.14995 3.55 7.01995C3.46 6.88995 3.33 6.78995 3.18 6.73995C3.03 6.68995 2.87 6.68995 2.72 6.72995C2.56 6.77995 2.43 6.86995 2.33 6.99995C0.88 8.91995 0.06 11.26 0 13.67C-0.06 16.09 0.64 18.46 2 20.46Z"></path></g><g mask="url(#mask-0)"><path id="路径" fill-rule="evenodd" style="fill:#F9CABD" opacity="1" d="M2.22999 8.54995C2.10999 8.47995 1.98999 8.44995 1.85999 8.44995C1.71999 8.44995 1.58999 8.48995 1.46999 8.55995C1.34999 8.62995 1.24999 8.72995 1.18999 8.85995C0.98999 9.25995 0.80999 9.68995 0.64999 10.12C-0.23001 12.61 -0.23001 15.34 0.64999 17.83C0.70999 17.9799 0.79999 18.1 0.92999 18.19C1.04999 18.28 1.19999 18.33 1.35999 18.33L1.36999 18.3C1.48999 18.3 1.60999 18.27 1.70999 18.21C1.81999 18.16 1.90999 18.08 1.97999 17.9799C2.03999 17.88 2.08999 17.77 2.09999 17.65C2.11999 17.53 2.10999 17.41 2.06999 17.3C1.29999 15.14 1.29999 12.78 2.06999 10.62C2.19999 10.25 2.34999 9.88995 2.52999 9.53995C2.58999 9.42995 2.60999 9.29995 2.60999 9.16995C2.59999 9.03995 2.56999 8.91995 2.49999 8.80995C2.42999 8.69995 2.33999 8.60995 2.22999 8.54995Z"></path></g><g mask="url(#mask-0)"><path id="路径" fill-rule="evenodd" style="fill:#FFD3C7" opacity="1" d="M6.08997 20.22C6.08997 21.32 6.97997 22.21 8.07997 22.21C9.17997 22.21 10.07 21.32 10.07 20.22C10.07 19.12 9.17997 18.23 8.07997 18.23C6.97997 18.23 6.08997 19.12 6.08997 20.22Z"></path></g><g mask="url(#mask-0)"></g><g mask="url(#mask-0)"><path id="路径" fill-rule="evenodd" style="fill:#FFFFFF" opacity="1" d="M2.59998 14.41C2.59998 15.51 3.48998 16.4 4.58998 16.4C5.68998 16.4 6.57998 15.51 6.57998 14.41C6.57998 13.31 5.68998 12.42 4.58998 12.42C3.48998 12.42 2.59998 13.31 2.59998 14.41Z"></path></g><g mask="url(#mask-0)"><path id="路径" fill-rule="evenodd" style="fill:#FF3700" opacity="1" d="M22.5717 29.5187C23.7463 29.9462 25.1948 28.9197 25.8104 27.2283C26.4226 25.5462 25.9729 23.8288 24.7983 23.4013C23.6236 22.9738 22.1752 24.0003 21.563 25.6823C20.9473 27.3738 21.3971 29.0912 22.5717 29.5187Z"></path></g><g mask="url(#mask-0)"><path id="路径" fill-rule="evenodd" style="fill:#F38263" opacity="1" d="M25.82 24.6201L27.46 21.4301L24.02 20.1801L23.23 23.6701L25.82 24.6201Z"></path></g><g mask="url(#mask-0)"><path id="路径" fill-rule="evenodd" style="fill:#FEA086" opacity="1" d="M23.8 21.6399L26.68 22.6899C26.75 22.7099 26.82 22.7199 26.89 22.7199C26.95 22.7099 27.02 22.6999 27.08 22.6699C27.14 22.6299 27.2 22.5899 27.24 22.5399C27.28 22.4899 27.32 22.4299 27.33 22.3599L31.95 6.99995C32.02 6.72995 32 6.43995 31.87 6.17995C31.74 5.92995 31.52 5.73995 31.26 5.63995C30.99 5.53995 30.69 5.54995 30.43 5.65995C30.16 5.76995 29.95 5.97995 29.84 6.24995L23.5 20.9999C23.48 21.0599 23.47 21.1199 23.47 21.1899C23.47 21.2599 23.49 21.3199 23.52 21.3799C23.54 21.4399 23.58 21.4899 23.63 21.5399C23.68 21.5799 23.74 21.6199 23.8 21.6399Z"></path></g><g mask="url(#mask-0)"><path id="路径" fill-rule="evenodd" style="fill:#F94210" opacity="1" d="M26.6124 24.1828L22.8912 22.8284C22.5811 22.7155 22.2479 22.8709 22.135 23.181C22.0221 23.4911 22.1775 23.8243 22.4876 23.9372L26.2088 25.2916C26.5189 25.4045 26.8522 25.2491 26.965 24.939C27.0779 24.6289 26.9225 24.2956 26.6124 24.1828Z"></path></g></g></svg>