<svg xmlns="http://www.w3.org/2000/svg" xmlns:xlink="http://www.w3.org/1999/xlink" width="32" height="32" viewBox="0 0 32 32" fill="none"><g opacity="1"  transform="translate(0 0)  rotate(0)"><mask id="mask-0" fill="white"><path d="M0 32L32 32L32 0L0 0L0 32Z"  ></path></mask><g mask="url(#mask-0)"></g><g mask="url(#mask-0)"><path id="路径" fill-rule="evenodd" style="fill:#FFBFAD" opacity="1" d="M2.30005 6.86997L2.30005 24.87L29.71 24.87L29.71 6.86997C29.71 6.32997 29.5 5.81997 29.11 5.43997C28.73 5.04997 28.21 4.83997 27.68 4.83997L4.33005 4.83997C3.80005 4.83997 3.28005 5.04997 2.90005 5.43997C2.51005 5.81997 2.30005 6.32997 2.30005 6.86997Z"></path></g><g mask="url(#mask-0)"><path id="路径" fill-rule="evenodd" style="fill:#FDA891" opacity="1" d="M28.44 4.98997C28.19 4.88997 27.93 4.83997 27.66 4.83997L18.66 4.83997C20.48 8.10997 21.07 11.92 20.35 15.59C19.62 19.25 17.62 22.55 14.7 24.88L29.7 24.88L29.7 6.87997C29.7 6.60997 29.65 6.33997 29.54 6.09997C29.44 5.84997 29.29 5.61997 29.1 5.42997C28.91 5.24997 28.69 5.09997 28.44 4.98997Z"></path></g><g mask="url(#mask-0)"><path id="路径" fill-rule="evenodd" style="fill:#FFDBD1" opacity="1" d="M5.27002 6.33997L15.68 6.33997C16.09 6.33997 16.43 5.99997 16.43 5.58997C16.43 5.17997 16.09 4.83997 15.68 4.83997L5.27002 4.83997C4.86002 4.83997 4.52002 5.17997 4.52002 5.58997C4.52002 5.99997 4.86002 6.33997 5.27002 6.33997Z"></path></g><g mask="url(#mask-0)"><path id="路径" fill-rule="evenodd" style="fill:#FFF7F5" opacity="1" d="M7.14001 6.33997L13.74 6.33997C14.15 6.33997 14.49 5.99997 14.49 5.58997C14.49 5.17997 14.15 4.83997 13.74 4.83997L7.14001 4.83997C6.73001 4.83997 6.39001 5.17997 6.39001 5.58997C6.39001 5.99997 6.73001 6.33997 7.14001 6.33997Z"></path></g><g mask="url(#mask-0)"><path id="路径" fill-rule="evenodd" style="fill:#FF673D" opacity="1" d="M31.71 22.2201C31.52 22.0401 31.27 21.9301 31 21.9301L1 21.9301C0.73 21.9301 0.48 22.0401 0.29 22.2201C0.11 22.4101 0 22.6601 0 22.9301L0 24.1601C0 24.9601 0.32 25.7201 0.88 26.2801C1.44 26.8401 2.2 27.1601 3 27.1601L29 27.1601C29.8 27.1601 30.56 26.8401 31.12 26.2801C31.68 25.7201 32 24.9601 32 24.1601L32 22.9301C32 22.6601 31.89 22.4101 31.71 22.2201Z"></path></g><g mask="url(#mask-0)"><path id="路径" fill-rule="evenodd" style="fill:#FF5F33" opacity="1" d="M31.71 22.2201C31.52 22.0401 31.27 21.9301 31 21.9301L17.56 21.9301C17.07 22.5901 16.53 23.2101 15.95 23.7901C15.55 24.1801 15.14 24.5401 14.71 24.8901C13.53 25.8201 12.22 26.5901 10.83 27.1601L29 27.1601C29.8 27.1601 30.56 26.8401 31.12 26.2801C31.68 25.7201 32 24.9601 32 24.1601L32 22.9301C32 22.6601 31.89 22.4101 31.71 22.2201Z"></path></g><g mask="url(#mask-0)"><path id="路径" fill-rule="evenodd" style="fill:#FF6F47" opacity="1" d="M2.33997 23.4301L7.85997 23.4301C8.26997 23.4301 8.60997 23.0901 8.60997 22.6801C8.60997 22.2701 8.26997 21.9301 7.85997 21.9301L2.33997 21.9301C1.92997 21.9301 1.58997 22.2701 1.58997 22.6801C1.58997 23.0901 1.92997 23.4301 2.33997 23.4301Z"></path></g><g mask="url(#mask-0)"><path id="路径" fill-rule="evenodd" style="fill:#FF7752" opacity="1" d="M3.53003 23.4301L6.71003 23.4301C7.12003 23.4301 7.46003 23.0901 7.46003 22.6801C7.46003 22.2701 7.12003 21.9301 6.71003 21.9301L3.53003 21.9301C3.12003 21.9301 2.78003 22.2701 2.78003 22.6801C2.78003 23.0901 3.12003 23.4301 3.53003 23.4301Z"></path></g><g mask="url(#mask-0)"><path id="路径" fill-rule="evenodd" style="fill:#FF7F5C" opacity="1" d="M10.13 23.1601C10.2 23.3501 10.33 23.5001 10.5 23.6201C10.66 23.7301 10.86 23.7901 11.05 23.7901L20.94 23.7901C21.13 23.7901 21.33 23.7301 21.49 23.6201C21.66 23.5001 21.79 23.3501 21.86 23.1601L22.36 21.9301L9.63 21.9301L10.13 23.1601Z"></path></g><g mask="url(#mask-0)"><path id="路径" fill-rule="evenodd" style="fill:#FD744E" opacity="1" d="M15.9301 23.7901L20.9301 23.7901C21.1301 23.7901 21.3301 23.7301 21.4901 23.6201C21.6601 23.5101 21.7901 23.3501 21.8601 23.1601L22.3601 21.9301L17.5501 21.9301C17.0601 22.5901 16.5201 23.2101 15.9301 23.7901Z"></path></g><g mask="url(#mask-0)"><path id="路径" fill-rule="evenodd" style="fill:#012C54" opacity="1" d="M22.3601 16.52C22.3601 17.62 23.2601 18.52 24.3601 18.52L30.0001 18.52C31.1001 18.52 32.0001 17.62 32.0001 16.52L32.0001 4.63C32.0001 3.53 31.1001 2.63 30.0001 2.63L24.3601 2.63C23.2601 2.63 22.3601 3.53 22.3601 4.63L22.3601 16.52Z"></path></g><g mask="url(#mask-0)"><path id="路径" fill-rule="evenodd" style="fill:#FFFFFF" opacity="1" d="M25.2101 17.05L29.1501 17.05C29.3601 17.05 29.5301 16.88 29.5301 16.68C29.5301 16.47 29.3601 16.3 29.1501 16.3L25.2101 16.3C25.0001 16.3 24.8301 16.47 24.8301 16.68C24.8301 16.88 25.0001 17.05 25.2101 17.05Z"></path></g><g mask="url(#mask-0)"><path id="路径" fill-rule="evenodd" style="fill:#FFFFFF" opacity="1" d="M26.6899 4.43994C26.6899 4.70994 26.9099 4.92994 27.1899 4.92994C27.4599 4.92994 27.6799 4.70994 27.6799 4.43994C27.6799 4.15994 27.4599 3.93994 27.1899 3.93994C26.9099 3.93994 26.6899 4.15994 26.6899 4.43994Z"></path></g><g mask="url(#mask-0)"><path id="路径" fill-rule="evenodd" style="fill:#FFFFFF" opacity="1" d="M5.27995 8.82002L10.71 8.82002C11.03 8.82002 11.29 8.56002 11.29 8.24002C11.29 7.91002 11.03 7.65002 10.71 7.65002L5.27995 7.65002C4.95995 7.65002 4.69995 7.91002 4.69995 8.24002C4.69995 8.56002 4.95995 8.82002 5.27995 8.82002Z"></path></g><g mask="url(#mask-0)"><path id="路径" fill-rule="evenodd" style="fill:#FFEFEB" opacity="1" d="M5.38004 11.34L8.46004 11.34C8.79004 11.34 9.05004 11.08 9.05004 10.76C9.05004 10.43 8.79004 10.17 8.46004 10.17L5.38004 10.17C5.05004 10.17 4.79004 10.43 4.79004 10.76C4.79004 11.08 5.05004 11.34 5.38004 11.34Z"></path></g><g mask="url(#mask-0)"><path id="路径" fill-rule="evenodd" style="fill:#FFFFFF" opacity="1" d="M10.1599 11.34L15.5499 11.34C15.8799 11.34 16.1399 11.08 16.1399 10.76C16.1399 10.43 15.8799 10.17 15.5499 10.17L10.1599 10.17C9.82995 10.17 9.56995 10.43 9.56995 10.76C9.56995 11.08 9.82995 11.34 10.1599 11.34Z"></path></g><g mask="url(#mask-0)"><path id="路径" fill-rule="evenodd" style="fill:#FFEFEB" opacity="1" d="M15.2699 8.82002L18.1899 8.82002C18.5099 8.82002 18.7699 8.56002 18.7699 8.24002C18.7699 7.91002 18.5099 7.65002 18.1899 7.65002L15.2699 7.65002C14.9499 7.65002 14.6899 7.91002 14.6899 8.24002C14.6899 8.56002 14.9499 8.82002 15.2699 8.82002Z"></path></g><g mask="url(#mask-0)"><path id="路径" fill-rule="evenodd" style="fill:#FFEFEB" opacity="1" d="M17.23 11.34L18.19 11.34C18.51 11.34 18.77 11.08 18.77 10.76C18.77 10.43 18.51 10.17 18.19 10.17L17.23 10.17C16.91 10.17 16.65 10.43 16.65 10.76C16.65 11.08 16.91 11.34 17.23 11.34Z"></path></g><g mask="url(#mask-0)"><path id="路径" fill-rule="evenodd" style="fill:#FFEFEB" opacity="1" d="M12.49 8.82002L13.23 8.82002C13.56 8.82002 13.82 8.56002 13.82 8.24002C13.82 7.91002 13.56 7.65002 13.23 7.65002L12.49 7.65002C12.16 7.65002 11.9 7.91002 11.9 8.24002C11.9 8.56002 12.16 8.82002 12.49 8.82002Z"></path></g><g mask="url(#mask-0)"><path id="路径" fill-rule="evenodd" style="fill:#FD8C6D" opacity="1" d="M8.60001 14.46C8.60001 14.4 8.59001 14.33 8.56001 14.27C8.54001 14.21 8.50001 14.15 8.45001 14.11C8.41001 14.06 8.35001 14.02 8.29001 14C8.23001 13.97 8.16001 13.96 8.10001 13.96C8.03001 13.96 7.97001 13.97 7.91001 14C7.84001 14.02 7.79001 14.06 7.74001 14.11L5.41001 16.45C5.31001 16.55 5.26001 16.67 5.26001 16.81C5.26001 16.94 5.31001 17.06 5.41001 17.16L7.74001 19.5C7.79001 19.55 7.84001 19.58 7.91001 19.61C7.97001 19.64 8.03001 19.65 8.10001 19.65C8.23001 19.66 8.35001 19.61 8.45001 19.53C8.50001 19.48 8.54001 19.43 8.56001 19.37C8.59001 19.31 8.60001 19.24 8.60001 19.17C8.60001 19.11 8.59001 19.04 8.56001 18.98C8.54001 18.92 8.50001 18.87 8.45001 18.82L6.45001 16.82L8.45001 14.82C8.50001 14.77 8.54001 14.72 8.56001 14.65C8.59001 14.59 8.60001 14.53 8.60001 14.46Z"></path></g><g mask="url(#mask-0)"><path id="路径" fill-rule="evenodd" style="fill:#FD8C6D" opacity="1" d="M17.34 16.7799C17.34 16.6499 17.29 16.5199 17.19 16.4299L14.86 14.0899C14.76 13.9899 14.64 13.9399 14.5 13.9399C14.37 13.9399 14.24 13.9899 14.15 14.0899C14.05 14.1799 14 14.3099 14 14.4399C14 14.5699 14.05 14.6999 14.15 14.7999L16.15 16.7999L14.15 18.7999C14.1 18.8399 14.06 18.8999 14.04 18.9599C14.01 19.0199 14 19.0799 14 19.1499C14 19.2199 14.01 19.2799 14.04 19.3399C14.06 19.3999 14.1 19.4599 14.15 19.5099C14.19 19.5499 14.25 19.5899 14.31 19.6099C14.37 19.6399 14.44 19.6499 14.5 19.6499C14.63 19.6399 14.75 19.5899 14.84 19.4999L17.19 17.1399C17.29 17.0399 17.34 16.9199 17.34 16.7799Z"></path></g><g mask="url(#mask-0)"><path id="路径" fill-rule="evenodd" style="fill:#FD8C6D" opacity="1" d="M12.04 14C11.98 14.04 11.93 14.08 11.88 14.13C11.84 14.19 11.81 14.25 11.79 14.32L10.06 19C10.02 19.12 10.03 19.25 10.09 19.37C10.14 19.48 10.24 19.57 10.36 19.62C10.41 19.64 10.47 19.65 10.53 19.65C10.63 19.65 10.73 19.62 10.82 19.56C10.9 19.5 10.97 19.42 11 19.32L12.72 14.66C12.75 14.6 12.77 14.53 12.77 14.46C12.77 14.39 12.76 14.32 12.73 14.26C12.71 14.2 12.67 14.14 12.62 14.09C12.57 14.04 12.51 14 12.44 13.98C12.38 13.96 12.31 13.95 12.24 13.95C12.17 13.96 12.1 13.97 12.04 14Z"></path></g></g></svg>