<svg xmlns="http://www.w3.org/2000/svg" xmlns:xlink="http://www.w3.org/1999/xlink" width="195" height="190" viewBox="0 0 195 190" fill="none"><g opacity="1"  transform="translate(0 0)  rotate(0)"><g opacity="1"  transform="translate(0 0)  rotate(0)"><path id="路径" fill-rule="evenodd" style="fill:#E0E0E0" opacity="1" d="M136.32 36.25L186.87 36.25L186.87 1.07999L134.5 1.31999L136.32 36.25Z"></path><path id="路径" fill-rule="evenodd" style="fill:#FFFFFF" opacity="1" d="M185.05 1.31998L134.5 1.31998L134.5 36.17L185.05 36.17L185.05 1.31998Z"></path><g opacity="1"  transform="translate(134.260009765625 1.079986572265625)  rotate(0)"><path id="路径" fill-rule="evenodd" style="fill:#E0E0E0" opacity="1" d="M0 0L0 35.33L51.03 35.33L51.03 0L0 0Z"></path><path id="路径" fill-rule="evenodd" style="fill:#E0E0E0" opacity="1" d="M50.55 0.480011L0.47998 0.480011L0.47998 34.85L50.55 34.85L50.55 0.480011Z"></path></g><path id="路径" fill-rule="evenodd" style="fill:#FFFFFF" opacity="1" d="M179.58 31.84L179.58 5.64999L139.98 5.64999L139.98 31.84L179.58 31.84Z"></path><g opacity="1"  transform="translate(139.79998779296875 5.510009765625)  rotate(0)"><path id="路径" fill-rule="evenodd" style="fill:#E0E0E0" opacity="1" d="M28.68 0.170015L0.289978 0.230015C0.289978 8.16002 0.289978 16.95 0.289978 26.17L39.66 26.2C39.69 18.27 39.7 11.78 39.72 7.24001C39.72 4.97001 39.74 3.20001 39.74 1.98001C39.74 1.38001 39.74 0.920015 39.74 0.590015C39.74 0.360015 39.74 0.200015 39.74 0.140015L39.57 0.140015L39.01 0.140015L36.84 0.140015L28.68 0.170015Z"></path><path id="路径" fill-rule="evenodd" style="fill:#E0E0E0" opacity="1" d="M28.78 0.09L0.12 0L0 0L0 0.11C0 8.11 0 16.98 0 26.29L0 26.42L0.13 26.42L39.72 26.39L39.82 26.39L39.82 26.29C39.8 18.3 39.77 11.75 39.77 7.18C39.74 4.92 39.74 3.15 39.74 1.94C39.74 1.35 39.74 0.88 39.74 0.57C39.74 0.34 39.74 0.2 39.74 0.14L39.61 0.12L39.06 0.12L36.91 0.12L28.78 0.09Z"></path><path id="路径" fill-rule="evenodd" style="fill:#E0E0E0" opacity="1" d="M39.66 26.3L39.76 26.2L39.66 26.2C39.66 26.23 39.66 26.27 39.66 26.3Z"></path><path id="路径" fill-rule="evenodd" style="fill:#E0E0E0" opacity="1" d="M0.179993 0.229995L0.289993 0.229995C0.289993 0.189995 0.289993 0.149995 0.289993 0.119995L0.179993 0.229995Z"></path><path id="路径" fill-rule="evenodd" style="fill:#E0E0E0" opacity="1" d="M0.289983 26.17L0.169983 26.17L0.289983 26.3C0.289983 26.26 0.289983 26.21 0.289983 26.17Z"></path></g><path id="路径" fill-rule="evenodd" style="fill:#E0E0E0" opacity="1" d="M139.98 5.66001C139.77 5.38001 139.53 5.14001 139.25 4.92001C138.78 4.49001 138.11 3.91001 137.35 3.30001C136.59 2.70001 135.89 2.16001 135.37 1.79001C135.1 1.57001 134.81 1.38001 134.5 1.23001C135.35 2.04001 136.25 2.79001 137.2 3.49001C138.09 4.26001 139.02 4.98001 139.98 5.66001Z"></path><path id="路径" fill-rule="evenodd" style="fill:#E0E0E0" opacity="1" d="M179.57 5.65001C180.56 5.03001 181.5 4.34001 182.39 3.58001C183.33 2.89001 184.22 2.14001 185.05 1.32001C184.06 1.94001 183.12 2.63001 182.23 3.39001C181.29 4.08001 180.4 4.83001 179.57 5.65001Z"></path><path id="路径" fill-rule="evenodd" style="fill:#E0E0E0" opacity="1" d="M185 36.16C184.14 35.31 183.23 34.51 182.26 33.78C181.35 32.99 180.38 32.27 179.37 31.61C180.23 32.46 181.14 33.26 182.11 33.99C183.02 34.78 183.99 35.5 185 36.16Z"></path><path id="路径" fill-rule="evenodd" style="fill:#E0E0E0" opacity="1" d="M139.92 31.89C138.94 32.5 138.01 33.18 137.13 33.93C136.2 34.61 135.32 35.36 134.5 36.17C135.48 35.56 136.41 34.87 137.29 34.13C138.22 33.44 139.1 32.7 139.92 31.89Z"></path><path id="路径" fill-rule="evenodd" style="fill:#E0E0E0" opacity="1" d="M172.935 13.815L148.015 13.815L148.015 22.585L172.935 22.585L172.935 13.815Z"></path><path id="路径" fill-rule="evenodd" style="fill:#E0E0E0" opacity="1" d="M150.18 59.57L150.18 189.57L195 189.57L195 59.57L150.18 59.57Z"></path><path id="路径" fill-rule="evenodd" style="fill:#F5F5F5" opacity="1" d="M126.13 59.57L126.13 189.57L175.2 189.57L175.2 59.57L126.13 59.57Z"></path><path id="路径" fill-rule="evenodd" style="fill:#E0E0E0" opacity="1" d="M157.19 158.3L157.19 157.52L142.21 157.52L142.21 158.3C142.21 158.54 142.31 158.78 142.48 158.96C142.66 159.13 142.9 159.23 143.14 159.23L156.26 159.23C156.5 159.23 156.74 159.13 156.92 158.96C157.09 158.78 157.19 158.54 157.19 158.3Z"></path><g opacity="1"  transform="translate(128.219970703125 157.44000244140625)  rotate(0)"><path id="路径" fill-rule="evenodd" style="fill:#E0E0E0" opacity="1" d="M0.0999756 26.76L0.189976 26.86C0.189976 26.83 0.189976 26.79 0.189976 26.76L0.0999756 26.76Z"></path><path id="路径" fill-rule="evenodd" style="fill:#E0E0E0" opacity="1" d="M0.08,0.07c0,0 0.04,0.11 0.04,0.44c0,0.32 0,0.79 0,1.41c0.02,1.24 0.02,3.06 0.02,5.39c0.01,4.63 0.03,11.3 0.05,19.45h-0.09l0.09,0.1c0,-0.03 0,-0.07 0,-0.1l43.53,-0.02c0,0.04 0,0.08 0,0.12l0.12,-0.12h-0.02h-0.1c0,-9.41 0,-18.38 0,-26.57h0.12l-0.12,-0.11c0,0.04 0,0.07 0,0.11l-31.35,-0.08l-9.04,-0.04h-2.4h-0.63h-0.21h0.2h0.61h2.39l9,-0.02l31.55,-0.03h0.13v0.11c0,8.25 0,17.31 0,26.8v0.13h-0.15l-43.72,-0.03h-0.1v-0.1c0.02,-8.22 0.05,-14.94 0.05,-19.61c0.03,-2.32 0.03,-4.12 0.03,-5.36c0,-0.61 0,-1.08 0,-1.4c0,-0.31 0,-0.47 0,-0.47zM0.19,26.76h-0.09l0.09,0.1c0,-0.03 0,-0.07 0,-0.1zM43.82,26.74h-0.1c0,0.04 0,0.08 0,0.12l0.12,-0.12zM43.84,0.17l-0.12,-0.11c0,0.04 0,0.07 0,0.11z"></path><path id="路径" fill-rule="evenodd" style="fill:#E0E0E0" opacity="1" d="M43.72 0.0599976C43.72 0.0999976 43.72 0.129998 43.72 0.169998L43.84 0.169998L43.72 0.0599976Z"></path><path id="路径" fill-rule="evenodd" style="fill:#E0E0E0" opacity="1" d="M43.82 26.74L43.72 26.74C43.72 26.78 43.72 26.82 43.72 26.86L43.84 26.74L43.82 26.74Z"></path></g><path id="路径" fill-rule="evenodd" style="fill:#E0E0E0" opacity="1" d="M142.8 164.07L142.8 167.58L155.82 167.58L155.82 164.07L142.8 164.07Z"></path><path id="路径" fill-rule="evenodd" style="fill:#E0E0E0" opacity="1" d="M157.79 127.02L157.79 126.24L142.81 126.24L142.81 127.02C142.81 127.26 142.91 127.5 143.08 127.68C143.26 127.85 143.5 127.95 143.74 127.95L156.86 127.95C157.1 127.95 157.34 127.85 157.52 127.68C157.69 127.5 157.79 127.26 157.79 127.02Z"></path><g opacity="1"  transform="translate(128.3399658203125 126.16000366210938)  rotate(0)"><path id="路径" fill-rule="evenodd" style="fill:#E0E0E0" opacity="1" d="M0.16,1.93c0,1.24 0,3.06 0,5.39c0.01,4.63 0.03,11.29 0.05,19.45h-0.09l0.09,0.1c0,-0.04 0,-0.07 0,-0.1l43.53,-0.03c0,0.04 0,0.08 0,0.13l0.13,-0.13h-0.03h-0.1c0,-9.41 0,-18.37 0,-26.56h0.12l-0.12,-0.11c0,0.03 0,0.07 0,0.11l-31.35,-0.08l-9.03,-0.05h-2.41h-0.62h-0.22h0.2h0.61h2.39l9,-0.02l31.55,-0.03h0.11v0.12c0,8.24 0,17.3 0,26.8v0.12h-0.15l-43.72,-0.03h-0.1v-0.09c0.02,-8.23 0.05,-14.95 0.05,-19.62c0.03,-2.32 0.03,-4.12 0.03,-5.36c0,-0.61 0,-1.08 0,-1.4c0,-0.31 0,-0.47 0,-0.47c0,0 0.08,0.12 0.08,0.45c0,0.32 0,0.8 0,1.41zM43.86,0.18l-0.12,-0.11c0,0.03 0,0.07 0,0.11zM43.74,26.87l0.13,-0.13h-0.03h-0.1c0,0.04 0,0.08 0,0.13zM0.21,26.77h-0.09l0.09,0.1c0,-0.04 0,-0.07 0,-0.1z"></path><path id="路径" fill-rule="evenodd" style="fill:#E0E0E0" opacity="1" d="M43.86 0.180007L43.74 0.0700073C43.74 0.100007 43.74 0.140007 43.74 0.180007L43.86 0.180007Z"></path><path id="路径" fill-rule="evenodd" style="fill:#E0E0E0" opacity="1" d="M43.87 26.74L43.84 26.74L43.74 26.74C43.74 26.78 43.74 26.82 43.74 26.87L43.87 26.74Z"></path><path id="路径" fill-rule="evenodd" style="fill:#E0E0E0" opacity="1" d="M0.209995 26.77L0.119995 26.77L0.209995 26.87C0.209995 26.83 0.209995 26.8 0.209995 26.77Z"></path></g><path id="路径" fill-rule="evenodd" style="fill:#E0E0E0" opacity="1" d="M143.78 132.58L143.78 136.09L156.8 136.09L156.8 132.58L143.78 132.58Z"></path><path id="路径" fill-rule="evenodd" style="fill:#E0E0E0" opacity="1" d="M156.63 64.75C156.75 64.7 156.85 64.63 156.94 64.55C157.02 64.46 157.09 64.36 157.14 64.24C157.19 64.13 157.21 64.01 157.21 63.89L157.21 63.11L142.23 63.11L142.23 63.89C142.23 64.13 142.33 64.37 142.5 64.55C142.68 64.72 142.92 64.82 143.16 64.82L156.28 64.82C156.4 64.82 156.52 64.8 156.63 64.75Z"></path><g opacity="1"  transform="translate(128.239990234375 63.040008544921875)  rotate(0)"><path id="路径" fill-rule="evenodd" style="fill:#E0E0E0" opacity="1" d="M0.0900269 26.76L0.190027 26.86C0.190027 26.82 0.190027 26.79 0.190027 26.76L0.0900269 26.76Z"></path><path id="路径" fill-rule="evenodd" style="fill:#E0E0E0" opacity="1" d="M43.69,0.06c0,0.04 0,0.08 0,0.11l-31.35,-0.08l-9.03,-0.04h-2.41h-0.62c-0.07,0.01 -0.15,0.01 -0.22,0h0.21h0.6h2.39l9.01,-0.02l31.54,-0.03h0.16v0.12c0,8.24 0,17.29 0,26.79v0.13h-0.15l-43.72,-0.03h-0.1v-0.1c0.02,-8.22 0.05,-14.94 0.05,-19.61c0.02,-2.32 0.02,-4.12 0.02,-5.36c0,-0.61 0,-1.08 0,-1.4c0,-0.31 0,-0.47 0,-0.47c0,0 0.04,0.12 0.04,0.44c0,0.33 0,0.8 0,1.41c0.01,1.25 0.03,3.06 0.03,5.39c0.01,4.63 0.03,11.29 0.05,19.45h-0.1l0.1,0.1c0,-0.04 0,-0.07 0,-0.1l43.5,-0.03c0,0.04 0,0.09 0,0.13l0.13,-0.13h-0.13c0,-9.41 0,-18.37 0,-26.56h0.12zM43.69,0.17h0.12l-0.12,-0.11c0,0.04 0,0.08 0,0.11zM43.69,26.86l0.13,-0.13h-0.13c0,0.04 0,0.09 0,0.13zM0.19,26.76h-0.1l0.1,0.1c0,-0.04 0,-0.07 0,-0.1z"></path><path id="路径" fill-rule="evenodd" style="fill:#E0E0E0" opacity="1" d="M43.69 0.169998L43.81 0.169998L43.69 0.0599976C43.69 0.0999976 43.69 0.139998 43.69 0.169998Z"></path><path id="路径" fill-rule="evenodd" style="fill:#E0E0E0" opacity="1" d="M43.82 26.73L43.69 26.73C43.69 26.77 43.69 26.82 43.69 26.86L43.82 26.73Z"></path></g><path id="路径" fill-rule="evenodd" style="fill:#E0E0E0" opacity="1" d="M143.44 68.83L143.44 72.34L156.46 72.34L156.46 68.83L143.44 68.83Z"></path><path id="路径" fill-rule="evenodd" style="fill:#E0E0E0" opacity="1" d="M143.16 96.38L156.28 96.38C156.4 96.38 156.52 96.36 156.64 96.31C156.75 96.26 156.86 96.19 156.95 96.1C157.03 96.01 157.1 95.9 157.15 95.78C157.19 95.67 157.21 95.54 157.21 95.42L157.21 94.64L142.23 94.64L142.23 95.44C142.23 95.69 142.33 95.93 142.5 96.11C142.68 96.28 142.92 96.38 143.16 96.38Z"></path><g opacity="1"  transform="translate(128.239990234375 94.57000732421875)  rotate(0)"><path id="路径" fill-rule="evenodd" style="fill:#E0E0E0" opacity="1" d="M43.69,0.15h0.12l-0.12,-0.12c0,0.04 0,0.08 0,0.12l-31.35,-0.08l-9.03,-0.04h-2.41h-0.62h-0.22h0.21h0.6h2.39h9.01l31.54,-0.03h0.16v0.11c0,8.25 0,17.31 0,26.8v0.13h-0.15l-43.72,-0.03h-0.1v-0.09c0.02,-8.23 0.05,-14.94 0.05,-19.61c0.02,-2.33 0.02,-4.13 0.02,-5.37c0,-0.61 0,-1.08 0,-1.39c0,-0.32 0,-0.47 0,-0.47c0,0 0.04,0.08 0.04,0.41c0,0.32 0,0.79 0,1.41c0.01,1.24 0.03,3.06 0.03,5.39c0.01,4.63 0.03,11.3 0.05,19.45h-0.1l0.1,0.1c0,-0.04 0,-0.07 0,-0.1l43.5,-0.03c0,0.04 0,0.09 0,0.13l0.13,-0.13h-0.13c0,-9.4 0,-18.37 0,-26.56zM43.81,0.15l-0.12,-0.12c0,0.04 0,0.08 0,0.12zM43.69,26.84l0.13,-0.13h-0.13c0,0.04 0,0.09 0,0.13zM0.19,26.74h-0.1l0.1,0.1c0,-0.04 0,-0.07 0,-0.1z"></path><path id="路径" fill-rule="evenodd" style="fill:#E0E0E0" opacity="1" d="M43.81 0.149999L43.69 0.0299988C43.69 0.0699988 43.69 0.109999 43.69 0.149999L43.81 0.149999Z"></path><path id="路径" fill-rule="evenodd" style="fill:#E0E0E0" opacity="1" d="M43.82 26.71L43.69 26.71C43.69 26.75 43.69 26.8 43.69 26.84L43.82 26.71Z"></path><path id="路径" fill-rule="evenodd" style="fill:#E0E0E0" opacity="1" d="M0.190027 26.74L0.0900269 26.74L0.190027 26.84C0.190027 26.8 0.190027 26.77 0.190027 26.74Z"></path></g><path id="路径" fill-rule="evenodd" style="fill:#E0E0E0" opacity="1" d="M143.44 100.37L143.44 103.88L156.46 103.88L156.46 100.37L143.44 100.37Z"></path><path id="路径" fill-rule="evenodd" style="fill:#FAFAFA" opacity="1" d="M57.14 42.21L57.14 0.200012L10.15 0.200012L10.15 42.21L57.14 42.21Z"></path><g opacity="1"  transform="translate(10.08001708984375 0)  rotate(0)"><path id="路径" fill-rule="evenodd" style="fill:#E0E0E0" opacity="1" d="M47.05,42.16h-0.18h-0.65h-2.54l-9.59,-0.03l-33.87,-0.06c0,-12.29 0,-26.58 0,-41.77h46.75c0.02,12.59 0.05,23.03 0.05,30.35c0.03,3.67 0.03,6.55 0.03,8.52c0,0.99 0,1.74 0,2.25c0,0.39 0,0.64 0,0.74zM0.22,42.07l33.87,0.06l9.59,0.03h2.54h0.65h0.18h-0.17h-0.64h-2.51l-9.57,0.02l-34.05,0.06h-0.11v-0.11c0,-12.34 0,-26.72 0,-42v-0.13h0.13h46.98h0.11v0.11c-0.03,12.65 -0.04,23.16 -0.06,30.51c0,3.67 -0.02,6.52 -0.02,8.51c0,0.97 0,1.73 0,2.23c0,0.39 -0.05,0.69 -0.08,0.8h-0.01c0,-0.1 0,-0.35 0,-0.74c0,-0.51 0,-1.26 0,-2.25c0,-1.97 0,-4.85 -0.03,-8.52c0,-7.32 -0.03,-17.76 -0.05,-30.35h0.11l-0.11,-0.1c0,0.03 0,0.07 0,0.1h-46.75c0,-0.04 0,-0.08 0,-0.12l-0.12,0.12h0.12c0,15.19 0,29.48 0,41.77h-0.11l0.11,0.11c0,-0.03 0,-0.07 0,-0.11zM0.11,42.07l0.11,0.11c0,-0.03 0,-0.07 0,-0.11zM0.22,0.18l-0.12,0.12h0.12c0,-0.04 0,-0.08 0,-0.12zM46.97,0.2c0,0.03 0,0.07 0,0.1h0.11z"></path><path id="路径" fill-rule="evenodd" style="fill:#E0E0E0" opacity="1" d="M47.05 41.42C47.05 40.91 47.05 40.16 47.05 39.17C47.05 37.2 47.05 34.32 47.02 30.65C47.02 23.33 46.99 12.89 46.97 0.299988L0.219971 0.299988C0.219971 15.49 0.219971 29.78 0.219971 42.07L34.09 42.13L43.68 42.16L46.22 42.16L46.87 42.16L47.05 42.16C47.05 42.06 47.05 41.81 47.05 41.42Z"></path><path id="路径" fill-rule="evenodd" style="fill:#E0E0E0" opacity="1" d="M47.06 42.16L47.05 42.16C47.05 42.19 47.05 42.21 47.05 42.21C47.05 42.21 47.06 42.19 47.06 42.16Z"></path><path id="路径" fill-rule="evenodd" style="fill:#E0E0E0" opacity="1" d="M46.97 0.200012C46.97 0.230012 46.97 0.270012 46.97 0.300012L47.08 0.300012L46.97 0.200012Z"></path><path id="路径" fill-rule="evenodd" style="fill:#E0E0E0" opacity="1" d="M0.109985 42.07L0.219985 42.18C0.219985 42.15 0.219985 42.11 0.219985 42.07L0.109985 42.07Z"></path><path id="路径" fill-rule="evenodd" style="fill:#E0E0E0" opacity="1" d="M0.219976 0.179993L0.0999756 0.299993L0.219976 0.299993C0.219976 0.259993 0.219976 0.219993 0.219976 0.179993Z"></path></g><path id="路径" fill-rule="evenodd" style="fill:#E0E0E0" opacity="1" d="M17.12 7.67001C17.12 7.73001 19.59 7.79001 22.64 7.79001C25.7 7.79001 28.17 7.73001 28.17 7.67001C28.17 7.60001 25.7 7.54001 22.64 7.54001C19.59 7.54001 17.12 7.60001 17.12 7.67001Z"></path><path id="路径" fill-rule="evenodd" style="fill:#E0E0E0" opacity="1" d="M17.74 10.81C17.74 10.88 24.52 10.93 32.9 10.93C41.29 10.93 48.08 10.87 48.08 10.81C48.08 10.74 41.3 10.68 32.92 10.68C24.53 10.68 17.74 10.73 17.74 10.81Z"></path><path id="路径" fill-rule="evenodd" style="fill:#E0E0E0" opacity="1" d="M19.18 18.14L19.18 16.16L17.2 16.16L17.2 18.14L19.18 18.14Z"></path><path id="路径" fill-rule="evenodd" style="fill:#E0E0E0" opacity="1" d="M24.05 18.14L24.05 16.16L22.07 16.16L22.07 18.14L24.05 18.14Z"></path><path id="路径" fill-rule="evenodd" style="fill:#E0E0E0" opacity="1" d="M29.01 18.05L29.01 16.07L27.03 16.07L27.03 18.05L29.01 18.05Z"></path><path id="路径" fill-rule="evenodd" style="fill:#E0E0E0" opacity="1" d="M33.8 18.14L33.8 16.16L31.82 16.16L31.82 18.14L33.8 18.14Z"></path><path id="路径" fill-rule="evenodd" style="fill:#E0E0E0" opacity="1" d="M38.67 18.14L38.67 16.16L36.69 16.16L36.69 18.14L38.67 18.14Z"></path><path id="路径" fill-rule="evenodd" style="fill:#E0E0E0" opacity="1" d="M43.54 18.14L43.54 16.16L41.56 16.16L41.56 18.14L43.54 18.14Z"></path><path id="路径" fill-rule="evenodd" style="fill:#EBEBEB" opacity="1" d="M48.42 18.14L48.42 16.16L46.44 16.16L46.44 18.14L48.42 18.14Z"></path><path id="路径" fill-rule="evenodd" style="fill:#EBEBEB" opacity="1" d="M19.18 22.34L19.18 20.36L17.2 20.36L17.2 22.34L19.18 22.34Z"></path><path id="路径" fill-rule="evenodd" style="fill:#E0E0E0" opacity="1" d="M24.05 22.34L24.05 20.36L22.07 20.36L22.07 22.34L24.05 22.34Z"></path><path id="路径" fill-rule="evenodd" style="fill:#EBEBEB" opacity="1" d="M28.92 22.34L28.92 20.36L26.94 20.36L26.94 22.34L28.92 22.34Z"></path><path id="路径" fill-rule="evenodd" style="fill:#E0E0E0" opacity="1" d="M33.8 22.34L33.8 20.36L31.82 20.36L31.82 22.34L33.8 22.34Z"></path><path id="路径" fill-rule="evenodd" style="fill:#E0E0E0" opacity="1" d="M38.67 22.34L38.67 20.36L36.69 20.36L36.69 22.34L38.67 22.34Z"></path><path id="路径" fill-rule="evenodd" style="fill:#E0E0E0" opacity="1" d="M43.63 22.25L43.63 20.27L41.65 20.27L41.65 22.25L43.63 22.25Z"></path><path id="路径" fill-rule="evenodd" style="fill:#E0E0E0" opacity="1" d="M48.42 22.34L48.42 20.36L46.44 20.36L46.44 22.34L48.42 22.34Z"></path><path id="路径" fill-rule="evenodd" style="fill:#E0E0E0" opacity="1" d="M19.18 26.55L19.18 24.57L17.2 24.57L17.2 26.55L19.18 26.55Z"></path><path id="路径" fill-rule="evenodd" style="fill:#E0E0E0" opacity="1" d="M24.14 26.46L24.14 24.48L22.16 24.48L22.16 26.46L24.14 26.46Z"></path><path id="路径" fill-rule="evenodd" style="fill:#E0E0E0" opacity="1" d="M28.92 26.55L28.92 24.57L26.94 24.57L26.94 26.55L28.92 26.55Z"></path><path id="路径" fill-rule="evenodd" style="fill:#EBEBEB" opacity="1" d="M33.8 26.55L33.8 24.57L31.82 24.57L31.82 26.55L33.8 26.55Z"></path><path id="路径" fill-rule="evenodd" style="fill:#E0E0E0" opacity="1" d="M38.67 26.55L38.67 24.57L36.69 24.57L36.69 26.55L38.67 26.55Z"></path><path id="路径" fill-rule="evenodd" style="fill:#E0E0E0" opacity="1" d="M43.54 26.55L43.54 24.57L41.56 24.57L41.56 26.55L43.54 26.55Z"></path><path id="路径" fill-rule="evenodd" style="fill:#E0E0E0" opacity="1" d="M48.42 26.55L48.42 24.57L46.44 24.57L46.44 26.55L48.42 26.55Z"></path><path id="路径" fill-rule="evenodd" style="fill:#E0E0E0" opacity="1" d="M19.18 30.75L19.18 28.77L17.2 28.77L17.2 30.75L19.18 30.75Z"></path><path id="路径" fill-rule="evenodd" style="fill:#E0E0E0" opacity="1" d="M24.05 30.75L24.05 28.77L22.07 28.77L22.07 30.75L24.05 30.75Z"></path><path id="路径" fill-rule="evenodd" style="fill:#E0E0E0" opacity="1" d="M28.92 30.75L28.92 28.77L26.94 28.77L26.94 30.75L28.92 30.75Z"></path><path id="路径" fill-rule="evenodd" style="fill:#E0E0E0" opacity="1" d="M33.89 30.67L33.89 28.69L31.91 28.69L31.91 30.67L33.89 30.67Z"></path><path id="路径" fill-rule="evenodd" style="fill:#E0E0E0" opacity="1" d="M38.67 30.75L38.67 28.77L36.69 28.77L36.69 30.75L38.67 30.75Z"></path><path id="路径" fill-rule="evenodd" style="fill:#EBEBEB" opacity="1" d="M43.54 30.75L43.54 28.77L41.56 28.77L41.56 30.75L43.54 30.75Z"></path><path id="路径" fill-rule="evenodd" style="fill:#E0E0E0" opacity="1" d="M48.42 30.75L48.42 28.77L46.44 28.77L46.44 30.75L48.42 30.75Z"></path><path id="路径" fill-rule="evenodd" style="fill:#E0E0E0" opacity="1" d="M19.18 34.96L19.18 32.98L17.2 32.98L17.2 34.96L19.18 34.96Z"></path><path id="路径" fill-rule="evenodd" style="fill:#EBEBEB" opacity="1" d="M24.05 34.96L24.05 32.98L22.07 32.98L22.07 34.96L24.05 34.96Z"></path><path id="路径" fill-rule="evenodd" style="fill:#E0E0E0" opacity="1" d="M28.92 34.96L28.92 32.98L26.94 32.98L26.94 34.96L28.92 34.96Z"></path><path id="路径" fill-rule="evenodd" style="fill:#E0E0E0" opacity="1" d="M33.8 34.96L33.8 32.98L31.82 32.98L31.82 34.96L33.8 34.96Z"></path><path id="路径" fill-rule="evenodd" style="fill:#E0E0E0" opacity="1" d="M38.67 34.96L38.67 32.98L36.69 32.98L36.69 34.96L38.67 34.96Z"></path><path id="路径" fill-rule="evenodd" style="fill:#E0E0E0" opacity="1" d="M43.63 34.87L43.63 32.89L41.65 32.89L41.65 34.87L43.63 34.87Z"></path><path id="路径" fill-rule="evenodd" style="fill:#E0E0E0" opacity="1" d="M48.42 34.96L48.42 32.98L46.44 32.98L46.44 34.96L48.42 34.96Z"></path><path id="路径" fill-rule="evenodd" style="fill:#EBEBEB" opacity="1" d="M100.74 73.6549L96.6294 62.7433L80.4305 68.845L84.5406 79.7566L100.74 73.6549Z"></path><g opacity="1"  transform="translate(80.52001953125 62.8699951171875)  rotate(0)"><path id="路径" fill-rule="evenodd" style="fill:#E0E0E0" opacity="1" d="M10.83,9.52l-0.06,-0.02c1.49,-2.62 2.83,-4.99 3.82,-6.72l1.18,-2.04l0.33,-0.55c0.03,-0.07 0.07,-0.13 0.11,-0.19c-0.02,0.07 -0.06,0.14 -0.1,0.2l-0.3,0.57c-0.27,0.5 -0.66,1.2 -1.13,2.06c-0.99,1.74 -2.34,4.15 -3.82,6.8l-0.03,0.06h-0.07l-0.15,-0.05l-7.51,-2.46l-2.27,-0.77l-0.62,-0.21c-0.07,-0.02 -0.14,-0.05 -0.21,-0.09c0.08,0.02 0.15,0.04 0.22,0.06l0.63,0.19l2.29,0.71l7.54,2.4l0.09,0.03c-0.02,0.02 -0.03,0.04 -0.04,0.06zM10.83,9.52l-0.1,0.04c0.01,-0.02 0.02,-0.04 0.04,-0.06z"></path><path id="路径" fill-rule="evenodd" style="fill:#E0E0E0" opacity="1" d="M10.73 9.56L10.83 9.52L10.77 9.5C10.75 9.52 10.74 9.54 10.73 9.56Z"></path></g><path id="路径" fill-rule="evenodd" style="fill:#E0E0E0" opacity="1" d="M87.72 71.2C87.68 71.17 86.96 73.12 86.11 75.51C85.26 77.91 84.6 79.88 84.64 79.88C84.69 79.88 85.41 77.92 86.26 75.54C87.1 73.17 87.76 71.23 87.72 71.2Z"></path><path id="路径" fill-rule="evenodd" style="fill:#E0E0E0" opacity="1" d="M100.84 73.79C100.86 73.75 99.14 72.65 96.99 71.35C94.84 70.04 93.07 69 93.05 69.04C93.03 69.08 94.75 70.17 96.9 71.48C99.05 72.79 100.82 73.83 100.84 73.79Z"></path><g opacity="1"  transform="translate(113.83001708984375 26.3699951171875)  rotate(0)"><path id="路径" fill-rule="evenodd" style="fill:#E0E0E0" opacity="1" d="M13.17 5.36L11.87 5.09C11.73 4.63 11.54 4.19 11.29 3.78L11.98 2.64L10.39 1.1L9.27 1.83C8.84 1.6 8.39 1.42 7.92 1.3L7.6 0L5.38 0.04L5.11 1.34C4.64 1.48 4.2 1.67 3.78 1.92L3.78 1.89L2.64 1.2L1.1 2.79L1.83 3.92C1.6 4.34 1.42 4.79 1.3 5.26L0 5.58L0.04 7.8L1.34 8.07C1.48 8.54 1.67 8.98 1.92 9.4L1.23 10.54L2.82 12.08L3.94 11.35C4.37 11.58 4.82 11.76 5.29 11.88L5.61 13.18L7.83 13.14L8.1 11.84C8.57 11.7 9.01 11.51 9.43 11.26L10.57 11.95L12.11 10.36L11.38 9.24C11.61 8.82 11.79 8.37 11.91 7.9L13.21 7.58L13.17 5.36Z"></path><path id="路径" fill-rule="evenodd" style="fill:#E0E0E0" opacity="1" d="M6.63998 4.14001C6.32998 4.14001 6.01998 4.21001 5.72998 4.33001C5.43998 4.45001 5.17998 4.63001 4.96998 4.85001L4.96998 4.87001C4.63998 5.21001 4.41998 5.64001 4.32998 6.10001C4.24998 6.56001 4.29998 7.04001 4.48998 7.48001C4.67998 7.91001 4.98998 8.27001 5.38998 8.53001C5.77998 8.79001 6.24998 8.92002 6.71998 8.91002C7.18998 8.90001 7.64998 8.75002 8.02998 8.49002C8.41998 8.22001 8.71998 7.84001 8.88998 7.40001C9.06998 6.96001 9.10998 6.48001 9.00998 6.02001C8.90998 5.56001 8.66998 5.14001 8.32998 4.81001C8.10998 4.60001 7.83998 4.42001 7.54998 4.31001C7.25998 4.19001 6.94998 4.13001 6.63998 4.14001Z"></path></g><path id="路径" fill-rule="evenodd" style="fill:#E0E0E0" opacity="1" d="M122.94 33.21C123 32.73 122.92 32.24 122.71 31.81C122.56 31.5 122.35 31.23 122.08 31.01C121.82 30.79 121.52 30.63 121.19 30.54C120.86 30.45 120.52 30.43 120.18 30.48C119.84 30.53 119.52 30.65 119.23 30.84C119.07 30.94 118.92 31.07 118.8 31.23C118.81 31.26 118.95 31.09 119.28 30.93C119.74 30.65 120.27 30.54 120.79 30.61C121.15 30.65 121.5 30.78 121.8 30.98C122.14 31.21 122.41 31.53 122.6 31.91C122.79 32.31 122.86 32.77 122.81 33.21C122.74 33.7 122.52 34.16 122.18 34.52C121.84 34.87 121.39 35.1 120.91 35.19C120.68 35.22 120.45 35.22 120.22 35.19C120 35.16 119.78 35.1 119.58 35.01C119.2 34.84 118.87 34.57 118.63 34.24C118.42 33.94 118.28 33.6 118.22 33.25C118.14 32.72 118.23 32.19 118.48 31.72C118.67 31.39 118.81 31.24 118.81 31.24C118.66 31.36 118.54 31.51 118.44 31.67C118.15 32.14 118.04 32.7 118.13 33.24C118.18 33.61 118.32 33.97 118.53 34.28C118.79 34.64 119.13 34.92 119.52 35.1C119.74 35.2 119.97 35.26 120.2 35.29C120.44 35.33 120.69 35.33 120.93 35.29C121.44 35.2 121.92 34.96 122.28 34.58C122.64 34.21 122.87 33.72 122.94 33.21Z"></path><g opacity="1"  transform="translate(113.80999755859375 26.339996337890625)  rotate(0)"><path id="路径" fill-rule="evenodd" style="fill:#E0E0E0" opacity="1" d="M5.27,11.91c0.01,0.02 0.01,0.03 0.01,0.04c-0.44,-0.11 -0.88,-0.28 -1.28,-0.5l0.03,-0.02h-0.07c0.01,0.01 0.03,0.01 0.04,0.02l-1.09,0.71l-0.04,0.03l-0.04,-0.04l-1.6,-1.54l-0.03,-0.03l0.03,-0.04c0.23,-0.39 0.46,-0.77 0.67,-1.11c0.01,0.01 0.02,0.02 0.02,0.03v-0.06c0,0.01 -0.01,0.02 -0.02,0.03c-0.23,-0.41 -0.42,-0.84 -0.55,-1.28h0.03l-0.04,-0.04c0.01,0.01 0.01,0.03 0.01,0.04l-1.27,-0.27h-0.05v-0.04c0,-0.78 -0.02,-1.52 -0.03,-2.22v-0.04h0.03l1.29,-0.31c-0.01,0.02 -0.01,0.03 -0.02,0.05l0.04,-0.06l-0.02,0.01c0.11,-0.45 0.28,-0.88 0.51,-1.28c0,0.01 0,0.01 0.01,0.02v-0.04c-0.01,0 -0.01,0.01 -0.01,0.02c-0.26,-0.4 -0.5,-0.77 -0.72,-1.11l0.03,-0.03v0.03l0.02,-0.01l0.72,1.09c-0.23,0.42 -0.4,0.87 -0.51,1.33v0.03h-0.03l-1.27,0.32c0,-0.01 0,-0.03 0,-0.04l-0.04,0.05l0.04,-0.01c0,0.67 0.03,1.38 0.04,2.13l-0.04,-0.01l0.04,0.05c0,-0.01 0,-0.03 0,-0.04l1.27,0.26h0.03v0.03c0.13,0.46 0.32,0.9 0.57,1.31v0.03v0.03l-0.65,1.15l-0.03,-0.03v0.08l0.03,-0.05l1.54,1.48l-0.04,0.03h0.07l-0.03,-0.03l1.07,-0.71l0.04,-0.02l0.03,0.02c0.42,0.23 0.87,0.41 1.33,0.52h0.04v0.04l0.31,1.25l-0.06,0.01l0.07,0.04l-0.01,-0.05l2.11,-0.03c-0.01,0.01 -0.01,0.03 -0.01,0.05l0.06,-0.05h-0.05c0.08,-0.42 0.17,-0.84 0.26,-1.25v-0.04h0.04c0.46,-0.13 0.9,-0.32 1.3,-0.57h0.04h0.04l1.09,0.66l-0.03,0.03h0.08l-0.05,-0.03l1.48,-1.53c0.01,0.02 0.02,0.03 0.03,0.05v-0.08l-0.03,0.03c-0.24,-0.36 -0.48,-0.72 -0.71,-1.07l-0.02,-0.03v-0.04c0.24,-0.42 0.41,-0.86 0.53,-1.33v-0.04h0.04l1.25,-0.3c0,0.01 0,0.03 0,0.05l0.05,-0.06l-0.05,0.01c0,-0.72 -0.01,-1.43 -0.03,-2.11l0.05,0.01l-0.06,-0.06c0,0.01 0.01,0.03 0.01,0.05l-1.26,-0.27h-0.03v-0.04c-0.13,-0.46 -0.32,-0.9 -0.57,-1.3v-0.03v-0.03l0.67,-1.11l0.03,0.03v-0.07l-0.03,0.04l-1.54,-1.49l0.04,-0.02h-0.06l0.02,0.02l-1.08,0.71h-0.03h-0.02c-0.42,-0.24 -0.87,-0.41 -1.34,-0.53h-0.02v-0.03c-0.11,-0.46 -0.22,-0.87 -0.31,-1.27h0.03l-0.04,-0.03c0,0.01 0,0.02 0.01,0.03l-2.19,0.03h0.03c-0.11,0.52 -0.2,0.95 -0.28,1.3c-0.35,0.1 -0.69,0.23 -1.01,0.39l-0.24,0.12l-0.09,0.05c0.03,-0.02 0.05,-0.04 0.08,-0.06l0.23,-0.13c0.33,-0.17 0.67,-0.31 1.02,-0.41c0.07,-0.36 0.15,-0.79 0.26,-1.31v-0.02h0.02l2.22,-0.05h0.04v0.03c0.09,0.4 0.2,0.82 0.32,1.28c-0.01,0 -0.02,0 -0.03,-0.01l0.03,0.03c0,0 0,-0.01 0,-0.02c0.45,0.11 0.89,0.28 1.3,0.51l-0.02,0.01h0.05c-0.01,0 -0.02,-0.01 -0.03,-0.01l1.1,-0.72l0.03,-0.03l0.03,0.03l1.6,1.54l0.03,0.03l-0.02,0.04l-0.68,1.12c0,-0.01 -0.01,-0.02 -0.01,-0.03v0.06l0.01,-0.03c0.24,0.39 0.43,0.82 0.56,1.27l-0.04,-0.01l0.05,0.04c-0.01,-0.01 -0.01,-0.02 -0.01,-0.03l1.27,0.26h0.05v0.05c0,0.72 0.03,1.46 0.04,2.21v0.06h-0.05l-1.27,0.31c0,-0.02 0.01,-0.03 0.01,-0.04l-0.05,0.05l0.04,-0.01c-0.11,0.44 -0.28,0.87 -0.5,1.28l-0.02,-0.04v0.08c0,-0.02 0.01,-0.03 0.02,-0.04l0.72,1.08l0.02,0.04l-0.03,0.04l-1.55,1.6l-0.03,0.04l-0.05,-0.03l-1.11,-0.67c0.01,-0.01 0.02,-0.02 0.03,-0.02h-0.07l0.04,0.02c-0.4,0.23 -0.82,0.42 -1.27,0.55c0.01,-0.02 0.01,-0.03 0.01,-0.04l-0.05,0.05c0.02,-0.01 0.03,-0.01 0.04,-0.01c-0.09,0.42 -0.18,0.87 -0.26,1.26v0.06h-0.05l-2.22,0.03h-0.05v-0.05c-0.11,-0.42 -0.22,-0.87 -0.32,-1.27c0.02,0.01 0.03,0.01 0.04,0.01zM5.28,11.95c0.02,0.01 0.03,0.01 0.04,0.01l-0.05,-0.05c0.01,0.02 0.01,0.03 0.01,0.04zM4,11.45c-0.01,-0.01 -0.03,-0.01 -0.04,-0.02h0.07zM2.87,12.06l0.03,0.03h-0.07zM1.33,10.58l-0.03,0.05v-0.08zM7.79,13.18l0.06,-0.05h-0.05c-0.01,0.01 -0.01,0.03 -0.01,0.05zM9.29,1.82c0.01,0 0.02,0.01 0.03,0.01h-0.05zM5.69,13.16l0.01,0.05l-0.07,-0.04zM1.9,9.43c0.01,-0.01 0.02,-0.02 0.02,-0.03v0.06c0,-0.01 -0.01,-0.02 -0.02,-0.03zM0.11,7.77l-0.04,-0.01l0.04,0.05c0,-0.01 0,-0.03 0,-0.04zM7.99,1.33c0,0 0,-0.01 0,-0.02c-0.01,0 -0.02,0 -0.03,-0.01zM1.38,8.15l-0.04,-0.04c0.01,0.01 0.01,0.03 0.01,0.04zM0.07,5.6l-0.04,0.05l0.04,-0.01c0,-0.01 0,-0.03 0,-0.04zM10.57,11.93l0.05,0.03h-0.08zM10.38,1.21l-0.02,-0.02h0.06zM11.99,7.95l-0.05,0.05l0.04,-0.01c0,-0.02 0.01,-0.03 0.01,-0.04zM1.84,3.97v0.04c-0.01,-0.01 -0.01,-0.01 -0.01,-0.02c0,-0.01 0,-0.02 0.01,-0.02zM13.1,5.43c0,0.01 0.01,0.03 0.01,0.05l0.05,0.01zM11.92,2.7l0.03,-0.04v0.07zM12.05,10.4l0.03,-0.03v0.08c-0.01,-0.02 -0.02,-0.03 -0.03,-0.05zM11.38,3.83l-0.01,0.03v-0.06c0,0.01 0.01,0.02 0.01,0.03zM7.58,0.09h0.03l-0.04,-0.03c0,0.01 0,0.02 0.01,0.03zM9.41,11.35h0.07c-0.01,0 -0.02,0.01 -0.03,0.02zM11.46,9.23l0.02,0.04c-0.01,0.01 -0.02,0.02 -0.02,0.04zM13.14,7.64l0.05,-0.06l-0.05,0.01c0,0.01 0,0.03 0,0.05zM1.3,5.32l0.04,-0.06l-0.02,0.01c-0.01,0.02 -0.01,0.03 -0.02,0.05zM8.19,11.88l-0.05,0.05c0.02,-0.01 0.03,-0.01 0.04,-0.01c0.01,-0.02 0.01,-0.03 0.01,-0.04zM11.95,5.13c-0.01,-0.01 -0.01,-0.02 -0.01,-0.03l-0.04,-0.01z"></path><path id="路径" fill-rule="evenodd" style="fill:#E0E0E0" opacity="1" d="M13.14 7.58999C13.14 7.59999 13.14 7.61999 13.14 7.63999L13.19 7.57999L13.14 7.58999Z"></path><path id="路径" fill-rule="evenodd" style="fill:#E0E0E0" opacity="1" d="M13.1 5.42999C13.1 5.43999 13.11 5.45999 13.11 5.47999L13.16 5.48999L13.1 5.42999Z"></path><path id="路径" fill-rule="evenodd" style="fill:#E0E0E0" opacity="1" d="M2.83002 12.09L2.90002 12.09L2.87002 12.06L2.83002 12.09Z"></path><path id="路径" fill-rule="evenodd" style="fill:#E0E0E0" opacity="1" d="M9.47997 11.35L9.40997 11.35L9.44997 11.37C9.45997 11.36 9.46997 11.35 9.47997 11.35Z"></path><path id="路径" fill-rule="evenodd" style="fill:#E0E0E0" opacity="1" d="M5.63 13.17L5.70001 13.21L5.69 13.16L5.63 13.17Z"></path><path id="路径" fill-rule="evenodd" style="fill:#E0E0E0" opacity="1" d="M4.00002 11.45L4.03002 11.43L3.96002 11.43C3.97002 11.44 3.99002 11.44 4.00002 11.45Z"></path><path id="路径" fill-rule="evenodd" style="fill:#E0E0E0" opacity="1" d="M3.73003,1.92001l0.05,0.03c-0.01,-0.01 -0.02,0 -0.04,0.01l-0.21,-0.14l-0.87,-0.52l-0.13,0.13l0.13,-0.14l0.86,0.5zM3.78003,1.95001c0.01,0 0.01,0 0.01,0z"></path><path id="路径" fill-rule="evenodd" style="fill:#E0E0E0" opacity="1" d="M10.42 1.19L10.36 1.19L10.38 1.21L10.42 1.19Z"></path><path id="路径" fill-rule="evenodd" style="fill:#E0E0E0" opacity="1" d="M7.58001 0.0899976L7.61001 0.0899976L7.57001 0.0599976C7.57001 0.0699976 7.57001 0.0799976 7.58001 0.0899976Z"></path><path id="路径" fill-rule="evenodd" style="fill:#E0E0E0" opacity="1" d="M1.35003 8.14999L1.38003 8.14999L1.34003 8.10999C1.35003 8.11999 1.35003 8.13999 1.35003 8.14999Z"></path><path id="路径" fill-rule="evenodd" style="fill:#E0E0E0" opacity="1" d="M2.65002 1.28L2.66002 1.29L2.67002 1.28L2.65002 1.28Z"></path><path id="路径" fill-rule="evenodd" style="fill:#E0E0E0" opacity="1" d="M7.96002 1.29999L7.99002 1.32999C7.99002 1.32999 7.99002 1.31999 7.99002 1.30999C7.98002 1.30999 7.97002 1.30999 7.96002 1.29999Z"></path><path id="路径" fill-rule="evenodd" style="fill:#E0E0E0" opacity="1" d="M11.98 7.99001C11.98 7.97001 11.99 7.96001 11.99 7.95001L11.94 8.00001L11.98 7.99001Z"></path><path id="路径" fill-rule="evenodd" style="fill:#E0E0E0" opacity="1" d="M11.46 9.31001C11.46 9.29001 11.47 9.28001 11.48 9.27001L11.46 9.23001L11.46 9.31001Z"></path><path id="路径" fill-rule="evenodd" style="fill:#E0E0E0" opacity="1" d="M8.18001 11.92C8.19001 11.9 8.19001 11.89 8.19001 11.88L8.14001 11.93C8.16002 11.92 8.17001 11.92 8.18001 11.92Z"></path><path id="路径" fill-rule="evenodd" style="fill:#E0E0E0" opacity="1" d="M1.92002 9.39999C1.92002 9.40999 1.91002 9.41999 1.90002 9.42999C1.91002 9.43999 1.92002 9.44999 1.92002 9.45999L1.92002 9.39999Z"></path><path id="路径" fill-rule="evenodd" style="fill:#E0E0E0" opacity="1" d="M12.08 10.45L12.08 10.37L12.05 10.4C12.06 10.42 12.07 10.43 12.08 10.45Z"></path><path id="路径" fill-rule="evenodd" style="fill:#E0E0E0" opacity="1" d="M1.29999 10.63L1.32999 10.58L1.29999 10.55L1.29999 10.63Z"></path><path id="路径" fill-rule="evenodd" style="fill:#E0E0E0" opacity="1" d="M1.15001 2.85L1.14001 2.84L1.14001 2.85L1.15001 2.85Z"></path><path id="路径" fill-rule="evenodd" style="fill:#E0E0E0" opacity="1" d="M2.53002 1.42999L1.15002 2.84999L1.16002 2.86999L2.53002 1.42999Z"></path><path id="路径" fill-rule="evenodd" style="fill:#E0E0E0" opacity="1" d="M1.14001 2.88001L1.16001 2.87001L1.15001 2.85001L1.14001 2.85001L1.14001 2.88001Z"></path><path id="路径" fill-rule="evenodd" style="fill:#E0E0E0" opacity="1" d="M11.38 3.82999C11.38 3.81999 11.37 3.80999 11.37 3.79999L11.37 3.85999L11.38 3.82999Z"></path><path id="路径" fill-rule="evenodd" style="fill:#E0E0E0" opacity="1" d="M11.95 5.13C11.94 5.12 11.94 5.11 11.94 5.1L11.9 5.09L11.95 5.13Z"></path><path id="路径" fill-rule="evenodd" style="fill:#E0E0E0" opacity="1" d="M1.83002 3.99C1.83002 4 1.83002 4 1.84002 4.01L1.84002 3.97C1.83002 3.97 1.83002 3.98 1.83002 3.99Z"></path><path id="路径" fill-rule="evenodd" style="fill:#E0E0E0" opacity="1" d="M1.33999 5.26001L1.31999 5.27001C1.30999 5.29001 1.30999 5.30001 1.29999 5.32001L1.33999 5.26001Z"></path><path id="路径" fill-rule="evenodd" style="fill:#E0E0E0" opacity="1" d="M0.0700293 5.60001L0.0300293 5.65001L0.0700293 5.64001C0.0700293 5.63001 0.0700293 5.61001 0.0700293 5.60001Z"></path><path id="路径" fill-rule="evenodd" style="fill:#E0E0E0" opacity="1" d="M0.0700073 7.76001L0.110007 7.81001C0.110007 7.80001 0.110007 7.78001 0.110007 7.77001L0.0700073 7.76001Z"></path><path id="路径" fill-rule="evenodd" style="fill:#E0E0E0" opacity="1" d="M9.27002 1.83001L9.32002 1.83001C9.31002 1.83001 9.30002 1.82001 9.29002 1.82001L9.27002 1.83001Z"></path><path id="路径" fill-rule="evenodd" style="fill:#E0E0E0" opacity="1" d="M10.57 11.93L10.54 11.96L10.62 11.96L10.57 11.93Z"></path><path id="路径" fill-rule="evenodd" style="fill:#E0E0E0" opacity="1" d="M7.84998 13.13L7.79998 13.13C7.78998 13.14 7.78998 13.16 7.78998 13.18L7.84998 13.13Z"></path><path id="路径" fill-rule="evenodd" style="fill:#E0E0E0" opacity="1" d="M5.28002 11.95C5.30002 11.96 5.31002 11.96 5.32002 11.96L5.27002 11.91C5.28002 11.93 5.28002 11.94 5.28002 11.95Z"></path><path id="路径" fill-rule="evenodd" style="fill:#E0E0E0" opacity="1" d="M11.92 2.7L11.95 2.73L11.95 2.66L11.92 2.7Z"></path></g><path id="路径" fill-rule="evenodd" style="fill:#F5F5F5" opacity="1" d="M28.31 184.49C29.37 183.51 29.42 181.9 29.42 180.47C29.4 177.87 29.37 175.2 28.39 172.8C27.41 170.4 25.28 168.29 22.67 168.18C20.42 168.07 18.28 169.54 17.14 171.48C16.14 173.19 15.73 175.31 14.23 176.58C13.43 177.26 12.42 177.61 11.46 178.02C10.5 178.42 9.42999 178.88 8.92999 179.79C7.56999 182.3 9.33999 184.46 10.13 185.13L10.44 184.93L24.56 185.36C25.88 185.39 27.34 185.39 28.31 184.49Z"></path><g opacity="1"  transform="translate(0 146.33999633789062)  rotate(0)"><path id="路径" fill-rule="evenodd" style="fill:#E0E0E0" opacity="1" d="M20 11.09L26.43 11.08L26.79 0.369995L19.75 0.369995L20 11.09Z"></path><path id="路径" fill-rule="evenodd" style="fill:#E0E0E0" opacity="1" d="M20.06 13.85L20.33 25.42L25.95 25.42L26.34 13.85L20.06 13.85Z"></path><path id="路径" fill-rule="evenodd" style="fill:#E0E0E0" opacity="1" d="M14.07 25.42L13.17 13.85L6.78003 13.85L8.05003 21.87C8.23003 23.06 8.42003 24.25 8.61003 25.42L14.07 25.42Z"></path><path id="路径" fill-rule="evenodd" style="fill:#E0E0E0" opacity="1" d="M30.14 25.42L31.12 13.85L26.71 13.85L26.32 25.42L30.14 25.42Z"></path><path id="路径" fill-rule="evenodd" style="fill:#E0E0E0" opacity="1" d="M9.86 43.41L9.99 43.45C10.1 43.48 10.21 43.52 10.32 43.53C10.57 43.58 10.82 43.61 11.08 43.62L11.08 43.66L11.26 43.63L27.82 43.63C28.12 43.63 28.43 43.6 28.73 43.54C29.7 43.39 30.59 42.93 31.27 42.22C31.95 41.52 32.38 40.61 32.49 39.63L35.71 12.16L35.86 11.07L37.14 0.21L37.14 0L0 0L6.69 39.86C6.83 40.69 7.2 41.47 7.76 42.1C8.32 42.73 9.05 43.18 9.86 43.41Z"></path><path id="路径" fill-rule="evenodd" style="fill:#E0E0E0" opacity="1" d="M9.03003 28.2C9.63003 32.01 10.18 35.54 10.61 38.25L15.1 38.25L14.3 28.2L9.03003 28.2Z"></path><path id="路径" fill-rule="evenodd" style="fill:#E0E0E0" opacity="1" d="M20.23 38.25L20 28.2L14.67 28.2L15.45 38.25L20.23 38.25Z"></path><path id="路径" fill-rule="evenodd" style="fill:#E0E0E0" opacity="1" d="M36.73 0.359985L32.65 0.359985L31.73 11.08L35.47 11.08L36.73 0.359985Z"></path><path id="路径" fill-rule="evenodd" style="fill:#E0E0E0" opacity="1" d="M25.86 28.2L20.39 28.2L20.62 38.25L25.53 38.25L25.86 28.2Z"></path><path id="路径" fill-rule="evenodd" style="fill:#E0E0E0" opacity="1" d="M14.48 25.42L19.94 25.42L19.67 13.85L13.58 13.85L14.48 25.42Z"></path><path id="路径" fill-rule="evenodd" style="fill:#E0E0E0" opacity="1" d="M30.51 25.42L33.77 25.42L35.13 13.85L31.49 13.85L30.51 25.42Z"></path><path id="路径" fill-rule="evenodd" style="fill:#E0E0E0" opacity="1" d="M0.429993 0.359985L2.22999 11.08L5.95999 11.08C5.04999 5.35999 4.36999 1.13999 4.22999 0.359985L0.429993 0.359985Z"></path><path id="路径" fill-rule="evenodd" style="fill:#E0E0E0" opacity="1" d="M6.33002 11.08L12.96 11.08L12.13 0.359985L4.58002 0.359985C4.72002 0.979985 4.98002 2.58999 5.67002 6.93999C5.88002 8.19999 6.10002 9.59999 6.33002 11.08Z"></path><path id="路径" fill-rule="evenodd" style="fill:#E0E0E0" opacity="1" d="M4.64001 25.42L8.23001 25.42C7.59001 21.41 6.96001 17.43 6.40001 13.85L2.70001 13.85L4.64001 25.42Z"></path><path id="路径" fill-rule="evenodd" style="fill:#E0E0E0" opacity="1" d="M25.9 38.25L29.04 38.25L29.91 28.2L26.23 28.2L25.9 38.25Z"></path><path id="路径" fill-rule="evenodd" style="fill:#E0E0E0" opacity="1" d="M26.8 11.08L31.36 11.08L32.28 0.359985L27.15 0.359985L26.8 11.08Z"></path><path id="路径" fill-rule="evenodd" style="fill:#E0E0E0" opacity="1" d="M30.28 28.2L29.41 38.25L32.28 38.25L33.47 28.2L30.28 28.2Z"></path><path id="路径" fill-rule="evenodd" style="fill:#E0E0E0" opacity="1" d="M8.65998 28.2L5.09998 28.2L6.79998 38.25L10.24 38.25C9.73997 35.11 9.20998 31.67 8.65998 28.2Z"></path><path id="路径" fill-rule="evenodd" style="fill:#E0E0E0" opacity="1" d="M13.34 11.09L19.63 11.09L19.36 0.359985L12.52 0.359985L13.34 11.09Z"></path></g></g><g opacity="1"  transform="translate(138.33001708984375 67.83999633789062)  rotate(0)"><path id="路径" fill-rule="evenodd" style="fill:#455A64" opacity="1" d="M20.24 5.81C20.24 5.81 17.63 11.54 15.64 14.31C13.65 17.08 10.12 21.15 10.12 21.15L12.15 22.83C12.15 22.83 17.29 16.93 19.22 11.02C21.16 5.11 20.24 5.81 20.24 5.81Z"></path><path id="路径" fill-rule="evenodd" style="fill:#455A64" opacity="1" d="M11.48 6.58C11.41 6.55 11.34 6.55 11.28 6.58C11.21 6.6 11.16 6.65 11.12 6.71C10.32 8.26 9.76001 9.91 9.44001 11.62C8.95001 14.21 8.57001 22.69 8.57001 22.69L10.71 22.69C10.71 22.69 10.75 21.1 10.71 17C10.69 13.85 11.36 8.98 11.68 6.9C11.69 6.83 11.67 6.76 11.64 6.7C11.6 6.64 11.54 6.6 11.48 6.58Z"></path><path id="路径" fill-rule="evenodd" style="fill:#455A64" opacity="1" d="M9.97 21.99C9.06999 19.96 8.47999 17.82 8.21 15.62C8.04 14.1 8.34999 12.06 8.81 9.33999C8.99 8.33999 9.09 7.31999 9.09 6.29999C9.09 6.18999 9.05 6.07999 8.97999 5.98999C8.91 5.89999 8.81 5.83999 8.7 5.81999C8.59 5.78999 8.47 5.79999 8.37 5.83999C8.26999 5.88999 8.17999 5.95999 8.13 6.05999C7.60999 7.01999 7.21 8.02999 6.94 9.07999C6.42 11.77 5.83 13.11 6.27999 15.66C6.73 18.22 8.38 22.14 8.38 22.14L9.97 21.99Z"></path><path id="路径" fill-rule="evenodd" style="fill:#455A64" opacity="1" d="M2.01 8.25999C1.64 6.46999 0.3 2.32999 0.14 2.55999C-0.02 2.78999 -0.25 4.97999 0.77 7.47999C1.78 9.97999 6.12 22.53 6.12 22.53L8.04 22.53L8.04 22.16C8.04 22.16 2.39 10.06 2.01 8.25999Z"></path><path id="路径" fill-rule="evenodd" style="fill:#263238" opacity="1" d="M16.77 14.6C17.9 12.69 18.84 10.66 19.58 8.55999C19.87 7.75999 20.07 7.09999 20.21 6.63999C20.28 6.41999 20.33 6.23999 20.36 6.11999C20.38 6.05999 20.39 5.98999 20.4 5.92999C20.4 5.92999 20.37 5.98999 20.33 6.10999L20.17 6.62999C20.02 7.05999 19.8 7.73999 19.5 8.53999C18.75 10.62 17.81 12.63 16.69 14.55C15.56 16.46 14.2 18.22 12.64 19.8C12.04 20.4 11.52 20.85 11.16 21.16L10.72 21.51C10.67 21.55 10.63 21.59 10.59 21.63C10.59 21.63 10.65 21.6 10.75 21.52C10.85 21.45 11 21.34 11.18 21.19C11.71 20.77 12.21 20.32 12.69 19.85C14.28 18.29 15.65 16.52 16.77 14.6Z"></path><path id="路径" fill-rule="evenodd" style="fill:#263238" opacity="1" d="M9.97002 15.46C9.96002 15.58 9.96002 15.7 9.97002 15.82C9.99002 15.7 10.01 15.58 10.02 15.46C10.04 15.21 10.08 14.89 10.12 14.49C10.21 13.67 10.35 12.54 10.55 11.3C10.75 10.06 10.98 8.93999 11.15 8.13999L11.35 7.17999C11.38 7.06999 11.4 6.94999 11.41 6.82999C11.37 6.93999 11.33 7.05999 11.3 7.16999C11.24 7.38999 11.16 7.71999 11.06 8.11999C10.87 8.91999 10.62 10.04 10.43 11.28C10.24 12.53 10.11 13.66 10.04 14.48C10 14.89 9.98002 15.23 9.97002 15.46Z"></path><path id="路径" fill-rule="evenodd" style="fill:#263238" opacity="1" d="M9.22002 22.02C9.22002 22.02 9.22002 21.96 9.16002 21.86C9.11002 21.75 9.06002 21.6 8.98002 21.42C8.90002 21.25 8.81002 20.99 8.71002 20.72C8.62002 20.44 8.49002 20.13 8.39002 19.77L8.21002 19.21C8.15002 19.02 8.11002 18.81 8.05002 18.6C7.93002 18.16 7.85002 17.73 7.75002 17.24C7.56002 16.19 7.44002 15.12 7.39002 14.06C7.36002 12.99 7.41002 11.93 7.52002 10.87C7.59002 10.38 7.64002 9.90999 7.72002 9.48999C7.77002 9.26999 7.80002 9.04999 7.84002 8.86999C7.89002 8.67999 7.93002 8.47999 7.97002 8.29999C8.05002 7.92999 8.15002 7.60999 8.23002 7.31999C8.31002 7.03999 8.39002 6.79999 8.45002 6.59999L8.60002 6.13999C8.62002 6.08999 8.64002 6.03999 8.65002 5.98999C8.62002 6.03999 8.60002 6.08999 8.58002 6.13999L8.41002 6.57999C8.34002 6.76999 8.25002 7.00999 8.17002 7.29999C8.09002 7.57999 7.98002 7.89999 7.89002 8.26999C7.85002 8.44999 7.80002 8.63999 7.76002 8.83999C7.71002 9.02999 7.68002 9.23999 7.63002 9.45999C7.54002 9.89999 7.48002 10.36 7.42002 10.84C7.29002 11.91 7.25002 12.98 7.28002 14.06C7.32002 15.13 7.44002 16.2 7.64002 17.25C7.74002 17.74 7.83002 18.2 7.95002 18.62C8.02002 18.83 8.06002 19.05 8.12002 19.23L8.30002 19.79C8.41002 20.15 8.54002 20.46 8.65002 20.74C8.75002 21.02 8.85002 21.25 8.94002 21.44L9.14002 21.87C9.16002 21.92 9.19002 21.97 9.22002 22.02Z"></path><g opacity="1"  transform="translate(0.1500244140625 2.79998779296875)  rotate(0)"><path id="路径" fill-rule="evenodd" style="fill:#263238" opacity="1" d="M5.66002 17.01C5.91002 17.71 6.20002 18.4 6.52002 19.07C6.64002 19.31 6.74002 19.51 6.81002 19.62L6.89002 19.76C6.90002 19.77 6.91002 19.79 6.92002 19.8C6.91002 19.78 6.91002 19.76 6.90002 19.75L6.83002 19.6C6.77002 19.48 6.68002 19.3 6.57002 19.06C6.24002 18.38 5.95002 17.68 5.70002 16.98C5.37002 16.08 5.04002 15 4.68002 13.8C4.32002 12.6 3.93002 11.27 3.42002 9.89001C2.91002 8.51001 2.38002 7.25001 1.93002 6.08001C1.47002 4.91001 1.06002 3.85001 0.780017 2.95001C0.500017 2.05001 0.300017 1.30001 0.170017 0.780015C0.130017 0.630015 0.110017 0.500015 0.0800171 0.390015C0.100017 0.510015 0.130017 0.650015 0.170017 0.820015C0.270017 1.34001 0.460017 2.09001 0.740017 2.99001C1.02002 3.89001 1.40002 4.96001 1.86002 6.14001C2.32002 7.31001 2.84002 8.59001 3.34002 9.95002C3.84002 11.31 4.24002 12.63 4.61002 13.83C4.98002 15.03 5.32002 16.11 5.66002 17.01Z"></path><path id="路径" fill-rule="evenodd" style="fill:#263238" opacity="1" d="M0.05,0c0,0 0,0 0,0.06v0.15c0.01,0.04 0.02,0.09 0.02,0.14c-0.01,-0.06 -0.02,-0.12 -0.03,-0.17l-0.04,-0.15zM0.08,0.39c0,-0.01 0,-0.03 -0.01,-0.04c0.01,0.01 0.01,0.03 0.01,0.04z"></path></g><path id="路径" fill-rule="evenodd" style="fill:#455A64" opacity="1" d="M18.39 0.63C18.42 0.52 18.42 0.42 18.38 0.31C18.34 0.21 18.27 0.13 18.18 0.07C18.09 0.02 17.98 -0.01 17.87 0C17.77 0.01 17.67 0.06 17.59 0.13C16.1 1.61 14.47 5.76 12.84 8.64C10.8 12.22 8.71997 22.16 8.71997 22.16L11 22.53C11 22.53 12.48 16.48 13.56 13.24C14.64 10 16.9 4.09 17.68 2.45C17.96 1.86 18.19 1.25 18.39 0.63Z"></path><path id="路径" fill-rule="evenodd" style="fill:#263238" opacity="1" d="M11.21 21.45C11.14 21.77 11.08 22.03 11.04 22.24C11.01 22.33 10.99 22.43 10.99 22.53C11.03 22.44 11.06 22.35 11.08 22.25C11.14 22.04 11.21 21.78 11.29 21.47L11.94 18.9C12.2 17.89 12.44 16.98 12.63 16.33C12.72 16.02 12.8 15.76 12.86 15.56C12.89 15.46 12.92 15.37 12.93 15.27C12.88 15.36 12.84 15.45 12.81 15.54C12.75 15.72 12.66 15.97 12.55 16.3C12.34 16.95 12.09 17.86 11.83 18.87C11.57 19.87 11.35 20.78 11.21 21.45Z"></path><path id="路径" fill-rule="evenodd" style="fill:#263238" opacity="1" d="M9.91003 21.42C9.87003 21.71 9.86003 21.95 9.84003 22.11L9.84003 22.28C9.84003 22.33 9.85003 22.35 9.85003 22.35L9.85003 22.29L9.87003 22.11C9.90003 21.95 9.92003 21.72 9.97003 21.42C10.05 20.82 10.2 19.96 10.44 18.91C10.73 17.68 11.09 16.47 11.51 15.28C11.98 13.93 12.56 12.48 13.23 10.97C14.57 7.96 15.9 5.29 16.78 3.31C17.22 2.33 17.57 1.53 17.8 0.969996C17.91 0.689996 17.99 0.469996 18.05 0.319996C18.08 0.249996 18.1 0.189996 18.12 0.149996C18.13 0.109996 18.14 0.0899963 18.12 0.0899963L18.09 0.149996C18.07 0.189996 18.05 0.239996 18.02 0.309996C17.95 0.459996 17.85 0.679996 17.74 0.949996C17.5 1.5 17.14 2.3 16.69 3.28C15.79 5.24 14.44 7.91 13.1 10.92C12.43 12.43 11.85 13.89 11.39 15.24C10.97 16.44 10.62 17.66 10.34 18.89C10.16 19.73 10.01 20.57 9.91003 21.42Z"></path><path id="路径" fill-rule="evenodd" style="fill:#263238" opacity="1" d="M8.71997 22.16C8.75997 22.03 8.77997 21.91 8.79997 21.78C8.83997 21.51 8.89997 21.16 8.97997 20.74C9.12997 19.87 9.36997 18.64 9.71997 17.32C10.06 16 10.44 14.82 10.74 13.98C10.88 13.57 11 13.24 11.09 12.98C11.14 12.86 11.18 12.74 11.21 12.61C11.15 12.72 11.09 12.84 11.05 12.96C10.95 13.19 10.81 13.53 10.65 13.95C10.25 15.04 9.88997 16.16 9.59997 17.29C9.24997 18.59 9.02997 19.83 8.88997 20.72C8.81997 21.15 8.77997 21.52 8.74997 21.77C8.72997 21.9 8.71997 22.03 8.71997 22.16Z"></path><path id="路径" fill-rule="evenodd" style="fill:#FD7753" opacity="1" d="M4.04999 21.84L4.04999 32.66L12.93 32.66L12.93 21.84L4.04999 21.84Z"></path><g opacity="0.3"  transform="translate(4.04998779296875 21.839996337890625)  rotate(0)"><path id="路径" fill-rule="evenodd" style="fill:#000000" opacity="0.3" d="M0 0L0 10.82L8.88 10.82L8.88 0L0 0Z"></path></g><path id="路径" fill-rule="evenodd" style="fill:#FD7753" opacity="1" d="M6.88 21.84L6.88 32.66L14.76 32.66L14.76 21.84L6.88 21.84Z"></path></g><g opacity="1"  transform="translate(18.54998779296875 24.290008544921875)  rotate(0)"><path id="路径" fill-rule="evenodd" style="fill:#E0E0E0" opacity="1" d="M50.47 112.62L6.14001 113C6.14001 113 17.15 117.96 28.62 117.96C39.23 117.96 50.47 112.62 50.47 112.62Z"></path><path id="路径" fill-rule="evenodd" style="fill:#E0E0E0" opacity="1" d="M29.82 160.7L29.82 113.1L25.27 113.1L25.27 160.7L29.82 160.7Z"></path><path id="路径" fill-rule="evenodd" style="fill:#E0E0E0" opacity="1" d="M47.72 160.7L47.72 157.91L7.35999 157.91L7.35999 160.7L47.72 160.7Z"></path><path id="路径" fill-rule="evenodd" style="fill:#263238" opacity="1" d="M11.77 163.33C12.11 162.82 12.29 162.22 12.29 161.61C12.29 160.8 11.96 160.02 11.39 159.44C10.81 158.86 10.03 158.54 9.21 158.54C8.60001 158.54 8.01 158.72 7.5 159.06C6.99001 159.4 6.6 159.88 6.36 160.44C6.13 161 6.07 161.62 6.19 162.22C6.31 162.82 6.6 163.37 7.03 163.8C7.47001 164.23 8.01 164.52 8.61 164.64C9.21 164.76 9.83 164.7 10.39 164.46C10.96 164.23 11.44 163.83 11.77 163.33Z"></path><path id="路径" fill-rule="evenodd" style="fill:#263238" opacity="1" d="M28.33 164.46C28.89 164.22 29.37 163.83 29.71 163.32C30.05 162.81 30.23 162.22 30.23 161.61C30.23 160.79 29.91 160.01 29.33 159.43C28.75 158.85 27.97 158.53 27.15 158.53C26.54 158.53 25.95 158.71 25.44 159.05C24.93 159.39 24.54 159.87 24.3 160.43C24.07 160.99 24.01 161.61 24.13 162.21C24.25 162.81 24.54 163.36 24.97 163.79C25.4 164.22 25.95 164.51 26.55 164.63C27.15 164.75 27.77 164.69 28.33 164.46Z"></path><path id="路径" fill-rule="evenodd" style="fill:#263238" opacity="1" d="M44.9 162.21C45.02 162.81 45.31 163.36 45.74 163.79C46.17 164.22 46.72 164.51 47.32 164.63C47.92 164.75 48.54 164.69 49.1 164.46C49.66 164.22 50.14 163.83 50.48 163.32C50.82 162.81 51 162.22 51 161.61C51 160.79 50.68 160.01 50.1 159.43C49.52 158.85 48.74 158.53 47.92 158.53C47.31 158.53 46.72 158.71 46.21 159.05C45.7 159.39 45.31 159.87 45.07 160.43C44.84 160.99 44.78 161.61 44.9 162.21Z"></path><path id="路径" fill-rule="evenodd" style="fill:#E0E0E0" opacity="1" d="M28.62 132.79L28.62 130.23L22.43 130.23L22.43 132.79L28.62 132.79Z"></path><path id="路径" fill-rule="evenodd" style="fill:#E0E0E0" opacity="1" d="M23.56 134.58L23.56 128.44L21.31 128.44L21.31 134.58L23.56 134.58Z"></path><path id="路径" fill-rule="evenodd" style="fill:#455A64" opacity="1" d="M0.0200195 45.6L0.0200195 106.95L23.53 106.95L23.53 40.56L5.06002 40.56C3.73002 40.56 2.45002 41.09 1.50002 42.04C0.55002 42.98 0.0200195 44.26 0.0200195 45.6Z"></path><path id="路径" fill-rule="evenodd" style="fill:#263238" opacity="1" d="M5.21999 41.59C5.15999 41.59 5.10999 56 5.10999 73.77C5.10999 91.53 5.15999 105.94 5.21999 105.94C5.27999 105.94 5.33999 91.54 5.33999 73.77C5.33999 56 5.28999 41.59 5.21999 41.59Z"></path><path id="路径" fill-rule="evenodd" style="fill:#455A64" opacity="1" d="M0 110.56C0 111.49 0.37 112.37 1.02 113.02C1.67 113.67 2.56 114.04 3.48 114.04L58.19 114.04L58.19 106.82L0.02 106.82L0 106.8L0 110.56Z"></path><path id="路径" fill-rule="evenodd" style="fill:#FFBE9D" opacity="1" d="M32.95 14.32L30.43 38.33C29.99 42.42 30.21 48.51 36.7 48.89C42.35 48.8 44.34 43.63 44.73 39.82C44.92 38.01 45.08 36.51 45.11 36.32C45.11 36.32 51.29 36.39 52.37 30.38C52.89 27.48 53.47 21.42 53.94 15.93C54.18 13.08 53.34 10.25 51.58 7.99001C49.83 5.74001 47.29 4.23001 44.47 3.76001L43.89 3.66001C37.56 2.98001 33.45 7.97001 32.95 14.32Z"></path><path id="路径" fill-rule="evenodd" style="fill:#EB996E" opacity="1" d="M44.93 37.86L45.11 36.31C42.33 35.84 39.74 34.58 37.65 32.69C37.65 32.69 38.83 37.4 44.93 37.86Z"></path><path id="路径" fill-rule="evenodd" style="fill:#263238" opacity="1" d="M41.63 16.2C41.1 16.13 40.55 16.23 40.08 16.49C39.75 16.69 39.6 16.9 39.65 16.97C39.74 17.11 40.55 16.68 41.56 16.8C42.57 16.92 43.22 17.55 43.35 17.44C43.41 17.39 43.34 17.15 43.04 16.86C42.65 16.5 42.16 16.27 41.63 16.2Z"></path><path id="路径" fill-rule="evenodd" style="fill:#263238" opacity="1" d="M43.27 19.76C43.28 19.66 43.27 19.55 43.24 19.45C43.21 19.35 43.16 19.26 43.09 19.18C43.02 19.1 42.94 19.03 42.85 18.98C42.75 18.94 42.65 18.91 42.55 18.9C42.32 18.87 42.11 18.93 41.94 19.06C41.76 19.18 41.65 19.37 41.61 19.59C41.6 19.69 41.61 19.8 41.64 19.9C41.67 20 41.72 20.09 41.79 20.17C41.86 20.25 41.94 20.32 42.03 20.37C42.13 20.41 42.23 20.44 42.33 20.45C42.56 20.48 42.77 20.42 42.94 20.3C43.12 20.17 43.23 19.98 43.27 19.76Z"></path><path id="路径" fill-rule="evenodd" style="fill:#263238" opacity="1" d="M47.28 21.86C46.74 19.14 46.21 16.95 46.1 16.97C45.99 16.99 46.34 19.21 46.89 21.94L47.28 23.85C47.37 24.08 47.39 24.33 47.33 24.58C47.26 24.72 47.03 24.72 46.79 24.72C46.27 24.67 45.75 24.68 45.24 24.75C45.74 24.9 46.25 24.98 46.77 25.01C46.91 25.02 47.05 25.02 47.18 25.01C47.27 25 47.36 24.97 47.43 24.92C47.51 24.87 47.57 24.8 47.62 24.73C47.74 24.43 47.75 24.09 47.65 23.78C47.54 23.16 47.41 22.53 47.28 21.86Z"></path><path id="路径" fill-rule="evenodd" style="fill:#263238" opacity="1" d="M41.43 12.65C40.93 12.61 40.42 12.71 39.97 12.92C39.62 13.09 39.45 13.28 39.49 13.39C39.58 13.61 40.4 13.47 41.38 13.51C42.35 13.55 43.15 13.8 43.27 13.58C43.32 13.48 43.17 13.27 42.85 13.08C42.42 12.82 41.93 12.67 41.43 12.65Z"></path><path id="路径" fill-rule="evenodd" style="fill:#263238" opacity="1" d="M50.96 15.39C50.48 15.33 49.99 15.36 49.52 15.5C49.17 15.62 49 15.76 49.03 15.86C49.12 16.06 49.93 16.01 50.89 16.13C51.84 16.25 52.62 16.53 52.74 16.35C52.79 16.27 52.66 16.08 52.34 15.87C51.92 15.62 51.45 15.46 50.96 15.39Z"></path><path id="路径" fill-rule="evenodd" style="fill:#FFBE9D" opacity="1" d="M31.95 24.78C31.97 24.67 32.7 18.85 32.7 18.85C32.6 18.78 28.76 16.94 28.21 21.07C27.66 25.2 31.93 24.9 31.95 24.78Z"></path><path id="路径" fill-rule="evenodd" style="fill:#EB996E" opacity="1" d="M30.06 23.25C30.16 23.3 30.28 23.32 30.39 23.32C30.51 23.32 30.63 23.29 30.73 23.23C30.87 23.15 30.92 23.06 30.89 23.05C30.89 23.05 30.81 23.09 30.69 23.13C30.5 23.18 30.31 23.16 30.14 23.07C29.71 22.85 29.45 22.11 29.53 21.36C29.57 21.01 29.69 20.66 29.87 20.36C29.93 20.23 30.01 20.12 30.12 20.04C30.23 19.96 30.36 19.9 30.49 19.88C30.58 19.87 30.66 19.89 30.73 19.93C30.81 19.98 30.86 20.05 30.89 20.13C30.93 20.25 30.89 20.33 30.91 20.34C30.94 20.35 31.01 20.29 31 20.11C30.99 20 30.95 19.9 30.87 19.83C30.77 19.73 30.63 19.67 30.49 19.67C30.31 19.68 30.14 19.74 30 19.83C29.85 19.93 29.73 20.06 29.65 20.21C29.42 20.55 29.28 20.93 29.24 21.33C29.16 22.16 29.48 23 30.06 23.25Z"></path><path id="路径" fill-rule="evenodd" style="fill:#263238" opacity="1" d="M42.28 25.13C42.19 24.82 42.12 24.62 42.07 24.63C42.02 24.64 42.02 24.85 42.07 25.18C42.12 25.63 42.27 26.06 42.5 26.45C42.74 26.83 43.08 27.15 43.49 27.35C43.77 27.51 43.97 27.54 44 27.51C44.05 27.41 43.26 27.07 42.76 26.27C42.55 25.91 42.39 25.53 42.28 25.13Z"></path><path id="路径" fill-rule="evenodd" style="fill:#263238" opacity="1" d="M53.22 23.77L55.21 17.65C55.34 17.46 55.46 17.27 55.58 17.07L57.42 14.25L56.12 8.43C55.56 7.46 54.93 6.53 54.23 5.67C52.57 3.6 51.18 2.18 49.67 1.4C47.73 0.38 44.38 -0.26 42.22 0.1C40.06 0.46 38.01 1.99 37.51 4.12C36.43 3.01 34.66 2.87 33.17 3.31L33.13 3.28C31.48 3.71 30.41 5.32 29.79 6.91C29.16 8.5 28.8 10.23 27.79 11.61C27.59 11.9 27.34 12.25 27.45 12.58C27.51 12.71 27.6 12.82 27.73 12.9C27.86 12.97 28 13 28.15 12.98C28.42 12.94 28.69 12.85 28.92 12.71L28.27 13.94C28.84 14.09 29.43 14.11 30.01 13.99C30.17 15.47 30.41 16.95 30.75 18.4C31.42 18.46 32.03 18.57 32.41 18.98C32.92 19.53 33.08 20.51 34.05 20.23C34.55 20.09 35.07 19.13 35.27 18.66C36.63 15.55 37.29 12.17 37.22 8.77C37.96 8.12 38.81 7.62 39.73 7.29L39.65 7.36C41.42 6.92 43.37 6.52 44.9 7.46C46.09 8.19 46.7 9.55 47.53 10.67C48.31 11.7 49.28 12.56 50.4 13.21C51.51 13.85 52.75 14.27 54.02 14.42C53.96 16.14 53.29 22.06 53.22 23.77Z"></path><g opacity="1"  transform="translate(29.55999755859375 4.989990234375)  rotate(0)"><path id="路径" fill-rule="evenodd" style="fill:#455A64" opacity="1" d="M7.50998 5.75C7.50998 6.41 7.45998 7.07 7.36998 7.72C7.31998 8.07 7.23998 8.41 7.13998 8.74C7.05998 9.08 6.88998 9.39 6.65998 9.65C6.55998 9.74 6.43998 9.81 6.30998 9.84C6.16998 9.87 6.03998 9.87 5.90998 9.83C5.64998 9.76 5.41998 9.61 5.24998 9.4C4.98998 8.95 4.83998 8.45 4.81998 7.93C4.78998 7.98 4.75998 8.04 4.72998 8.09C4.76998 8.57 4.90998 9.04 5.15998 9.45C5.33998 9.7 5.59998 9.87 5.88998 9.96C6.03998 10 6.19998 10 6.34998 9.96C6.49998 9.93 6.63998 9.85 6.75998 9.75C7.00998 9.47 7.18998 9.13 7.27998 8.77C7.37998 8.43 7.45998 8.09 7.50998 7.74C7.59998 7.08 7.63998 6.41 7.64998 5.74C7.66998 5.11 7.66998 4.51 7.72998 3.95C7.77998 3.43 7.87998 2.92 8.02998 2.42C8.21998 1.7 8.60998 1.03 9.13998 0.5C9.34998 0.32 9.56998 0.15 9.79998 0C9.53998 0.12 9.30998 0.27 9.09998 0.47C8.53998 1 8.13998 1.67 7.92998 2.4C7.76998 2.91 7.65998 3.42 7.60998 3.95C7.54998 4.52 7.50998 5.11 7.50998 5.75Z"></path><path id="路径" fill-rule="evenodd" style="fill:#455A64" opacity="1" d="M2.74002 9.62C3.20002 9.61 3.65002 9.42 3.98002 9.09C4.27002 8.79 4.52002 8.45 4.73002 8.09C4.73002 8.01 4.72002 7.93 4.72002 7.86L4.82002 7.88C4.82002 7.87 4.82002 7.87 4.82002 7.87L4.82002 7.66L4.72002 7.84C4.50002 8.27 4.22002 8.67 3.89002 9.02C3.58002 9.33 3.17002 9.51 2.74002 9.53C2.54002 9.53 2.35002 9.48 2.18002 9.38C2.03002 9.29 1.90002 9.15 1.83002 8.98C1.76002 8.83 1.73002 8.67 1.75002 8.51C1.77002 8.35 1.84002 8.2 1.96002 8.08L1.95002 8.08C1.87002 8.16 1.79002 8.23 1.70002 8.3C1.68002 8.35 1.67002 8.4 1.66002 8.44C1.64002 8.63 1.66002 8.82 1.74002 9C1.82002 9.18 1.95002 9.34 2.13002 9.45C2.31002 9.56 2.52002 9.62 2.74002 9.62Z"></path><path id="路径" fill-rule="evenodd" style="fill:#455A64" opacity="1" d="M1.83002 8.08001C1.85002 8.06001 1.87002 8.04001 1.89002 8.02001L1.95002 8.08001C1.95002 8.08001 1.95002 8.08001 1.96002 8.07001L1.90002 8.01001C1.87002 8.03001 1.85002 8.05001 1.83002 8.08001Z"></path><path id="路径" fill-rule="evenodd" style="fill:#455A64" opacity="1" d="M1.83001 8.07999C1.77001 8.14999 1.73001 8.21999 1.70001 8.29999C1.79001 8.22999 1.87001 8.15999 1.95001 8.07999L1.89001 8.01999C1.87001 8.03999 1.85001 8.05999 1.83001 8.07999Z"></path><path id="路径" fill-rule="evenodd" style="fill:#455A64" opacity="1" d="M0.55 8.88999C0.37 8.95999 0.23 8.99999 0.14 9.02999C0.09 9.03999 0.04 9.04999 0 9.06999C0.05 9.06999 0.1 9.05999 0.15 9.04999C0.72 8.91999 1.25 8.66999 1.7 8.29999C1.73 8.21999 1.77 8.14999 1.83 8.07999C1.46 8.42999 1.02 8.69999 0.55 8.88999Z"></path><path id="路径" fill-rule="evenodd" style="fill:#455A64" opacity="1" d="M4.81997 7.87999L4.71997 7.85999C4.71997 7.92999 4.72997 8.00998 4.72997 8.08998C4.75997 8.03999 4.78997 7.97999 4.81997 7.92999C4.81997 7.90999 4.81997 7.88999 4.81997 7.87999Z"></path><path id="路径" fill-rule="evenodd" style="fill:#455A64" opacity="1" d="M4.82001 7.93001C4.83001 7.91001 4.84001 7.9 4.85001 7.88L4.82001 7.88C4.82001 7.89001 4.82001 7.91001 4.82001 7.93001Z"></path></g><path id="路径" fill-rule="evenodd" style="fill:#455A64" opacity="1" d="M57.35 12.75L57.51 12.65L57.56 12.62C57.55 12.59 57.26 12.8 56.67 12.98C55.83 13.25 54.93 13.31 54.06 13.16C52.76 12.94 51.56 12.36 50.58 11.47C49.41 10.38 48.47 9.06001 47.82 7.6C47.45 6.83 47.16 6.05 46.82 5.31001C46.52 4.59 46.11 3.92 45.61 3.32C45.16 2.76 44.57 2.33 43.91 2.07C43.32 1.85 42.68 1.82 42.07 1.98C41.58 2.1 41.11 2.33 40.71 2.66C40.41 2.9 40.15 3.19 39.95 3.52C39.82 3.73 39.73 3.96 39.66 4.19C39.64 4.26 39.61 4.32 39.61 4.37C39.61 4.39001 39.61 4.41 39.61 4.43001C39.71 4.13 39.84 3.84 40.01 3.56C40.5 2.83 41.25 2.3 42.11 2.1C42.39 2.03 42.68 2 42.98 2.01C43.29 2.03 43.59 2.09 43.88 2.2C44.53 2.46 45.1 2.88 45.53 3.42C46.02 4.02001 46.42 4.68001 46.72 5.39001C47.05 6.12 47.34 6.91001 47.71 7.68001C48.37 9.16001 49.33 10.5 50.52 11.59C51.51 12.49 52.74 13.07 54.05 13.28C54.94 13.42 55.84 13.35 56.69 13.05C56.84 13.01 56.96 12.94 57.08 12.89C57.17 12.85 57.26 12.8 57.35 12.75Z"></path><path id="路径" fill-rule="evenodd" style="fill:#263238" opacity="1" d="M50.85 17.43C50.32 17.36 49.78 17.46 49.3 17.72C48.96 17.92 48.82 18.13 48.87 18.2C48.96 18.34 49.76 17.91 50.78 18.03C51.79 18.15 52.44 18.78 52.57 18.67C52.63 18.63 52.56 18.38 52.26 18.09C51.87 17.73 51.38 17.49 50.85 17.43Z"></path><path id="路径" fill-rule="evenodd" style="fill:#263238" opacity="1" d="M50.48 21.14C50.57 21.19 50.67 21.22 50.78 21.23C51 21.26 51.22 21.21 51.39 21.08C51.56 20.95 51.67 20.76 51.71 20.54C51.72 20.44 51.71 20.33 51.68 20.23C51.65 20.13 51.6 20.04 51.53 19.96C51.46 19.88 51.38 19.81 51.29 19.76C51.2 19.72 51.09 19.69 50.99 19.68C50.77 19.65 50.55 19.71 50.38 19.84C50.21 19.96 50.1 20.15 50.06 20.37C50.05 20.47 50.06 20.57 50.09 20.67C50.12 20.77 50.17 20.87 50.24 20.95C50.3 21.03 50.39 21.1 50.48 21.14Z"></path><path id="路径" fill-rule="evenodd" style="fill:#263238" opacity="1" d="M54.99 13.51C55.02 14.03 55.23 14.52 55.59 14.89C55.84 15.04 56.12 15.14 56.41 15.16C56.7 15.19 57 15.14 57.27 15.03C58.14 14.76 58.92 14.25 59.54 13.58C60.16 12.91 60.59 12.08 60.79 11.19C59.69 11.46 58.76 11.63 57.82 10.99C58.07 10.82 58.31 10.62 58.52 10.4C58.76 10.15 58.93 9.14 58.65 8.93C58.35 9.01 58.04 9.07 57.72 9.1C56.87 9.1 56.13 8.39 55.7 7.66L54.83 7.86C54.65 9.74 54.71 11.64 54.99 13.51Z"></path><path id="路径" fill-rule="evenodd" style="fill:#FD7753" opacity="1" d="M47.72 76.19L83.92 76.49L83.15 69.27L60.51 64.25C60.51 64.25 52 52.51 50.47 48.79C48.29 43.5 44.47 41.95 44.47 41.95L42.69 60.18L47.72 76.19Z"></path><path id="路径" fill-rule="evenodd" style="fill:#FD7753" opacity="1" d="M7.85001 101.65L41.82 82.26L39.83 80.87L46.27 45.88L45.07 41.64L45.87 38.06C45.87 38.06 36.86 34.44 30.29 31.85L29.23 35.28L25.22 36.96C21.5 38.52 16.74 42.1 15.15 45.8C11.32 54.72 7.85001 66.17 6.52001 76.3C5.17001 86.53 7.85001 101.65 7.85001 101.65Z"></path><g opacity="0.3"  transform="translate(6.1099853515625 79.27999877929688)  rotate(0)"><path id="路径" fill-rule="evenodd" style="fill:#000000" opacity="0.3" d="M23.33 10.45C23.66 8 24 5.56 24.33 3.11C24.42 2.42 24.47 1.61 23.94 1.17C23.59 0.95 23.19 0.84 22.79 0.84C16.24 0.3 9.66 -0.24 3.1 0.11C2.5 0.11 1.91 0.2 1.33 0.38C0.77 0.58 0.39 0.42 0.16 0.97C-0.08 1.53 0.02 3 0.02 3C0.5 3.26 1.03 3.41 1.57 3.44C6.96 3.8 12.38 4.16 17.75 3.61C18.79 3.51 19.96 3.4 20.79 4.05C20.48 4.66 20.03 5.2 19.49 5.62L21.03 4.95C20.39 5.93 19.64 6.84 18.79 7.65C19.33 7.62 19.86 7.4 20.25 7.02C20.13 8.78 20.01 10.52 19.88 12.26L23.33 10.45Z"></path></g><path id="路径" fill-rule="evenodd" style="fill:#263238" opacity="1" d="M39.51 75.89C39.56 75.66 39.64 75.36 39.73 74.98C39.92 74.16 40.18 73 40.51 71.59C41.16 68.73 42.06 64.78 42.95 60.4C43.84 56.02 44.61 52.05 45.13 49.16C45.38 47.71 45.58 46.54 45.7 45.73L45.84 44.8C45.86 44.69 45.87 44.58 45.87 44.47C45.83 44.58 45.81 44.69 45.79 44.8C45.75 45.03 45.69 45.34 45.61 45.73C45.46 46.56 45.24 47.71 44.97 49.14C44.42 52.02 43.62 55.99 42.71 60.36L40.35 71.56C40.08 72.98 39.81 74.13 39.64 74.96C39.57 75.34 39.51 75.65 39.46 75.88C39.44 75.99 39.42 76.1 39.41 76.21C39.45 76.11 39.49 76 39.51 75.89Z"></path><path id="路径" fill-rule="evenodd" style="fill:#263238" opacity="1" d="M26.81 86.16C28.54 85.25 30.23 84.46 31.79 83.82C33.36 83.18 34.79 82.65 36.01 82.26C36.62 82.04 37.17 81.89 37.66 81.74C38.15 81.58 38.57 81.47 38.91 81.37L39.71 81.15C39.8 81.12 39.89 81.09 39.98 81.05C39.88 81.06 39.79 81.07 39.7 81.1L38.89 81.28C38.54 81.37 38.12 81.48 37.62 81.61C37.13 81.75 36.57 81.9 35.96 82.11C34.73 82.48 33.29 82.98 31.71 83.63C30.14 84.27 28.41 85.04 26.7 85.96C24.99 86.88 23.36 87.83 21.95 88.78C20.53 89.72 19.3 90.62 18.29 91.42C17.78 91.81 17.34 92.18 16.95 92.52C16.55 92.85 16.22 93.14 15.96 93.39L15.35 93.95C15.28 94.01 15.21 94.08 15.15 94.15C15.23 94.1 15.31 94.04 15.38 93.98L16.02 93.45C16.29 93.22 16.63 92.93 17.03 92.62C17.43 92.31 17.87 91.93 18.39 91.56C19.4 90.77 20.64 89.87 22.06 88.95C23.48 88.03 25.08 87.07 26.81 86.16Z"></path><path id="路径" fill-rule="evenodd" style="fill:#263238" opacity="1" d="M17.71 89.43C17.74 89.49 21.08 87.72 25.2 85.48C29.32 83.25 32.62 81.4 32.59 81.34C32.56 81.29 29.22 83.05 25.1 85.29C20.98 87.52 17.68 89.37 17.71 89.43Z"></path><g opacity="0.3"  transform="translate(20.6400146484375 54.529998779296875)  rotate(0)"><path id="路径" fill-rule="evenodd" style="fill:#000000" opacity="0.3" d="M0 0C2.11 9.12 8.56 17.27 17.14 20.98C10.97 14.38 5.24 7.37 0 0Z"></path></g><g opacity="0.3"  transform="translate(43.0999755859375 47.600006103515625)  rotate(0)"><path id="路径" fill-rule="evenodd" style="fill:#000000" opacity="0.3" d="M2.2 0C1.66 3.07 0.68 8.21 0 11.11L0.48 12.11C2.43 8.69 3.05 3.86 2.22 0L2.2 0Z"></path></g><path id="路径" fill-rule="evenodd" style="fill:#455A64" opacity="1" d="M45.83 155.44L69.87 162.48C70.41 160.15 59.32 151.89 59.32 151.89L63.39 139.65L51.39 136.1L45.83 155.44Z"></path><g opacity="0.3"  transform="translate(45.83001708984375 136.10000610351562)  rotate(0)"><path id="路径" fill-rule="evenodd" style="fill:#000000" opacity="0.3" d="M0 19.34L24.04 26.38C24.58 24.05 13.49 15.79 13.49 15.79L17.56 3.55L5.56 0L0 19.34Z"></path></g><g opacity="1"  transform="translate(51.17999267578125 148.67001342773438)  rotate(0)"><path id="路径" fill-rule="evenodd" style="fill:#E0E0E0" opacity="1" d="M0 0.92C-0.01 1.17 0.08 1.41 0.25 1.6C0.42 1.79 0.66 1.9 0.91 1.92C1.17 1.92 1.43 1.81 1.63 1.63C1.82 1.45 1.95 1.21 1.97 0.94C1.95 0.68 1.83 0.43 1.63 0.26C1.44 0.09 1.19 0 0.93 0C0.7 0.02 0.49 0.12 0.33 0.27C0.14 0.44 0.02 0.67 0 0.92Z"></path></g><g opacity="0.6"  transform="translate(45.83001708984375 153.50997924804688)  rotate(0)"><path id="路径" fill-rule="evenodd" style="fill:#FFFFFF" opacity="0.6" d="M23.45 7.47L0.63 0L0 1.93L24.04 8.97C24.39 8.25 23.45 7.47 23.45 7.47Z"></path></g><path id="路径" fill-rule="evenodd" style="fill:#263238" opacity="1" d="M57.17 152.62C57.27 152.7 57.72 152.3 58.42 152.09C59.11 151.88 59.71 152 59.75 151.88C59.8 151.78 59.14 151.45 58.3 151.68C57.45 151.92 57.08 152.54 57.17 152.62Z"></path><path id="路径" fill-rule="evenodd" style="fill:#263238" opacity="1" d="M59.91 155.05C60.03 155.09 60.3 154.6 60.84 154.22C61.38 153.84 61.96 153.79 61.96 153.67C61.99 153.55 61.29 153.4 60.6 153.87C59.91 154.33 59.79 155.01 59.91 155.05Z"></path><path id="路径" fill-rule="evenodd" style="fill:#263238" opacity="1" d="M64.02 155.36C64 155.25 63.37 155.34 62.88 155.9C62.4 156.46 62.39 157.1 62.5 157.1C62.62 157.12 62.83 156.64 63.21 156.18C63.58 155.72 64.04 155.48 64.02 155.36Z"></path><path id="路径" fill-rule="evenodd" style="fill:#263238" opacity="1" d="M57.8 148.4C57.85 148.52 58.43 148.46 59.1 148.61C59.78 148.76 60.27 149.08 60.35 148.98C60.44 148.91 59.98 148.38 59.18 148.19C58.39 148.01 57.75 148.28 57.8 148.4Z"></path><path id="路径" fill-rule="evenodd" style="fill:#455A64" opacity="1" d="M57.92 165.15L82.97 165.24C82.84 162.85 69.89 158 69.89 158L70.4 145.11L57.87 145.03L57.92 165.15Z"></path><g opacity="1"  transform="translate(61.41998291015625 156.8699951171875)  rotate(0)"><path id="路径" fill-rule="evenodd" style="fill:#E0E0E0" opacity="1" d="M0.02 1.19C0.08 1.43 0.24 1.64 0.45 1.77C0.66 1.91 0.92 1.95 1.17 1.9C1.42 1.82 1.64 1.65 1.78 1.43C1.91 1.2 1.96 0.93 1.91 0.66C1.82 0.42 1.63 0.21 1.4 0.1C1.17 -0.01 0.9 -0.03 0.66 0.04C0.45 0.12 0.27 0.27 0.15 0.47C0.02 0.68 -0.03 0.94 0.02 1.19Z"></path></g><g opacity="0.6"  transform="translate(57.91998291015625 163.1300048828125)  rotate(0)"><path id="路径" fill-rule="evenodd" style="fill:#FFFFFF" opacity="0.6" d="M24.07 0.84L0.07 0L0 2.03L25.05 2.12C25.18 1.33 24.07 0.84 24.07 0.84Z"></path></g><path id="路径" fill-rule="evenodd" style="fill:#263238" opacity="1" d="M68.04 159.31C68.15 159.34 68.47 158.83 69.08 158.44C69.68 158.05 70.3 158 70.3 157.88C70.33 157.76 69.59 157.63 68.85 158.09C68.11 158.55 67.93 159.27 68.04 159.31Z"></path><path id="路径" fill-rule="evenodd" style="fill:#263238" opacity="1" d="M71.34 160.86C71.46 160.87 71.58 160.32 72 159.81C72.42 159.29 72.95 159.09 72.92 158.97C72.92 158.85 72.2 158.9 71.67 159.53C71.14 160.17 71.22 160.85 71.34 160.86Z"></path><path id="路径" fill-rule="evenodd" style="fill:#263238" opacity="1" d="M75.37 160.03C75.32 159.93 74.74 160.2 74.43 160.87C74.12 161.53 74.28 162.15 74.4 162.12C74.53 162.11 74.57 161.6 74.82 161.04C75.07 160.49 75.43 160.13 75.37 160.03Z"></path><path id="路径" fill-rule="evenodd" style="fill:#263238" opacity="1" d="M67.48 155.09C67.55 155.2 68.09 154.99 68.78 154.93C69.47 154.88 70.03 155.05 70.09 154.93C70.15 154.84 69.59 154.46 68.75 154.5C67.91 154.55 67.4 154.99 67.48 155.09Z"></path><path id="路径" fill-rule="evenodd" style="fill:#263238" opacity="1" d="M19.71 94.87L53.35 105.56L47.73 143.08L60.77 144.21C60.77 144.21 77.3 99.36 74.15 94.97C70.42 89.8 40.39 81.98 40.39 81.98L24.79 81.96L19.71 94.87Z"></path><path id="路径" fill-rule="evenodd" style="fill:#263238" opacity="1" d="M76.34 101.75C73.24 96.46 42.55 89.01 42.55 89.01L31.86 83.65L15 91.98L7.84998 101.66C8.51998 108.96 25.64 107.65 25.64 107.65L57.53 114.08L57.24 154.86L70.51 154.86C70.51 154.86 75.94 118.75 76.3 116.17C76.84 112.34 77.79 104.22 76.34 101.75Z"></path><g opacity="1"  transform="translate(26.489990234375 88.07000732421875)  rotate(0)"><path id="路径" fill-rule="evenodd" style="fill:#455A64" opacity="1" d="M31.02,26.09l-0.07,-0.08c0,0.02 0,0.05 0,0.07l-22.61,-4.6l-6.18,-1.26l-1.61,-0.34c-0.37,-0.08 -0.55,-0.12 -0.55,-0.12l0.55,0.1l1.62,0.31l6.21,1.21l22.67,4.53h0.07v0.08c-0.07,11.29 -0.16,25.25 -0.26,40.66h-0.12l0.12,0.12c0,-0.04 0,-0.08 0,-0.12h13.05c0,0.03 0,0.07 -0.01,0.1l0.11,-0.1h-0.1c0.17,-1.11 0.34,-2.22 0.5,-3.34l2.67,-17.76c0.43,-2.87 0.86,-5.69 1.27,-8.45c0.41,-2.76 0.84,-5.45 1.18,-8.1c0.18,-1.32 0.36,-2.62 0.53,-3.91c0.18,-1.27 0.29,-2.54 0.34,-3.82c0.04,-1.26 0.04,-2.5 0,-3.72c-0.03,-0.61 -0.07,-1.22 -0.12,-1.82c0,-0.58 -0.12,-1.17 -0.35,-1.71c-0.28,-0.5 -0.64,-0.96 -1.07,-1.34c-0.43,-0.38 -0.88,-0.73 -1.37,-1.03c-0.48,-0.3 -0.97,-0.58 -1.48,-0.82l-1.51,-0.7c-2.01,-0.9 -3.96,-1.71 -5.85,-2.42c-3.76,-1.43 -7.25,-2.53 -10.31,-3.47c-3.07,-0.94 -5.73,-1.68 -7.9,-2.3l-4.99,-1.41l-1.31,-0.38c-0.28,-0.1 -0.43,-0.15 -0.43,-0.15c0,0 0.15,0.03 0.44,0.12l1.3,0.36l5.01,1.4c2.17,0.6 4.83,1.35 7.9,2.26c3.08,0.91 6.56,2.02 10.34,3.44c1.89,0.71 3.84,1.52 5.86,2.42l1.52,0.69c0.51,0.25 1.01,0.52 1.49,0.83c0.5,0.31 0.97,0.66 1.4,1.05c0.45,0.39 0.83,0.86 1.12,1.39c1.03,4.7 0.41,9.84 -0.36,15.09c-0.34,2.65 -0.77,5.34 -1.17,8.1c-0.41,2.76 -0.84,5.59 -1.27,8.45c-0.87,5.74 -1.74,11.68 -2.66,17.76c-0.17,1.16 -0.34,2.3 -0.52,3.44v0.1h-13.47v-0.11c0.11,-15.43 0.22,-29.4 0.31,-40.71zM30.95,26.01c0,0.02 0,0.05 0,0.07l0.07,0.01zM30.74,66.65l0.12,0.12c0,-0.04 0,-0.08 0,-0.12zM43.91,66.65c0,0.03 0,0.07 -0.01,0.1l0.11,-0.1z"></path><path id="路径" fill-rule="evenodd" style="fill:#455A64" opacity="1" d="M30.86 66.77C30.86 66.73 30.86 66.69 30.86 66.65L30.74 66.65L30.86 66.77Z"></path><path id="路径" fill-rule="evenodd" style="fill:#455A64" opacity="1" d="M43.91 66.65C43.91 66.68 43.91 66.72 43.9 66.75L44.01 66.65L43.91 66.65Z"></path><path id="路径" fill-rule="evenodd" style="fill:#455A64" opacity="1" d="M31.02 26.09L30.95 26.01C30.95 26.03 30.95 26.06 30.95 26.08L31.02 26.09Z"></path></g><path id="路径" fill-rule="evenodd" style="fill:#FFBE9D" opacity="1" d="M92.37 73.03C92.44 72.64 92.44 72.25 92.37 71.86L92.37 70.4C92.37 69.52 89.64 67.18 89.06 66.99C88.56 66.9 88.05 66.97 87.59 67.18C87.59 67.18 86.81 66.4 86.13 66.4C85.45 66.4 82.91 69.32 82.72 69.62C82.72 69.62 79.91 71.41 79.69 72.54C79.47 73.68 81.25 74.88 81.25 74.88L90.63 74.88C90.63 74.88 92.28 73.71 92.37 73.03Z"></path><g opacity="1"  transform="translate(86.02996826171875 67.17999267578125)  rotate(0)"><path id="路径" fill-rule="evenodd" style="fill:#EB996E" opacity="1" d="M3.17,6.84c0.1,0.2 0.24,0.37 0.42,0.5c0.17,0.12 0.37,0.2 0.59,0.22l-0.01,0.01h0.02c0,0 -0.01,0 -0.01,-0.01l0.47,-0.11l0.01,0.09l0.08,-0.12l-0.09,0.03l-0.02,-0.44c-0.05,-1.18 -0.1,-2.29 -0.14,-3.32c0,-0.26 0,-0.5 -0.03,-0.75c0,-0.22 -0.02,-0.45 -0.07,-0.67c-0.06,-0.2 -0.17,-0.37 -0.31,-0.51c-0.16,-0.12 -0.32,-0.24 -0.49,-0.35l-1.51,-1.03c-0.18,-0.11 -0.36,-0.24 -0.52,-0.38c0.2,0.09 0.4,0.2 0.58,0.33l1.55,0.98c0.18,0.1 0.35,0.22 0.51,0.35c0.18,0.16 0.31,0.36 0.38,0.58c0.06,0.23 0.09,0.48 0.08,0.72l0.04,0.75c0.06,1.02 0.11,2.14 0.16,3.31l0.03,0.53v0.1l-0.09,0.02l-0.58,0.14h-0.02c-0.27,-0.01 -0.53,-0.1 -0.74,-0.27c-0.19,-0.16 -0.35,-0.36 -0.47,-0.57c-0.22,-0.4 -0.39,-0.82 -0.49,-1.26c-0.18,-0.72 -0.29,-1.46 -0.32,-2.2l0.05,0.02l-0.05,-0.07c0,0.02 0,0.03 0,0.05l-1.59,-0.62c-0.21,-0.08 -0.4,-0.16 -0.59,-0.27c0.21,0.04 0.42,0.1 0.62,0.18l1.66,0.58h0.05v0.05c0.05,0.75 0.17,1.49 0.36,2.21c0.11,0.42 0.27,0.82 0.48,1.2zM2.18,3.46c0,0.02 0,0.03 0,0.05l0.05,0.02zM4.65,7.45l0.09,-0.03l-0.08,0.12zM4.18,7.56c0,0.01 0.01,0.01 0.01,0.01h-0.02z"></path><path id="路径" fill-rule="evenodd" style="fill:#EB996E" opacity="1" d="M4.17998 7.56L4.16998 7.57L4.18998 7.57C4.18998 7.57 4.17998 7.57 4.17998 7.56Z"></path><path id="路径" fill-rule="evenodd" style="fill:#EB996E" opacity="1" d="M4.74002 7.42001L4.65002 7.45001L4.66002 7.54001L4.74002 7.42001Z"></path><path id="路径" fill-rule="evenodd" style="fill:#EB996E" opacity="1" d="M2.17999 3.50999L2.22999 3.52999L2.17999 3.45999C2.17999 3.47999 2.17999 3.48999 2.17999 3.50999Z"></path></g><g opacity="1"  transform="translate(81.25 71.02999877929688)  rotate(0)"><path id="路径" fill-rule="evenodd" style="fill:#EB996E" opacity="1" d="M2.33 3.3L0.63 3.43C0.42 3.44 0.21 3.47 0 3.52C0.21 3.54 0.42 3.54 0.63 3.52L2.32 3.46C2.96 3.63 3.61 3.76 4.26 3.86C4.62 3.9 5.01 3.96 5.41 3.96C5.62 3.97 5.82 3.95 6.03 3.92C6.26 3.88 6.46 3.76 6.62 3.58C6.77 3.38 6.84 3.12 6.83 2.87C6.83 2.64 6.79 2.41 6.79 2.21C6.76 1.97 6.64 1.74 6.46 1.58C6.31 1.43 6.14 1.3 5.95 1.2C5.29 0.88 4.56 0.76 3.84 0.87C3.61 0.9 3.38 0.87 3.16 0.8C2.94 0.72 2.74 0.6 2.58 0.43C2.48 0.3 2.4 0.16 2.34 0C2.33 0 2.31 0.21 2.51 0.5C2.68 0.69 2.88 0.83 3.11 0.93C3.34 1.02 3.59 1.05 3.84 1.03C4.53 0.95 5.23 1.07 5.85 1.39C6.02 1.48 6.17 1.6 6.31 1.73C6.45 1.86 6.54 2.03 6.56 2.21C6.57 2.44 6.6 2.66 6.6 2.87C6.62 3.08 6.56 3.28 6.44 3.44C6.3 3.56 6.14 3.66 5.96 3.71C5.78 3.76 5.59 3.77 5.41 3.74C5.04 3.73 4.66 3.7 4.29 3.65C3.64 3.56 3 3.45 2.36 3.3L2.33 3.3Z"></path></g><path id="路径" fill-rule="evenodd" style="fill:#EB996E" opacity="1" d="M92.42 71.16C92.06 71.67 91.77 72.23 91.55 72.81C91.26 73.36 91.01 73.93 90.79 74.51C91.21 74.04 91.54 73.49 91.76 72.9C92.05 72.35 92.27 71.76 92.42 71.16Z"></path><path id="路径" fill-rule="evenodd" style="fill:#263238" opacity="1" d="M69.83 76.23C69.92 76.32 70.02 76.38 70.13 76.43C70.24 76.47 70.36 76.49 70.48 76.49L104.25 76.92L115.12 46.45C115.23 46.14 115.23 45.81 115.1 45.5C114.98 45.2 114.74 44.96 114.44 44.83C114.28 44.75 114.11 44.71 113.93 44.71C113.75 44.71 113.58 44.74 113.41 44.81C113.25 44.88 113.1 44.98 112.98 45.1C112.86 45.23 112.76 45.38 112.7 45.55L101.99 74.4L70.45 74.72C70.22 74.72 70 74.81 69.84 74.97C69.67 75.13 69.58 75.36 69.58 75.59C69.58 75.71 69.6 75.82 69.64 75.94C69.68 76.05 69.75 76.15 69.83 76.23Z"></path><path id="路径" fill-rule="evenodd" style="fill:#FD7753" opacity="1" d="M63.34 76.29L63.34 67.17L45.11 62.87C45.11 62.87 36.14 44.33 34.15 41.95C32.16 39.57 26.85 36.37 22.88 39.95C18.91 43.53 20.15 53.85 20.15 53.85C20.15 53.85 36.67 76.29 39.23 76.29L63.34 76.29Z"></path><path id="路径" fill-rule="evenodd" style="fill:#FFBE9D" opacity="1" d="M79.18 61.3C79.04 61.3 78.9 61.34 78.77 61.4L76.02 62.75L77.22 61.54L78.6 60.77C79.91 59.56 78.6 59.22 78.6 59.22L76.43 59.65L73.67 61.46L70.39 64.22C70.11 64.27 69.81 64.27 69.52 64.22C68.99 64.13 69.09 65.25 68.22 65.77C67.35 66.28 67.27 67.75 67.27 67.75L63.32 68.07L63.35 76.3C63.35 76.3 72.55 74.05 73.67 73.8C74.79 73.54 79.36 69.38 80.04 68.69C80.73 68 83.75 68.17 84.52 67.48C85.3 66.79 84.87 66.01 84.52 65.85C84.18 65.68 79.18 66.72 79.18 66.72L80.67 65.26L81.79 65.52C83.17 65.87 82.91 64.49 82.91 64.49L81.71 63.45C81.77 63.4 81.81 63.33 81.85 63.25C81.88 63.18 81.9 63.1 81.9 63.02C81.9 62.94 81.88 62.86 81.85 62.78C81.81 62.71 81.77 62.64 81.71 62.58C81.04 62.12 80.33 61.72 79.59 61.4C79.46 61.34 79.32 61.3 79.18 61.3Z"></path><path id="路径" fill-rule="evenodd" style="fill:#EB996E" opacity="1" d="M81.03 63.19C81.18 63.29 81.33 63.38 81.47 63.48C81.76 63.67 81.99 63.85 82.2 64C82.41 64.18 82.64 64.34 82.88 64.48C82.9 64.46 82.69 64.21 82.29 63.85C82.1 63.68 81.86 63.49 81.59 63.29C81.46 63.18 81.31 63.08 81.15 62.98C81.07 62.93 80.98 62.88 80.89 62.84C80.85 62.82 80.8 62.8 80.75 62.78C80.69 62.77 80.62 62.77 80.56 62.78C80.36 62.8 80.16 62.86 79.98 62.96C79.81 63.05 79.65 63.14 79.51 63.22C79.21 63.4 78.95 63.57 78.74 63.71C78.5 63.85 78.28 64.03 78.1 64.25C78.36 64.14 78.6 64.01 78.83 63.84C79.05 63.72 79.31 63.57 79.61 63.41C79.9 63.22 80.23 63.08 80.57 63.01C80.74 63.03 80.9 63.09 81.03 63.19Z"></path><path id="路径" fill-rule="evenodd" style="fill:#EB996E" opacity="1" d="M68.98 65.55C69.03 65.59 69.4 65.21 69.9 64.75C70.39 64.29 70.8 63.93 70.77 63.88C70.37 64.03 70.02 64.27 69.74 64.58C69.42 64.85 69.16 65.18 68.98 65.55Z"></path><g opacity="1"  transform="translate(20.1500244140625 41.95001220703125)  rotate(0)"><path id="路径" fill-rule="evenodd" style="fill:#263238" opacity="1" d="M43.3,25.13v9.37h-1.2h-20.49h-2.33c-0.1,0 -0.2,0 -0.31,0c-0.1,-0.02 -0.2,-0.06 -0.29,-0.1c-0.18,-0.1 -0.36,-0.21 -0.52,-0.34c-0.3,-0.22 -0.59,-0.47 -0.87,-0.72c-1.05,-1 -2.06,-2.05 -3,-3.15c-1.85,-2.1 -3.48,-4.13 -4.98,-5.99c-2.96,-3.72 -5.28,-6.8 -6.87,-8.93l-1.82,-2.47c-0.2,-0.28 -0.36,-0.5 -0.47,-0.65c-0.11,-0.15 -0.15,-0.22 -0.15,-0.22c0,0 0.06,0.07 0.17,0.21l0.49,0.63l1.85,2.44c1.62,2.11 3.95,5.17 6.93,8.89c1.49,1.85 3.14,3.87 4.99,5.97c0.95,1.09 1.95,2.13 3,3.11c0.28,0.26 0.57,0.49 0.87,0.71c0.15,0.11 0.31,0.2 0.47,0.28c0.16,0.08 0.34,0.11 0.52,0.1h2.33h20.48h0.98c0,0.03 0,0.07 0,0.11l0.12,-0.11h-0.12c0,-3.06 0,-6.05 0,-8.93l0.09,0.02l-0.09,-0.11c0,0.03 0,0.06 0,0.09l-18.14,-4.31h-0.05l-0.02,-0.04c-3.11,-6.44 -5.76,-11.73 -7.67,-15.38c-0.96,-1.83 -1.74,-3.24 -2.3,-4.19c-0.28,-0.47 -0.49,-0.83 -0.66,-1.06c-0.17,-0.23 -0.24,-0.36 -0.24,-0.36c0.35,0.44 0.67,0.9 0.95,1.39c0.57,0.94 1.38,2.35 2.34,4.17c1.94,3.63 4.61,8.89 7.73,15.3l-0.04,-0.01l0.06,0.05c0,-0.01 -0.01,-0.03 -0.02,-0.04l18.19,4.27zM43.17,25.36l-0.09,-0.11c0,0.03 0,0.06 0,0.09zM43.08,34.38l0.12,-0.11h-0.12c0,0.03 0,0.07 0,0.11zM25.04,20.9c0,-0.01 -0.01,-0.03 -0.02,-0.04l-0.04,-0.01z"></path><path id="路径" fill-rule="evenodd" style="fill:#263238" opacity="1" d="M43.08 34.38L43.2 34.27L43.08 34.27C43.08 34.3 43.08 34.34 43.08 34.38Z"></path><path id="路径" fill-rule="evenodd" style="fill:#263238" opacity="1" d="M24.98 20.85L25.04 20.9C25.04 20.89 25.03 20.87 25.02 20.86L24.98 20.85Z"></path><path id="路径" fill-rule="evenodd" style="fill:#263238" opacity="1" d="M43.17 25.36L43.08 25.25C43.08 25.28 43.08 25.31 43.08 25.34L43.17 25.36Z"></path></g><path id="路径" fill-rule="evenodd" style="fill:#263238" opacity="1" d="M30.26 40.09C31.18 40.29 31.75 40.52 31.75 40.48C31.76 40.46 31.62 40.39 31.38 40.28C31.03 40.13 30.67 40.01 30.3 39.92C29.76 39.77 29.2 39.67 28.64 39.62C27.95 39.55 27.26 39.55 26.57 39.62C25.88 39.68 25.2 39.81 24.54 40C24 40.16 23.47 40.37 22.96 40.61C22.62 40.77 22.29 40.96 21.97 41.17C21.85 41.23 21.74 41.32 21.64 41.42C21.66 41.45 22.16 41.13 23.03 40.75C23.54 40.54 24.06 40.35 24.6 40.21C25.25 40.03 25.92 39.91 26.59 39.84C27.27 39.79 27.94 39.79 28.62 39.84C29.17 39.88 29.72 39.97 30.26 40.09Z"></path><path id="路径" fill-rule="evenodd" style="fill:#263238" opacity="1" d="M44.82 63.24C44.12 63.67 43.51 64.24 43.02 64.91C42.48 65.53 42.06 66.25 41.79 67.03C41.86 67.06 42.36 66.1 43.2 65.05C44.03 64 44.86 63.29 44.82 63.24Z"></path><path id="路径" fill-rule="evenodd" style="fill:#263238" opacity="1" d="M44.6 63.03C43.37 62.99 42.16 63.42 41.24 64.23C41.28 64.29 41.92 63.86 42.86 63.52C43.8 63.19 44.6 63.1 44.6 63.03Z"></path><path id="路径" fill-rule="evenodd" style="fill:#455A64" opacity="1" d="M7.58999 105.39C5.70999 105.74 3.75999 106.18 2.25999 107.38C0.759985 108.58 -0.140015 110.75 0.659985 112.49L3.87999 113.53C19.95 111.74 36.18 111.85 52.23 113.86C53.31 114 54.45 114.14 55.45 113.71C56.45 113.29 57.2 112.06 56.72 111.08C56.38 110.36 55.53 110.04 54.76 109.78C39.58 104.89 23.29 102.54 7.58999 105.39Z"></path><path id="路径" fill-rule="evenodd" style="fill:#263238" opacity="1" d="M12.16 104.88C12.01 104.89 11.87 104.89 11.72 104.88C11.58 104.86 11.43 104.86 11.29 104.88C10.99 104.89 10.7 104.94 10.42 105.01L8.84003 105.35C7.90003 105.56 6.97003 105.83 6.05003 106.13C4.72003 106.57 3.45003 107.18 2.29003 107.96C1.97003 108.18 1.67003 108.41 1.38003 108.66L1.16003 108.86L1.09003 108.93C1.09003 108.93 1.12003 108.91 1.18003 108.87L1.41003 108.69C1.62003 108.53 1.90003 108.3 2.34003 108.04C3.51003 107.3 4.78003 106.71 6.10003 106.3C6.94003 106.02 7.87003 105.77 8.88003 105.55L10.46 105.22C10.73 105.15 11 105.11 11.28 105.09C11.41 105.08 11.55 105.08 11.68 105.09C11.83 105.11 11.97 105.11 12.12 105.09C13.29 104.99 14.51 104.93 15.77 104.82C17.03 104.72 18.34 104.65 19.68 104.63C24.28 104.53 28.88 104.75 33.45 105.29C35.2 105.49 36.61 105.71 37.59 105.87L38.71 106.03L39.01 106.07C39.04 106.08 39.08 106.08 39.11 106.07L39.01 106.04L38.72 105.98L37.6 105.77C36.63 105.59 35.21 105.33 33.47 105.11C28.91 104.53 24.32 104.29 19.72 104.39C18.42 104.42 17.07 104.49 15.81 104.59C14.54 104.69 13.31 104.77 12.16 104.88Z"></path><path id="路径" fill-rule="evenodd" style="fill:#455A64" opacity="1" d="M1.05999 81.34L26.94 82.25C27.03 82.25 27.11 82.27 27.2 82.31C27.28 82.35 27.35 82.41 27.41 82.48C27.46 82.55 27.51 82.63 27.53 82.71C27.56 82.8 27.56 82.89 27.55 82.98L23.82 114L29.66 114L32.67 79.85C32.7 79.58 32.68 79.3 32.6 79.03C32.52 78.77 32.38 78.52 32.2 78.31C32.02 78.1 31.8 77.93 31.55 77.8C31.3 77.68 31.03 77.62 30.75 77.61L0.359985 76.52L1.05999 81.34Z"></path></g><g opacity="1"  transform="translate(56.8499755859375 100.60000610351562)  rotate(0)"><path id="路径" fill-rule="evenodd" style="fill:#455A64" opacity="1" d="M96.25 3.68L105.18 88.97L109.34 88.97L100.3 2.78L96.25 2.78L96.25 3.68Z"></path><path id="路径" fill-rule="evenodd" style="fill:#455A64" opacity="1" d="M5.49002 88.94L13.82 3.7L13.82 2.78L9.76002 2.78L1.33002 88.94L5.49002 88.94Z"></path><g opacity="1"  transform="translate(1.21002197265625 2.760009765625)  rotate(0)"><path id="路径" fill-rule="evenodd" style="fill:#263238" opacity="1" d="M4.18,86.05c3.94,-40 7.28,-73.88 8.39,-85.12999c0,-0.42 0,-0.66 0,-0.89h0.03l-0.02,-0.02h0.04h0.03v0.03c0,0.24 0,0.49 0,0.92c-1.09,11.26999 -4.37,45.17999 -8.26,85.24999v0.1h-4.39v-0.13c2.36,-24 4.49,-45.55 6.03,-61.1c0.77,-7.77 1.39,-14.03 1.83,-18.35999c0.22,-2.17 0.39,-3.82 0.5,-4.97c0.06,-0.56 0.1,-0.99 0.13,-1.3c0.03,-0.31 0.06,-0.43 0.06,-0.43c0,0 0,0.15 -0.03,0.43c-0.04,0.28 -0.07,0.74 -0.13,1.3c-0.1,1.15 -0.26,2.83 -0.47,5c-0.43,4.33999 -1.02,10.60999 -1.76,18.37999c-1.51,15.51 -3.6,36.99 -5.92,60.92h-0.12l0.11,0.12c0,-0.04 0,-0.08 0.01,-0.12h3.94c0,0.03 -0.01,0.06 -0.01,0.1l0.11,-0.1zM4.17,86.15l0.11,-0.1h-0.1c0,0.03 -0.01,0.06 -0.01,0.1zM0.12,86.05h0.12c-0.01,0.04 -0.01,0.08 -0.01,0.12z"></path><path id="路径" fill-rule="evenodd" style="fill:#263238" opacity="1" d="M12.57 0.0300098C12.57 0.0200098 12.57 0.0200098 12.57 0.0100098L9.54 0.0300098L8.8 0.0300098L8.56 0.0300098L8.81 0.0300098L9.56 0.0300098L12.57 0.0300098Z"></path><path id="路径" fill-rule="evenodd" style="fill:#263238" opacity="1" d="M4.16998 86.15L4.27998 86.05L4.17998 86.05C4.17998 86.08 4.16998 86.11 4.16998 86.15Z"></path><path id="路径" fill-rule="evenodd" style="fill:#263238" opacity="1" d="M12.58 0.0100098L12.57 0.0100098C12.57 0.0200098 12.57 0.0200098 12.57 0.0300098L12.6 0.0300098L12.58 0.0100098Z"></path><path id="路径" fill-rule="evenodd" style="fill:#263238" opacity="1" d="M12.57 0L12.57 0.01L12.58 0.01L12.57 0Z"></path><path id="路径" fill-rule="evenodd" style="fill:#263238" opacity="1" d="M0.239995 86.05L0.119995 86.05L0.229995 86.17C0.229995 86.13 0.229995 86.09 0.239995 86.05Z"></path></g><path id="路径" fill-rule="evenodd" style="fill:#455A64" opacity="1" d="M116.08 3.67L116.08 0L0 0L0 3.67L116.08 3.67Z"></path><path id="路径" fill-rule="evenodd" style="fill:#263238" opacity="1" d="M0.380005 3.68C0.380005 3.74 23.52 3.79 52.05 3.79C80.58 3.79 103.72 3.74 103.72 3.68C103.72 3.6 80.6 3.56 52.05 3.56C23.51 3.56 0.380005 3.61 0.380005 3.68Z"></path></g></g></svg>