<svg xmlns="http://www.w3.org/2000/svg" xmlns:xlink="http://www.w3.org/1999/xlink" width="186" height="229" viewBox="0 0 186 229" fill="none"><g opacity="1"  transform="translate(0 0)  rotate(0)"><g opacity="1"  transform="translate(0.27001953125 0)  rotate(0)"><path id="路径" fill-rule="evenodd" style="fill:#F0F0F0" opacity="1" d="M163.83 119.39L163.83 114.66L142.13 114.66L142.13 119.39L163.83 119.39Z"></path><path id="路径" fill-rule="evenodd" style="fill:#E6E6E6" opacity="1" d="M93.53 53.9L93.53 0L0 0L0 53.9L93.53 53.9Z"></path><path id="路径" fill-rule="evenodd" style="fill:#F0F0F0" opacity="1" d="M74.41 30.58L74.41 28.76L12.31 28.76L12.31 30.58L74.41 30.58Z"></path><path id="路径" fill-rule="evenodd" style="fill:#F0F0F0" opacity="1" d="M78.69 37.5401L78.69 35.55L12.31 35.55L12.31 37.5401L78.69 37.5401Z"></path><path id="路径" fill-rule="evenodd" style="fill:#F0F0F0" opacity="1" d="M78.69 44.41L78.69 42.42L12.31 42.42L12.31 44.41L78.69 44.41Z"></path><path id="路径" fill-rule="evenodd" style="fill:#F0F0F0" opacity="1" d="M34.01 23.63L34.01 18.9L12.31 18.9L12.31 23.63L34.01 23.63Z"></path><path id="路径" fill-rule="evenodd" style="fill:#E0E0E0" opacity="1" d="M93.53 8.67L93.53 0L0 0L0 8.67L93.53 8.67Z"></path><path id="路径" fill-rule="evenodd" style="fill:#FFFFFF" opacity="1" d="M91.83 1.26C91.72 1.14 90.31 2.41 88.71 4.09C87.1 5.76 85.9 7.21 86.02 7.32C86.13 7.43 87.54 6.17 89.14 4.5C90.75 2.83 91.95 1.37 91.83 1.26Z"></path><path id="路径" fill-rule="evenodd" style="fill:#FFFFFF" opacity="1" d="M86.02 1.26C85.9 1.37 87.1 2.82 88.71 4.5C90.32 6.18 91.72 7.45 91.83 7.33C91.95 7.22 90.75 5.77 89.14 4.09C87.53 2.41 86.14 1.14 86.02 1.26Z"></path><path id="路径" fill-rule="evenodd" style="fill:#E6E6E6" opacity="1" d="M181.01 199.38L181.01 100.51L70.57 100.51L70.57 199.38L181.01 199.38Z"></path></g><g opacity="1"  transform="translate(138.280029296875 97.0899658203125)  rotate(0)"><path id="路径" fill-rule="evenodd" style="fill:#FF725E" opacity="1" d="M45.12 24.8C44.61 23.54 43.17 22.95 41.82 22.79C40.47 22.63 39.08 22.76 37.8 22.34C36.67 21.97 35.58 20.83 35.96 19.68C36.24 19.07 36.71 18.57 37.3 18.25C40.31 16.11 42.99 13.55 45.27 10.64C46.78 8.68 48.19 6.22 47.57 3.81C46.95 1.39 44.36 -0.13 41.87 0.01C39.39 0.15 37.16 1.65 35.55 3.54C33.95 5.43 32.85 7.71 31.73 9.93C30.61 12.14 29.4 14.39 27.63 16.11C27.12 16.62 26.42 17.12 25.74 16.9C25.07 16.68 24.74 15.89 24.69 15.18C24.72 14.46 24.71 13.75 24.64 13.04C24.27 11.36 22.25 10.41 20.62 10.87C19 11.33 17.81 12.84 17.27 14.48C16.83 16.14 16.65 17.86 16.76 19.57C16.79 22.77 16.81 25.97 16.81 29.18C16.83 30.9 16.65 32.95 15.16 33.77C14.07 34.37 12.71 34.02 11.62 33.45C9.93 32.57 8.52 31.23 7.57 29.58C6.85 28.35 6.29 26.86 5.01 26.25C3.47 25.53 1.55 26.57 0.73 28.08C-0.09 29.59 0.09 31.42 0.04 33.14C-0.31 43.48 1.7 54.98 10.57 61.18L10.57 61.19C16 63.18 21.08 62.67 26.55 60.77C32.06 58.79 36.95 55.37 40.71 50.88C41.85 49.65 42.74 48.21 43.31 46.63C43.6 45.84 43.69 45 43.59 44.16C43.49 43.33 43.2 42.53 42.74 41.83C41.25 39.79 38.21 39.63 35.85 40.52C34.58 40.99 33.41 41.71 32.08 41.95C30.75 42.2 29.17 41.82 28.56 40.6C27.94 39.39 28.55 37.85 29.58 36.96C30.6 36.08 31.92 35.67 33.19 35.21C36.72 33.91 40.01 32.01 42.91 29.6C44.35 28.39 45.82 26.56 45.12 24.8Z"></path><path id="路径" fill-rule="evenodd" style="fill:#263238" opacity="1" d="M10.5 78.5801C10.28 75.3401 10.33 72.1001 10.66 68.8801C11.18 64.1001 12.14 59.3801 13.53 54.7901C15.27 49.1701 17.31 43.6601 19.66 38.2701L21.44 33.9901C22.04 32.5901 22.63 31.2101 23.29 29.9001C24.57 27.3801 25.98 24.9301 27.52 22.5601C28.97 20.3101 30.43 18.2001 31.84 16.2401C33.26 14.2801 34.58 12.4801 35.86 10.8901C37.87 8.37005 40.06 6.00005 42.42 3.81005C43.25 3.03005 43.91 2.45005 44.36 2.04005L44.87 1.59005C44.99 1.49005 45.04 1.43005 45.04 1.43005C44.96 1.47005 44.89 1.52005 44.83 1.58005L44.29 2.01005C43.83 2.40005 43.16 2.97005 42.31 3.73005C39.91 5.90005 37.69 8.25005 35.66 10.7601C34.39 12.3501 33.04 14.1601 31.64 16.1001C30.25 18.0401 28.76 20.1201 27.29 22.4201C25.74 24.7901 24.31 27.2501 23.03 29.7801C22.36 31.1001 21.76 32.4801 21.16 33.8801L19.33 38.1401C16.99 43.5401 14.95 49.0701 13.23 54.7001C11.85 59.3201 10.91 64.0601 10.42 68.8501C10.11 72.0901 10.09 75.3401 10.36 78.5801C10.47 79.7301 10.58 80.6401 10.68 81.2101C10.73 81.5001 10.76 81.7201 10.79 81.8901C10.8 81.9701 10.82 82.0401 10.84 82.1201L10.84 81.8801C10.82 81.7201 10.8 81.4901 10.76 81.2001C10.68 80.6001 10.59 79.7301 10.5 78.5801Z"></path><path id="路径" fill-rule="evenodd" style="fill:#263238" opacity="1" d="M22.84 26.98C22.66 25.19 22.43 22.9 22.16 20.28C21.89 17.66 21.57 15.32 21.24 13.59C21.08 12.74 20.94 12.06 20.81 11.59C20.77 11.34 20.7 11.1 20.6 10.87C20.6 11.12 20.63 11.37 20.7 11.62C20.78 12.09 20.89 12.78 21.03 13.63C21.28 15.33 21.58 17.7 21.85 20.31C22.12 22.93 22.38 25.29 22.62 27.01C22.74 27.88 22.85 28.55 22.94 29.03C22.97 29.28 23.02 29.52 23.1 29.76C23.12 29.51 23.1 29.26 23.06 29.01C23 28.47 22.93 27.78 22.84 26.98Z"></path><path id="路径" fill-rule="evenodd" style="fill:#263238" opacity="1" d="M44.35 25.74C44.64 25.73 44.92 25.7 45.2 25.64C44.91 25.6 44.61 25.59 44.32 25.61C43.74 25.62 42.92 25.66 41.9 25.74C39.27 25.97 36.66 26.34 34.06 26.83C31 27.42 28.26 28.1 26.3 28.68C25.33 28.96 24.55 29.22 24.01 29.41C23.72 29.5 23.45 29.61 23.18 29.74C23.47 29.7 23.76 29.63 24.04 29.53C24.56 29.38 25.36 29.15 26.34 28.9C28.31 28.4 31.05 27.75 34.1 27.17C37.15 26.6 39.93 26.2 41.95 25.98C42.96 25.86 43.78 25.79 44.35 25.74Z"></path><path id="路径" fill-rule="evenodd" style="fill:#263238" opacity="1" d="M2.93002 27.17L2.55002 26.37C2.51002 26.27 2.46002 26.18 2.40002 26.1C2.42002 26.2 2.45002 26.3 2.49002 26.4L2.81002 27.22C3.12002 27.98 3.53002 28.99 4.02002 30.24C5.03002 32.79 6.36002 36.33 7.81002 40.26C9.26003 44.19 10.62 47.72 11.68 50.25C12.21 51.51 12.65 52.54 12.98 53.23L13.36 54.03C13.4 54.13 13.45 54.22 13.51 54.3C13.49 54.2 13.46 54.1 13.42 54C13.33 53.75 13.22 53.51 13.09 53.18C12.79 52.42 12.38 51.41 11.89 50.16C10.88 47.61 9.55002 44.07 8.10002 40.14C6.65002 36.21 5.29002 32.68 4.23002 30.15C3.70002 28.89 3.25002 27.86 2.93002 27.17Z"></path><path id="路径" fill-rule="evenodd" style="fill:#263238" opacity="1" d="M14.68 54C15.43 53.8 16.51 53.49 17.85 53.08C20.52 52.27 24.2 51.07 28.22 49.71C32.24 48.36 35.9 47.13 38.56 46.26L41.7 45.25L42.55 44.96C42.65 44.93 42.75 44.89 42.84 44.84C42.73 44.85 42.63 44.87 42.53 44.9L41.66 45.13C40.9 45.33 39.83 45.64 38.49 46.05C35.82 46.86 32.14 48.06 28.12 49.42C24.1 50.77 20.44 52 17.78 52.87L14.64 53.88L13.79 54.17C13.69 54.2 13.59 54.24 13.5 54.29C13.61 54.28 13.71 54.26 13.81 54.23L14.68 54Z"></path></g><g opacity="1"  transform="translate(69.1199951171875 15.97998046875)  rotate(0)"><path id="路径" fill-rule="evenodd" style="fill:#455A64" opacity="1" d="M4.31 3.62C3.14 4.77 2.22 6.15 1.58 7.66C0.95 9.17 0.62 10.8 0.61 12.44L0 156.25C-0.01 159.56 1.29 162.75 3.62 165.1C5.95 167.46 9.12 168.79 12.43 168.81L69.8 169.07C71.44 169.08 73.07 168.76 74.59 168.14C76.11 167.52 77.49 166.6 78.65 165.45C79.82 164.29 80.74 162.91 81.38 161.4C82.01 159.89 82.34 158.26 82.35 156.62L82.96 12.81C82.97 9.5 81.67 6.32 79.34 3.96C77 1.61 73.83 0.28 70.52 0.26L13.16 0C11.52 -0.01 9.89 0.31 8.37 0.93C6.86 1.55 5.47 2.46 4.31 3.62Z"></path><path id="路径" fill-rule="evenodd" style="fill:#FFFFFF" opacity="1" d="M29.53 9.91001L29.53 7.89001C29.55 7.16001 29.28 6.45001 28.77 5.92001C28.27 5.39001 27.58 5.08001 26.84 5.06001L22.93 5.06001L13.2 5.01001C10.88 5.00001 8.66001 5.90001 7.01001 7.53001C5.36001 9.15001 4.42001 11.36 4.39001 13.68L3.82001 154.05C3.81001 155.2 4.04001 156.34 4.47001 157.4C4.91001 158.46 5.54001 159.43 6.35001 160.24C7.16001 161.06 8.12001 161.71 9.18001 162.15C10.24 162.6 11.38 162.83 12.53 162.84L69.77 163.1C70.92 163.1 72.06 162.88 73.13 162.45C74.19 162.01 75.16 161.37 75.97 160.56C76.79 159.76 77.44 158.79 77.88 157.73C78.33 156.67 78.56 155.54 78.57 154.39L79.14 14.01C79.15 11.69 78.25 9.46001 76.61 7.81001C74.98 6.16001 72.76 5.22001 70.44 5.21001L59.32 5.21001C58.96 5.21001 58.6 5.29001 58.27 5.44001C57.94 5.58001 57.63 5.79001 57.38 6.05001C57.13 6.31001 56.93 6.62001 56.8 6.96001C56.67 7.30001 56.6 7.66001 56.61 8.02001L56.61 10.04C56.62 10.4 56.55 10.76 56.42 11.09C56.29 11.43 56.09 11.74 55.84 12C55.59 12.26 55.28 12.47 54.95 12.62C54.62 12.76 54.26 12.84 53.9 12.84L32.23 12.75C31.49 12.73 30.8 12.42 30.29 11.89C29.79 11.35 29.51 10.64 29.53 9.91001Z"></path><path id="路径" fill-rule="evenodd" style="fill:#FF725E" opacity="1" d="M62.8 131.12L20.23 130.92C19.79 130.92 19.43 131.41 19.43 131.99L19.38 143.13C19.37 143.71 19.73 144.2 20.17 144.2L62.74 144.38C63.18 144.39 63.55 143.91 63.55 143.32L63.59 132.19C63.62 131.94 63.56 131.69 63.41 131.49C63.26 131.29 63.04 131.16 62.8 131.12Z"></path><path id="路径" fill-rule="evenodd" style="fill:#FF725E" opacity="1" d="M28.6438 49.1835L28.6561 46.4735L13.8862 46.4065L13.8739 49.1165L28.6438 49.1835Z"></path><path id="路径" fill-rule="evenodd" style="fill:#000000" opacity="0.1" d="M28.6438 49.1835L28.6561 46.4735L13.8862 46.4065L13.8739 49.1165L28.6438 49.1835Z"></path><g opacity="1"  transform="translate(13.69000244140625 53)  rotate(0)"><path id="路径" fill-rule="evenodd" style="fill:#E0E0E0" opacity="1" d="M58.56,10.05c0,0.01 -0.01,0.01 -0.01,0.01c0,0 0.01,0 0.01,-0.01zM58.55,10.06c-0.09,0.04 -0.18,0.06 -0.28,0.06c0.09,-0.01 0.19,-0.03 0.28,-0.06zM58.56,10.05c0.02,0 0.04,-0.02 0.05,-0.02v0.01c-0.02,0.01 -0.03,0.01 -0.05,0.01zM58.61,10.03c0.06,-0.39997 -0.34,-9.43997 -0.27,-9.49997c0.13,0.01 0.26,0.04 0.38,0.1c0.12,0.06 0.22,0.15 0.3,0.25c0.14,0.23 0.2,0.5 0.16,0.76c0,0.27 0,0.54 0,0.8c0,1.05 0,2.01 0,2.87c0,1.71 0,3.04 0,3.95c-0.01,0.17 -0.07,0.34 -0.17,0.47c-0.05,0.07 -0.11,0.13 -0.17,0.18c-0.07,0.04 -0.14,0.08 -0.21,0.10997c-0.01,0 -0.01,0 -0.02,0.01z"></path><path id="路径" fill-rule="evenodd" style="fill:#E0E0E0" opacity="1" d="M52.96 10.02L38.41 9.9L16.81 9.77L4.06 9.7L1.13 9.7C1.01 9.7 0.89 9.68 0.78 9.64C0.67 9.59 0.57 9.52 0.49 9.43C0.42 9.34 0.36 9.24 0.33 9.12C0.31 8.85 0.31 8.58 0.33 8.32C0.33 7.74 0.33 7.17 0.33 6.59C0.33 5.44 0.33 4.3 0.33 3.15C0.33 2.57 0.33 2 0.33 1.42C0.29 1.16 0.34 0.9 0.48 0.67C0.55 0.57 0.65 0.49 0.76 0.44C0.87 0.38 0.99 0.35 1.11 0.36L49.14 0.53L57.44 0.53L58.34 0.53C58.47 0.54 58.6 0.57 58.72 0.63C58.84 0.69 58.94 0.78 59.02 0.88C59.16 1.11 59.22 1.38 59.18 1.64C59.18 1.91 59.18 2.18 59.18 2.44C59.18 3.49 59.18 4.45 59.18 5.31C59.18 7.02 59.18 8.35 59.18 9.26C59.17 9.43 59.11 9.6 59.01 9.73C58.96 9.8 58.9 9.86 58.84 9.91C58.92 9.85 58.99 9.78 59.05 9.71C59.16 9.56 59.22 9.4 59.24 9.22C59.25 8.3 59.29 6.98 59.29 5.26C59.29 4.39 59.29 3.43 59.29 2.38C59.29 2.13 59.29 1.86 59.29 1.59C59.33 1.29 59.27 0.99 59.1 0.74C59.01 0.61 58.89 0.51 58.75 0.43C58.61 0.36 58.46 0.32 58.3 0.32L57.4 0.32L49.1 0.26L1.07 0C0.9 0 0.73 0.04 0.58 0.11C0.43 0.19 0.3 0.3 0.2 0.44C0.09 0.58 0.03 0.74 0.01 0.91C0 1.06 0 1.21 0.01 1.37C0.01 1.94 0.01 2.52 0.01 3.09C0.01 4.24 0.01 5.39 0.01 6.54C0.01 7.11 0.01 7.68 0.01 8.26L0.01 8.68C0 8.84 0.01 8.99 0.04 9.14C0.08 9.3 0.16 9.45 0.27 9.57C0.38 9.7 0.51 9.8 0.66 9.86C0.81 9.92 0.97 9.95 1.13 9.94L4.06 9.94L16.81 9.99L38.41 10.06L52.96 10.06L56.92 10.06L52.96 10.02Z"></path><path id="路径" fill-rule="evenodd" style="fill:#E0E0E0" opacity="1" d="M58.63,10.02c0.07,-0.02997 0.14,-0.06997 0.21,-0.10997c-0.07,0.05 -0.15,0.09997 -0.23,0.12997c-0.02,0.01 -0.03,0.01 -0.05,0.01c0.03,-0.01 0.04,-0.02 0.07,-0.03zM58.55,10.06c0,0 0.01,0 0.01,-0.01c0,0.01 -0.01,0.01 -0.01,0.01z"></path><path id="路径" fill-rule="evenodd" style="fill:#E0E0E0" opacity="1" d="M58.27 10.1201C58.37 10.1201 58.46 10.1001 58.55 10.0601C58.46 10.0901 58.36 10.1101 58.27 10.1201Z"></path></g><path id="路径" fill-rule="evenodd" style="fill:#FF725E" opacity="1" d="M45.34 58.77L45.34 56.24L18.33 56.24L18.33 58.77L45.34 58.77Z"></path><path id="路径" fill-rule="evenodd" style="fill:#FFFFFF" opacity="0.2" d="M45.34 58.77L45.34 56.24L18.33 56.24L18.33 58.77L45.34 58.77Z"></path><path id="路径" fill-rule="evenodd" style="fill:#FF725E" opacity="1" d="M28.5438 73.9135L28.5561 71.2035L13.7863 71.1365L13.774 73.8464L28.5438 73.9135Z"></path><path id="路径" fill-rule="evenodd" style="fill:#000000" opacity="0.1" d="M28.5438 73.9135L28.5561 71.2035L13.7863 71.1365L13.774 73.8464L28.5438 73.9135Z"></path><g opacity="1"  transform="translate(13.55999755859375 77.7900390625)  rotate(0)"><path id="路径" fill-rule="evenodd" style="fill:#E0E0E0" opacity="1" d="M52.72 10.02L56.67 10.02L52.72 9.97L38.21 9.86L16.69 9.72L3.98 9.66L2.32 9.66L1.53 9.66C1.27 9.68 1.03 9.61 0.81 9.48C0.61 9.34 0.47 9.14 0.39 8.9C0.35 8.64 0.34 8.37 0.36 8.1C0.36 7.53 0.36 6.95 0.36 6.38C0.36 5.23 0.36 4.08 0.36 2.93C0.36 2.36 0.36 1.76 0.36 1.21C0.39 0.96 0.52 0.72 0.71 0.55C0.9 0.38 1.15 0.29 1.41 0.29L49.28 0.46L57.55 0.46C57.84 0.44 58.13 0.46 58.41 0.51C58.67 0.59 58.9 0.76 59.04 1C59.17 1.23 59.23 1.49 59.21 1.76L59.21 5.4C59.21 6.27 59.21 7.03 59.21 7.7C59.21 8.03 59.21 8.33 59.21 8.61C59.23 8.85 59.19 9.1 59.1 9.33C59.04 9.49 58.94 9.63 58.81 9.74C58.69 9.85 58.54 9.94 58.38 9.99C58.26 10.02 58.15 10.04 58.03 10.05C58.16 10.09 58.28 10.1 58.41 10.09C58.58 10.04 58.73 9.96 58.87 9.84C59 9.73 59.11 9.59 59.18 9.43C59.28 9.19 59.32 8.94 59.3 8.68C59.3 8.4 59.3 8.09 59.3 7.77C59.3 7.09 59.3 6.35 59.3 5.47C59.3 4.59 59.3 3.64 59.3 2.6C59.3 2.34 59.3 2.07 59.3 1.8C59.33 1.51 59.27 1.22 59.12 0.96C58.96 0.69 58.71 0.49 58.41 0.39C58.11 0.33 57.8 0.31 57.49 0.33L49.23 0.26L1.36 0C1.03 0 0.71 0.12 0.46 0.34C0.21 0.56 0.05 0.86 0.01 1.19C0.01 1.76 0.01 2.34 0.01 2.91C0.01 4.06 0.01 5.21 0.01 6.35C0.01 6.93 0.01 7.5 0.01 8.08C-0.01 8.37 0 8.67 0.06 8.96C0.14 9.27 0.33 9.53 0.59 9.71C0.85 9.88 1.16 9.97 1.47 9.95L3.97 9.95L16.68 9.99L38.21 10.02L52.72 10.02Z"></path></g><path id="路径" fill-rule="evenodd" style="fill:#FF725E" opacity="1" d="M28.4338 99.7135L28.4461 97.0035L13.6762 96.9365L13.6639 99.6465L28.4338 99.7135Z"></path><path id="路径" fill-rule="evenodd" style="fill:#000000" opacity="0.1" d="M28.4338 99.7135L28.4461 97.0035L13.6762 96.9365L13.6639 99.6465L28.4338 99.7135Z"></path><g opacity="1"  transform="translate(13.489990234375 103.510009765625)  rotate(0)"><path id="路径" fill-rule="evenodd" style="fill:#E0E0E0" opacity="1" d="M59.11 0.96C58.95 0.69 58.7 0.49 58.4 0.39C58.1 0.33 57.79 0.31 57.48 0.33L49.22 0.26L1.35 0C1.02 0 0.7 0.12 0.46 0.34C0.21 0.56 0.05 0.86 0.01 1.19C0.01 1.79 0.01 2.37 0.01 2.94C0.01 4.09 0.01 5.24 0.01 6.39C0.01 6.96 0.01 7.54 0.01 8.11C-0.01 8.41 0 8.7 0.06 8.99C0.14 9.3 0.33 9.57 0.59 9.75C0.85 9.92 1.16 10 1.47 9.98L3.97 9.98L16.68 10.03L38.2 10.1L52.71 10.1L56.65 10.1L52.71 10.05L38.2 9.94L16.68 9.8L3.97 9.74L1.47 9.74C1.22 9.75 0.97 9.69 0.76 9.55C0.56 9.41 0.41 9.21 0.34 8.98C0.3 8.71 0.29 8.45 0.31 8.18C0.31 7.6 0.31 7.03 0.31 6.46C0.31 5.31 0.31 4.16 0.31 3.01C0.31 2.44 0.31 1.86 0.31 1.29C0.34 1.03 0.47 0.8 0.66 0.63C0.85 0.46 1.1 0.36 1.36 0.36L49.23 0.54L57.49 0.54C57.78 0.52 58.07 0.54 58.36 0.59C58.62 0.67 58.84 0.84 58.98 1.07C59.12 1.3 59.18 1.57 59.15 1.83L59.15 5.48C59.15 6.35 59.15 7.12 59.15 7.78C59.15 8.12 59.15 8.41 59.15 8.69C59.17 8.94 59.14 9.19 59.05 9.42C58.98 9.57 58.88 9.71 58.75 9.82C58.63 9.93 58.48 10.02 58.32 10.07C58.21 10.1 58.09 10.12 57.98 10.13C58.12 10.15 58.26 10.14 58.4 10.09C58.57 10.04 58.72 9.96 58.86 9.85C58.99 9.74 59.1 9.59 59.17 9.44C59.27 9.2 59.32 8.94 59.29 8.68C59.29 8.4 59.29 8.1 59.29 7.77C59.29 7.09 59.29 6.35 59.29 5.47C59.29 4.59 59.29 3.64 59.29 2.6C59.29 2.34 59.29 2.07 59.29 1.8C59.32 1.51 59.26 1.22 59.11 0.96Z"></path></g><path id="路径" fill-rule="evenodd" style="fill:#FF725E" opacity="1" d="M44.7441 84.2113L44.7556 81.6813L17.7458 81.5587L17.7344 84.0887L44.7441 84.2113Z"></path><path id="路径" fill-rule="evenodd" style="fill:#FFFFFF" opacity="0.2" d="M44.7441 84.2113L44.7556 81.6813L17.7458 81.5587L17.7344 84.0887L44.7441 84.2113Z"></path><path id="路径" fill-rule="evenodd" style="fill:#FF725E" opacity="1" d="M17.94 108.37C17.84 108.58 17.81 108.82 17.84 109.04C17.88 109.27 17.98 109.49 18.14 109.66C18.29 109.83 18.49 109.95 18.72 110.01C18.94 110.07 19.18 110.06 19.39 109.99C19.61 109.91 19.81 109.77 19.95 109.59C20.09 109.4 20.17 109.18 20.19 108.95C20.2 108.63 20.09 108.32 19.88 108.08C19.66 107.84 19.36 107.7 19.04 107.68C18.81 107.67 18.58 107.74 18.39 107.86C18.19 107.98 18.03 108.16 17.94 108.37Z"></path><path id="路径" fill-rule="evenodd" style="fill:#FF725E" opacity="1" d="M22.2 107.8C22.05 107.86 21.92 107.96 21.81 108.08C21.7 108.19 21.61 108.33 21.56 108.49C21.5 108.64 21.48 108.8 21.49 108.96C21.48 109.13 21.5 109.29 21.56 109.44C21.61 109.6 21.7 109.74 21.81 109.85C21.92 109.97 22.05 110.07 22.2 110.13C22.35 110.2 22.51 110.23 22.68 110.23C22.84 110.23 23 110.2 23.15 110.13C23.3 110.07 23.43 109.97 23.54 109.85C23.65 109.74 23.74 109.6 23.79 109.44C23.85 109.29 23.87 109.13 23.86 108.96C23.87 108.8 23.85 108.64 23.79 108.49C23.74 108.33 23.65 108.19 23.54 108.08C23.43 107.96 23.3 107.86 23.15 107.8C23 107.73 22.84 107.7 22.68 107.7C22.51 107.7 22.35 107.73 22.2 107.8Z"></path><path id="路径" fill-rule="evenodd" style="fill:#FF725E" opacity="1" d="M25.71 107.89C25.51 108.01 25.35 108.19 25.26 108.4C25.16 108.61 25.13 108.85 25.16 109.07C25.2 109.3 25.3 109.52 25.46 109.69C25.61 109.86 25.81 109.98 26.04 110.04C26.26 110.1 26.5 110.09 26.72 110.02C26.93 109.94 27.13 109.8 27.27 109.62C27.41 109.43 27.49 109.21 27.51 108.98C27.52 108.66 27.41 108.35 27.19 108.11C26.98 107.87 26.68 107.73 26.36 107.71C26.13 107.7 25.9 107.77 25.71 107.89Z"></path><path id="路径" fill-rule="evenodd" style="fill:#FF725E" opacity="1" d="M29.12 109.71C29.27 109.88 29.47 110 29.7 110.06C29.92 110.12 30.16 110.11 30.38 110.04C30.59 109.96 30.79 109.82 30.93 109.64C31.07 109.45 31.15 109.23 31.17 109C31.18 108.68 31.07 108.37 30.85 108.13C30.64 107.89 30.34 107.75 30.02 107.73C29.79 107.72 29.56 107.79 29.37 107.91C29.17 108.03 29.01 108.21 28.92 108.42C28.82 108.63 28.79 108.87 28.82 109.09C28.86 109.32 28.96 109.54 29.12 109.71Z"></path><path id="路径" fill-rule="evenodd" style="fill:#FF725E" opacity="1" d="M32.78 109.73C32.93 109.9 33.14 110.03 33.36 110.08C33.58 110.14 33.82 110.13 34.04 110.05C34.26 109.98 34.45 109.84 34.59 109.65C34.73 109.47 34.81 109.25 34.83 109.02C34.84 108.7 34.73 108.39 34.51 108.15C34.3 107.91 34 107.77 33.68 107.75C33.45 107.74 33.22 107.81 33.03 107.93C32.83 108.05 32.67 108.23 32.58 108.44C32.48 108.65 32.45 108.89 32.48 109.12C32.52 109.35 32.62 109.56 32.78 109.73Z"></path><path id="路径" fill-rule="evenodd" style="fill:#FF725E" opacity="1" d="M38.49 109.04C38.5 108.71 38.38 108.4 38.16 108.16C37.94 107.92 37.64 107.78 37.31 107.77C37.08 107.77 36.86 107.84 36.67 107.96C36.47 108.09 36.32 108.27 36.23 108.48C36.14 108.69 36.11 108.93 36.15 109.15C36.19 109.38 36.29 109.59 36.45 109.76C36.6 109.93 36.81 110.05 37.03 110.11C37.25 110.16 37.49 110.15 37.71 110.07C37.92 109.99 38.11 109.86 38.25 109.67C38.39 109.49 38.47 109.27 38.49 109.04Z"></path><path id="路径" fill-rule="evenodd" style="fill:#FF725E" opacity="1" d="M40.11 108.16C40 108.27 39.91 108.41 39.86 108.57C39.8 108.72 39.78 108.88 39.79 109.04C39.78 109.21 39.8 109.37 39.86 109.52C39.91 109.68 40 109.82 40.11 109.93C40.22 110.05 40.35 110.15 40.5 110.21C40.65 110.28 40.81 110.31 40.98 110.31C41.14 110.31 41.3 110.28 41.45 110.21C41.6 110.15 41.73 110.05 41.84 109.93C41.95 109.82 42.04 109.68 42.09 109.52C42.15 109.37 42.17 109.21 42.16 109.04C42.17 108.88 42.15 108.72 42.09 108.57C42.04 108.41 41.95 108.27 41.84 108.16C41.73 108.04 41.6 107.94 41.45 107.88C41.3 107.81 41.14 107.78 40.98 107.78C40.81 107.78 40.65 107.81 40.5 107.88C40.35 107.94 40.22 108.04 40.11 108.16Z"></path><path id="路径" fill-rule="evenodd" style="fill:#FF725E" opacity="1" d="M45.03 110.1C45.24 110.02 45.43 109.89 45.57 109.7C45.71 109.52 45.79 109.3 45.81 109.07C45.82 108.74 45.7 108.43 45.48 108.19C45.26 107.95 44.96 107.81 44.63 107.8C44.4 107.8 44.18 107.87 43.99 107.99C43.79 108.12 43.64 108.3 43.55 108.51C43.46 108.72 43.43 108.96 43.47 109.18C43.51 109.41 43.61 109.62 43.77 109.79C43.92 109.96 44.13 110.08 44.35 110.14C44.57 110.19 44.81 110.18 45.03 110.1Z"></path><path id="路径" fill-rule="evenodd" style="fill:#FF725E" opacity="1" d="M48.68 110.12C48.9 110.05 49.09 109.91 49.23 109.72C49.37 109.54 49.45 109.32 49.47 109.09C49.48 108.77 49.37 108.46 49.15 108.22C48.94 107.98 48.64 107.84 48.32 107.82C48.09 107.81 47.86 107.88 47.67 108C47.47 108.12 47.31 108.3 47.22 108.51C47.12 108.72 47.09 108.96 47.12 109.19C47.16 109.42 47.26 109.63 47.42 109.8C47.57 109.97 47.78 110.1 48 110.15C48.22 110.21 48.46 110.2 48.68 110.12Z"></path><g opacity="0.2"  transform="translate(17.83001708984375 107.6800537109375)  rotate(0)"><path id="路径" fill-rule="evenodd" style="fill:#FFFFFF" opacity="0.2" d="M0.31 1.98C0.46 2.15 0.66 2.27 0.89 2.33C1.11 2.39 1.35 2.38 1.56 2.31C1.78 2.23 1.98 2.09 2.12 1.91C2.26 1.72 2.34 1.5 2.36 1.27C2.37 0.95 2.26 0.64 2.05 0.4C1.83 0.16 1.53 0.02 1.21 0C0.98 -0.01 0.75 0.06 0.56 0.18C0.36 0.3 0.2 0.48 0.11 0.69C0.01 0.9 -0.02 1.14 0.01 1.36C0.05 1.59 0.15 1.81 0.31 1.98Z"></path><path id="路径" fill-rule="evenodd" style="fill:#FFFFFF" opacity="0.2" d="M5.95997 0.81002C5.90997 0.65002 5.81997 0.51002 5.70997 0.40002C5.59997 0.28002 5.46997 0.18002 5.31997 0.12002C5.16997 0.0500195 5.00997 0.0200195 4.84997 0.0200195C4.67997 0.0200195 4.51997 0.0500195 4.36997 0.12002C4.21997 0.18002 4.08997 0.28002 3.97997 0.40002C3.86997 0.51002 3.77997 0.65002 3.72997 0.81002C3.66997 0.96002 3.64997 1.12002 3.65997 1.28002C3.64997 1.45002 3.66997 1.61002 3.72997 1.76002C3.77997 1.92002 3.86997 2.06002 3.97997 2.17002C4.08997 2.29002 4.21997 2.39002 4.36997 2.45002C4.51997 2.52002 4.67997 2.55002 4.84997 2.55002C5.00997 2.55002 5.16997 2.52002 5.31997 2.45002C5.46997 2.39002 5.59997 2.29002 5.70997 2.17002C5.81997 2.06002 5.90997 1.92002 5.95997 1.76002C6.01997 1.61002 6.03997 1.45002 6.02997 1.28002C6.03997 1.12002 6.01997 0.96002 5.95997 0.81002Z"></path><path id="路径" fill-rule="evenodd" style="fill:#FFFFFF" opacity="0.2" d="M9.68001 1.30003C9.69001 0.980029 9.58001 0.670029 9.36001 0.430029C9.15001 0.190029 8.85001 0.0500293 8.53001 0.0300293C8.30001 0.0200293 8.07001 0.0900293 7.88001 0.210029C7.68001 0.330029 7.52001 0.510029 7.43001 0.720029C7.33001 0.930029 7.30001 1.17003 7.33001 1.39003C7.37001 1.62003 7.47001 1.84003 7.63001 2.01003C7.78001 2.18003 7.98001 2.30003 8.21001 2.36003C8.43001 2.42003 8.67001 2.41003 8.89001 2.34003C9.10001 2.26003 9.30001 2.12003 9.44001 1.94003C9.58001 1.75003 9.66001 1.53003 9.68001 1.30003Z"></path><path id="路径" fill-rule="evenodd" style="fill:#FFFFFF" opacity="0.2" d="M10.99 1.41005C11.03 1.64005 11.13 1.86005 11.29 2.03005C11.44 2.20005 11.64 2.32005 11.87 2.38005C12.09 2.44005 12.33 2.43005 12.55 2.36005C12.76 2.28005 12.96 2.14005 13.1 1.96005C13.24 1.77005 13.32 1.55005 13.34 1.32005C13.35 1.00005 13.24 0.690049 13.02 0.450049C12.81 0.210049 12.51 0.0700488 12.19 0.0500488C11.96 0.0400488 11.73 0.110049 11.54 0.230049C11.34 0.350049 11.18 0.530049 11.09 0.740049C10.99 0.950049 10.96 1.19005 10.99 1.41005Z"></path><path id="路径" fill-rule="evenodd" style="fill:#FFFFFF" opacity="0.2" d="M14.75 0.759946C14.65 0.969946 14.62 1.20995 14.65 1.43995C14.69 1.66995 14.79 1.87995 14.95 2.04995C15.1 2.21995 15.31 2.34995 15.53 2.39995C15.75 2.45995 15.99 2.44995 16.21 2.36995C16.43 2.29995 16.62 2.15995 16.76 1.96995C16.9 1.78995 16.98 1.56995 17 1.33995C17.01 1.01995 16.9 0.709946 16.68 0.469946C16.47 0.229946 16.17 0.0899463 15.85 0.0699463C15.62 0.0599463 15.39 0.129946 15.2 0.249946C15 0.369946 14.84 0.549946 14.75 0.759946Z"></path><path id="路径" fill-rule="evenodd" style="fill:#FFFFFF" opacity="0.2" d="M18.62 2.07997C18.77 2.24997 18.98 2.36997 19.2 2.42997C19.42 2.47997 19.66 2.46997 19.88 2.38997C20.09 2.30997 20.28 2.17997 20.42 1.98997C20.56 1.80997 20.64 1.58997 20.66 1.35997C20.67 1.02997 20.55 0.719966 20.33 0.479966C20.11 0.239966 19.81 0.0999658 19.48 0.0899658C19.25 0.0899658 19.03 0.159966 18.84 0.279966C18.64 0.409966 18.49 0.589966 18.4 0.799966C18.31 1.00997 18.28 1.24997 18.32 1.46997C18.36 1.69997 18.46 1.90997 18.62 2.07997Z"></path><path id="路径" fill-rule="evenodd" style="fill:#FFFFFF" opacity="0.2" d="M24.26 1.83998C24.32 1.68998 24.34 1.52998 24.33 1.35998C24.34 1.19998 24.32 1.03998 24.26 0.889976C24.21 0.729976 24.12 0.589976 24.01 0.479976C23.9 0.359976 23.77 0.259976 23.62 0.199976C23.47 0.129976 23.31 0.0999756 23.15 0.0999756C22.98 0.0999756 22.82 0.129976 22.67 0.199976C22.52 0.259976 22.39 0.359976 22.28 0.479976C22.17 0.589976 22.08 0.729976 22.03 0.889976C21.97 1.03998 21.95 1.19998 21.96 1.35998C21.95 1.52998 21.97 1.68998 22.03 1.83998C22.08 1.99998 22.17 2.13998 22.28 2.24998C22.39 2.36998 22.52 2.46998 22.67 2.52998C22.82 2.59998 22.98 2.62998 23.15 2.62998C23.31 2.62998 23.47 2.59998 23.62 2.52998C23.77 2.46998 23.9 2.36998 24.01 2.24998C24.12 2.13998 24.21 1.99998 24.26 1.83998Z"></path><path id="路径" fill-rule="evenodd" style="fill:#FFFFFF" opacity="0.2" d="M27.98 1.39C27.99 1.06 27.87 0.749995 27.65 0.509995C27.43 0.269995 27.13 0.129995 26.8 0.119995C26.57 0.119995 26.35 0.189995 26.16 0.309995C25.96 0.439995 25.81 0.619995 25.72 0.829995C25.63 1.04 25.6 1.28 25.64 1.5C25.68 1.73 25.78 1.94 25.94 2.11C26.09 2.28 26.3 2.4 26.52 2.46C26.74 2.51 26.98 2.5 27.2 2.42C27.41 2.34 27.6 2.21 27.74 2.02C27.88 1.84 27.96 1.62 27.98 1.39Z"></path><path id="路径" fill-rule="evenodd" style="fill:#FFFFFF" opacity="0.2" d="M31.32 0.540015C31.11 0.300015 30.81 0.160015 30.49 0.140015C30.26 0.130015 30.03 0.200015 29.84 0.320015C29.64 0.440015 29.48 0.620015 29.39 0.830015C29.29 1.04001 29.26 1.28001 29.29 1.51001C29.33 1.74001 29.43 1.95001 29.59 2.12001C29.74 2.29001 29.95 2.42001 30.17 2.47001C30.39 2.53001 30.63 2.52001 30.85 2.44001C31.07 2.37001 31.26 2.23001 31.4 2.04001C31.54 1.86001 31.62 1.64001 31.64 1.41001C31.65 1.09001 31.54 0.780015 31.32 0.540015Z"></path></g><path id="路径" fill-rule="evenodd" style="fill:#FF725E" opacity="1" d="M39.68 30.17L47.29 30.2C47.29 30.2 47.47 26.65 44.27 26.17C44.67 25.99 45.01 25.71 45.25 25.34C45.48 24.97 45.6 24.54 45.6 24.11C45.61 23.83 45.57 23.54 45.47 23.28C45.37 23.01 45.22 22.77 45.03 22.56C44.83 22.36 44.6 22.19 44.34 22.08C44.08 21.97 43.79 21.91 43.51 21.91C43.23 21.91 42.95 21.97 42.68 22.08C42.42 22.19 42.19 22.36 41.99 22.56C41.8 22.77 41.65 23.01 41.55 23.28C41.45 23.54 41.41 23.83 41.42 24.11C41.41 24.55 41.54 24.98 41.77 25.35C42.01 25.72 42.35 26.02 42.75 26.19C39.54 26.68 39.68 30.17 39.68 30.17Z"></path><path id="路径" fill-rule="evenodd" style="fill:#000000" opacity="0.1" d="M44.27 26.17C44.67 25.99 45.01 25.71 45.25 25.34C45.48 24.97 45.6 24.54 45.6 24.11C45.61 23.83 45.57 23.54 45.47 23.28C45.37 23.01 45.22 22.77 45.03 22.56C44.83 22.36 44.6 22.19 44.34 22.08C44.08 21.97 43.79 21.91 43.51 21.91C43.23 21.91 42.95 21.97 42.68 22.08C42.42 22.19 42.19 22.36 41.99 22.56C41.8 22.77 41.65 23.01 41.55 23.28C41.45 23.54 41.41 23.83 41.42 24.11C41.41 24.55 41.54 24.98 41.77 25.35C42.01 25.72 42.35 26.02 42.75 26.19C39.54 26.68 39.68 30.17 39.68 30.17L47.29 30.2C47.29 30.2 47.47 26.65 44.27 26.17Z"></path><path id="路径" fill-rule="evenodd" style="fill:#FF725E" opacity="1" d="M56.6125 35.7014L56.6272 32.4615L29.5275 32.3385L29.5128 35.5785L56.6125 35.7014Z"></path><path id="路径" fill-rule="evenodd" style="fill:#FFFFFF" opacity="0.2" d="M56.6125 35.7014L56.6272 32.4615L29.5275 32.3385L29.5128 35.5785L56.6125 35.7014Z"></path></g><g opacity="1"  transform="translate(26.1199951171875 68.6400146484375)  rotate(0)"><path id="路径" fill-rule="evenodd" style="fill:#FF725E" opacity="1" d="M19.15 152.22L19.08 159.64L19.63 159.68C22.05 159.84 31.98 160.07 33.62 159.56C35.43 159 27.96 157.19 27.96 157.19L27.96 152.28L19.15 152.22Z"></path><path id="路径" fill-rule="evenodd" style="fill:#263238" opacity="1" d="M19.11 159.11C19.11 159.19 22.41 159.26 26.47 159.26C30.52 159.26 33.82 159.19 33.82 159.11C33.82 159.03 30.52 158.96 26.47 158.96C22.41 158.96 19.11 159.03 19.11 159.11Z"></path><path id="路径" fill-rule="evenodd" style="fill:#263238" opacity="1" d="M28.78 157.29C28.72 157.24 28.48 157.35 28.3 157.63C28.12 157.91 28.04 158.16 28.12 158.2C28.19 158.25 28.37 158.04 28.54 157.81C28.71 157.57 28.83 157.35 28.78 157.29Z"></path><path id="路径" fill-rule="evenodd" style="fill:#263238" opacity="1" d="M29.28 157.45C29.22 157.4 28.99 157.59 28.81 157.89C28.64 158.2 28.6 158.52 28.68 158.52C28.76 158.55 28.92 158.29 29.08 158.02C29.24 157.75 29.34 157.49 29.28 157.45Z"></path><path id="路径" fill-rule="evenodd" style="fill:#263238" opacity="1" d="M20.85 157.75C20.52 157.49 20.11 157.35 19.7 157.36C19.38 157.38 19.21 157.5 19.23 157.54C19.25 157.57 19.42 157.54 19.69 157.57C20.04 157.63 20.37 157.77 20.64 157.99C20.93 158.22 21.18 158.48 21.41 158.76C21.6 158.98 21.74 159.08 21.77 159.08C21.81 159.06 21.74 158.89 21.6 158.64C21.41 158.3 21.15 158 20.85 157.75Z"></path><path id="路径" fill-rule="evenodd" style="fill:#263238" opacity="1" d="M27.3 157.6C27.31 157.66 27.54 157.7 27.79 157.6C28.04 157.51 28.19 157.34 28.15 157.27C28.11 157.2 27.91 157.26 27.69 157.34C27.47 157.42 27.29 157.55 27.3 157.6Z"></path><path id="路径" fill-rule="evenodd" style="fill:#263238" opacity="1" d="M26.95 156.81C26.94 156.9 27.18 156.97 27.48 156.96C27.78 156.95 28.01 156.88 28.01 156.8C28 156.71 27.77 156.64 27.48 156.65C27.19 156.66 26.96 156.73 26.95 156.81Z"></path><path id="路径" fill-rule="evenodd" style="fill:#FF725E" opacity="1" d="M40.83 152.22L40.76 159.57L41.31 159.61C43.73 159.76 53.67 160.07 55.3 159.56C57.11 159 49.64 157.19 49.64 157.19L49.64 152.28L40.83 152.22Z"></path><path id="路径" fill-rule="evenodd" style="fill:#263238" opacity="1" d="M40.8 159.12C40.8 159.2 44.09 159.27 48.15 159.27C52.22 159.27 55.51 159.2 55.51 159.12C55.51 159.04 52.21 158.97 48.15 158.97C44.09 158.97 40.8 159.04 40.8 159.12Z"></path><path id="路径" fill-rule="evenodd" style="fill:#263238" opacity="1" d="M50.46 157.29C50.4 157.24 50.15 157.35 49.98 157.63C49.8 157.91 49.73 158.16 49.8 158.2C49.87 158.25 50.05 158.04 50.22 157.81C50.39 157.57 50.51 157.35 50.46 157.29Z"></path><path id="路径" fill-rule="evenodd" style="fill:#263238" opacity="1" d="M50.96 157.45C50.9 157.4 50.67 157.59 50.5 157.89C50.32 158.2 50.28 158.52 50.36 158.52C50.44 158.55 50.59 158.29 50.75 158.02C50.92 157.75 51.03 157.49 50.96 157.45Z"></path><path id="路径" fill-rule="evenodd" style="fill:#263238" opacity="1" d="M42.53 157.75C42.2 157.49 41.79 157.35 41.38 157.36C41.06 157.38 40.89 157.5 40.91 157.54C40.93 157.57 41.11 157.54 41.37 157.57C41.72 157.63 42.05 157.77 42.32 157.99C42.61 158.22 42.86 158.48 43.09 158.76C43.29 158.98 43.42 159.08 43.45 159.08C43.49 159.06 43.42 158.89 43.28 158.64C43.09 158.3 42.83 158 42.53 157.75Z"></path><path id="路径" fill-rule="evenodd" style="fill:#263238" opacity="1" d="M48.98 157.6C48.99 157.66 49.22 157.7 49.47 157.6C49.72 157.51 49.87 157.34 49.83 157.27C49.79 157.2 49.59 157.26 49.37 157.34C49.15 157.42 48.97 157.55 48.98 157.6Z"></path><path id="路径" fill-rule="evenodd" style="fill:#263238" opacity="1" d="M48.65 156.81C48.64 156.9 48.87 156.97 49.17 156.96C49.47 156.95 49.7 156.88 49.7 156.8C49.7 156.71 49.46 156.64 49.17 156.65C48.89 156.66 48.66 156.73 48.65 156.81Z"></path><path id="路径" fill-rule="evenodd" style="fill:#FFBE9D" opacity="1" d="M11.97 85.37C12.08 85.36 12.19 85.31 12.28 85.24C12.36 85.16 12.43 85.06 12.46 84.95C12.49 84.84 12.48 84.73 12.45 84.62C12.41 84.51 12.34 84.41 12.25 84.34C11.82 83.92 11.44 83.44 11.14 82.91C10.87 82.5 10.68 82.04 10.57 81.56C10.34 80.61 10.2 79.64 10.16 78.66L10.07 78.08C11.36 71.71 15.06 53.02 20.41 41.08L22.6 45.59L23.56 48.94L17.71 63.37L42.65 63.04L38.93 48.72L43.45 33.79C48.33 33.9 60.88 34.08 62.97 33.13C65.6 31.98 79.21 14.8 79.21 14.8C80.1 14.11 80.94 13.37 81.75 12.59C81.75 12.59 82.58 11.9 82.08 11.38C81.85 11.15 81.28 11.26 81.28 11.26C81.34 10.93 81.34 10.59 81.28 10.26C81.18 9.94001 80.45 10 80.45 10C80.42 9.73001 80.42 9.46001 80.45 9.19001C80.46 9.13001 80.45 9.07001 80.42 9.02001C80.39 8.96001 80.34 8.92002 80.29 8.90001C79.95 8.76001 79.58 8.69001 79.21 8.70001C78.77 8.38001 80.56 5.87001 81.22 5.07001C81.89 4.27001 81.77 3.64001 81.18 3.64001C80.77 3.64001 78.68 6.05001 78.04 6.86001C77.39 7.67001 75.69 9.92002 75.63 8.13001C75.57 6.33001 74.85 4.97001 74.4 4.74001C73.94 4.51001 73.46 5.05001 73.71 5.55001C73.92 6.12001 74.06 6.72001 74.11 7.32001C74.17 7.80001 74.15 8.29001 74.04 8.77001C73.85 9.65001 73.6 10.52 73.27 11.36L73.22 11.36C73.22 11.36 60.69 23.39 59.79 24.24C58.98 25.01 42.69 23.33 39.42 22.98C38.31 22.82 37.19 22.74 36.07 22.75C34.65 22.82 34.4 23.02 32.98 23.03C29.41 23.07 25.85 23.39 22.33 23.97C20.74 24.24 19.25 24.95 18.03 26C16.81 27.06 15.9 28.44 15.41 29.98C12.12 40.26 4.66 64.59 3.35 78.26C2.35 80.06 1.46 81.92 0.66 83.82C-0.26 86.33 -0.04 86.42 0.27 86.47C1.11 86.63 2.06 82.12 2.42 83.21C2.77 84.3 0.61 88.59 1.49 88.71C2.64 88.88 3.55 84.12 3.66 83.74C3.77 83.36 4.34 83.48 4.23 83.84C4.07 84.34 2.45 89.7 3.58 89.87C4.2 89.97 4.27 88.83 4.27 88.83C4.27 88.83 5.42 83.71 5.94 83.81C6.46 83.91 5.9 86.94 5.64 87.95C5.38 88.96 5.74 89.47 6.28 89.23C6.65 89.05 7.53 85.98 7.77 84.98C8.01 83.98 8.61 81.21 9.42 82.82C10.23 84.42 11.46 85.35 11.97 85.37Z"></path><path id="路径" fill-rule="evenodd" style="fill:#FF725E" opacity="1" d="M41.17 42.1799C41.17 42.1799 44.04 39.2599 43.93 37.7499C43.88 36.3999 43.71 35.0599 43.43 33.7299L58.94 34.3099L58.45 23.7999L36.18 21.5699C35.41 23.7599 28.39 22.6799 28.39 22.6799C20.82 22.9399 20.35 24.3299 17.21 26.7699C14.06 29.2199 8.84998 50.2099 8.84998 50.2099L16.61 52.6999C17.34 50.2299 21.05 38.0199 21.05 38.0199C21.05 38.0199 22.88 47.9699 22.4 49.1699C21.95 50.1999 21.43 51.1899 20.83 52.1399C16.61 58.5499 17.17 61.7599 17.17 61.7599L42.64 60.9799C42.69 57.4199 40.59 49.1399 40.15 47.8199C39.71 46.4999 41.17 42.1799 41.17 42.1799Z"></path><path id="路径" fill-rule="evenodd" style="fill:#263238" opacity="1" d="M27.13 49.8C25.88 49.67 24.74 49.53 23.93 49.43C23.49 49.34 23.04 49.3 22.59 49.3C23.01 49.46 23.45 49.58 23.89 49.6301C24.7 49.8 25.84 49.97 27.1 50.1C28.36 50.23 29.5 50.2901 30.33 50.2901C30.78 50.32 31.23 50.3 31.67 50.22C31.23 50.1301 30.79 50.08 30.34 50.07C29.52 50.01 28.38 49.93 27.13 49.8Z"></path><path id="路径" fill-rule="evenodd" style="fill:#263238" opacity="1" d="M28.52 48.89C27.15 49.05 25.91 49.1101 25.01 49.14C24.52 49.1301 24.03 49.16 23.55 49.22C24.03 49.32 24.52 49.37 25.01 49.35C27.38 49.4 29.74 49.12 32.03 48.5201C32.51 48.43 32.98 48.2701 33.42 48.05C32.93 48.1 32.44 48.19 31.96 48.32C31.1 48.5 29.88 48.73 28.52 48.89Z"></path><path id="路径" fill-rule="evenodd" style="fill:#263238" opacity="1" d="M40.84 42.7C40.56 43.83 40.32 44.87 40.1 45.76C39.97 46.18 39.89 46.61 39.86 47.05C40.06 46.66 40.21 46.24 40.31 45.82C40.56 45.07 40.84 43.97 41.13 42.77C41.42 41.58 41.65 40.49 41.8 39.69C41.91 39.26 41.97 38.83 41.98 38.39C41.8 38.79 41.67 39.21 41.6 39.64C41.38 40.54 41.11 41.57 40.84 42.7Z"></path><path id="路径" fill-rule="evenodd" style="fill:#263238" opacity="1" d="M9.10999 49.12C10.36 49.62 11.65 50.02 12.96 50.33C14.24 50.73 15.55 51.03 16.88 51.24C15.63 50.74 14.34 50.34 13.03 50.03C11.75 49.63 10.44 49.33 9.10999 49.12Z"></path><path id="路径" fill-rule="evenodd" style="fill:#263238" opacity="1" d="M36.64 25.87C36.56 26.97 36.74 28.07 37.15 29.1C37.52 30.03 38.08 30.88 38.79 31.58C39.51 32.28 40.36 32.83 41.3 33.18C41.87 33.4 42.46 33.54 43.06 33.6C43.27 33.64 43.49 33.64 43.71 33.6C42.91 33.48 42.13 33.26 41.38 32.96C40.58 32.63 39.84 32.15 39.2 31.56C38.42 30.84 37.82 29.96 37.43 28.97C36.6 26.87 36.81 24.63 37.59 23.4C37.9 22.9 38.36 22.53 38.91 22.33C39.29 22.17 39.54 22.17 39.54 22.17C39.54 22.17 39.48 22.17 39.36 22.17C39.2 22.17 39.03 22.19 38.88 22.23C38.28 22.41 37.77 22.79 37.42 23.31C36.93 24.07 36.66 24.96 36.64 25.87Z"></path><path id="路径" fill-rule="evenodd" style="fill:#263238" opacity="1" d="M57.12 23.51C56.97 25.27 56.92 27.03 56.96 28.8C56.91 30.56 56.95 32.33 57.1 34.09C57.25 32.33 57.31 30.56 57.26 28.8C57.31 27.03 57.27 25.27 57.12 23.51Z"></path><path id="路径" fill-rule="evenodd" style="fill:#FFBE9D" opacity="1" d="M39.59 15.85C39.78 12.58 39.59 5.02997 39.59 5.02997L33.84 2.08997L27.47 7.09997L28.45 23.47L34.3 23.84C34.74 23.85 35.18 23.69 35.5 23.38C35.83 23.07 36.02 22.65 36.03 22.2C36.09 20.92 36.23 19.48 36.23 19.48C36.23 19.48 39.4 19.13 39.59 15.85Z"></path><path id="路径" fill-rule="evenodd" style="fill:#EB996E" opacity="1" d="M36.19 13.44C35.92 13.41 35.61 13.05 35.49 12.6C35.44 12.38 35.44 12.16 35.49 11.95C35.49 11.86 35.51 11.78 35.56 11.71C35.6 11.64 35.66 11.58 35.73 11.54C35.77 11.51 35.82 11.51 35.87 11.52C35.92 11.53 35.97 11.56 36 11.6C36.05 11.65 36.05 11.71 36.05 11.71C36.05 11.72 36.09 11.65 36.05 11.56C36.03 11.5 35.98 11.45 35.92 11.42C35.84 11.39 35.76 11.39 35.68 11.42C35.59 11.47 35.51 11.54 35.44 11.63C35.38 11.71 35.35 11.81 35.34 11.92C35.27 12.16 35.27 12.41 35.34 12.65C35.46 13.14 35.82 13.57 36.19 13.57C36.25 13.57 36.32 13.56 36.39 13.53C36.45 13.51 36.51 13.46 36.55 13.41C36.6 13.33 36.6 13.27 36.6 13.27C36.59 13.26 36.57 13.31 36.5 13.36C36.45 13.39 36.41 13.42 36.35 13.43C36.3 13.45 36.25 13.45 36.19 13.44Z"></path><path id="路径" fill-rule="evenodd" style="fill:#263238" opacity="1" d="M35.75 29.91C34.22 22.54 34.66 22.16 36.59 15.32C36.63 15.2 36.66 15.07 36.69 14.95C36.73 14.83 36.74 14.77 36.77 14.68C36.82 14.41 36.85 14.14 36.85 13.86C36.57 13.97 36.27 13.99 35.97 13.92C35.68 13.86 35.41 13.72 35.19 13.51C34.98 13.28 34.83 13 34.76 12.7C34.69 12.39 34.71 12.08 34.8 11.78C34.94 11.46 35.14 11.17 35.4 10.93C35.65 10.69 35.95 10.5 36.28 10.39C36.92 10.12 37.61 9.98 38.23 9.69C39.56 9.06 40.48 7.75 41.1 6.38C41.62 5.43 41.78 4.32 41.55 3.27C41.11 1.76 39.51 1.01 38.05 0.6C35.82 -0.03 33.42 -0.31 31.25 0.49C29.08 1.29 26.48 2.69 26.48 5.09C25.2 4.98 24.46 6.1 23.96 7.49C23.63 8.34 23.44 9.23 23.38 10.13C23.22 13.27 22.34 17.6 20.31 19.9C19.16 21.18 17.57 22.06 16.92 23.66C16.34 25.04 16.64 26.69 16.11 28.09C15.63 29.32 14.58 30.2 13.81 31.27C13.03 32.49 12.56 33.89 12.47 35.34C12.37 36.78 12.65 38.23 13.26 39.54C13.89 40.82 14.76 41.95 15.84 42.88C16.91 43.81 18.16 44.51 19.52 44.94C22.2 45.75 25.06 45.78 27.76 45.02C29.78 44.53 31.67 43.6 33.28 42.28C34.93 40.93 36.06 39.06 36.49 36.97C36.89 34.63 36.24 32.24 35.75 29.91Z"></path><g opacity="1"  transform="translate(35.8499755859375 13.4200439453125)  rotate(0)"><path id="路径" fill-rule="evenodd" style="fill:#FF725E" opacity="1" d="M0.21,1.78c-0.03,0.13 -0.08,0.35 0,0.33c0.29,0 0.69,-0.06 1.07,-0.09l0.46,-0.04c0.01,0.04 0.03,0.08 0.04,0.12l0.08,-0.13l-0.12,0.01c-0.23,-0.53 -0.42,-1.02 -0.53,-1.37c-0.11,-0.19 -0.18,-0.4 -0.23,-0.61c0.12,0.18 0.22,0.37 0.3,0.57c0.17,0.37 0.4,0.88 0.65,1.47l0.05,0.11h-0.12l-0.58,0.05c-0.39,0 -0.73,0.08 -1.12,0.07c-0.03,-0.01 -0.06,-0.02 -0.09,-0.05c-0.03,-0.02 -0.05,-0.05 -0.06,-0.08c-0.01,-0.05 -0.01,-0.11 0,-0.16c0.02,-0.08 0.03,-0.16 0.05,-0.23l0.11,-0.41c0.05,-0.27 0.13,-0.54 0.24,-0.79c-0.01,0.27 -0.05,0.55 -0.12,0.82zM1.86,1.97l-0.08,0.13c-0.01,-0.04 -0.03,-0.08 -0.04,-0.12z"></path><path id="路径" fill-rule="evenodd" style="fill:#FF725E" opacity="1" d="M1.77999 2.09997L1.85999 1.96997L1.73999 1.97997C1.74999 2.01997 1.76999 2.05997 1.77999 2.09997Z"></path></g><path id="路径" fill-rule="evenodd" style="fill:#263238" opacity="1" d="M17.92 156.01L31.53 155.81L30.01 75.19L39.86 105.31L38.22 153.89L51.68 153.89L53.72 104.26L42.64 60.99L17.17 61.77L16 71.29C15.74 73.38 16.43 78.13 16.49 80.23L17.92 156.01Z"></path><path id="路径" fill-rule="evenodd" style="fill:#455A64" opacity="1" d="M25.1 74.13C25.46 74.32 25.85 74.46 26.25 74.54C26.99 74.76 28.03 75.02 29.18 75.25C30.33 75.48 31.39 75.64 32.15 75.74C32.56 75.81 32.98 75.84 33.4 75.81C33.41 75.72 31.56 75.42 29.27 74.96C26.97 74.49 25.1 74.04 25.1 74.13Z"></path><path id="路径" fill-rule="evenodd" style="fill:#455A64" opacity="1" d="M37.91 151.16C37.91 151.24 40.97 151.31 44.73 151.31C48.49 151.31 51.54 151.24 51.54 151.16C51.54 151.07 48.5 151.01 44.73 151.01C40.96 151.01 37.91 151.08 37.91 151.16Z"></path><path id="路径" fill-rule="evenodd" style="fill:#455A64" opacity="1" d="M18.18 153.71C18.18 153.8 21.14 153.86 24.79 153.86C28.45 153.86 31.41 153.8 31.41 153.71C31.41 153.63 28.44 153.56 24.79 153.56C21.14 153.56 18.18 153.62 18.18 153.71Z"></path><path id="路径" fill-rule="evenodd" style="fill:#455A64" opacity="1" d="M28.35 74.8199C28.28 74.8199 28.49 92.4399 28.85 114.17C29.22 135.9 29.57 153.51 29.65 153.51C29.74 153.51 29.51 135.9 29.15 114.17C28.8 92.4299 28.43 74.8199 28.35 74.8199Z"></path><path id="路径" fill-rule="evenodd" style="fill:#455A64" opacity="1" d="M40.75 62.66C40.89 63.25 41.09 64.11 41.35 65.21L43.65 74.57C45.63 82.49 48.36 93.44 51.37 105.5L51.37 105.46C51.37 105.56 51.37 105.68 51.37 105.8C50.89 118.31 50.46 129.65 50.15 137.87C50.01 141.96 49.89 145.3 49.81 147.59C49.78 148.72 49.73 149.62 49.73 150.24L49.73 150.92C49.72 151 49.72 151.08 49.73 151.16C49.75 151.08 49.75 151 49.75 150.92C49.76 150.76 49.79 150.53 49.79 150.24C49.82 149.62 49.87 148.74 49.92 147.59C50.03 145.28 50.18 141.97 50.36 137.88C50.69 129.65 51.16 118.32 51.67 105.81C51.67 105.69 51.67 105.57 51.67 105.47L51.67 105.43C48.62 93.35 45.86 82.43 43.86 74.52C42.85 70.59 42.04 67.39 41.47 65.18C41.18 64.09 40.96 63.21 40.8 62.64C40.72 62.36 40.66 62.14 40.62 61.98C40.6 61.91 40.58 61.83 40.55 61.76C40.55 61.84 40.57 61.91 40.59 61.99C40.63 62.16 40.68 62.37 40.75 62.66Z"></path><g opacity="1"  transform="translate(39.219970703125 104.449951171875)  rotate(0)"><path id="路径" fill-rule="evenodd" style="fill:#455A64" opacity="1" d="M0.6 1.03C1.15 0.98 2.08 0.85 3.14 0.66C4.15 0.54 5.15 0.32 6.12 0C5.1 0.02 4.09 0.14 3.09 0.35C1.85 0.58 0.79 0.8 0.34 0.93L0 1.03L0.34 1.03C0.35 1.03 0.36 1.03 0.37 1.03L0.37 0.93C0.52 0.98 0.6 1.01 0.6 1.03Z"></path><path id="路径" fill-rule="evenodd" style="fill:#455A64" opacity="1" d="M0.369995 1.03005C0.429995 1.03005 0.479995 1.04005 0.519995 1.04005C0.539995 1.04005 0.569995 1.04005 0.599995 1.03005C0.599995 1.01005 0.519995 0.980054 0.369995 0.930054L0.369995 1.03005Z"></path><path id="路径" fill-rule="evenodd" style="fill:#455A64" opacity="1" d="M0.60002 1.03003C0.57002 1.04003 0.54002 1.04003 0.52002 1.04003C0.57002 1.04003 0.60002 1.05003 0.60002 1.03003Z"></path><path id="路径" fill-rule="evenodd" style="fill:#455A64" opacity="1" d="M0.369995 1.05003C0.409995 1.05003 0.459995 1.04003 0.519995 1.04003C0.479995 1.04003 0.429995 1.03003 0.369995 1.03003L0.369995 1.05003Z"></path></g><path id="路径" fill-rule="evenodd" style="fill:#455A64" opacity="1" d="M42.42 105.98C43.31 106.11 44.2 106.15 45.1 106.1C43.35 105.68 41.54 105.54 39.75 105.69C40.63 105.87 41.52 105.96 42.42 105.98Z"></path><path id="路径" fill-rule="evenodd" style="fill:#000000" opacity="0.2" d="M18.18 63.62C18.61 63.85 19.09 63.99 19.58 64.02C20.6 64.14 21.64 64.12 22.66 63.96C29.24 63.23 36.2 62.56 42.64 60.99C34.31 61.46 25.5 61.3 17.17 61.77L17.08 62.48L17.06 62.68C17.36 63.07 17.74 63.39 18.18 63.62Z"></path><g opacity="0.2"  transform="translate(25.6400146484375 74.4200439453125)  rotate(0)"><path id="路径" fill-rule="evenodd" style="fill:#000000" opacity="0.2" d="M4.37 0.77L0 0L4.7 18.23L4.37 0.77Z"></path></g></g></g></svg>