<svg xmlns="http://www.w3.org/2000/svg" xmlns:xlink="http://www.w3.org/1999/xlink" width="195" height="190.00390625" viewBox="0 0 195 190.00390625" fill="none"><g opacity="1"  transform="translate(0 0.001953125)  rotate(0)"><g opacity="1"  transform="translate(0 62.860107421875)  rotate(0)"><path id="路径" fill-rule="evenodd" style="fill:#F5F5F5" opacity="1" d="M189.07 106.31L187.94 106.31L187.94 99L159.24 99L159.24 108.79L157.69 108.79L157.69 109.85L159.24 109.85L159.24 116.41L188.12 116.41L188.12 110.45L185.98 110.45L185.98 109.14L188.12 109.14L188.12 107.2L189.07 107.2L189.07 106.31Z"></path><path id="路径" fill-rule="evenodd" style="fill:#E0E0E0" opacity="1" d="M187.94 99L180.45 99.03L180.45 116.3L188.12 116.3L188.12 110.34L185.98 110.34L185.98 109.14L188.12 109.19L188.12 107.24L189.09 107.24L189.07 106.23L187.94 106.2L187.94 99Z"></path><path id="路径" fill-rule="evenodd" style="fill:#E0E0E0" opacity="1" d="M157.65 109.72C157.65 109.78 162.87 109.83 169.32 109.83C175.77 109.83 181 109.78 181 109.72C181 109.66 175.77 109.61 169.32 109.61C162.87 109.61 157.65 109.66 157.65 109.72Z"></path><path id="路径" fill-rule="evenodd" style="fill:#E0E0E0" opacity="1" d="M157.65 108.72C157.65 108.78 162.87 108.83 169.32 108.83C175.77 108.83 181 108.78 181 108.72C181 108.66 175.77 108.61 169.32 108.61C162.87 108.61 157.65 108.66 157.65 108.72Z"></path><path id="路径" fill-rule="evenodd" style="fill:#E0E0E0" opacity="1" d="M159.15 106.05C159.15 106.11 164.38 106.16 170.83 106.16C177.27 106.16 182.5 106.11 182.5 106.05C182.5 105.99 177.28 105.94 170.83 105.94C164.38 105.94 159.15 105.99 159.15 106.05Z"></path><path id="路径" fill-rule="evenodd" style="fill:#E0E0E0" opacity="1" d="M159.28 113.34C159.28 113.4 164.51 113.45 170.96 113.45C177.4 113.45 182.63 113.4 182.63 113.34C182.63 113.28 177.4 113.23 170.96 113.23C164.51 113.23 159.28 113.28 159.28 113.34Z"></path><path id="路径" fill-rule="evenodd" style="fill:#F5F5F5" opacity="1" d="M80.54 112.52L91.35 112.87C92.36 112.9 93.48 112.89 94.22 112.17C95.03 111.38 95.07 110.07 95.07 108.91C95.07 106.8 95.03 104.64 94.28 102.69C93.54 100.74 91.88 99.0299 89.91 98.9299C88.18 98.8499 86.55 100.04 85.67 101.62C84.91 103 84.59 104.72 83.44 105.75C82.79 106.25 82.08 106.65 81.32 106.92C80.57 107.24 79.78 107.61 79.39 108.36C78.33 110.39 79.7 112.14 80.31 112.69L80.54 112.52Z"></path><g opacity="1"  transform="translate(72.5899658203125 81.239990234375)  rotate(0)"><path id="路径" fill-rule="evenodd" style="fill:#E0E0E0" opacity="1" d="M24.06 11.23L23.31 20.59L25.82 20.59L26.85 11.23L24.06 11.23Z"></path><path id="路径" fill-rule="evenodd" style="fill:#E0E0E0" opacity="1" d="M20.12 11.22L15.32 11.22L15.53 20.59L19.82 20.59L20.12 11.22Z"></path><path id="路径" fill-rule="evenodd" style="fill:#E0E0E0" opacity="1" d="M21.99 35.27C22.73 35.15 23.41 34.78 23.93 34.21C24.45 33.64 24.78 32.9 24.86 32.12L27.33 9.87L27.44 8.98L28.42 0.17L28.4 0L0 0L5.13 32.29C5.23 32.97 5.52 33.59 5.95 34.1C6.38 34.61 6.93 34.98 7.55 35.17L7.65 35.2C7.74 35.22 7.82 35.25 7.9 35.27C8.1 35.31 8.29 35.33 8.48 35.34L8.48 35.37L8.62 35.34L21.29 35.34C21.53 35.34 21.76 35.32 21.99 35.27Z"></path><path id="路径" fill-rule="evenodd" style="fill:#E0E0E0" opacity="1" d="M19.49 30.9901L19.75 22.8501L15.55 22.8501L15.73 30.9901L19.49 30.9901Z"></path><path id="路径" fill-rule="evenodd" style="fill:#E0E0E0" opacity="1" d="M20.48 0.290039L15.08 0.290039L15.27 8.98004L20.21 8.98004L20.48 0.290039Z"></path><path id="路径" fill-rule="evenodd" style="fill:#E0E0E0" opacity="1" d="M11.51 30.9901L10.91 22.8501L6.88 22.8501C7.34 25.9401 7.76 28.7901 8.08 30.9901L11.51 30.9901Z"></path><path id="路径" fill-rule="evenodd" style="fill:#E0E0E0" opacity="1" d="M10.74 20.59L10.07 11.22L5.15002 11.22C5.46002 13.29 5.79002 15.51 6.12002 17.72C6.26002 18.68 6.40002 19.65 6.54002 20.59L10.74 20.59Z"></path><path id="路径" fill-rule="evenodd" style="fill:#E0E0E0" opacity="1" d="M24.25 8.98004L27.11 8.98004L28.07 0.290039L24.95 0.290039L24.25 8.98004Z"></path><path id="路径" fill-rule="evenodd" style="fill:#E0E0E0" opacity="1" d="M14.99 8.98004L14.78 0.290039L9.53003 0.290039L10.17 8.98004L14.99 8.98004Z"></path><path id="路径" fill-rule="evenodd" style="fill:#E0E0E0" opacity="1" d="M23.14 22.8401L22.48 30.9901L24.66 30.9901L25.58 22.8401L23.14 22.8401Z"></path><path id="路径" fill-rule="evenodd" style="fill:#E0E0E0" opacity="1" d="M19.78 30.9901L22.18 30.9901L22.84 22.8401L20.04 22.8401L19.78 30.9901Z"></path><path id="路径" fill-rule="evenodd" style="fill:#E0E0E0" opacity="1" d="M0.299988 0.290039L1.66999 8.98004L4.51999 8.98004C3.82999 4.34004 3.30999 0.920039 3.19999 0.290039L0.299988 0.290039Z"></path><path id="路径" fill-rule="evenodd" style="fill:#E0E0E0" opacity="1" d="M7.8 30.9901C7.42 28.4401 7.01 25.6601 6.59 22.8401L3.87 22.8401L5.16 30.9901L7.8 30.9901Z"></path><path id="路径" fill-rule="evenodd" style="fill:#E0E0E0" opacity="1" d="M15.27 22.8501L11.19 22.8501L11.79 30.9901L15.45 30.9901L15.27 22.8501Z"></path><path id="路径" fill-rule="evenodd" style="fill:#E0E0E0" opacity="1" d="M3.46997 0.310059C3.57997 0.810059 3.77997 2.13006 4.30997 5.64006L4.80997 8.98006L9.90997 8.98006L9.24997 0.310059L3.46997 0.310059Z"></path><path id="路径" fill-rule="evenodd" style="fill:#E0E0E0" opacity="1" d="M10.36 11.22L11.04 20.59L15.24 20.59L15.04 11.22L10.36 11.22Z"></path><path id="路径" fill-rule="evenodd" style="fill:#E0E0E0" opacity="1" d="M23.96 8.98004L24.66 0.290039L20.74 0.290039L20.47 8.98004L23.96 8.98004Z"></path><path id="路径" fill-rule="evenodd" style="fill:#E0E0E0" opacity="1" d="M6.26002 20.59C5.77002 17.35 5.30002 14.12 4.85002 11.22L2.02002 11.22L3.50002 20.59L6.26002 20.59Z"></path><path id="路径" fill-rule="evenodd" style="fill:#E0E0E0" opacity="1" d="M20.41 11.22L20.12 20.59L23.02 20.59L23.79 11.22L20.41 11.22Z"></path></g><path id="路径" fill-rule="evenodd" style="fill:#EBEBEB" opacity="1" d="M29.77 28.47L29.77 0L14.59 0L14.59 28.47L29.77 28.47Z"></path><path id="路径" fill-rule="evenodd" style="fill:#EBEBEB" opacity="1" d="M61.25 28.47L61.25 0L48.24 0L48.24 28.47L61.25 28.47Z"></path><path id="路径" fill-rule="evenodd" style="fill:#EBEBEB" opacity="1" d="M14.05 28.47L14.05 0L0 0L0 28.47L14.05 28.47Z"></path><path id="路径" fill-rule="evenodd" style="fill:#EBEBEB" opacity="1" d="M47.7 28.47L47.7 0L31.71 0L31.71 28.47L47.7 28.47Z"></path><path id="路径" fill-rule="evenodd" style="fill:#EBEBEB" opacity="1" d="M14.05 54.63L14.05 28.98L0 28.98L0 54.63L14.05 54.63Z"></path><path id="路径" fill-rule="evenodd" style="fill:#EBEBEB" opacity="1" d="M61.25 54.63L61.25 28.98L48.24 28.98L48.24 54.63L61.25 54.63Z"></path><path id="路径" fill-rule="evenodd" style="fill:#EBEBEB" opacity="1" d="M47.7 54.63L47.7 28.98L31.71 28.98L31.71 54.63L47.7 54.63Z"></path><path id="路径" fill-rule="evenodd" style="fill:#EBEBEB" opacity="1" d="M29.77 54.63L29.77 28.98L14.59 28.98L14.59 54.63L29.77 54.63Z"></path><path id="路径" fill-rule="evenodd" style="fill:#EBEBEB" opacity="1" d="M24.75 90.7901C25.83 89.9601 27.27 90.2101 28.59 90.2101C29.14 90.2701 29.69 90.1301 30.14 89.8001C30.85 89.1801 30.74 87.9201 30.12 87.2001C29.5 86.4801 28.56 86.1901 27.65 86.0401C25.97 85.6801 24.22 85.9001 22.66 86.6801C22.22 86.9201 21.83 87.2801 21.53 87.7101C21.24 88.1401 21.04 88.6301 20.95 89.1601C20.75 89.9101 20.82 90.7301 21.16 91.4201C21.34 91.7701 21.62 92.0401 21.96 92.1901C22.3 92.3501 22.67 92.3901 23.03 92.3001C23.75 92.0501 24.15 91.2701 24.75 90.7901Z"></path><path id="路径" fill-rule="evenodd" style="fill:#EBEBEB" opacity="1" d="M22.73 79.66C23.55 78.8 23.92 77.57 24.24 76.38C24.98 73.68 25.72 70.84 25.17 68.09C25.04 67.26 24.69 66.48 24.17 65.84C23.91 65.52 23.57 65.29 23.19 65.15C22.81 65.02 22.41 64.99 22.02 65.08C21.11 65.33 20.55 66.28 20.14 67.16C18.93 69.81 18.3 72.71 18.29 75.64C18.29 77.01 18.44 78.44 19.17 79.57L19.18 79.58C20.12 80.98 21.92 80.51 22.73 79.66Z"></path><path id="路径" fill-rule="evenodd" style="fill:#EBEBEB" opacity="1" d="M6.17002 70.7001C5.67002 71.7001 6.15002 72.9101 6.66002 73.9001C7.57002 75.6401 8.60002 77.3101 9.75002 78.8801C10.68 80.1301 11.73 81.3801 13.15 81.9601C14.58 82.5401 16.03 82.4601 16.78 81.4301L16.65 81.5901C17.65 80.3401 17.83 78.4801 17.4 76.9001C16.89 75.3201 15.98 73.9301 14.77 72.8701C13.39 71.5801 11.8 70.5901 10.06 69.9501C9.39002 69.6601 8.67002 69.5301 7.94002 69.5701C7.58002 69.5901 7.23002 69.7001 6.92002 69.9001C6.61002 70.1001 6.35002 70.3701 6.17002 70.7001Z"></path><path id="路径" fill-rule="evenodd" style="fill:#E0E0E0" opacity="1" d="M25.45 87.9401C25.65 87.9301 25.85 87.9001 26.05 87.8501C25.85 87.8201 25.64 87.8201 25.44 87.8501C24.88 87.8901 24.33 88.0501 23.82 88.2901C23.07 88.6701 22.41 89.2301 21.89 89.9201C21.26 90.7601 20.75 91.7001 20.38 92.7001C20.01 93.6901 19.72 94.7201 19.51 95.7601C19.36 96.6101 19.25 97.4801 19.19 98.3401C19.14 99.0801 19.12 99.6801 19.11 100.09C19.09 100.3 19.1 100.51 19.12 100.72C19.17 100.51 19.2 100.3 19.21 100.09C19.25 99.6201 19.3 99.0401 19.37 98.3501C19.45 97.4901 19.57 96.6401 19.74 95.7901C19.95 94.7701 20.24 93.7601 20.61 92.7901C20.97 91.8101 21.46 90.8901 22.06 90.0601C22.56 89.3901 23.18 88.8301 23.9 88.4501C24.39 88.1901 24.91 88.0201 25.45 87.9401Z"></path><path id="路径" fill-rule="evenodd" style="fill:#E0E0E0" opacity="1" d="M21.97 71.7399C21.87 72.0599 21.76 72.5199 21.64 73.0299C21.52 73.5299 21.38 74.1099 21.25 74.7599C20.57 78.1099 20.07 81.4899 19.74 84.8899C19.34 88.8799 19.14 92.5099 19.12 95.1399C19.12 96.4499 19.12 97.5199 19.16 98.2499C19.16 98.5899 19.2 98.8699 19.21 99.0899C19.21 99.1899 19.22 99.2899 19.24 99.3899C19.25 99.2899 19.25 99.1899 19.24 99.0899L19.24 98.2599C19.24 97.5199 19.24 96.4599 19.27 95.1499C19.33 92.5299 19.55 89.7199 19.96 85.7299C20.35 81.9699 20.88 77.6399 21.43 74.8099C21.55 74.1599 21.66 73.5799 21.78 73.0699C21.89 72.5699 21.98 72.1299 22.06 71.7799C22.15 71.4199 22.2 71.1699 22.25 70.9399C22.28 70.8499 22.29 70.7499 22.3 70.6499C22.26 70.7399 22.22 70.8299 22.2 70.9299C22.14 71.1399 22.06 71.4099 21.97 71.7399Z"></path><path id="路径" fill-rule="evenodd" style="fill:#E0E0E0" opacity="1" d="M19.25 91.51C19.22 90.94 19.15 90.12 19 89.11C18.81 87.94 18.57 86.77 18.26 85.63C17.9 84.22 17.44 82.84 16.88 81.5C15.93 79.04 14.56 76.77 12.84 74.83C12.54 74.49 12.22 74.18 11.89 73.89C11.74 73.76 11.61 73.63 11.49 73.53L11.12 73.26C10.9 73.08 10.67 72.92 10.42 72.78C11.23 73.45 12 74.18 12.72 74.95C14.38 76.92 15.72 79.16 16.67 81.6C17.22 82.92 17.68 84.29 18.05 85.68C18.41 86.96 18.65 88.14 18.84 89.13C19.03 90.13 19.11 90.94 19.17 91.5C19.18 91.8 19.21 92.1 19.25 92.39C19.28 92.1 19.28 91.8 19.25 91.51Z"></path><path id="路径" fill-rule="evenodd" style="fill:#E0E0E0" opacity="1" d="M25.19 114.34L25.85 104.73L12.86 104.73L13.52 114.34L25.19 114.34Z"></path><path id="路径" fill-rule="evenodd" style="fill:#E0E0E0" opacity="1" d="M27.24 104.74L27.24 100.95L11.73 100.95L11.73 104.74L27.24 104.74Z"></path><path id="路径" fill-rule="evenodd" style="fill:#EBEBEB" opacity="1" d="M12.46 115.03L26.98 115.03L26.98 113.98L11.73 113.98L11.73 115.03L12.46 115.03Z"></path><path id="路径" fill-rule="evenodd" style="fill:#E0E0E0" opacity="1" d="M26.43 115.02L12.46 115.02L13.17 116.87L25.6 116.87L26.43 115.02Z"></path><g opacity="1"  transform="translate(13.05999755859375 106.52001953125)  rotate(0)"><path id="路径" fill-rule="evenodd" style="fill:#F5F5F5" opacity="1" d="M0.89,2.51c0.51,-0.64 1.16,-1.47 1.93,-2.43l0.05,-0.07l0.05,0.07l1.61,2.38l-0.06,0.07h0.11l-0.05,-0.07l1.68,-2.24l0.1,-0.14l0.06,-0.08l0.05,0.08l1.89,2.38c-0.02,0.03 -0.03,0.05 -0.05,0.07h0.11l-0.06,-0.07c0.58,-0.86 1.12,-1.66 1.61,-2.38l0.05,-0.07l0.05,0.07l1.6,2.43l-0.03,0.05h0.06l-0.03,-0.05l0.68,-0.85l0.19,-0.23c0.06,-0.05 0.1,-0.08 0.1,-0.07c-0.01,0.03 -0.03,0.06 -0.05,0.08l-0.18,0.25l-0.68,0.92l-0.03,0.04l-0.03,-0.04l-1.62,-2.38l0.05,-0.07h-0.09l0.04,0.07l-1.59,2.4l-0.05,0.08l-0.06,-0.08l-1.91,-2.38l0.05,-0.07h-0.11l0.06,0.07l-0.05,0.07c-0.61,0.8 -1.19,1.58 -1.75,2.31l-0.06,0.08l-0.05,-0.08l-1.6,-2.4l0.05,-0.07h-0.09l0.04,0.07l-1.97,2.38l-0.04,0.04l-0.03,-0.05c-0.26,-0.47 -0.48,-0.84 -0.63,-1.13l-0.16,-0.3c-0.02,-0.04 -0.04,-0.07 -0.05,-0.11c0,0 0.03,0.03 0.07,0.1l0.18,0.28l0.64,1.07c-0.01,0.01 -0.03,0.03 -0.04,0.04h0.06zM0.89,2.51l0.02,0.04h-0.06c0.01,-0.01 0.03,-0.03 0.04,-0.04zM2.88,0.23l-0.04,-0.07h0.09zM11.62,2.51l0.03,0.05h-0.06zM4.53,2.46l0.05,0.07h-0.11zM6.39,0.25l-0.06,-0.07h0.11zM8.26,2.53c0.02,-0.02 0.03,-0.04 0.05,-0.07l0.06,0.07zM9.96,0.16h0.09l-0.05,0.07z"></path><path id="路径" fill-rule="evenodd" style="fill:#F5F5F5" opacity="1" d="M10.05 0.159912L9.96002 0.159912L10 0.229912L10.05 0.159912Z"></path><path id="路径" fill-rule="evenodd" style="fill:#F5F5F5" opacity="1" d="M6.33002 0.179932L6.39002 0.249932L6.44002 0.179932L6.33002 0.179932Z"></path><path id="路径" fill-rule="evenodd" style="fill:#F5F5F5" opacity="1" d="M0.849976 2.55001L0.909976 2.55001L0.889976 2.51001C0.879976 2.52001 0.859976 2.54001 0.849976 2.55001Z"></path><path id="路径" fill-rule="evenodd" style="fill:#F5F5F5" opacity="1" d="M2.93003 0.159912L2.84003 0.159912L2.88003 0.229912L2.93003 0.159912Z"></path><path id="路径" fill-rule="evenodd" style="fill:#F5F5F5" opacity="1" d="M11.65 2.56001L11.62 2.51001L11.59 2.56001L11.65 2.56001Z"></path><path id="路径" fill-rule="evenodd" style="fill:#F5F5F5" opacity="1" d="M4.57997 2.52996L4.52997 2.45996L4.46997 2.52996L4.57997 2.52996Z"></path><path id="路径" fill-rule="evenodd" style="fill:#F5F5F5" opacity="1" d="M8.31001 2.45996C8.29001 2.48996 8.28001 2.50996 8.26001 2.52996L8.37001 2.52996L8.31001 2.45996Z"></path></g><path id="路径" fill-rule="evenodd" style="fill:#F5F5F5" opacity="1" d="M12.96 104.66C12.96 104.7 15.88 104.74 19.49 104.74C23.1 104.74 26.02 104.7 26.02 104.66C26.02 104.62 23.1 104.59 19.49 104.59C15.88 104.59 12.96 104.62 12.96 104.66Z"></path><path id="路径" fill-rule="evenodd" style="fill:#F5F5F5" opacity="1" d="M12.4 115.12C12.4 115.16 15.58 115.2 19.5 115.2C23.42 115.2 26.6 115.16 26.6 115.12C26.6 115.08 23.44 115.05 19.5 115.05C15.56 115.05 12.4 115.08 12.4 115.12Z"></path></g><g opacity="1"  transform="translate(109.3800048828125 0)  rotate(0)"><g opacity="1"  transform="translate(75.54998779296875 22.35009765625)  rotate(0)"><path id="路径" fill-rule="evenodd" style="fill:#E0E0E0" opacity="1" d="M0.68 2.59009L0 94.7801L5.55 94.7801L10.07 94.7801C10.07 94.7801 0.88 26.3501 0.68 2.59009Z"></path><path id="路径" fill-rule="evenodd" style="fill:#E0E0E0" opacity="1" d="M0.679993 2.59L0.699993 0C0.679993 0.79 0.669993 1.66 0.679993 2.59Z"></path></g><path id="路径" fill-rule="evenodd" style="fill:#EBEBEB" opacity="1" d="M18.04 119.21L81.39 119.21C81.39 119.21 75.02 76.1101 76.33 18.8101C76.78 -0.969902 59.87 0.110098 59.87 0.110098L18.04 2.1601L18.04 119.21Z"></path><path id="路径" fill-rule="evenodd" style="fill:#455A64" opacity="1" d="M6.84003 23.2999L6.86003 139.88C6.86003 141.21 7.11003 142.53 7.59003 143.76C8.07003 145 8.78003 146.11 9.67003 147.05C10.57 148 11.62 148.74 12.79 149.25C13.95 149.75 15.2 150.01 16.46 150.01L60.41 149.98C62.95 149.98 65.38 148.91 67.18 147.01C68.97 145.11 69.98 142.54 69.98 139.85L69.96 23.2699C69.96 21.9399 69.71 20.6199 69.23 19.3899C68.74 18.1499 68.04 17.0399 67.15 16.0999C66.25 15.1599 65.2 14.4099 64.03 13.8999C62.87 13.3999 61.62 13.1399 60.36 13.1399L16.41 13.1699C15.15 13.1699 13.91 13.4299 12.75 13.9399C11.58 14.4499 10.53 15.1899 9.64003 16.1299C8.75003 17.0799 8.05003 18.1899 7.57003 19.4199C7.09003 20.6499 6.84003 21.9699 6.84003 23.2999Z"></path><path id="路径" fill-rule="evenodd" style="fill:#EBEBEB" opacity="1" d="M67.05 138.19L67.03 24.39C67.03 22.51 66.32 20.71 65.07 19.38C63.81 18.05 62.1 17.3 60.32 17.3L49.87 17.3L24.98 17.3L16.46 17.3C14.68 17.3 12.97 18.05 11.71 19.38C10.46 20.71 9.75 22.51 9.75 24.39L9.77 138.22C9.77 140.1 10.48 141.9 11.73 143.23C12.99 144.56 14.7 145.31 16.48 145.31L60.34 145.28C62.12 145.28 63.83 144.53 65.09 143.2C66.34 141.87 67.05 140.07 67.05 138.19Z"></path><g opacity="1"  transform="translate(11.96002197265625 0.090087890625)  rotate(0)"><path id="路径" fill-rule="evenodd" style="fill:#EBEBEB" opacity="1" d="M2.96 17.15L49.05 17.15C47.1 16.74 45.34 15.65 44.06 14.05C41.85 11.1 41.66 7.5 43.59 4.35C44.51 2.85 45.69 0.57 50.56 0.4L10.02 0C5.14 0 0.87 3.67 0.12 8.73C-0.28 11.4 0.28 14.37 2.96 17.15Z"></path><path id="路径" fill-rule="evenodd" style="fill:#EBEBEB" opacity="1" d="M50.56 0.399893L52.09 0.419893C51.54 0.389893 51.03 0.389893 50.56 0.399893Z"></path></g><path id="路径" fill-rule="evenodd" style="fill:#263238" opacity="1" d="M55.54 13.3799C55.04 12.6399 54.68 11.8099 54.48 10.9299C54.09 8.86993 54.42 6.72993 55.4 4.90993C56.34 3.05993 57.92 1.66993 59.81 1.02993C61.36 0.569932 62.99 0.469932 64.58 0.759932C65.66 0.929932 66.71 1.26993 67.69 1.77993C67.95 1.92993 68.21 2.07993 68.45 2.25993C68.53 2.32993 68.63 2.37993 68.72 2.42993C68.65 2.35993 68.57 2.28993 68.49 2.22993C68.25 2.02993 68 1.85993 67.74 1.70993C66.76 1.15993 65.7 0.789932 64.61 0.619932C63 0.309932 61.34 0.379932 59.76 0.849932C57.81 1.48993 56.19 2.91993 55.23 4.81993C54.22 6.67993 53.89 8.87993 54.3 10.9799C54.51 11.8799 54.89 12.7299 55.41 13.4799C55.85 14.1399 56.38 14.7299 56.98 15.2299C57.84 15.9599 58.81 16.5299 59.85 16.9199C60.14 17.0299 60.43 17.1199 60.72 17.1899C60.82 17.2199 60.92 17.2499 61.03 17.2599C61.03 17.2299 60.61 17.1299 59.89 16.8399C58.88 16.4199 57.93 15.8399 57.09 15.1099C56.5 14.6099 55.98 14.0299 55.54 13.3799Z"></path><g opacity="1"  transform="translate(70.5 3.47998046875)  rotate(0)"><path id="路径" fill-rule="evenodd" style="fill:#263238" opacity="1" d="M0.91 0.71C1.73 1.47 2.46 2.32 3.08 3.25C3.54 3.91 3.95 4.62 4.3 5.35C4.72 6.23 5.03 7.16 5.22 8.12C5.44 9.15 5.36 10.29 5.38 11.49C5.4 12.69 5.43 13.96 5.47 15.29C5.55 17.96 5.65 20.88 5.78 24.01C5.78 25.57 5.75 27.2 5.75 28.87C5.75 30.54 5.75 32.25 5.75 34.02C5.75 41.09 5.85 48.84 6.14 56.97C6.71 73.25 7.87 87.94 8.9 98.56C9.43 103.86 9.91 108.15 10.26 111.11C10.44 112.58 10.58 113.73 10.68 114.52C10.73 114.9 10.75 115.2 10.79 115.4C10.8 115.45 10.81 115.49 10.82 115.53C10.82 115.49 10.82 115.45 10.82 115.4C10.79 115.19 10.76 114.9 10.72 114.51C10.62 113.72 10.49 112.57 10.33 111.1C10 108.14 9.55 103.85 9.03 98.54C8.04 87.93 6.9 73.24 6.34 56.96C6.06 48.81 5.91 41.06 5.91 34.01C5.91 32.25 5.89 30.53 5.91 28.86C5.94 27.18 5.94 25.57 5.94 24C5.8 20.86 5.69 17.95 5.6 15.28C5.57 13.95 5.54 12.67 5.5 11.48C5.46 10.28 5.55 9.14 5.33 8.08C5.13 7.12 4.81 6.18 4.38 5.3C4.02 4.56 3.6 3.85 3.13 3.19C2.5 2.26 1.76 1.42 0.93 0.68C0.64 0.42 0.33 0.19 0 0C0 0 0.07 0.06 0.24 0.17C0.33 0.23 0.43 0.31 0.52 0.39C0.66 0.49 0.79 0.6 0.91 0.71Z"></path><path id="路径" fill-rule="evenodd" style="fill:#263238" opacity="1" d="M10.84 115.7C10.84 115.7 10.84 115.64 10.82 115.53C10.83 115.64 10.84 115.7 10.84 115.7Z"></path></g><path id="路径" fill-rule="evenodd" style="fill:#E0E0E0" opacity="1" d="M3.04999 134.59L1.79999 140.11L63 140.95C66.47 134.24 67.02 88.2801 67.02 88.2801L67.04 51.3501L3.04999 134.59Z"></path><path id="路径" fill-rule="evenodd" style="fill:#F5F5F5" opacity="1" d="M0.109985 135.13L59.75 135.13C65.92 126.22 67.02 24.3601 67.02 24.3601L9.74999 24.3901C13.83 58.7001 0.109985 135.13 0.109985 135.13Z"></path><path id="路径" fill-rule="evenodd" style="fill:#FAFAFA" opacity="1" d="M9.66999 26.0201C9.66999 59.8501 0.109985 135.13 0.109985 135.13L60.27 135.13C66.44 126.22 67.54 24.3601 67.54 24.3601L9.66999 26.0201Z"></path><g opacity="1"  transform="translate(0 24.35009765625)  rotate(0)"><path id="路径" fill-rule="evenodd" style="fill:#263238" opacity="1" d="M60.21,110.68c0.48,-0.83 0.83,-1.72 1.07,-2.65c0.25,-0.95 0.48,-1.9 0.66,-2.86c0.39,-1.91 0.66,-3.83 0.92,-5.74c0.5,-3.81 0.87,-7.57 1.18,-11.2599c0.63,-7.3801 1.06,-14.4501 1.41,-21.1601c0.69,-13.3999 1.09,-25.32 1.37,-35.26c0.29,-9.93 0.45,-17.86 0.56,-23.31995c0.04,-2.73 0.08,-4.83 0.11,-6.26c0,-0.71 0.02,-1.25 0.03,-1.62c0,0.37 0,0.91 0,1.62c-0.02,1.43 -0.05,3.53 -0.08,6.26c-0.09,5.45995 -0.23,13.39995 -0.49,23.32995c-0.27,9.93 -0.65,21.8501 -1.33,35.2601c-0.35,6.7099 -0.77,13.7699 -1.39,21.1599c-0.33,3.69 -0.69,7.4501 -1.19,11.2701c-0.26,1.9099 -0.54,3.8299 -0.92,5.7499c-0.18,0.96 -0.39,1.92 -0.66,2.88c-0.25,0.97 -0.62,1.9 -1.12,2.75l-0.03,0.05h-60.31v-0.12c3.87,-31.18 6.61,-58.43 8.11,-77.93c0.74,-9.73 1.16,-17.52 1.35,-22.88995c0.07,-1.33 0.08,-2.52 0.1,-3.55c0.02,-1.03 0.04,-1.89 0.05,-2.6c0.02,-0.7 0.03,-1.25 0.03,-1.59c0.01,-0.33 0.04,-0.52 0.04,-0.52v0.54c0,0.35 0,0.89 0,1.59c0,0.69 0,1.57 -0.04,2.59c-0.03,1.03 -0.02,2.22 -0.08,3.56c-0.17,5.35995 -0.57,13.15995 -1.28,22.90005c-1.47,19.4599 -4.18,46.67 -8.04,77.8199h-0.11l0.1,0.12c0,-0.04 0.01,-0.08 0.01,-0.12h59.97c0,0.01 -0.01,0.03 -0.02,0.04l0.08,-0.04zM60.19,110.72l0.08,-0.04h-0.06c0,0.01 -0.01,0.03 -0.02,0.04zM0.13,110.68h0.11c0,0.04 -0.01,0.08 -0.01,0.12z"></path><path id="路径" fill-rule="evenodd" style="fill:#263238" opacity="1" d="M0.130005 110.68L0.230005 110.8C0.230005 110.76 0.240005 110.72 0.240005 110.68L0.130005 110.68Z"></path><path id="路径" fill-rule="evenodd" style="fill:#263238" opacity="1" d="M60.19 110.72L60.27 110.68L60.21 110.68C60.21 110.69 60.2 110.71 60.19 110.72Z"></path></g><path id="路径" fill-rule="evenodd" style="fill:#FAFAFA" opacity="1" d="M14.93 17.1399C14.93 17.1399 9.75 18.6599 9.75 24.7399L50.31 28.0399L67.03 24.2399C67.03 24.2399 66.9 17.1399 60.32 17.1399C53.75 17.1399 14.93 17.1399 14.93 17.1399Z"></path><g opacity="1"  transform="translate(11.780029296875 0)  rotate(0)"><path id="路径" fill-rule="evenodd" style="fill:#263238" opacity="1" d="M0.39,12.84c-0.46,-1.49 -0.51,-3.09 -0.16,-4.61c0.63,-2.49 2.02,-4.69 3.94,-6.26c0.72,-0.58 1.52,-1.04 2.37,-1.37c0.63,-0.25 1.29,-0.43 1.97,-0.52c0.41,-0.06 0.83,-0.09 1.25,-0.08c0.15,0.02 0.3,0.05 0.45,0.09h-0.12c-0.07,0 -0.18,0 -0.32,0c-0.42,0.01 -0.83,0.05 -1.25,0.12c-1.55,0.25 -3.01,0.91 -4.26,1.92c-1.89,1.57 -3.24,3.76 -3.86,6.21c-0.34,1.5 -0.27,3.06 0.18,4.52c0.23,0.78 0.56,1.53 0.98,2.22c0.42,0.72 0.93,1.37 1.5,1.95h-0.03l0.06,0.03c-0.01,-0.01 -0.02,-0.02 -0.03,-0.03h11.56l24.3,0.08l7.37,0.05l2,0.03h-2h-7.37h-24.3l-11.59,-0.03h-0.04l-0.03,-0.02c-0.6,-0.61 -1.13,-1.29 -1.57,-2.03c-0.43,-0.71 -0.76,-1.47 -1,-2.27zM3.09,17.06c-0.01,-0.01 -0.02,-0.02 -0.03,-0.03h-0.03z"></path><path id="路径" fill-rule="evenodd" style="fill:#263238" opacity="1" d="M3.06003 17.03L3.03003 17.03L3.09003 17.06C3.08003 17.05 3.07003 17.04 3.06003 17.03Z"></path></g><g opacity="1"  transform="translate(1.79998779296875 65.3798828125)  rotate(0)"><path id="路径" fill-rule="evenodd" style="fill:#263238" opacity="1" d="M61.2,75.69c-17.15,-0.04 -32.45,-0.34 -43.46,-0.54l-13,-0.27l-3.52,-0.09l-0.91,-0.03h0.92l3.51,0.05l13.02,0.21c10.99,0.16 26.26,0.41 43.37,0.47c0,0.02 -0.01,0.05 -0.02,0.08l0.1,-0.08c-0.02,0 -0.05,0 -0.08,0c0.35,-1.7 0.67,-3.52 0.97,-5.35c0.77,-4.77 1.32,-9.48 1.73,-14.03c0.4,-4.56 0.6,-8.96 0.74,-13.17c0.27,-8.4 0.37,-15.97 0.47,-22.33c0.09,-6.36 0.12,-11.5 0.16,-15.06c0,-1.78 0.02,-3.16 0.03,-4.1c0,-0.47 0,-0.83 0,-1.07c0,-0.23 0.01,-0.38 0.01,-0.38c0,0 0,0.12 0,0.36c0,0.24 0,0.6 0,1.07v4.1c0,3.55 -0.03,8.7 -0.09,15.06c-0.07,6.36 -0.17,13.94 -0.43,22.34c-0.14,4.21 -0.32,8.62 -0.73,13.18c-0.4,4.56 -0.95,9.26 -1.73,14.05c-0.3,1.87 -0.63,3.72 -0.98,5.45l-0.02,0.08zM61.11,75.57l0.1,-0.08c-0.02,0 -0.05,0 -0.08,0c0,0.02 -0.01,0.05 -0.02,0.08z"></path><path id="路径" fill-rule="evenodd" style="fill:#263238" opacity="1" d="M61.13 75.49C61.13 75.51 61.12 75.54 61.11 75.57L61.21 75.49C61.19 75.49 61.16 75.49 61.13 75.49Z"></path></g><path id="路径" fill-rule="evenodd" style="fill:#263238" opacity="1" d="M63.05 28.84C61.18 28.69 59.29 28.69 57.42 28.84C59.29 28.99 61.18 28.99 63.05 28.84Z"></path><path id="路径" fill-rule="evenodd" style="fill:#263238" opacity="1" d="M63.05 27.2799C61.18 27.1299 59.29 27.1299 57.42 27.2799C59.29 27.4299 61.18 27.4299 63.05 27.2799Z"></path><path id="路径" fill-rule="evenodd" style="fill:#263238" opacity="1" d="M63.05 25.7301C61.18 25.5801 59.29 25.5801 57.42 25.7301C59.29 25.8801 61.18 25.8801 63.05 25.7301Z"></path><g opacity="1"  transform="translate(16.25 24.68994140625)  rotate(0)"><path id="路径" fill-rule="evenodd" style="fill:#263238" opacity="1" d="M0.0400293 4.93999C0.0400293 5.09999 0.0400293 5.14999 0.0400293 5.15999C0.0300293 5.08999 0.0300293 5.01999 0.0400293 4.95999C0.0400293 4.79999 0.0400293 4.59999 0.0400293 4.35999C0.0400293 4.12999 0.0400293 3.77999 0.0400293 3.40999L0.0400293 2.81999C0.0400293 2.70999 0.0400293 2.59999 0.0400293 2.48999C0.0300293 2.59999 0.0300293 2.69999 0.0400293 2.80999L0.0400293 3.39999C0.0400293 3.75999 0.0400293 4.06999 0.0400293 4.33999C0.0400293 4.59999 0.0400293 4.77999 0.0400293 4.93999Z"></path><path id="路径" fill-rule="evenodd" style="fill:#263238" opacity="1" d="M1.98,0.11c0.07,-0.05 0.14,-0.08 0.22,-0.1c0.08,-0.02 0.16,-0.01 0.24,0.01c0.15,0.05 0.29,0.15 0.39,0.28l0.32,0.34l0.67,0.69l0.68,0.71c0.07,0.06 0.13,0.13 0.18,0.2c0.05,0.08 0.08,0.18 0.08,0.28c0,0.18 0,0.35 0,0.53c0,0.71 0,1.4 0,2.09v0.06h-0.06h-1.58h-0.15v-0.06c0,-0.48 0,-0.95 0,-1.39c0,-0.1 -0.03,-0.2 -0.09,-0.27c-0.05,-0.08 -0.14,-0.13 -0.23,-0.15c-0.18,0 -0.39,0 -0.57,0c-0.08,0.01 -0.15,0.05 -0.21,0.11c-0.06,0.05 -0.1,0.13 -0.12,0.22c0,0.16 0,0.35 0,0.53v0.98h-0.04h-1.26h-0.33l-0.12,-0.01h0.12h0.34l1.21,-0.03c0,0.01 0,0.02 0,0.03l0.03,-0.04l-0.03,0.01c0,-0.29 0,-0.59 0,-0.92c0,-0.18 0,-0.35 0,-0.55c0.01,-0.11 0.06,-0.21 0.14,-0.28c0.07,-0.08 0.17,-0.13 0.27,-0.14c0.21,0 0.38,0 0.6,0c0.11,0.03 0.21,0.09 0.28,0.18c0.07,0.09 0.11,0.21 0.11,0.33c0,0.43 0,0.87 0,1.33h-0.06l0.06,0.06c0,-0.02 0,-0.04 0,-0.06h1.46c0,0.02 0,0.04 0,0.07l0.06,-0.07h-0.06c0,-0.65 0,-1.31 0,-2.02c0,-0.18 0,-0.35 0,-0.53c-0.01,-0.08 -0.03,-0.15 -0.07,-0.22c-0.04,-0.07 -0.09,-0.13 -0.15,-0.17l-0.69,-0.71l-0.65,-0.71l-0.32,-0.33c-0.11,-0.11 -0.2,-0.23 -0.33,-0.25c-0.06,-0.02 -0.12,-0.03 -0.18,-0.01c-0.06,0.01 -0.12,0.04 -0.17,0.08c-0.1,0.08 -0.2,0.2 -0.3,0.3l-0.56,0.6c-0.35,0.39 -0.72,0.75 -0.99,1.08c-0.04,0.1 -0.07,0.2 -0.08,0.3c0,-0.12 0.03,-0.24 0.09,-0.35c0.29,-0.37 0.63,-0.71 0.99,-1.1l0.56,-0.61c0.1,-0.11 0.18,-0.21 0.3,-0.32zM3.07,5.14c0,-0.02 0,-0.04 0,-0.06h-0.06zM1.67,5.16l0.03,-0.04l-0.03,0.01c0,0.01 0,0.02 0,0.03zM4.53,5.15l0.06,-0.07h-0.06c0,0.02 0,0.04 0,0.07z"></path><path id="路径" fill-rule="evenodd" style="fill:#263238" opacity="1" d="M3.01001 5.08008L3.07001 5.14008C3.07001 5.12008 3.07001 5.10008 3.07001 5.08008L3.01001 5.08008Z"></path><path id="路径" fill-rule="evenodd" style="fill:#263238" opacity="1" d="M1.66998 5.16012L1.69998 5.12012L1.66998 5.13012C1.66998 5.14012 1.66998 5.15012 1.66998 5.16012Z"></path><path id="路径" fill-rule="evenodd" style="fill:#263238" opacity="1" d="M4.53003 5.15008L4.59003 5.08008L4.53003 5.08008C4.53003 5.10008 4.53003 5.12008 4.53003 5.15008Z"></path></g><path id="路径" fill-rule="evenodd" style="fill:#FD7753" opacity="1" d="M34.07 29.16L34.07 27.11L34.84 27.11L34.84 26.52L32.6 26.52L32.6 27.11L33.37 27.11L33.37 29.16L34.07 29.16Z"></path><g opacity="1"  transform="translate(34.66998291015625 26.52001953125)  rotate(0)"><path id="路径" fill-rule="evenodd" style="fill:#FD7753" opacity="1" d="M1.81 0L1.11 0L0 2.64L0.72 2.64L0.91 2.13L1.97 2.13L2.18 2.64L2.91 2.64L1.81 0Z"></path><path id="路径" fill-rule="evenodd" style="fill:#FD7753" opacity="1" d="M1.44 0.75L1.12 1.58L1.76 1.58L1.44 0.75Z"></path></g><path id="路径" fill-rule="evenodd" style="fill:#FD7753" opacity="1" d="M39.42 27.27L39.64 26.72C39.36 26.56 39.05 26.48 38.74 26.49C37.99 26.49 37.63 26.85 37.63 27.33C37.63 28.3 39.05 28 39.05 28.42C39.05 28.55 38.95 28.63 38.65 28.63C38.36 28.63 38.08 28.54 37.83 28.38L37.6 28.93C37.92 29.13 38.28 29.23 38.65 29.22C39.39 29.22 39.75 28.84 39.75 28.38C39.75 27.41 38.34 27.72 38.34 27.31C38.34 27.18 38.44 27.07 38.73 27.07C38.97 27.08 39.21 27.15 39.42 27.27Z"></path><path id="路径" fill-rule="evenodd" style="fill:#FD7753" opacity="1" d="M40.78 26.52L40.08 26.52L40.08 29.16L40.78 29.16L40.78 28.5L41.04 28.2L41.76 29.16L42.58 29.16L41.51 27.69L42.53 26.52L41.74 26.52L40.78 27.62L40.78 26.52Z"></path><path id="路径" fill-rule="evenodd" style="fill:#FD7753" opacity="1" d="M44.68 28.38C44.68 27.41 43.27 27.72 43.27 27.31C43.27 27.18 43.36 27.07 43.66 27.07C43.9 27.08 44.14 27.15 44.35 27.27L44.57 26.72C44.29 26.56 43.98 26.48 43.66 26.49C42.92 26.49 42.56 26.85 42.56 27.33C42.56 28.3 43.98 28 43.98 28.42C43.98 28.55 43.88 28.63 43.59 28.63C43.29 28.63 43.01 28.54 42.76 28.38L42.53 28.93C42.85 29.13 43.21 29.23 43.58 29.22C44.32 29.22 44.68 28.84 44.68 28.38Z"></path><path id="路径" fill-rule="evenodd" style="fill:#E0E0E0" opacity="1" d="M9.35999 35.7101C9.35999 35.7701 22.1 35.8201 37.8 35.8201C53.5 35.8201 66.23 35.7701 66.23 35.7101C66.23 35.6501 53.5 35.6001 37.8 35.6001C22.09 35.6001 9.35999 35.6501 9.35999 35.7101Z"></path><path id="路径" fill-rule="evenodd" style="fill:#E0E0E0" opacity="1" d="M9.85999 56.4899C9.85999 56.5499 22.59 56.5999 38.29 56.5999C53.99 56.5999 66.72 56.5499 66.72 56.4899C66.72 56.4299 54 56.3799 38.29 56.3799C22.58 56.3799 9.85999 56.4299 9.85999 56.4899Z"></path><path id="路径" fill-rule="evenodd" style="fill:#E0E0E0" opacity="1" d="M6.84003 76.4301C6.84003 76.4901 20.11 76.5401 36.47 76.5401C52.82 76.5401 66.09 76.4901 66.09 76.4301C66.09 76.3701 52.83 76.3201 36.47 76.3201C20.1 76.3201 6.84003 76.3701 6.84003 76.4301Z"></path><path id="路径" fill-rule="evenodd" style="fill:#E0E0E0" opacity="1" d="M4.54999 95.86C4.54999 95.92 18.16 95.97 34.92 95.97C51.68 95.97 65.29 95.92 65.29 95.86C65.29 95.8 51.69 95.75 34.92 95.75C18.15 95.75 4.54999 95.8 4.54999 95.86Z"></path><path id="路径" fill-rule="evenodd" style="fill:#E0E0E0" opacity="1" d="M2.39001 117.73C2.39001 117.79 16.05 117.84 32.89 117.84C49.73 117.84 63.39 117.79 63.39 117.73C63.39 117.67 49.74 117.62 32.89 117.62C16.04 117.62 2.39001 117.67 2.39001 117.73Z"></path><g opacity="1"  transform="translate(14.3800048828125 42.989990234375)  rotate(0)"><path id="路径" fill-rule="evenodd" style="fill:#263238" opacity="1" d="M6.72,5.16c0,0.59 -0.02,1.06 -0.03,1.4c0,0.25 -0.03,0.41 -0.05,0.48h-0.02c0,-0.03 0,-0.06 0.01,-0.09c0,-0.1 0,-0.23 0,-0.38c0,-0.35 0,-0.83 -0.03,-1.42c0,-1.23 -0.02,-2.91 -0.04,-4.91h0.09l-0.09,-0.09c0,0.03 0,0.06 0,0.09h-6.38v-0.11l-0.1,0.11h0.1v1.75c0,0.61 0,1.21 0,1.8c0,1.13 0,2.2 0,3.18h-0.09l0.09,0.09c0,-0.03 0,-0.06 0,-0.09l4.64,0.05l1.34,0.02h0.36h0.1c0,0.01 0,0.01 0,0.01c-0.14,0.01 -0.28,0.02 -0.42,0.02l-1.32,0.02l-4.79,0.05h-0.09v-0.1c0,-1.01 0,-2.11 0,-3.27c0,-0.59 0,-1.19 0,-1.8v-1.86l0.1,-0.11h6.57h0.09v0.1c0,2.08 -0.04,3.82 -0.04,5.06zM0.18,7.06c0,-0.03 0,-0.06 0,-0.09h-0.09zM0.18,6.97c0,-0.98 0,-2.05 0,-3.18c0,-0.59 0,-1.19 0,-1.8v-1.75h6.38c0.02,2 0.04,3.68 0.04,4.91c0.03,0.59 0.03,1.07 0.03,1.42c0,0.15 0,0.28 0,0.38c-0.01,0.03 -0.01,0.06 -0.01,0.09h-0.1h-0.36l-1.34,-0.02zM6.65,0.24l-0.09,-0.09c0,0.03 0,0.06 0,0.09zM0.18,0.24v-0.11l-0.1,0.11z"></path><path id="路径" fill-rule="evenodd" style="fill:#263238" opacity="1" d="M6.66001 7.04004L6.64001 7.04004L6.64001 7.05004C6.65001 7.05004 6.65001 7.04004 6.66001 7.04004Z"></path><path id="路径" fill-rule="evenodd" style="fill:#263238" opacity="1" d="M6.62 7.05004C6.63 7.05004 6.64 7.05004 6.64 7.05004L6.64 7.04004L6.62 7.04004C6.62 7.05004 6.62 7.05004 6.62 7.05004Z"></path><path id="路径" fill-rule="evenodd" style="fill:#263238" opacity="1" d="M6.63 7.09005C6.63 7.09005 6.63 7.08005 6.64 7.05005C6.64 7.05005 6.63 7.05005 6.62 7.05005C6.62 7.06005 6.62 7.08005 6.63 7.09005Z"></path><path id="路径" fill-rule="evenodd" style="fill:#263238" opacity="1" d="M0.180027 6.96997L0.0900269 6.96997L0.180027 7.05997C0.180027 7.02997 0.180027 6.99997 0.180027 6.96997Z"></path><path id="路径" fill-rule="evenodd" style="fill:#263238" opacity="1" d="M6.51999 7.03999L6.61999 7.03999C6.61999 7.00999 6.61999 6.97999 6.62999 6.94999C6.62999 6.84999 6.62999 6.71999 6.62999 6.56999C6.62999 6.21999 6.62999 5.73999 6.59999 5.14999C6.59999 3.91999 6.57999 2.23999 6.55999 0.23999L0.179993 0.23999L0.179993 1.98999C0.179993 2.59999 0.179993 3.19999 0.179993 3.78999C0.179993 4.91999 0.179993 5.98999 0.179993 6.96999L4.81999 7.01999L6.15999 7.03999L6.51999 7.03999Z"></path><path id="路径" fill-rule="evenodd" style="fill:#263238" opacity="1" d="M6.65 0.239902L6.56 0.149902C6.56 0.179902 6.56 0.209902 6.56 0.239902L6.65 0.239902Z"></path><path id="路径" fill-rule="evenodd" style="fill:#263238" opacity="1" d="M0.180017 0.239883L0.180017 0.129883L0.0800171 0.239883L0.180017 0.239883Z"></path></g><path id="路径" fill-rule="evenodd" style="fill:#263238" opacity="1" d="M25.32 46.14C25.32 46.2 32.81 46.25 42.08 46.25C51.35 46.25 58.84 46.2 58.84 46.14C58.84 46.08 51.35 46.03 42.08 46.03C32.81 46.03 25.32 46.08 25.32 46.14Z"></path><path id="路径" fill-rule="evenodd" style="fill:#263238" opacity="1" d="M25.32 48.89C25.32 48.95 29.19 49 33.97 49C38.74 49 42.61 48.95 42.61 48.89C42.61 48.83 38.74 48.78 33.97 48.78C29.19 48.78 25.32 48.83 25.32 48.89Z"></path><path id="路径" fill-rule="evenodd" style="fill:#FD7753" opacity="1" d="M19.03 48.35L19.14 48.05L19.36 47.44C19.5 47.02 19.65 46.59 19.8 46.14C20.95 42.57 21.47 39.54 21.2 39.46C20.91 39.39 19.96 42.26 18.81 45.8L18.42 47.09C18.35 47.29 18.28 47.5 18.22 47.71L18.13 48.01L18.1 48.08C18.11 48.11 18.08 48.11 18.06 48.11L18.03 48.11L18 48.06L17.92 47.95L17.4 47.12C16.77 46.09 16.34 45.47 16.22 45.53C16.09 45.59 16.28 46.34 16.77 47.49C16.89 47.77 17.03 48.08 17.2 48.41L17.27 48.54L17.3 48.6L17.37 48.71C17.47 48.85 17.61 48.95 17.76 49.02C17.93 49.08 18.12 49.1 18.29 49.06C18.47 49.02 18.63 48.93 18.76 48.8C18.83 48.73 18.89 48.65 18.94 48.56C18.96 48.52 18.98 48.47 19 48.42L19.03 48.35Z"></path><g opacity="1"  transform="translate(13.6400146484375 63.93994140625)  rotate(0)"><path id="路径" fill-rule="evenodd" style="fill:#263238" opacity="1" d="M6.19,7.05h0.36c0.03,0 0.07,0 0.1,0v0.01c-0.14,0.01 -0.28,0.02 -0.42,0.01l-1.33,0.03l-4.79,0.05h-0.09v-0.1c0,-1.01 0,-2.11 0,-3.27c0,-0.59 0,-1.19 0,-1.8v-1.86c0.04,-0.04 0.1,-0.11 0.11,-0.12h6.56h0.07v0.1c-0.02,2.08 -0.04,3.81 -0.05,5.06c0,0.59 -0.01,1.06 -0.02,1.41c0,0.16 -0.01,0.32 -0.03,0.48c-0.01,0 -0.01,0 -0.01,0c0,-0.03 0,-0.06 0,-0.09c0,-0.11 0,-0.23 0,-0.38c0,-0.36 -0.01,-0.83 -0.02,-1.43c0,-1.23 -0.03,-2.9 -0.05,-4.91h0.09l-0.09,-0.09c0,0.03 0,0.06 0,0.09h-6.37v-0.11l-0.11,0.11h0.11v1.76c0,0.61 0,1.21 0,1.8c0,1.13 0,2.2 0,3.18h-0.09l0.09,0.09c0,-0.03 0,-0.06 0,-0.09l4.64,0.05zM6.19,7.05l-1.34,-0.02l-4.64,-0.05c0,-0.98 0,-2.05 0,-3.18c0,-0.59 0,-1.19 0,-1.8v-1.76h6.37c0.02,2.01 0.05,3.68 0.05,4.91c0.01,0.6 0.02,1.07 0.02,1.43c0,0.15 0,0.27 0,0.38c0,0.03 0,0.06 0,0.09c-0.03,0 -0.07,0 -0.1,0zM0.21,0.13l-0.11,0.11h0.11zM0.13,0v0zM0.02,0.12c-0.02,0.02 -0.03,0.03 0,-0.01zM0.21,6.98h-0.09l0.09,0.09c0,-0.03 0,-0.06 0,-0.09zM6.67,0.24l-0.09,-0.09c0,0.03 0,0.06 0,0.09z"></path><path id="路径" fill-rule="evenodd" style="fill:#263238" opacity="1" d="M0.209976 0.239883L0.209976 0.129883L0.0999756 0.239883L0.209976 0.239883Z"></path><path id="路径" fill-rule="evenodd" style="fill:#263238" opacity="1" d="M6.58002 0.23999L0.210022 0.23999L0.210022 1.99999C0.210022 2.60999 0.210022 3.20999 0.210022 3.79999C0.210022 4.92999 0.210022 5.99999 0.210022 6.97999L4.85002 7.02999L6.19002 7.04999L6.55002 7.04999C6.58002 7.04999 6.62002 7.04999 6.65002 7.04999C6.65002 7.01999 6.65002 6.98999 6.65002 6.95999C6.65002 6.84999 6.65002 6.72999 6.65002 6.57999C6.65002 6.21999 6.64002 5.74999 6.63002 5.14999C6.63002 3.91999 6.60002 2.24999 6.58002 0.23999Z"></path><path id="路径" fill-rule="evenodd" style="fill:#263238" opacity="1" d="M6.67002 0.239902L6.58002 0.149902C6.58002 0.179902 6.58002 0.209902 6.58002 0.239902L6.67002 0.239902Z"></path><path id="路径" fill-rule="evenodd" style="fill:#263238" opacity="1" d="M6.67997 7.05005C6.66997 7.05005 6.65997 7.05005 6.65997 7.05005C6.65997 7.05005 6.65997 7.05005 6.65997 7.06005C6.65997 7.06005 6.66997 7.05005 6.67997 7.05005Z"></path><path id="路径" fill-rule="evenodd" style="fill:#263238" opacity="1" d="M6.65002 7.06005C6.65002 7.06005 6.65002 7.06005 6.66002 7.06005C6.66002 7.05005 6.66002 7.05005 6.66002 7.05005C6.65002 7.05005 6.65002 7.05005 6.65002 7.05005L6.65002 7.06005Z"></path><path id="路径" fill-rule="evenodd" style="fill:#263238" opacity="1" d="M6.65002 7.10006C6.65002 7.08006 6.65002 7.07006 6.66002 7.06006C6.65002 7.06006 6.65002 7.06006 6.65002 7.06006C6.65002 7.07006 6.65002 7.08006 6.65002 7.10006Z"></path><path id="路径" fill-rule="evenodd" style="fill:#263238" opacity="1" d="M0.119995 6.97998L0.209995 7.06998C0.209995 7.03998 0.209995 7.00998 0.209995 6.97998L0.119995 6.97998Z"></path></g><path id="路径" fill-rule="evenodd" style="fill:#263238" opacity="1" d="M24.6 67.09C24.6 67.15 32.1 67.2 41.36 67.2C50.63 67.2 58.12 67.15 58.12 67.09C58.12 67.05 50.63 66.98 41.36 66.98C32.09 66.98 24.6 67.03 24.6 67.09Z"></path><g opacity="1"  transform="translate(12.6500244140625 83.43994140625)  rotate(0)"><path id="路径" fill-rule="evenodd" style="fill:#263238" opacity="1" d="M6.64,0.24l-0.08,-0.09c0,0.03 0,0.06 0,0.09h-6.38v-0.11l-0.11,0.11h0.11v1.75c0,0.61 0,1.21 0,1.8c0,1.13 0,2.2 0,3.18h-0.09l0.09,0.09c0,-0.03 0,-0.06 0,-0.09l4.64,0.05l1.34,0.02h0.36h0.1c0,0.01 0,0.01 0,0.01c-0.14,0.02 -0.28,0.02 -0.42,0.02l-1.32,0.02l-4.79,0.05h-0.09v-0.1c0,-1.01 0,-2.11 0,-3.27c0,-0.59 0,-1.19 0,-1.8v-1.86l0.1,-0.11h6.57h0.09v0.1c-0.02,2.08 -0.04,3.81 -0.05,5.06c0,0.59 0,1.06 -0.02,1.4c-0.01,0.17 -0.03,0.33 -0.06,0.48h-0.01c0,-0.02 0,-0.05 0,-0.09c0,-0.09 0,-0.23 0,-0.38c0,-0.35 0,-0.83 -0.02,-1.42c0,-1.23 -0.02,-2.91 -0.04,-4.91zM6.56,0.15c0,0.03 0,0.06 0,0.09h0.08zM6.56,0.24c0.02,2 0.04,3.68 0.04,4.91c0.02,0.59 0.02,1.07 0.02,1.42c0,0.15 0,0.29 0,0.38c0,0.04 0,0.07 0,0.09h-0.1h-0.36l-1.34,-0.02l-4.64,-0.05c0,-0.98 0,-2.05 0,-3.18c0,-0.59 0,-1.19 0,-1.8v-1.75zM0.09,6.97l0.09,0.09c0,-0.03 0,-0.06 0,-0.09zM0.18,0.13l-0.11,0.11h0.11z"></path><path id="路径" fill-rule="evenodd" style="fill:#263238" opacity="1" d="M0.180007 0.129883L0.0700073 0.239883L0.180007 0.239883L0.180007 0.129883Z"></path><path id="路径" fill-rule="evenodd" style="fill:#263238" opacity="1" d="M6.64 0.239902L6.56 0.149902C6.56 0.179902 6.56 0.209902 6.56 0.239902L6.64 0.239902Z"></path><path id="路径" fill-rule="evenodd" style="fill:#263238" opacity="1" d="M6.62 7.05005C6.62 7.08005 6.62 7.09005 6.62 7.09005C6.63 7.08005 6.63 7.06005 6.63 7.05005L6.62 7.05005Z"></path><path id="路径" fill-rule="evenodd" style="fill:#263238" opacity="1" d="M6.63 7.04004L6.62 7.04004C6.62 7.05004 6.62 7.05004 6.62 7.05004L6.63 7.05004C6.63 7.05004 6.63 7.05004 6.63 7.04004Z"></path><path id="路径" fill-rule="evenodd" style="fill:#263238" opacity="1" d="M6.15999 7.03999L6.51999 7.03999L6.61999 7.03999C6.61999 7.01999 6.61999 6.98999 6.61999 6.94999C6.61999 6.85999 6.61999 6.71999 6.61999 6.56999C6.61999 6.21999 6.61999 5.73999 6.59999 5.14999C6.59999 3.91999 6.57999 2.23999 6.55999 0.23999L0.179993 0.23999L0.179993 1.98999C0.179993 2.59999 0.179993 3.19999 0.179993 3.78999C0.179993 4.91999 0.179993 5.98999 0.179993 6.96999L4.81999 7.01999L6.15999 7.03999Z"></path><path id="路径" fill-rule="evenodd" style="fill:#263238" opacity="1" d="M0.180027 6.96997L0.0900269 6.96997L0.180027 7.05997C0.180027 7.02997 0.180027 6.99997 0.180027 6.96997Z"></path><path id="路径" fill-rule="evenodd" style="fill:#263238" opacity="1" d="M6.63 7.05004C6.64001 7.05004 6.65 7.05004 6.65 7.04004L6.63 7.04004C6.63 7.05004 6.63 7.05004 6.63 7.05004Z"></path></g><path id="路径" fill-rule="evenodd" style="fill:#263238" opacity="1" d="M23.57 86.59C23.57 86.65 31.06 86.7 40.33 86.7C49.6 86.7 57.09 86.65 57.09 86.59C57.09 86.53 49.6 86.48 40.33 86.48C31.06 86.48 23.57 86.53 23.57 86.59Z"></path><g opacity="1"  transform="translate(11.030029296875 104.080078125)  rotate(0)"><path id="路径" fill-rule="evenodd" style="fill:#263238" opacity="1" d="M0.20002,6.98l4.65,0.05l1.34,0.02h0.36h0.1c0,0.01 0,0.01 0,0.01c-0.14,0.02 -0.28,0.02 -0.42,0.02l-1.33,0.02l-4.79,0.05h-0.09v-0.1c0,-1.01 0,-2.11 0,-3.28v-1.79c0,-0.31 0,-0.62 0,-0.93v-0.94c0.04,-0.03 0.1,-0.1 0.11,-0.11h6.57h0.09v0.1c0,2.09 -0.03,3.82 -0.04,5.07c0,0.59 0,1.06 -0.03,1.4c-0.01,0.17 -0.03,0.33 -0.06,0.48h-0.01c0,-0.03 0,-0.06 0.01,-0.09c0,-0.1 0,-0.23 0,-0.38c0,-0.35 0,-0.83 -0.03,-1.42c0,-1.24 -0.02,-2.91 -0.04,-4.92h0.09l-0.1,-0.09c0.01,0.03 0.01,0.06 0.01,0.09h-6.39v-0.11c-0.04,0.05 -0.11,0.13 -0.09,0.11h0.09v3.55c0,1.14 0,2.21 0,3.19h-0.09l0.09,0.09c0,-0.03 0,-0.06 0,-0.09zM0.11002,6.98l0.09,0.09c0,-0.03 0,-0.06 0,-0.09zM0.20002,6.98c0,-0.98 0,-2.05 0,-3.19v-3.55h6.39c0.02,2.01 0.04,3.68 0.04,4.92c0.03,0.59 0.03,1.07 0.03,1.42c0,0.15 0,0.28 0,0.38c-0.01,0.03 -0.01,0.06 -0.01,0.09h-0.1h-0.36l-1.34,-0.02zM6.58002,0.15c0.01,0.03 0.01,0.06 0.01,0.09h0.09zM0.20002,0.24h-0.09c-0.02,0.02 0.05,-0.06 0.09,-0.11zM0.13002,0z"></path><path id="路径" fill-rule="evenodd" style="fill:#263238" opacity="1" d="M0.109985 6.97998L0.199985 7.06998C0.199985 7.03998 0.199985 7.00998 0.199985 6.97998L0.109985 6.97998Z"></path><path id="路径" fill-rule="evenodd" style="fill:#263238" opacity="1" d="M0.200012 3.78999C0.200012 4.92999 0.200012 5.99999 0.200012 6.97999L4.85001 7.02999L6.19001 7.04999L6.55001 7.04999L6.65001 7.04999C6.65001 7.01999 6.65001 6.98999 6.66001 6.95999C6.66001 6.85999 6.66001 6.72999 6.66001 6.57999C6.66001 6.22999 6.66001 5.74999 6.63001 5.15999C6.63001 3.91999 6.61001 2.24999 6.59001 0.23999L0.200012 0.23999L0.200012 3.78999Z"></path><path id="路径" fill-rule="evenodd" style="fill:#263238" opacity="1" d="M6.59002 0.239902L6.68002 0.239902L6.58002 0.149902C6.59002 0.179902 6.59002 0.209902 6.59002 0.239902Z"></path><path id="路径" fill-rule="evenodd" style="fill:#263238" opacity="1" d="M0.109985 0.239883L0.199985 0.239883L0.199985 0.129883C0.159985 0.179883 0.0899854 0.259883 0.109985 0.239883Z"></path><path id="路径" fill-rule="evenodd" style="fill:#263238" opacity="1" d="M6.67997 7.05005L6.65997 7.05005L6.65997 7.06005C6.66997 7.06005 6.67997 7.05005 6.67997 7.05005Z"></path><path id="路径" fill-rule="evenodd" style="fill:#263238" opacity="1" d="M6.65002 7.06005C6.66002 7.06005 6.66002 7.06005 6.66002 7.06005L6.66002 7.05005L6.65002 7.05005C6.65002 7.06005 6.65002 7.06005 6.65002 7.06005Z"></path><path id="路径" fill-rule="evenodd" style="fill:#263238" opacity="1" d="M6.66002 7.10006C6.66002 7.09006 6.66002 7.07006 6.66002 7.06006C6.66002 7.06006 6.66002 7.06006 6.65002 7.06006C6.65002 7.07006 6.65002 7.09006 6.66002 7.10006Z"></path></g><path id="路径" fill-rule="evenodd" style="fill:#263238" opacity="1" d="M21.99 107.23C21.99 107.29 29.49 107.34 38.75 107.34C48.02 107.34 55.51 107.29 55.51 107.23C55.51 107.17 48.02 107.12 38.75 107.12C29.48 107.12 21.99 107.17 21.99 107.23Z"></path><g opacity="1"  transform="translate(10.1099853515625 123.68994140625)  rotate(0)"><path id="路径" fill-rule="evenodd" style="fill:#263238" opacity="1" d="M0.18,6.94l4.64,0.05l1.34,0.03h0.36h0.11c-0.06,0 -0.2,0 -0.43,0.02l-1.32,0.02l-4.79,0.05h-0.09v-0.09c0,-1.02 0,-2.12 0,-3.28c0,-0.59 0,-1.19 0,-1.8v-1.83l0.1,-0.11h6.57h0.09v0.11c-0.02,2.08 -0.04,3.82 -0.04,5.07c0,0.59 -0.01,1.06 -0.03,1.4c-0.01,0.15 -0.03,0.29 -0.06,0.44c0,-0.03 0,-0.06 0,-0.1c0,-0.09 0,-0.23 0,-0.39c0,-0.35 0,-0.83 -0.03,-1.42c0,-1.23 -0.02,-2.9 -0.04,-4.91h0.09l-0.09,-0.1c0,0.04 0,0.07 0,0.1h-6.38v-0.11l-0.1,0.11h0.1v1.76c0,0.61 0,1.22 0,1.8c0,1.13 0,2.2 0,3.18h-0.09l0.09,0.1c0,-0.03 0,-0.06 0,-0.1zM0.18,6.94c0,-0.98 0,-2.05 0,-3.18c0,-0.58 0,-1.19 0,-1.8v-1.76h6.38c0.02,2.01 0.04,3.68 0.04,4.91c0.03,0.59 0.03,1.07 0.03,1.42c0,0.16 0,0.3 0,0.39c0,0.04 0,0.07 0,0.1h-0.11h-0.36l-1.34,-0.03zM0.09,6.94l0.09,0.1c0,-0.03 0,-0.06 0,-0.1zM0.18,0.09l-0.1,0.11h0.1zM6.65,0.2l-0.09,-0.1c0,0.04 0,0.07 0,0.1z"></path><path id="路径" fill-rule="evenodd" style="fill:#263238" opacity="1" d="M6.65 0.200098L6.56 0.100098C6.56 0.140098 6.56 0.170098 6.56 0.200098L6.65 0.200098Z"></path><path id="路径" fill-rule="evenodd" style="fill:#263238" opacity="1" d="M0.179993 0.199951L0.179993 1.95995C0.179993 2.56995 0.179993 3.17995 0.179993 3.75995C0.179993 4.88995 0.179993 5.95995 0.179993 6.93995L4.81999 6.98995L6.15999 7.01995L6.51999 7.01995L6.62999 7.01995C6.62999 6.98995 6.62999 6.95995 6.62999 6.91995C6.62999 6.82995 6.62999 6.68995 6.62999 6.52995C6.62999 6.17995 6.62999 5.69995 6.59999 5.10995C6.59999 3.87995 6.57999 2.20995 6.55999 0.199951L0.179993 0.199951Z"></path><path id="路径" fill-rule="evenodd" style="fill:#263238" opacity="1" d="M0.180027 6.93994L0.0900269 6.93994L0.180027 7.03994C0.180027 7.00994 0.180027 6.97994 0.180027 6.93994Z"></path><path id="路径" fill-rule="evenodd" style="fill:#263238" opacity="1" d="M0.180017 0.0900879L0.0800171 0.200088L0.180017 0.200088L0.180017 0.0900879Z"></path></g><path id="路径" fill-rule="evenodd" style="fill:#263238" opacity="1" d="M22.21 126.45C22.21 126.51 29.71 126.56 38.97 126.56C48.24 126.56 55.73 126.51 55.73 126.45C55.73 126.39 48.24 126.34 38.97 126.34C29.7 126.34 22.21 126.39 22.21 126.45Z"></path><path id="路径" fill-rule="evenodd" style="fill:#263238" opacity="1" d="M23.3 89.2699C23.3 89.3299 29.2 89.3799 36.48 89.3799C43.75 89.3799 49.65 89.3299 49.65 89.2699C49.65 89.2099 43.73 89.1599 36.48 89.1599C29.22 89.1599 23.3 89.2099 23.3 89.2699Z"></path><path id="路径" fill-rule="evenodd" style="fill:#263238" opacity="1" d="M22.21 110.59C22.21 110.65 24.6 110.7 27.55 110.7C30.49 110.7 32.88 110.65 32.88 110.59C32.88 110.53 30.49 110.48 27.55 110.48C24.6 110.48 22.21 110.53 22.21 110.59Z"></path><path id="路径" fill-rule="evenodd" style="fill:#263238" opacity="1" d="M22.07 0.180068C22.07 0.240068 30.47 0.290068 40.82 0.290068C51.17 0.290068 59.56 0.240068 59.56 0.180068C59.56 0.120068 51.17 0.0700684 40.82 0.0700684C30.46 0.0700684 22.07 0.120068 22.07 0.180068Z"></path></g><g opacity="1"  transform="translate(15.02001953125 30.080078125)  rotate(0)"><g opacity="1"  transform="translate(59.77001953125 35.030029296875)  rotate(0)"><path id="路径" fill-rule="evenodd" style="fill:#A57E6D" opacity="1" d="M25.64 5.55L21.79 6.45L14.72 11.17L6.99998 0L0.419983 4C2.35998 6.85 10.33 18.48 11.99 19.06C18.47 21.33 25.64 5.55 25.64 5.55Z"></path></g><path id="路径" fill-rule="evenodd" style="fill:#755246" opacity="1" d="M74.57 46.26C74.37 46.38 74.19 46.55 74.05 46.75C73.31 47.66 72.9 48.83 72.91 50.03C72.89 50.28 72.92 50.53 73 50.76C73.02 49.94 73.15 49.13 73.39 48.35C73.69 47.6 74.09 46.89 74.57 46.26Z"></path><path id="路径" fill-rule="evenodd" style="fill:#A57E6D" opacity="1" d="M80.61 146.53L82.61 144.15L80.78 135.57L74.41 138.9L75.85 146.08L80.61 146.53Z"></path><path id="路径" fill-rule="evenodd" style="fill:#A57E6D" opacity="1" d="M48.14 148.47L51.62 146.26L52.36 137.61L45.47 137.62C45.4 137.86 45.47 146.8 45.47 146.8L48.14 148.47Z"></path><path id="路径" fill-rule="evenodd" style="fill:#263238" opacity="1" d="M75.81 103.41C74.41 96.5499 70.42 77.9499 68.8 72.1099C67.18 66.2599 67.35 62.2399 65.05 59.4099L43.21 60.2299C43.21 60.2299 39.79 67.0799 38.32 72.6699C36.85 78.2699 35.45 81.4699 36.96 86.4899C38.47 91.5199 40.49 110.56 41.48 115.58C42.3 119.72 44.11 135.93 45.43 141.07L52.83 141.07L53.58 83.5199C53.58 83.5199 66.75 115.84 68.26 119.72C69.77 123.6 74.2 140.17 74.2 140.17L81.86 138.92C81.86 138.92 77.22 110.26 75.81 103.41Z"></path><path id="路径" fill-rule="evenodd" style="fill:#455A64" opacity="1" d="M54.53 61.4C54.53 61.39 54.46 61.4 54.38 61.49C54.26 61.62 54.18 61.78 54.17 61.96C54.15 62.09 54.17 62.23 54.22 62.36C54.27 62.48 54.35 62.59 54.45 62.68C54.58 62.78 54.74 62.84 54.9 62.85C55.06 62.86 55.22 62.81 55.36 62.72C55.5 62.63 55.6 62.5 55.67 62.34C55.73 62.18 55.75 62.01 55.71 61.84C55.69 61.71 55.63 61.58 55.54 61.48C55.46 61.38 55.35 61.3 55.23 61.25C55.07 61.2 54.89 61.2 54.73 61.25C54.62 61.3 54.59 61.36 54.59 61.36C54.78 61.31 54.98 61.33 55.17 61.4C55.26 61.45 55.34 61.51 55.41 61.6C55.47 61.68 55.51 61.78 55.52 61.88C55.55 62.01 55.53 62.14 55.48 62.26C55.43 62.38 55.35 62.48 55.25 62.54C55.14 62.61 55.02 62.65 54.9 62.64C54.78 62.63 54.66 62.59 54.57 62.51C54.48 62.45 54.42 62.37 54.37 62.27C54.33 62.18 54.31 62.07 54.31 61.97C54.33 61.76 54.41 61.56 54.53 61.4Z"></path><path id="路径" fill-rule="evenodd" style="fill:#455A64" opacity="1" d="M53.19 75.87C53.12 75.78 53.07 75.68 53.05 75.57C53.01 75.09 53.01 74.51 52.99 73.94C52.95 72.8 52.9 71.52 52.85 70.19C52.75 67.52 52.65 65.1 52.57 63.35C52.52 62.48 52.49 61.78 52.46 61.26C52.44 61.03 52.42 60.85 52.42 60.7C52.42 60.63 52.41 60.56 52.39 60.5C52.38 60.56 52.38 60.63 52.39 60.7L52.39 61.26C52.4 61.79 52.43 62.51 52.43 63.35C52.48 65.1 52.56 67.52 52.66 70.19C52.71 71.51 52.76 72.79 52.81 73.95C52.84 74.54 52.84 75.08 52.9 75.62C52.92 75.76 52.98 75.89 53.08 76C53.17 76.09 53.28 76.16 53.4 76.2C53.62 76.26 53.84 76.31 54.05 76.34C54.71 76.45 55.37 76.46 56.02 76.37C56.25 76.35 56.43 76.31 56.55 76.28C56.61 76.27 56.67 76.25 56.73 76.23C56.73 76.19 56.47 76.26 56.01 76.28C55.36 76.33 54.71 76.3 54.07 76.18C53.86 76.15 53.65 76.1 53.45 76.03C53.35 76.01 53.26 75.95 53.19 75.87Z"></path><path id="路径" fill-rule="evenodd" style="fill:#455A64" opacity="1" d="M62.73 66.71C62.26 66.4 61.86 66 61.54 65.52C61.22 65.05 60.99 64.51 60.87 63.94C60.78 63.46 60.73 62.97 60.73 62.48C60.68 62.61 60.66 62.76 60.66 62.9C60.64 63.26 60.66 63.63 60.73 63.99C60.83 64.59 61.06 65.16 61.38 65.66C61.71 66.16 62.13 66.58 62.62 66.91C63.11 67.23 63.66 67.44 64.23 67.52C64.8 67.61 65.38 67.57 65.93 67.41C66.27 67.32 66.59 67.18 66.89 66.99C67 66.93 67.1 66.85 67.19 66.76C66.78 66.96 66.35 67.12 65.92 67.24C65.38 67.38 64.82 67.41 64.27 67.32C63.73 67.23 63.2 67.02 62.73 66.71Z"></path><path id="路径" fill-rule="evenodd" style="fill:#455A64" opacity="1" d="M57.63 63.7C57.74 62.53 57.7 61.36 57.52 60.2C57.43 61.3699 57.46 62.54 57.63 63.7Z"></path><path id="路径" fill-rule="evenodd" style="fill:#455A64" opacity="1" d="M59 60C58.92 60.57 58.88 61.15 58.91 61.72C58.86 62.3 58.86 62.88 58.91 63.45C59.06 62.89 59.13 62.31 59.11 61.73C59.16 61.15 59.12 60.57 59 60Z"></path><path id="路径" fill-rule="evenodd" style="fill:#455A64" opacity="1" d="M63.14 62.94C60.8 63.25 58.44 63.43 56.08 63.48C53.72 63.53 51.36 63.45 49.01 63.24C48.1 63.16 47.37 63.09 46.87 63.03L46.29 62.97C46.22 62.96 46.15 62.96 46.08 62.97C46.14 63 46.21 63.01 46.28 63.02L46.86 63.12C47.36 63.2 48.09 63.3 48.99 63.4C53.71 63.91 58.47 63.81 63.16 63.1C64.06 62.96 64.78 62.83 65.28 62.72L65.85 62.6C65.99 62.57 66.05 62.54 66.05 62.54C65.98 62.54 65.92 62.54 65.85 62.55L65.27 62.63C64.77 62.72 64.04 62.82 63.14 62.94Z"></path><path id="路径" fill-rule="evenodd" style="fill:#455A64" opacity="1" d="M44.03 66.0299C43.26 66.3899 42.42 66.5599 41.59 66.5399C40.93 66.5299 40.54 66.4399 40.54 66.4799C40.87 66.6199 41.22 66.6899 41.58 66.6999C42.44 66.7599 43.31 66.5999 44.11 66.2399C44.9 65.8699 45.61 65.3199 46.16 64.6099C46.41 64.3399 46.6 64.0199 46.73 63.6699C46.7 63.6699 46.49 64.0199 46.05 64.4999C45.49 65.1599 44.8 65.6799 44.03 66.0299Z"></path><path id="路径" fill-rule="evenodd" style="fill:#455A64" opacity="1" d="M56.37 64.51C56.31 64.51 56.29 66.55 56.31 69.07C56.33 71.58 56.4 73.62 56.46 73.62C56.52 73.62 56.55 71.58 56.52 69.06C56.49 66.55 56.42 64.51 56.37 64.51Z"></path><path id="路径" fill-rule="evenodd" style="fill:#455A64" opacity="1" d="M53.73 77.9299C53.62 78.8199 53.57 79.7099 53.59 80.5999C53.54 81.4999 53.56 82.3899 53.64 83.2799C53.75 82.3899 53.8 81.4999 53.78 80.6099C53.83 79.7099 53.81 78.8199 53.73 77.9299Z"></path><path id="路径" fill-rule="evenodd" style="fill:#455A64" opacity="1" d="M61.58 78.5C60.41 78.73 59.37 78.99 58.61 79.2C58.21 79.3 57.81 79.44 57.43 79.62C57.85 79.57 58.26 79.49 58.66 79.37C59.42 79.2 60.47 78.96 61.63 78.74C62.79 78.51 63.85 78.33 64.62 78.21C65.03 78.16 65.44 78.08 65.85 77.97C65.43 77.95 65 77.97 64.58 78.03C63.81 78.12 62.74 78.28 61.58 78.5Z"></path><path id="路径" fill-rule="evenodd" style="fill:#455A64" opacity="1" d="M57.55 80.33C57.42 80.33 57.29 80.37 57.16 80.42C57.64 80.42 58.12 80.38 58.6 80.31C59.49 80.23 60.72 80.13 62.08 80.06C63.43 79.98 64.66 79.94 65.56 79.94C66.04 79.95 66.52 79.93 67 79.89C66.88 79.85 66.75 79.83 66.63 79.83C66.36 79.81 66.02 79.79 65.57 79.79C64.68 79.76 63.44 79.76 62.08 79.84C60.72 79.91 59.49 80.04 58.6 80.16C58.16 80.22 57.8 80.28 57.55 80.33Z"></path><path id="路径" fill-rule="evenodd" style="fill:#455A64" opacity="1" d="M44.72 76.52C44.36 76.45 44 76.43 43.63 76.46C43.98 76.56 44.34 76.63 44.7 76.68C45.56 76.8299 46.42 77.0399 47.26 77.2899C48.1 77.5499 48.92 77.86 49.73 78.21C50.06 78.38 50.4 78.52 50.75 78.63C50.45 78.3999 50.13 78.2199 49.79 78.07C48.19 77.27 46.48 76.75 44.72 76.52Z"></path><path id="路径" fill-rule="evenodd" style="fill:#FD7753" opacity="1" d="M74.94 149.71L92.8 149.26C92.65 147.46 83.56 143.91 83.56 143.91L83.56 143.35C80.52 144.73 77.74 144.64 75.04 143.41L74.94 149.71Z"></path><g opacity="0.6"  transform="translate(76.3900146484375 145.360107421875)  rotate(0)"><g opacity="0.6"  transform="translate(0 0)  rotate(0)"><path id="路径" fill-rule="evenodd" style="fill:#FFFFFF" opacity="0.6" d="M0.02 0.91C0.07 1.1 0.18 1.25 0.34 1.35C0.49 1.44 0.68 1.47 0.84 1.43C1.02 1.37 1.18 1.24 1.27 1.06C1.36 0.89 1.39 0.68 1.35 0.48C1.28 0.3 1.14 0.15 0.97 0.07C0.81 -0.01 0.63 -0.02 0.46 0.04C0.31 0.1 0.18 0.22 0.1 0.37C0.01 0.53 -0.02 0.73 0.02 0.91Z"></path></g></g><g opacity="0.6"  transform="translate(74.95001220703125 148.18994140625)  rotate(0)"><path id="路径" fill-rule="evenodd" style="fill:#FFFFFF" opacity="0.6" d="M17.14 0.12L0.02 0L0 1.51L17.87 1.06C17.93 0.47 17.14 0.12 17.14 0.12Z"></path></g><path id="路径" fill-rule="evenodd" style="fill:#263238" opacity="1" d="M82.05 145.08C82.14 145.11 82.36 144.72 82.78 144.41C83.2 144.1 83.64 144.05 83.64 143.96C83.66 143.87 83.13 143.78 82.61 144.14C82.09 144.51 81.97 145.04 82.05 145.08Z"></path><path id="路径" fill-rule="evenodd" style="fill:#263238" opacity="1" d="M84.44 146.19C84.52 146.19 84.6 145.77 84.89 145.38C85.18 144.98 85.55 144.82 85.53 144.73C85.53 144.63 85.02 144.7 84.65 145.18C84.28 145.67 84.35 146.19 84.44 146.19Z"></path><path id="路径" fill-rule="evenodd" style="fill:#263238" opacity="1" d="M87.31 145.48C87.27 145.41 86.85 145.62 86.64 146.13C86.43 146.64 86.56 147.1 86.64 147.08C86.73 147.07 86.72 146.68 86.9 146.26C87.1 145.84 87.35 145.56 87.31 145.48Z"></path><path id="路径" fill-rule="evenodd" style="fill:#FD7753" opacity="1" d="M51.87 145.49C51.87 145.49 47.14 149.05 44.83 145.97L44.23 147.46L41.53 158.11C41.44 158.44 41.47 158.8 41.61 159.11C41.75 159.42 41.99 159.67 42.29 159.81C42.53 159.91 42.78 159.93 43.02 159.89C43.27 159.84 43.49 159.71 43.67 159.53C45.62 157.57 52.77 150.31 52.7 149.32L52.67 146.71C52.67 146.45 52.59 146.19 52.45 145.97C52.31 145.76 52.11 145.59 51.88 145.49L51.87 145.49Z"></path><g opacity="0.6"  transform="translate(42.530029296875 148.419921875)  rotate(0)"><g opacity="0.6"  transform="translate(0 0)  rotate(0)"><path id="路径" fill-rule="evenodd" style="fill:#FFFFFF" opacity="0.6" d="M1.19001 11.12C6.59001 5.63 8.87001 3 9.69001 1.82C9.97001 1.44 10.22 1.19 10.17 0.57L10.17 0L0.0100098 11.47C0.22001 11.52 0.43001 11.51 0.64001 11.45C0.84001 11.39 1.03001 11.27 1.19001 11.12Z"></path></g></g><g opacity="0.6"  transform="translate(50.8900146484375 146.60009765625)  rotate(0)"><g opacity="0.6"  transform="translate(0 0)  rotate(0)"><path id="路径" fill-rule="evenodd" style="fill:#FFFFFF" opacity="0.6" d="M0.1 1.22C0.21 1.4 0.38 1.52 0.57 1.56C0.76 1.61 0.95 1.57 1.12 1.47C1.29 1.34 1.4 1.15 1.44 0.93C1.48 0.72 1.45 0.5 1.34 0.3C1.21 0.13 1.03 0.03 0.82 0C0.63 -0.02 0.43 0.04 0.27 0.17C0.14 0.29 0.05 0.46 0.02 0.63C-0.02 0.84 0.01 1.05 0.1 1.22Z"></path></g></g><path id="路径" fill-rule="evenodd" style="fill:#263238" opacity="1" d="M44.47 152.7C44.12 152.52 43.72 152.44 43.33 152.48C43.03 152.53 42.87 152.58 42.88 152.66C42.9 152.75 43.59 152.58 44.34 152.96C45.1 153.35 45.38 154.05 45.46 154.02C45.49 154.01 45.47 153.81 45.32 153.54C45.12 153.17 44.82 152.88 44.47 152.7Z"></path><path id="路径" fill-rule="evenodd" style="fill:#263238" opacity="1" d="M42.18 155.06C42.2 155.14 42.76 155.03 43.42 155.23C44.08 155.44 44.49 155.86 44.55 155.8C44.62 155.77 44.25 155.19 43.51 154.95C42.76 154.71 42.16 154.97 42.18 155.06Z"></path><path id="路径" fill-rule="evenodd" style="fill:#263238" opacity="1" d="M43.59 150.23C43.59 150.31 44.48 150.29 45.48 150.7C46.47 151.11 47.1 151.79 47.16 151.73C47.22 151.67 46.64 150.88 45.58 150.42C44.52 149.97 43.59 150.14 43.59 150.23Z"></path><path id="路径" fill-rule="evenodd" style="fill:#263238" opacity="1" d="M44.06 148.31C44.09 148.4 44.81 148.15 45.73 148.19C46.64 148.25 47.35 148.56 47.38 148.48C47.42 148.42 46.73 147.93 45.74 147.88C44.76 147.84 44.03 148.23 44.06 148.31Z"></path><g opacity="1"  transform="translate(43.5 145.699951171875)  rotate(0)"><path id="路径" fill-rule="evenodd" style="fill:#263238" opacity="1" d="M0.04 0.86C0.16 1.29 0.41 1.66 0.74 1.94C1.02 2.18 1.35 2.34 1.71 2.41C1.7 2.3 1.72 2.2 1.74 2.1C1.44 2.04 1.15 1.91 0.91 1.7C0.62 1.47 0.4 1.14 0.28 0.78C0.26 0.71 0.25 0.64 0.26 0.57C0.26 0.5 0.28 0.43 0.31 0.36C0.35 0.31 0.4 0.28 0.45 0.26C0.51 0.24 0.57 0.24 0.63 0.27C0.89 0.38 1.11 0.56 1.29 0.79C1.51 1.06 1.71 1.35 1.88 1.65C1.9 1.59 1.93 1.53 1.95 1.47C1.81 1.17 1.64 0.9 1.44 0.65C1.24 0.38 0.99 0.17 0.69 0.03C0.59 -0.01 0.48 -0.01 0.38 0.02C0.27 0.05 0.18 0.12 0.11 0.21C0.06 0.31 0.02 0.41 0.01 0.53C-0.01 0.64 0 0.75 0.04 0.86Z"></path><path id="路径" fill-rule="evenodd" style="fill:#263238" opacity="1" d="M1.71002 2.40991C1.71002 2.42991 1.71002 2.44991 1.71002 2.46991C1.72002 2.44991 1.72002 2.42991 1.73002 2.40991C1.72002 2.40991 1.71002 2.40991 1.71002 2.40991Z"></path><path id="路径" fill-rule="evenodd" style="fill:#263238" opacity="1" d="M1.83002 2.1101C1.80002 2.1101 1.77002 2.1001 1.74002 2.1001C1.72002 2.2001 1.70002 2.3001 1.71002 2.4101C1.71002 2.4101 1.72002 2.4101 1.73002 2.4101C1.76002 2.3101 1.80002 2.2101 1.83002 2.1101Z"></path><path id="路径" fill-rule="evenodd" style="fill:#263238" opacity="1" d="M0.28001 0.78C0.40001 1.14 0.62001 1.47 0.91001 1.7C1.15001 1.91 1.44001 2.04 1.74001 2.1C1.75001 2.05 1.76001 2.01 1.78001 1.96C1.81001 1.86 1.84001 1.75 1.88001 1.65C1.71001 1.35 1.51001 1.06 1.29001 0.79C1.11001 0.56 0.89001 0.38 0.63001 0.27C0.57001 0.24 0.51001 0.24 0.45001 0.26C0.40001 0.28 0.35001 0.31 0.31001 0.36C0.28001 0.43 0.26001 0.5 0.26001 0.57C0.25001 0.64 0.26001 0.71 0.28001 0.78Z"></path><path id="路径" fill-rule="evenodd" style="fill:#263238" opacity="1" d="M1.96999 1.7999C1.93999 1.7499 1.90999 1.6999 1.87999 1.6499C1.83999 1.7499 1.80999 1.8599 1.77999 1.9599C1.75999 2.0099 1.74999 2.0499 1.73999 2.0999C1.76999 2.0999 1.79999 2.1099 1.82999 2.1099C1.86999 2.0099 1.91999 1.9099 1.96999 1.7999Z"></path><path id="路径" fill-rule="evenodd" style="fill:#263238" opacity="1" d="M1.97002 1.80005C1.92002 1.91005 1.87002 2.01005 1.83002 2.11005C1.86002 2.12005 1.88002 2.12005 1.91002 2.12005C1.98002 2.13005 2.05002 2.13005 2.12002 2.12005C2.07002 2.02005 2.02002 1.91005 1.97002 1.80005Z"></path><path id="路径" fill-rule="evenodd" style="fill:#263238" opacity="1" d="M1.82998 2.11008C1.79998 2.21008 1.75998 2.31008 1.72998 2.41008C1.77998 2.42008 1.83998 2.43008 1.88998 2.43008C2.31998 2.46008 2.74998 2.33008 3.09998 2.06008C3.43998 1.80008 3.68998 1.41008 3.79998 0.970078C3.83998 0.750078 3.80998 0.530078 3.70998 0.340078C3.64998 0.240078 3.55998 0.170078 3.45998 0.120078C3.35998 0.0800781 3.24998 0.0700781 3.14998 0.100078C2.83998 0.210078 2.56998 0.430078 2.38998 0.710078C2.21998 0.940078 2.06998 1.20008 1.94998 1.47008C1.97998 1.53008 2.00998 1.59008 2.03998 1.65008C2.17998 1.37008 2.34998 1.09008 2.53998 0.830078C2.69998 0.600078 2.92998 0.420078 3.18998 0.330078C3.24998 0.310078 3.30998 0.320078 3.36998 0.340078C3.41998 0.370078 3.46998 0.410078 3.49998 0.460078C3.55998 0.600078 3.57998 0.760078 3.53998 0.910078C3.44998 1.28008 3.22998 1.60008 2.92998 1.82008C2.70998 1.99008 2.45998 2.09008 2.19998 2.12008C2.20998 2.19008 2.21998 2.27008 2.21998 2.34008C2.18998 2.27008 2.15998 2.20008 2.11998 2.12008C2.04998 2.13008 1.97998 2.13008 1.90998 2.12008C1.87998 2.12008 1.85998 2.12008 1.82998 2.11008Z"></path><path id="路径" fill-rule="evenodd" style="fill:#263238" opacity="1" d="M2.10997 1.8499C2.08997 1.7799 2.05997 1.7199 2.03997 1.6499C2.00997 1.6999 1.98997 1.7499 1.96997 1.7999C2.01997 1.9099 2.06997 2.0199 2.11997 2.1199C2.14997 2.1199 2.16997 2.1199 2.19997 2.1199C2.17997 2.0199 2.14997 1.9299 2.10997 1.8499Z"></path><path id="路径" fill-rule="evenodd" style="fill:#263238" opacity="1" d="M2.2 2.12012C2.17 2.12012 2.15 2.12012 2.12 2.12012C2.16 2.20012 2.19 2.27012 2.22 2.34012C2.22 2.27012 2.21 2.19012 2.2 2.12012Z"></path><path id="路径" fill-rule="evenodd" style="fill:#263238" opacity="1" d="M2.53998 0.830068C2.34998 1.09007 2.17998 1.37007 2.03998 1.65007C2.05998 1.72007 2.08998 1.78007 2.10998 1.85007C2.14998 1.93007 2.17998 2.02007 2.19998 2.12007C2.45998 2.09007 2.70998 1.99007 2.92998 1.82007C3.22998 1.60007 3.44998 1.28007 3.53998 0.910068C3.57998 0.760068 3.55998 0.600068 3.49998 0.460068C3.46998 0.410068 3.41998 0.370068 3.36998 0.340068C3.30998 0.320068 3.24998 0.310068 3.18998 0.330068C2.92998 0.420068 2.69998 0.600068 2.53998 0.830068Z"></path><path id="路径" fill-rule="evenodd" style="fill:#263238" opacity="1" d="M2.04 1.64997C2.01 1.58997 1.98 1.52997 1.95 1.46997C1.93 1.52997 1.9 1.58997 1.88 1.64997C1.91 1.69997 1.94 1.74997 1.97 1.79997C1.99 1.74997 2.01 1.69997 2.04 1.64997Z"></path></g><path id="路径" fill-rule="evenodd" style="fill:#263238" opacity="1" d="M58.87 23.2301C58.12 22.6501 57.39 21.1101 57.21 20.1201L51.13 20.6801C50.48 23.2301 50.22 25.8601 50.34 28.4901C50.39 29.6101 50.54 30.8001 51.25 31.6301C52.04 32.5401 53.27 32.7901 54.41 32.9801L59.96 33.9201C60.62 34.0301 61.32 34.1301 61.93 33.8301C62.5 33.4801 62.92 32.9201 63.12 32.2601C63.56 30.9801 63.62 29.5801 63.28 28.2601C62.95 26.9401 62.23 25.7601 61.24 24.8801C60.5 24.2501 59.63 23.8201 58.87 23.2301Z"></path><path id="路径" fill-rule="evenodd" style="fill:#263238" opacity="1" d="M39.83 36.47C39.7 37.2 39.39 37.97 39.62 38.67C39.7 38.89 39.84 39.09 40.02 39.23C40.2 39.37 40.42 39.46 40.64 39.47C42.5 39.82 44.41 39.8 46.26 39.42C46.88 29.15 46.78 18.84 45.96 8.59L46.52 1.36C45.11 -0.45 43.09 -0.37 41.68 1.11C40.27 2.58 39.44 5.19 39.09 7.94C38.74 10.68 38.84 13.55 38.94 16.4C39.04 19.25 39.19 22.12 38.94 24.9C38.78 26.8 38.43 28.74 38.75 30.65C38.96 31.61 39.22 32.56 39.53 33.49C39.84 34.45 39.94 35.46 39.83 36.47Z"></path><path id="路径" fill-rule="evenodd" style="fill:#455A64" opacity="1" d="M47.19 0.930107C47.1 0.790107 46.96 0.700107 46.81 0.650107C46.51 0.580107 46.19 0.600107 45.89 0.720107C45.15 0.960107 44.47 1.39011 43.92 1.97011C43.73 2.13011 43.58 2.34011 43.48 2.57011C43.38 2.81011 43.34 3.07011 43.37 3.33011C43.42 3.52011 43.52 3.70011 43.65 3.84011C43.78 3.99011 43.94 4.11011 44.12 4.18011C44.33 4.32011 44.58 4.38011 44.82 4.37011C45.07 4.36011 45.31 4.27011 45.51 4.11011L47.33 1.39011C47.33 1.22011 47.29 1.06011 47.19 0.930107Z"></path><path id="路径" fill-rule="evenodd" style="fill:#A57E6D" opacity="1" d="M53.47 28.8101C53.66 28.6601 53.8 28.4601 53.89 28.2301C53.98 27.9901 54.01 27.7401 53.98 27.5001L53.49 23.1901C53.84 23.1501 54.19 23.0801 54.53 22.9801C55.42 22.6001 57.59 21.8801 57.69 18.1001C57.79 15.3601 57.74 12.6001 57.56 9.8601C57.41 7.9301 56.57 6.1301 55.21 4.8301C53.85 3.5301 52.08 2.8201 50.25 2.8501C49.3 2.8601 48.37 3.0801 47.5 3.4801C46.63 3.8901 45.85 4.4701 45.21 5.2001C44.56 5.9301 44.06 6.7901 43.74 7.7301C43.41 8.6801 43.27 9.6801 43.32 10.6701L44.67 27.3701C44.69 27.6901 44.82 27.9901 45.03 28.2301C46.19 29.5301 47.79 30.2901 49.48 30.3501C50.93 30.3101 52.33 29.7701 53.47 28.8101Z"></path><path id="路径" fill-rule="evenodd" style="fill:#263238" opacity="1" d="M54.14 15.7899C53.8 15.8399 53.46 15.9299 53.14 16.0599C53.49 16.0799 53.83 16.0599 54.17 15.9999C54.26 15.9899 54.35 15.9699 54.44 15.9399C54.49 15.9099 54.55 15.8799 54.59 15.8299C54.63 15.7899 54.66 15.7299 54.68 15.6699C54.71 15.4499 54.66 15.2199 54.55 15.0299C54.37 14.6099 54.19 14.1999 54 13.7799C53.21 12.0399 52.52 10.6599 52.46 10.6899C52.39 10.7199 52.96 12.1599 53.75 13.8999C53.95 14.3199 54.14 14.7299 54.32 15.1199C54.42 15.2599 54.47 15.4299 54.47 15.5999C54.45 15.7099 54.3 15.7599 54.14 15.7899Z"></path><path id="路径" fill-rule="evenodd" style="fill:#263238" opacity="1" d="M56.26 12.65C56.35 12.53 56.4 12.37 56.39 12.22C56.38 12.15 56.35 12.07 56.31 12.01C56.27 11.94 56.22 11.88 56.16 11.83C56.11 11.79 56.04 11.76 55.97 11.74C55.89 11.72 55.82 11.72 55.75 11.73C55.6 11.74 55.46 11.82 55.36 11.94C55.27 12.07 55.22 12.22 55.23 12.37C55.24 12.45 55.27 12.52 55.31 12.59C55.35 12.65 55.4 12.71 55.46 12.76C55.51 12.8 55.58 12.84 55.65 12.85C55.73 12.87 55.8 12.87 55.87 12.86C56.02 12.85 56.16 12.77 56.26 12.65Z"></path><path id="路径" fill-rule="evenodd" style="fill:#263238" opacity="1" d="M55.38 10.4399C55.04 10.4999 54.74 10.6799 54.53 10.9599C54.35 11.1599 54.27 11.2899 54.35 11.3799C54.44 11.4699 54.82 10.9999 55.44 10.8999C56.07 10.7999 56.57 11.1399 56.63 11.0399C56.65 10.9899 56.56 10.8199 56.33 10.6699C56.05 10.4799 55.71 10.3899 55.38 10.4399Z"></path><path id="路径" fill-rule="evenodd" style="fill:#263238" opacity="1" d="M50.02 13.44C50.17 13.43 50.31 13.35 50.41 13.23C50.5 13.11 50.55 12.95 50.54 12.8C50.53 12.73 50.5 12.65 50.46 12.59C50.42 12.52 50.37 12.46 50.31 12.41C50.26 12.37 50.19 12.34 50.12 12.32C50.04 12.3 49.97 12.3 49.9 12.31C49.75 12.32 49.61 12.4 49.51 12.52C49.42 12.64 49.37 12.8 49.38 12.95C49.39 13.02 49.42 13.1 49.46 13.16C49.49 13.23 49.54 13.29 49.6 13.34C49.66 13.38 49.73 13.42 49.8 13.43C49.88 13.45 49.95 13.45 50.02 13.44Z"></path><path id="路径" fill-rule="evenodd" style="fill:#263238" opacity="1" d="M49.38 10.8899C49.02 10.8899 48.67 11.0299 48.39 11.2699C48.18 11.4599 48.07 11.5899 48.14 11.6899C48.22 11.7799 48.7 11.3799 49.38 11.3599C50.06 11.3499 50.55 11.7599 50.62 11.6599C50.66 11.6199 50.58 11.4499 50.37 11.2499C50.09 11.0199 49.74 10.8899 49.38 10.8899Z"></path><path id="路径" fill-rule="evenodd" style="fill:#755246" opacity="1" d="M53.63 24.38L53.49 23.19C53.49 23.19 51.05 23.61 47.89 21.97C47.89 21.97 49.14 25.18 53.63 24.38Z"></path><path id="路径" fill-rule="evenodd" style="fill:#755246" opacity="1" d="M52.88 18.11C52.95 18.06 53 17.99 53.05 17.91C53.07 17.87 53.08 17.83 53.08 17.79C53.08 17.74 53.07 17.7 53.05 17.67L53.01 17.65C52.87 17.5 52.71 17.39 52.53 17.33C52.35 17.27 52.15 17.25 51.97 17.29C51.83 17.31 51.7 17.37 51.58 17.45C51.47 17.52 51.37 17.63 51.29 17.75C51.21 17.86 51.17 18 51.17 18.13C51.17 18.27 51.21 18.41 51.29 18.52C51.4 18.63 51.54 18.7 51.68 18.73C51.83 18.75 51.98 18.74 52.12 18.67C52.41 18.54 52.67 18.35 52.88 18.11Z"></path><path id="路径" fill-rule="evenodd" style="fill:#263238" opacity="1" d="M49.43 8.92011C49.06 8.99011 48.7 9.16011 48.4 9.40011C48.18 9.57011 48.09 9.75011 48.14 9.82011C48.25 9.96011 48.83 9.70011 49.56 9.54011C50.28 9.38011 50.91 9.40011 50.96 9.22011C50.98 9.13011 50.83 9.00011 50.55 8.94011C50.18 8.84011 49.8 8.83011 49.43 8.92011Z"></path><path id="路径" fill-rule="evenodd" style="fill:#263238" opacity="1" d="M55.2 9C54.85 9 54.5 9.09 54.2 9.27C53.98 9.42 53.9 9.57 53.96 9.65C54.09 9.8 54.6 9.67 55.22 9.65C55.83 9.63 56.35 9.76 56.47 9.6C56.53 9.52 56.45 9.37 56.22 9.25C55.9 9.07 55.55 8.99 55.2 9Z"></path><path id="路径" fill-rule="evenodd" style="fill:#263238" opacity="1" d="M48.94 1.22997C46.14 1.22997 43.33 3.42997 42.13 6.09997C40.93 8.77997 41.34 12.43 42.84 14.94L43.9 14.97C46.02 14.5 48.75 7.63997 51.27 3.70997C51.58 3.19997 51.02 2.39997 50.67 1.93997C50.45 1.68997 50.18 1.49997 49.88 1.36997C49.59 1.24997 49.26 1.19997 48.94 1.22997Z"></path><path id="路径" fill-rule="evenodd" style="fill:#263238" opacity="1" d="M51.75 3.75996C52.72 4.40996 53.54 4.81996 54.18 5.28996C55.49 6.24996 57.16 7.89996 57.56 9.95996C57.59 10.09 57.61 14.15 57.73 14.11C57.85 14.07 58.21 9.09996 58.25 7.93996C58.32 5.46996 57.52 4.21996 56.18 3.01996C54.84 1.81996 52.75 0.419961 50.51 1.74996C50.25 2.50996 51.09 3.30996 51.75 3.75996Z"></path><path id="路径" fill-rule="evenodd" style="fill:#A57E6D" opacity="1" d="M44.75 17.62C44.75 17.54 44.4 13.55 44.4 13.55C44.32 13.52 41.63 12.85 41.88 15.69C42.12 18.53 44.75 17.71 44.75 17.62Z"></path><path id="路径" fill-rule="evenodd" style="fill:#755246" opacity="1" d="M43.36 16.8799C43.43 16.8999 43.51 16.8899 43.58 16.8699C43.65 16.8499 43.72 16.8199 43.78 16.7699C43.85 16.6899 43.86 16.6299 43.85 16.6199C43.85 16.6199 43.8 16.6599 43.73 16.7099C43.67 16.7399 43.62 16.7599 43.56 16.7599C43.5 16.7699 43.44 16.7599 43.38 16.7399C43.2 16.6399 43.04 16.4899 42.93 16.3099C42.82 16.1199 42.76 15.9099 42.76 15.6999C42.73 15.4499 42.75 15.1999 42.83 14.9699C42.85 14.8799 42.89 14.7899 42.94 14.7199C43 14.6499 43.07 14.5899 43.15 14.5499C43.21 14.5299 43.26 14.5399 43.31 14.5599C43.37 14.5799 43.41 14.6199 43.44 14.6699C43.48 14.7399 43.47 14.7999 43.48 14.7999C43.5 14.8099 43.53 14.7499 43.5 14.6399C43.48 14.5699 43.44 14.5099 43.39 14.4699C43.35 14.4399 43.3 14.4199 43.26 14.4099C43.21 14.4099 43.17 14.4099 43.12 14.4199C43.01 14.4499 42.92 14.5199 42.84 14.5999C42.76 14.6799 42.7 14.7899 42.67 14.8999C42.57 15.1599 42.54 15.4399 42.57 15.7099C42.58 15.9699 42.66 16.2099 42.8 16.4199C42.94 16.6299 43.13 16.7899 43.36 16.8799Z"></path><path id="路径" fill-rule="evenodd" style="fill:#455A64" opacity="1" d="M54.12 3.72002C53.49 3.72002 52.86 3.69002 52.23 3.61002C51.97 3.56002 51.7 3.54002 51.44 3.53002C51.68 3.64002 51.94 3.71002 52.21 3.74002C53.47 3.97002 54.75 3.97002 56.01 3.74002C56.28 3.70002 56.53 3.63002 56.78 3.52002C56.52 3.52002 56.26 3.54002 56 3.59002C55.38 3.67002 54.75 3.72002 54.12 3.72002Z"></path><path id="路径" fill-rule="evenodd" style="fill:#455A64" opacity="1" d="M54 5.05005C54.15 5.19005 54.33 5.31005 54.52 5.38005C55.42 5.80005 56.42 5.89005 57.38 5.65005C57.58 5.61005 57.77 5.54005 57.94 5.42005C57.28 5.56005 56.61 5.62005 55.94 5.58005C55.28 5.49005 54.62 5.31005 54 5.05005Z"></path><path id="路径" fill-rule="evenodd" style="fill:#455A64" opacity="1" d="M45.02 6.56006C44.5 6.73006 43.96 6.86006 43.42 6.95006C42.49 7.11006 41.9 7.07006 41.9 7.11006C42.04 7.13006 42.17 7.14006 42.31 7.13006C42.47 7.14006 42.63 7.14006 42.8 7.13006C43.01 7.12006 43.22 7.10006 43.43 7.07006C43.99 7.00006 44.53 6.88006 45.07 6.71006C45.72 6.50006 46.36 6.23006 46.97 5.92006C47.58 5.60006 48.17 5.24006 48.74 4.83006C49.19 4.50006 49.63 4.13006 50.04 3.74006C50.22 3.58006 50.37 3.42006 50.51 3.27006C50.62 3.15006 50.73 3.03006 50.83 2.90006C50.93 2.80006 51.02 2.68006 51.09 2.56006C51.07 2.54006 50.68 3.00006 49.97 3.65006C49.55 4.02006 49.11 4.37006 48.65 4.70006C48.09 5.09006 47.5 5.45006 46.9 5.76006C46.29 6.07006 45.66 6.34006 45.02 6.56006Z"></path><path id="路径" fill-rule="evenodd" style="fill:#455A64" opacity="1" d="M43.62 10.2101C43.81 10.1601 44.03 10.1101 44.26 10.0301C44.82 9.85008 45.37 9.62008 45.89 9.34008C46.53 9.00008 47.14 8.59008 47.71 8.13008C48.27 7.66008 48.79 7.14008 49.26 6.58008C49.64 6.11008 49.99 5.61008 50.3 5.09008C50.44 4.87008 50.54 4.66008 50.64 4.48008C50.73 4.32008 50.8 4.16008 50.87 4.00008C50.94 3.86008 51 3.72008 51.04 3.58008C51.01 3.58008 50.75 4.15008 50.19 5.02008C49.87 5.53008 49.51 6.01008 49.13 6.47008C48.19 7.59008 47.06 8.51008 45.81 9.20008C45.3 9.47008 44.77 9.71008 44.23 9.91008C43.29 10.2401 42.69 10.3301 42.69 10.3701C42.83 10.3601 42.98 10.3501 43.12 10.3201C43.26 10.2901 43.43 10.2701 43.62 10.2101Z"></path><path id="路径" fill-rule="evenodd" style="fill:#455A64" opacity="1" d="M51.32 2.97992C51.26 2.77992 51.18 2.58992 51.1 2.39992C51.05 2.28992 50.99 2.17992 50.92 2.06992C50.85 1.96992 50.76 1.86992 50.66 1.77992C50.33 1.46992 49.92 1.26992 49.48 1.18992C49.3 1.14992 49.11 1.15992 48.94 1.22992C48.94 1.25992 49.15 1.23992 49.46 1.31992C49.86 1.41992 50.24 1.61992 50.55 1.90992C50.64 1.98992 50.72 2.07992 50.79 2.17992C50.86 2.26992 50.91 2.36992 50.96 2.47992C51.05 2.64992 51.13 2.82992 51.21 3.01992C51.33 3.32992 51.32 3.54992 51.35 3.54992C51.4 3.35992 51.39 3.15992 51.32 2.97992Z"></path><path id="路径" fill-rule="evenodd" style="fill:#455A64" opacity="1" d="M42.19 13.7099C42.16 13.6199 42.12 13.4799 42.06 13.2999C41.9 12.7999 41.77 12.2899 41.67 11.7699C41.52 11.0099 41.46 10.2299 41.47 9.44989C41.48 8.49989 41.63 7.55989 41.92 6.64989C42.07 6.18989 42.27 5.74989 42.51 5.31989C42.74 4.92989 43 4.56989 43.3 4.22989C43.79 3.64989 44.35 3.13989 44.96 2.70989C45.38 2.41989 45.8 2.14989 46.25 1.90989L46.61 1.71989C46.65 1.69989 46.69 1.66989 46.73 1.63989L46.6 1.68989C46.51 1.72989 46.38 1.77989 46.23 1.86989C45.77 2.08989 45.34 2.33989 44.92 2.62989C44.29 3.05989 43.72 3.56989 43.21 4.13989C42.92 4.48989 42.65 4.85989 42.42 5.25989C42.17 5.67989 41.97 6.13989 41.82 6.60989C41.52 7.52989 41.37 8.48989 41.37 9.44989C41.36 10.2399 41.44 11.0199 41.6 11.7899C41.7 12.3099 41.84 12.8199 42.02 13.3099C42.08 13.4899 42.13 13.6199 42.17 13.7299C42.18 13.7799 42.21 13.8199 42.23 13.8599C42.22 13.8099 42.21 13.7599 42.19 13.7099Z"></path><path id="路径" fill-rule="evenodd" style="fill:#263238" opacity="1" d="M50.8 17.1301C51.08 17.6001 51.49 17.9601 51.98 18.1501C52.71 18.5001 53.36 18.4601 53.36 18.3901C53.36 18.3101 52.75 18.2101 52.04 17.8801C51.34 17.5501 50.84 17.0501 50.8 17.1301Z"></path><path id="路径" fill-rule="evenodd" style="fill:#A57E6D" opacity="1" d="M44.61 26.6599L39.95 29.3999L48.04 33.0099L53.93 31.7299L57.59 25.8899L53.73 25.4099L44.61 26.6599Z"></path><path id="路径" fill-rule="evenodd" style="fill:#455A64" opacity="1" d="M64.53 39.9701L62.96 26.4301L56.89 25.3601C56.89 25.3601 51.05 35.8001 42.33 27.7801L35.87 30.5701L37.32 43.6901C37.32 43.6901 39.72 42.7801 41.01 49.4101C42.3 56.0501 42.32 60.2901 42.32 60.2901L65.82 59.4101C65.82 59.4101 64.96 43.5101 64.53 39.9701Z"></path><path id="路径" fill-rule="evenodd" style="fill:#455A64" opacity="1" d="M63.76 38.9399L70.42 34.8199C70.42 34.8199 69.81 33.5899 68.09 30.4099C65.83 26.2099 62.97 26.4299 62.97 26.4299L61.1 31.2499L63.76 38.9399Z"></path><path id="路径" fill-rule="evenodd" style="fill:#455A64" opacity="1" d="M29 39.73L36.89 44.37L38.07 41.99L35.95 30.52C35.95 30.52 33.37 32.06 32 34.06C30.64 36.06 29 39.73 29 39.73Z"></path><path id="路径" fill-rule="evenodd" style="fill:#263238" opacity="1" d="M37.05 31.5601C37.02 31.5801 37.32 32.0801 37.71 32.9501C37.93 33.4501 38.12 33.9801 38.27 34.5201C38.45 35.1801 38.58 35.8501 38.66 36.5301C38.73 37.2101 38.75 37.9001 38.71 38.5801C38.68 39.1401 38.61 39.7001 38.5 40.2501C38.32 41.1901 38.12 41.7601 38.15 41.7601C38.22 41.6301 38.27 41.5001 38.3 41.3601C38.43 41.0001 38.54 40.6301 38.62 40.2601C38.75 39.7101 38.84 39.1601 38.88 38.5901C38.93 37.9001 38.92 37.2001 38.85 36.5101C38.77 35.8101 38.64 35.1301 38.45 34.4601C38.29 33.9201 38.09 33.3901 37.84 32.8801C37.68 32.5301 37.5 32.2001 37.3 31.8901C37.23 31.7701 37.15 31.6601 37.05 31.5601Z"></path><path id="路径" fill-rule="evenodd" style="fill:#263238" opacity="1" d="M61.71 28.0899C61.57 27.8399 61.38 27.6199 61.17 27.4299C61.66 28.2599 62.11 29.1299 62.52 30.0099C63.14 31.4899 63.35 32.7899 63.42 32.7899C63.43 32.4999 63.4 32.1999 63.32 31.9199C63.04 30.5399 62.5 29.2399 61.71 28.0899Z"></path><path id="路径" fill-rule="evenodd" style="fill:#263238" opacity="1" d="M41.75 28.7399C41.74 28.7499 41.79 28.8099 41.88 28.9099C41.98 29.0199 42.11 29.1899 42.3 29.3699C42.84 29.9099 43.43 30.3799 44.07 30.7699C45.71 31.7899 47.59 32.2999 49.5 32.2599C51.4 32.2099 53.25 31.5999 54.85 30.4999C55.77 29.8599 56.58 29.0599 57.27 28.1499C57.73 27.5499 58.13 26.8799 58.45 26.1799C58.57 25.9299 58.63 25.7299 58.69 25.5899C58.72 25.5299 58.74 25.4499 58.75 25.3799C58.75 25.3799 58.62 25.6599 58.37 26.1399C58.03 26.8199 57.62 27.4699 57.15 28.0599C56.46 28.9399 55.65 29.7099 54.74 30.3299C53.64 31.0999 52.4 31.6299 51.1 31.8899C49.79 32.1499 48.46 32.1299 47.16 31.8299C46.1 31.5899 45.09 31.1899 44.14 30.6299C43.5 30.2599 42.9 29.8099 42.35 29.3099C41.96 28.9499 41.76 28.7399 41.75 28.7399Z"></path><path id="路径" fill-rule="evenodd" style="fill:#263238" opacity="1" d="M43.03 39.76C43.43 40.85 42.85 42.4501 43.82 42.9901C44.07 43.1 44.35 43.12 44.61 43.05C44.88 42.98 45.12 42.82 45.29 42.6C45.63 42.15 45.87 41.6301 46 41.07C46.09 41.9 47.01 42.79 47.61 42.23C47.99 41.85 47.86 41.1701 47.7 40.62C46.38 36.1701 45.5 31.59 45.08 26.94C44.82 23.67 44.01 21.03 43.9 17.8L42.14 21.1C41.22 25.25 40.57 29.46 40.21 33.71C40.1 35.04 40.05 36.53 40.87 37.54C41.53 38.3801 42.67 38.76 43.03 39.76Z"></path><path id="路径" fill-rule="evenodd" style="fill:#FD7753" opacity="1" d="M9.32 82.1499L97.22 33.6499L108.45 16.4399L89.15 19.5599L3.27 70.2799C1.91 71.0799 0.87 72.3799 0.36 73.9399C-0.16 75.4999 -0.11 77.1999 0.48 78.7299C0.82 79.5999 1.32 80.3799 1.96 81.0299C2.6 81.6799 3.36 82.1799 4.19 82.4999C5.02 82.8199 5.91 82.9599 6.79 82.8999C7.68 82.8299 8.54 82.5799 9.32 82.1499Z"></path><path id="路径" fill-rule="evenodd" style="fill:#263238" opacity="1" d="M0.48 78.74C0.82 79.61 1.32 80.39 1.96 81.04C2.6 81.69 3.36 82.19 4.19 82.51C5.02 82.83 5.91 82.97 6.79 82.91C7.67 82.85 8.53 82.59 9.32 82.16L3.27 70.28C1.91 71.08 0.87 72.39 0.36 73.95C-0.16 75.51 -0.11 77.21 0.48 78.74Z"></path><g opacity="0.4"  transform="translate(3.27001953125 19.56005859375)  rotate(0)"><path id="路径" fill-rule="evenodd" style="fill:#000000" opacity="0.4" d="M1.03 52.75L87.25 2.71L85.88 0L0 50.72L1.03 52.75Z"></path></g><g opacity="0.4"  transform="translate(8.33001708984375 30.909912109375)  rotate(0)"><path id="路径" fill-rule="evenodd" style="fill:#000000" opacity="0.4" d="M0.99 51.24L88.89 2.74L87.38 0L0 49.29L0.99 51.24Z"></path></g><g opacity="0.4"  transform="translate(5.760009765625 25.02001953125)  rotate(0)"><path id="路径" fill-rule="evenodd" style="fill:#000000" opacity="0.4" d="M1.38 52.85L87.95 2.79L86.48 0L0 50.15L1.38 52.85Z"></path></g><g opacity="0.4"  transform="translate(89.1400146484375 17.64990234375)  rotate(0)"><path id="路径" fill-rule="evenodd" style="fill:#FFFFFF" opacity="0.4" d="M11.82 0L0 1.91L8.08 16L15.45 4.7L11.82 0Z"></path></g><path id="路径" fill-rule="evenodd" style="fill:#A57E6D" opacity="1" d="M84.07 35.0301L83.73 35.6201C83.08 36.6201 83.27 40.6301 83.27 40.6301L81.69 42.3901L84.37 41.7801C85.67 41.8901 85.95 40.2201 85.95 40.2201C86.87 40.1201 87.71 39.1401 87.71 39.1401C89.19 39.1401 88.54 36.3501 88.54 36.3501C88.54 36.3501 88.17 30.1301 86.87 30.3301C85.58 30.5401 85.86 32.0001 85.86 32.0001C85.36 31.5901 85 31.8901 84.72 32.6301C83.73 33.0801 84.07 35.0301 84.07 35.0301Z"></path><path id="路径" fill-rule="evenodd" style="fill:#755246" opacity="1" d="M82.4 42.29C83.1 42.26 83.79 42.12 84.46 41.87C84.84 41.75 85.19 41.55 85.49 41.28C85.75 41.05 85.92 40.73 85.98 40.39C86.02 40.16 86 39.92 85.9 39.7C85.83 39.55 85.76 39.5 85.76 39.5C85.86 39.76 85.89 40.06 85.84 40.34C85.76 40.64 85.6 40.91 85.37 41.11C85.08 41.35 84.75 41.54 84.39 41.65C83.46 41.96 82.5 42.16 81.53 42.24C81.81 42.31 82.11 42.33 82.4 42.29Z"></path><path id="路径" fill-rule="evenodd" style="fill:#755246" opacity="1" d="M86.74 34.5001C86.62 33.8501 86.44 33.2101 86.22 32.6001C86.14 32.3301 86.03 32.0801 85.89 31.8601C85.83 31.8901 86.26 33.0501 86.54 34.5401C86.82 36.0401 86.82 37.2901 86.88 37.2901C86.95 37.0201 86.96 36.7501 86.94 36.4701C86.92 35.8101 86.86 35.1501 86.74 34.5001Z"></path><path id="路径" fill-rule="evenodd" style="fill:#755246" opacity="1" d="M84.72 32.6299C84.66 32.6499 85.02 33.8199 85.32 35.2899C85.61 36.7599 85.72 37.9699 85.78 37.9699C85.82 37.0499 85.72 36.1299 85.51 35.2399C85.37 34.3299 85.1 33.4499 84.72 32.6299Z"></path><path id="路径" fill-rule="evenodd" style="fill:#755246" opacity="1" d="M87.47 39.4299C87.5 39.4899 87.84 39.2499 87.97 38.7699C88.09 38.2799 87.9 37.8999 87.85 37.9299C87.8 37.9499 87.87 38.2999 87.77 38.7099C87.67 39.1199 87.45 39.3799 87.47 39.4299Z"></path><path id="路径" fill-rule="evenodd" style="fill:#755246" opacity="1" d="M84.06 35.1599C84.04 35.6699 84.06 36.1799 84.12 36.6899C84.11 37.1999 84.16 37.7099 84.24 38.2099C84.36 37.7099 84.39 37.1899 84.33 36.6699C84.33 36.1599 84.24 35.6399 84.06 35.1599Z"></path><path id="路径" fill-rule="evenodd" style="fill:#A57E6D" opacity="1" d="M23.38 59.85C25.44 61.65 39.82 61.76 39.82 61.76L40.53 55.63L31.06 53.21L36.62 44.37L29.39 39.73C29.39 39.73 24.17 51.37 23.38 53.1C22.59 54.84 21.32 58.05 23.38 59.85Z"></path><path id="路径" fill-rule="evenodd" style="fill:#A57E6D" opacity="1" d="M53.4 58.8901L50.24 58.5401L51.28 58.5401C51.78 58.5401 52.26 58.3301 52.63 57.9701C53.17 57.4501 53.93 56.7201 54.11 56.7201C54.4 56.6901 54.96 56.1101 54.4 55.8801C53.84 55.6601 49.39 55.8101 49.39 55.8101C49.39 55.8101 51.63 54.6401 51.92 54.4701C52.29 54.2401 53.12 53.9901 52.77 53.4901C52.42 52.9901 49.05 54.0501 48.08 54.6301C47.12 55.2201 45.68 54.8401 45.68 54.8401C45.68 54.8401 46.91 53.1801 47.02 52.5501C47.2 51.5601 46.45 50.9401 46.19 51.7301C45.92 52.5301 43.94 53.1701 43.03 54.0101C42.5 54.4801 42.08 55.0701 41.79 55.7401L39.8 55.4701L39.29 61.7301C39.29 61.7301 41.31 61.3901 42.59 61.3101C43.33 61.2701 52.85 59.8201 53.19 59.6901C53.94 59.4201 53.4 58.8901 53.4 58.8901Z"></path><path id="路径" fill-rule="evenodd" style="fill:#755246" opacity="1" d="M49.83 57.54C50.57 57.62 51.31 57.58 52.04 57.41C52.78 57.31 53.5 57.08 54.17 56.74C54.15 56.68 53.2 56.97 52 57.19C50.81 57.42 49.83 57.48 49.83 57.54Z"></path></g><g opacity="1"  transform="translate(79.32000732421875 20.510009765625)  rotate(0)"><path id="路径" fill-rule="evenodd" style="fill:#FFFFFF" opacity="1" d="M24.17 12.51C24.19 9.41001 23.12 6.42001 21.17 4.12001C19.21 1.82001 16.51 0.37001 13.6 0.0700098C10.69 -0.22999 7.78 0.63001 5.44 2.48001C3.09 4.33001 1.49 7.05001 0.94 10.09C0.4 13.13 0.94 16.27 2.48 18.91L0 23.53L5.28 22.21C7.6 24.1 10.5 25.01 13.41 24.76C16.33 24.51 19.05 23.11 21.04 20.84C23.03 18.57 24.15 15.6 24.17 12.51Z"></path><g opacity="1"  transform="translate(0 0)  rotate(0)"><path id="路径" fill-rule="evenodd" style="fill:#263238" opacity="1" d="M21.94,19.39c0.91,-1.38 1.54,-2.94 1.86,-4.59c0.32,-1.79 0.27,-3.64 -0.15,-5.42c-0.43,-1.85 -1.28,-3.57 -2.47,-5.01c-1.21,-1.47 -2.73,-2.61 -4.44,-3.34c-1.64,-0.68 -3.41,-0.97 -5.17,-0.83c-1.65997,0.12 -3.27997,0.62 -4.72997,1.47c-2.64,1.56 -4.6,4.12 -5.5,7.17c-0.36,1.29 -0.53,2.63 -0.52,3.98c0.06,2.15 0.64,4.26 1.7,6.09v0.03v0.03l-2.49,4.55l2.4,-4.59c0.01,0.01 0.01,0.02 0.02,0.03v-0.05l-0.02,0.02c-1.08,-1.84 -1.68,-3.95 -1.74,-6.12c-0.03,-1.36 0.15,-2.72 0.51,-4.03c0.91,-3.07 2.9,-5.67 5.56,-7.24c1.48,-0.87 3.12,-1.39 4.81997,-1.51c1.79,-0.13 3.58,0.16 5.25,0.86c1.74,0.74 3.29,1.91 4.51,3.41c1.21,1.46 2.07,3.21 2.51,5.1c0.4,1.64 0.48,3.35 0.22,5.02c-0.25,1.68 -0.82,3.28 -1.68,4.71c-0.86,1.43 -1.98,2.66 -3.31,3.61c-1.32,0.96 -2.82,1.61 -4.39,1.93l-0.99,0.16c-0.33,0.03 -0.65,0.05 -0.97,0.05c-0.62,0.03 -1.24,-0.01 -1.86,-0.1c-2.03997,-0.29 -3.97997,-1.15 -5.60997,-2.5l0.04,-0.01h0.07l-0.05,-0.06l-0.06,0.07l-5.23,1.24l5.16,-1.38l0.04,0.05l0.03,-0.07l-0.07,0.02l-0.18,-0.25l0.29,0.24c1.62,1.32 3.54,2.16 5.56997,2.44c0.61,0.09 1.22,0.12 1.83,0.1c0.32,-0.03 0.64,-0.03 0.97,-0.06l0.97,-0.16c1.38,-0.29 2.7,-0.85 3.89,-1.63c1.35,-0.89 2.51,-2.06 3.41,-3.43zM21.94,19.39c-0.9,1.37 -2.06,2.54 -3.41,3.43c-1.19,0.78 -2.51,1.34 -3.89,1.63l-0.97,0.16c-0.33,0.03 -0.65,0.03 -0.97,0.06c-0.61,0.02 -1.22,-0.01 -1.83,-0.1c-2.02997,-0.28 -3.94997,-1.12 -5.56997,-2.44l-0.29,-0.24l0.18,0.25l-5.16,1.38l2.49,-4.55v-0.03v-0.03c-1.06,-1.83 -1.64,-3.94 -1.7,-6.09c-0.01,-1.35 0.16,-2.69 0.52,-3.98c0.9,-3.05 2.86,-5.61 5.5,-7.17c1.45,-0.85 3.07,-1.35 4.72997,-1.47c1.76,-0.14 3.53,0.15 5.17,0.83c1.71,0.73 3.23,1.87 4.44,3.34c1.19,1.44 2.04,3.16 2.47,5.01c0.42,1.78 0.47,3.63 0.15,5.42c-0.32,1.65 -0.95,3.21 -1.86,4.59zM2.43003,18.93l0.02,-0.02v0.05c-0.01,-0.01 -0.01,-0.02 -0.02,-0.03zM5.19003,22.14l0.07,-0.02l-0.03,0.07zM5.30003,22.27l-0.04,0.01l0.06,-0.07l0.05,0.06z"></path><path id="路径" fill-rule="evenodd" style="fill:#263238" opacity="1" d="M2.52003 18.9699L0.0300293 23.5199L5.19003 22.1399L5.01003 21.8899L5.30003 22.1299C6.92003 23.4499 8.84003 24.2899 10.87 24.5699C11.48 24.6599 12.09 24.6899 12.7 24.6699C13.02 24.6399 13.34 24.6399 13.67 24.6099L14.64 24.4499C16.02 24.1599 17.34 23.5999 18.53 22.8199C19.88 21.9299 21.04 20.7599 21.94 19.3899C22.85 18.0099 23.48 16.4499 23.8 14.7999C24.12 13.0099 24.07 11.1599 23.65 9.37992C23.22 7.52992 22.37 5.80992 21.18 4.36992C19.97 2.89992 18.45 1.75992 16.74 1.02992C15.1 0.349922 13.33 0.0599219 11.57 0.199922C9.91003 0.319922 8.29003 0.819922 6.84003 1.66992C4.20003 3.22992 2.24003 5.78992 1.34003 8.83992C0.980029 10.1299 0.810029 11.4699 0.820029 12.8199C0.880029 14.9699 1.46003 17.0799 2.52003 18.9099L2.52003 18.9399L2.52003 18.9699Z"></path><path id="路径" fill-rule="evenodd" style="fill:#263238" opacity="1" d="M2.42999 18.9299C2.43999 18.9399 2.43999 18.9499 2.44999 18.9599L2.44999 18.9099L2.42999 18.9299Z"></path><path id="路径" fill-rule="evenodd" style="fill:#263238" opacity="1" d="M5.23 22.1901L5.26 22.1201L5.19 22.1401L5.23 22.1901Z"></path><path id="路径" fill-rule="evenodd" style="fill:#263238" opacity="1" d="M5.30001 22.27L5.37001 22.27L5.32001 22.21L5.26001 22.28L5.30001 22.27Z"></path></g><path id="路径" fill-rule="evenodd" style="fill:#FD7753" opacity="1" d="M19.09 9.82009L17.57 8.09009L11.37 14.3901L8.22002 11.4301L6.58002 13.1601L11.14 17.7301L19.09 9.82009Z"></path></g></g></svg>