<svg xmlns="http://www.w3.org/2000/svg" xmlns:xlink="http://www.w3.org/1999/xlink" width="20" height="20" viewBox="0 0 20 20" fill="none"><g opacity="1"  transform="translate(0 0)  rotate(0)"><mask id="bg-mask-0" fill="white"><use transform="translate(0 0)  rotate(0)" xlink:href="#path_0"></use></mask><g mask="url(#bg-mask-0)" ><g opacity="1"  transform="translate(1.669921875 1.66998291015625)  rotate(0)"><path  id="Stroke 11" style="fill:#666E7A; opacity:1;" d="M11.2002,9.51333c-0.4602,0 -0.8333,-0.3731 -0.8333,-0.83334c0,-0.46023 0.3731,-0.83333 0.8333,-0.83333h0.8296c0.4602,0 0.8333,0.3731 0.8333,0.83333c0,0.46024 -0.3731,0.83334 -0.8333,0.83334z"></path><path  id="Stroke 13" style="fill:#666E7A; opacity:1;" d="M7.85986,9.51333c-0.46023,0 -0.83333,-0.3731 -0.83333,-0.83334c0,-0.46023 0.3731,-0.83333 0.83333,-0.83333h0.83008c0.46024,0 0.83333,0.3731 0.83333,0.83333c0,0.46024 -0.37309,0.83334 -0.83333,0.83334z"></path><path  id="Stroke 15" style="fill:#666E7A; opacity:1;" d="M4.52002,9.51333c-0.46024,0 -0.83333,-0.3731 -0.83333,-0.83334c0,-0.46023 0.37309,-0.83333 0.83333,-0.83333h0.83008c0.46024,0 0.83333,0.3731 0.83333,0.83333c0,0.46024 -0.37309,0.83334 -0.83333,0.83334z"></path><path  id="路径" style="fill:#666E7A; opacity:1;" d="M2.88281,2.88107M2.88281,2.88107c-2.53757,2.54755 -3.05277,5.4497 -1.5456,8.70643c0.00296,0.0064 0.00582,0.0129 0.00857,0.0194c-0.00561,-0.013 -0.00275,-0.0065 0,0c0.09104,0.2156 0.07936,0.75167 -0.03504,1.6082c-0.18239,1.36547 -0.21199,2.1098 -0.0888,2.233c0.12319,0.12313 0.86752,0.09353 2.23301,-0.0888c0.85648,-0.1144 1.39253,-0.1261 1.60815,-0.0351c0.00652,0.0028 0.01298,0.0056 0.01939,0.0086c-0.01287,-0.0058 -0.00641,-0.003 0,0c3.26357,1.51033 6.16544,0.99543 8.70561,-1.5447c3.0116,-3.0117 3.0116,-7.89452 0,-10.90616c-3.0117,-3.01164 -7.89452,-3.01164 -10.90616,0zM1.99806,1.99806c3.49979,-3.4998 9.17404,-3.4998 12.67384,0c3.4998,3.49979 3.4998,9.17404 0,12.67384c-2.95147,2.95153 -6.32293,3.54997 -10.11439,1.7953l0.26249,-0.5672l-0.26249,0.5672l0.26249,-0.5672l-0.2431,0.5758c-0.00634,-0.00267 -0.32516,0.03813 -0.95646,0.1224c-1.77379,0.23693 -2.86792,0.14817 -3.28238,-0.2663c-0.41447,-0.41447 -0.50324,-1.50857 -0.26631,-3.2823c0.08432,-0.63133 0.12515,-0.95017 0.12247,-0.9565l0.57578,-0.2431l-0.57578,0.2431l0.57578,-0.2431l-0.56721,0.2625c-1.75096,-3.78355 -1.15283,-7.15474 1.7944,-10.11357z"></path></g></g></g><defs><rect id="path_0" x="0" y="0" width="20" height="20" /></defs></svg>