<svg xmlns="http://www.w3.org/2000/svg" xmlns:xlink="http://www.w3.org/1999/xlink" width="18.07275390625" height="18.07525634765625" viewBox="0 0 18.07275390625 18.07525634765625" fill="none"><path  id="路径" style="fill:#666E7A; opacity:1;" d="M3.65869,3.50784M3.65869,3.50784c-2.53757,2.54755 -3.05277,5.44971 -1.54561,8.70646c0.00297,0.0064 0.00583,0.0129 0.00858,0.0194c-0.00561,-0.013 -0.00275,-0.0065 0,0c0.09104,0.2156 0.07936,0.75163 -0.03504,1.6081c-0.18239,1.36547 -0.21199,2.1098 -0.0888,2.233c0.12319,0.1232 0.86752,0.0936 2.23301,-0.0888c0.85647,-0.1144 1.39252,-0.12607 1.60815,-0.035c0.00652,0.0027 0.01298,0.0056 0.01939,0.0086c-0.01287,-0.0059 -0.00641,-0.003 0,0c3.26355,1.51027 6.1654,0.99533 8.70553,-1.5448c3.0117,-3.0116 3.0117,-7.89445 0,-10.90609c-3.0116,-3.01164 -7.89444,-3.01164 -10.90608,0zM2.77394,2.62483c3.49979,-3.4998 9.17406,-3.4998 12.67386,0c3.4998,3.49979 3.4998,9.17407 0,12.67387c-2.95147,2.95147 -6.32294,3.5499 -10.11441,1.7953l0.26249,-0.5672l-0.26249,0.5672l0.26249,-0.5672l-0.2431,0.5757c-0.00634,-0.00267 -0.32516,0.03817 -0.95646,0.1225c-1.77379,0.23693 -2.86792,0.14817 -3.28238,-0.2663c-0.41447,-0.41447 -0.50324,-1.5086 -0.26631,-3.2824c0.08432,-0.63127 0.12515,-0.95007 0.12247,-0.9564l0.57578,-0.2431l-0.57578,0.2431l0.57578,-0.2431l-0.56721,0.2625c-1.75096,-3.78357 -1.15283,-7.15477 1.7944,-10.1136z"></path></svg>