<svg xmlns="http://www.w3.org/2000/svg" xmlns:xlink="http://www.w3.org/1999/xlink" width="36" height="36" viewBox="0 0 36 36" fill="none"><g opacity="1"  transform="translate(0 0)  rotate(0)"><mask id="bg-mask-0" fill="white"><use transform="translate(0 0)  rotate(0)" xlink:href="#path_0"></use></mask><g mask="url(#bg-mask-0)" ><path id="路径" fill-rule="evenodd" style="fill:#0061FF" opacity="0.15" d="M0 18C0 27.94 8.06 36 18 36C27.94 36 36 27.94 36 18C36 8.06 27.94 0 18 0C8.06 0 0 8.06 0 18Z"></path><path id="路径" fill-rule="evenodd" style="fill:#0061FF" opacity="1" d="M6 18C6 24.63 11.37 30 18 30C24.63 30 30 24.63 30 18C30 11.37 24.63 6 18 6C11.37 6 6 11.37 6 18Z"></path><g opacity="1"  transform="translate(10.669921875 12.669921875)  rotate(0)"><path id="3 Friends" fill-rule="evenodd" style="fill:#FFFFFF" opacity="1" d="M4.4902,2.82c0,-1.57 1.25,-2.82 2.81,-2.82c1.55,0 2.8,1.25 2.8,2.82c0,1.56 -1.25,2.82 -2.8,2.82c-1.56,0 -2.81,-1.26 -2.81,-2.82zM1.2699,3.48c-0.4,-1.59 0.78,-3.01 2.29,-3.01c0.16,0 0.32,0.02 0.47,0.05c0.02,0 0.04,0.01 0.05,0.03c0.02,0.02 0.01,0.06 -0.01,0.07c-0.45,0.64 -0.71,1.42 -0.71,2.25c0,0.8 0.24,1.55 0.66,2.17c0.04,0.06 0,0.14 -0.07,0.16c-0.11,0.02 -0.22,0.03 -0.33,0.03c-1.09,0.03 -2.08,-0.68 -2.35,-1.75zM10.6001,0.62c-0.02,-0.01 -0.03,-0.05 -0.01,-0.07c0.01,-0.02 0.03,-0.03 0.05,-0.03c0.15,-0.03 0.31,-0.05 0.47,-0.05c1.51,0 2.69,1.42 2.29,3.01c-0.27,1.07 -1.26,1.78 -2.35,1.75c-0.11,0 -0.22,-0.01 -0.33,-0.03c-0.07,-0.02 -0.11,-0.1 -0.07,-0.16c0.42,-0.62 0.66,-1.37 0.66,-2.17c0,-0.83 -0.26,-1.61 -0.71,-2.25zM1.55,6.3399c0.34,-0.08 1.28,-0.2 2.16,-0.19c0.01,0 0.02,0.01 0.02,0.02c0,0.01 0,0.02 -0.02,0.03c-0.4,0.2 -1.96,1.08 -1.77,2.92c0.01,0.08 -0.05,0.15 -0.13,0.14c-0.39,-0.06 -1.38,-0.27 -1.68,-0.94c-0.17,-0.35 -0.17,-0.76 0,-1.11c0.2,-0.43 0.68,-0.72 1.42,-0.87zM13.1102,6.3399c0.74,0.15 1.22,0.44 1.42,0.87c0.17,0.35 0.17,0.76 0,1.11c-0.3,0.67 -1.29,0.88 -1.68,0.94c-0.08,0.01 -0.14,-0.06 -0.13,-0.14c0.19,-1.84 -1.37,-2.72 -1.77,-2.92c-0.02,-0.01 -0.02,-0.02 -0.02,-0.03c0,-0.01 0.01,-0.02 0.02,-0.02c0.88,-0.01 1.82,0.11 2.16,0.19zM7.3001,7.03c2.29,0 4.24,0.36 4.24,1.81c0,1.45 -1.94,1.83 -4.24,1.83c-2.29,0 -4.24,-0.36 -4.24,-1.81c0,-1.45 1.94,-1.83 4.24,-1.83z"></path></g></g></g><defs><rect id="path_0" x="0" y="0" width="36" height="36" /></defs></svg>