<svg xmlns="http://www.w3.org/2000/svg" xmlns:xlink="http://www.w3.org/1999/xlink" width="16" height="16" viewBox="0 0 16 16" fill="none"><g opacity="1"  transform="translate(0 0)  rotate(0)"><path id="Show" fill-rule="evenodd" style="fill:#666E7A" opacity="1" d="M1.36996,8.18992c-0.05,-0.11 -0.05,-0.26 0,-0.38c1.39,-3.22 3.87,-5.14 6.61,-5.14h0.02c1.36,0 2.67004,0.48 3.81004,1.36c1.14,0.88 2.11,2.17 2.8,3.78c0.05,0.12 0.05,0.27 0,0.38c-1.39,3.21998 -3.87,5.14998 -6.61004,5.14998h-0.02c-2.74,0 -5.22,-1.93 -6.61,-5.14998zM7.99006,10.5899c1.44,0 2.60004,-1.15998 2.60004,-2.57998c0,-1.43 -1.16004,-2.59 -2.60004,-2.59c-1.44,0 -2.6,1.16 -2.6,2.59c0,1.42 1.16,2.57998 2.6,2.57998zM7.99996,6.38992c0.89,0 1.62,0.72 1.62,1.62c0,0.89 -0.73,1.61 -1.62,1.61c-0.9,0 -1.63,-0.72 -1.63,-1.61c0,-0.11 0.01,-0.22 0.03,-0.32h0.04c0.72,0 1.3,-0.57 1.33,-1.28c0.07,-0.01 0.15,-0.02 0.23,-0.02z"></path></g></svg>