<svg xmlns="http://www.w3.org/2000/svg" xmlns:xlink="http://www.w3.org/1999/xlink" width="20" height="20" viewBox="0 0 20 20" fill="none"><g opacity="1"  transform="translate(0 0)  rotate(0)"><mask id="bg-mask-0" fill="white"><use transform="translate(0 0)  rotate(NaN)" xlink:href="#path_0"></use></mask><g mask="url(#bg-mask-0)" ><g opacity="1"  transform="translate(2.2900390625 2.28997802734375)  rotate(0)"><path  id="路径" style="fill:#666E7A; opacity:1;" d="M0.625,7.71M0.625,7.71c0,2.7174 0.50148,4.5776 1.50444,5.5806c1.00296,1.00293 2.86315,1.5044 5.58056,1.5044c2.7174,0 4.5776,-0.50147 5.5806,-1.5044c1.00293,-1.003 1.5044,-2.8632 1.5044,-5.5806c0,-2.71741 -0.50147,-4.5776 -1.5044,-5.58056c-1.003,-1.00296 -2.8632,-1.50444 -5.5806,-1.50444c-2.71741,0 -4.5776,0.50148 -5.58056,1.50444c-1.00296,1.00296 -1.50444,2.86315 -1.50444,5.58056zM-0.625,7.71c0,-3.06259 0.62352,-5.2174 1.87056,-6.46444c1.24704,-1.24704 3.40185,-1.87056 6.46444,-1.87056c3.0626,0 5.2174,0.62352 6.4644,1.87056c1.24707,1.24704 1.8706,3.40185 1.8706,6.46444c0,3.0626 -0.62353,5.2174 -1.8706,6.4644c-1.247,1.24707 -3.4018,1.8706 -6.4644,1.8706c-3.06259,0 -5.2174,-0.62353 -6.46444,-1.8706c-1.24704,-1.247 -1.87056,-3.4018 -1.87056,-6.4644z"></path><path  id="Stroke 3" style="fill:#666E7A; opacity:1;" d="M8.3252,7.71002v3.24998c0,0.3452 -0.27983,0.625 -0.625,0.625c-0.34518,0 -0.625,-0.2798 -0.625,-0.625v-3.24998c0,-0.34518 0.27982,-0.625 0.625,-0.625c0.34517,0 0.625,0.27982 0.625,0.625z"></path><path  id="Stroke 15" style="fill:#666E7A; opacity:1;" d="M7.29004,4.17499h0.83008c0.34517,0 0.625,0.27982 0.625,0.625c0,0.34518 -0.27983,0.625 -0.625,0.625h-0.83008c-0.34518,0 -0.625,-0.27982 -0.625,-0.625c0,-0.34518 0.27982,-0.625 0.625,-0.625z"></path></g></g></g><defs><rect id="path_0" x="0" y="0" width="20" height="20" /></defs></svg>