<svg width="300" height="300" viewBox="0 0 300 300" fill="none" xmlns="http://www.w3.org/2000/svg">
<g clip-path="url(#clip0_8_18)">
<rect width="300" height="300" fill="white"/>
<rect width="300" height="300" fill="white"/>
<path d="M77.808 227.744V213.92H64.496V209.248H77.808V205.92H63.472V200.992H77.808V197.792H64.496V193.056H77.808V190.048H63.664V185.184H75.312L73.264 182.112H82.992L85.04 185.184H97.968L100.016 182.112H109.744L107.696 185.184H119.344V190.048H105.2V193.056H119.28V200.992H119.344V205.92H119.28V207.712C119.28 209.931 118.853 211.531 118 212.512C117.189 213.451 115.696 213.92 113.52 213.92H105.2V227.744H95.92V213.92H87.088V227.744H77.808ZM110.896 205.92H105.2V209.248H109.552C110.448 209.248 110.896 208.757 110.896 207.776V205.92ZM105.2 197.792V200.992H110.896V197.792H105.2ZM87.088 193.056H95.92V190.048H87.088V193.056ZM87.088 200.992H95.92V197.792H87.088V200.992ZM87.088 209.248H95.92V205.92H87.088V209.248ZM115.824 216.352L119.536 227.616H110.768L107.056 216.352H115.824ZM63.28 227.616L66.8 216.352H75.504L71.984 227.616H63.28ZM137.323 224.544H122.347V218.208H124.459V188.448H122.347V182.112H147.499V188.448H145.387V218.208H147.499V224.544H145.387V227.808H137.323V224.544ZM132.523 206.112H137.323V200.544H132.523V206.112ZM132.523 188.448V194.208H137.323V188.448H132.523ZM137.323 218.208V212.448H132.523V218.208H137.323ZM174.699 212.192L178.283 227.488H169.515L165.931 212.192H174.699ZM149.931 227.488L153.451 212.32H162.219L158.635 227.488H149.931ZM178.283 202.464C178.283 203.445 178.091 204.363 177.707 205.216C177.366 206.069 176.875 206.816 176.235 207.456C175.595 208.096 174.848 208.608 173.995 208.992C173.142 209.333 172.224 209.504 171.243 209.504H149.931V208.8V204.32V188.064V182.944H158.635H169.579H178.283V188.064V202.464ZM167.531 204.32C168.128 204.32 168.619 204.128 169.003 203.744C169.387 203.36 169.579 202.891 169.579 202.336V188.064H158.635V204.32H167.531Z" fill="black"/>
<path d="M193.51 204.448H237.286V221.024C237.286 222.005 237.094 222.923 236.71 223.776C236.326 224.629 235.814 225.376 235.174 226.016C234.534 226.656 233.787 227.168 232.934 227.552C232.081 227.893 231.185 228.064 230.246 228.064H217.51L220.326 221.728H225.638C226.235 221.728 226.726 221.536 227.11 221.152C227.494 220.768 227.686 220.299 227.686 219.744V210.784H181.03L185.126 201.184H182.246V181.856H236.134V193.888C236.134 194.912 235.942 195.872 235.558 196.768C235.174 197.621 234.662 198.389 234.022 199.072C233.382 199.712 232.635 200.224 231.782 200.608C230.929 200.992 230.033 201.184 229.094 201.184H194.854L193.51 204.448ZM225.254 196.064C225.809 196.064 226.278 195.872 226.662 195.488C227.046 195.104 227.238 194.613 227.238 194.016V193.696H191.142V196.064H225.254ZM191.142 186.976V189.344H227.238V186.976H191.142ZM191.014 228.064H181.35L188.646 213.344H198.374L191.014 228.064ZM207.014 213.344H216.742L209.382 228.064H199.718L207.014 213.344Z" fill="#EC7F5D"/>
<path d="M87.6 257V242.6H93.2C95.2 242.6 96.2 243.6 96.2 245.6V250C96.2 252 95.2 253 93.2 253H89.2V257H87.6ZM89.2 251.6H93.2C94.1333 251.6 94.6 251.133 94.6 250.2V245.4C94.6 244.467 94.1333 244 93.2 244H89.2V251.6ZM101.701 253C99.6873 253 98.6806 251.993 98.6806 249.98C98.6806 247.967 99.6873 246.96 101.701 246.96H105.361V245.4C105.361 244.467 104.894 244 103.961 244H99.6806V243.2L100.481 242.6H103.961C105.961 242.6 106.961 243.6 106.961 245.6V253H101.701ZM100.281 250.2C100.281 251.133 100.747 251.6 101.681 251.6H105.361V248.26H101.681C100.747 248.26 100.281 248.727 100.281 249.66V250.2ZM110 253V243.8C110.467 243 111.334 242.6 112.6 242.6H114.6L115.4 243.2V244H112.82C112.26 244 111.854 244.153 111.6 244.46V253H110ZM117.442 250V239.2H119.042V242.6H122.842V244H119.042V250.2C119.042 251.133 119.509 251.6 120.442 251.6H123.042V252.4L122.242 253H120.442C118.442 253 117.442 252 117.442 250ZM125.274 250V239.2H126.874V242.6H130.674V244H126.874V250.2C126.874 251.133 127.341 251.6 128.274 251.6H130.874V252.4L130.074 253H128.274C126.274 253 125.274 252 125.274 250ZM133.106 240.66V238.78H134.866V240.66H133.106ZM133.186 253V242.6H134.786V253H133.186ZM137.991 253V242.6H149.791C151.791 242.6 152.791 243.6 152.791 245.6V253H151.191V245.4C151.191 244.467 150.724 244 149.791 244H146.191V253H144.591V244H139.591V253H137.991ZM155.76 250V245.6C155.76 243.6 156.76 242.6 158.76 242.6H161.36C163.36 242.6 164.36 243.6 164.36 245.6V248.42H157.36V250.2C157.36 251.133 157.827 251.6 158.76 251.6H163.96V252.4L163.16 253H158.76C156.76 253 155.76 252 155.76 250ZM157.36 247.12H162.76V245.4C162.76 244.467 162.294 244 161.36 244H158.76C157.827 244 157.36 244.467 157.36 245.4V247.12ZM172.049 250V245.6C172.049 243.6 173.049 242.6 175.049 242.6H177.649C179.649 242.6 180.649 243.6 180.649 245.6V248.42H173.649V250.2C173.649 251.133 174.116 251.6 175.049 251.6H180.249V252.4L179.449 253H175.049C173.049 253 172.049 252 172.049 250ZM173.649 247.12H179.049V245.4C179.049 244.467 178.583 244 177.649 244H175.049C174.116 244 173.649 244.467 173.649 245.4V247.12ZM186.154 253C184.14 253 183.134 251.993 183.134 249.98C183.134 247.967 184.14 246.96 186.154 246.96H189.814V245.4C189.814 244.467 189.347 244 188.414 244H184.134V243.2L184.934 242.6H188.414C190.414 242.6 191.414 243.6 191.414 245.6V253H186.154ZM184.734 250.2C184.734 251.133 185.2 251.6 186.134 251.6H189.814V248.26H186.134C185.2 248.26 184.734 248.727 184.734 249.66V250.2ZM194.134 252.4V251.6H198.754C199.674 251.6 200.134 251.133 200.134 250.2C200.134 249.253 199.767 248.72 199.034 248.6L196.654 248.2C194.974 247.92 194.134 247.007 194.134 245.46C194.134 243.553 195.134 242.6 197.134 242.6H200.474L201.274 243.2V244H197.114C196.18 244 195.714 244.467 195.714 245.4C195.714 246.24 196.107 246.727 196.894 246.86L199.274 247.26C200.927 247.527 201.754 248.48 201.754 250.12C201.754 252.04 200.74 253 198.714 253H194.934L194.134 252.4ZM203.334 242.88L203.514 242.6H204.894L207.934 251.6H208.334L211.374 242.6H212.754L212.934 242.88L208.054 257H206.674L206.494 256.72L207.834 253H206.834L203.334 242.88Z" fill="black"/>
<circle cx="150" cy="100" r="50" fill="#EC7F5D"/>
<path d="M126.5 110L152.048 146.75H100.952L126.5 110Z" fill="#6079A8"/>
<line x1="150" y1="98.5" x2="190" y2="98.5" stroke="white" stroke-width="3"/>
<line x1="151.711" y1="100.006" x2="151.5" y2="50.0064" stroke="white" stroke-width="3"/>
<path fill-rule="evenodd" clip-rule="evenodd" d="M150.5 161C183.913 161 211 133.913 211 100.5C211 67.0868 183.913 40 150.5 40C117.087 40 90 67.0868 90 100.5C90 133.913 117.087 161 150.5 161ZM150.5 154.95C180.572 154.95 204.95 130.572 204.95 100.5C204.95 70.4281 180.572 46.05 150.5 46.05C120.428 46.05 96.05 70.4281 96.05 100.5C96.05 130.572 120.428 154.95 150.5 154.95Z" fill="#EC7F5D"/>
<path d="M174 89L218.167 150.5H129.833L174 89Z" fill="#414A97"/>
</g>
<defs>
<clipPath id="clip0_8_18">
<rect width="300" height="300" fill="white"/>
</clipPath>
</defs>
</svg>
