<svg width="300" height="300" viewBox="0 0 300 300" fill="none" xmlns="http://www.w3.org/2000/svg">
<g clip-path="url(#clip0_13_2)">
<circle cx="149.797" cy="138.797" r="99.8306" fill="#EC7F5D"/>
<path d="M102.876 158.763L153.885 232.138H51.8674L102.876 158.763Z" fill="#6079A8"/>
<line x1="149.797" y1="137.297" x2="229.661" y2="137.297" stroke="white" stroke-width="3"/>
<line x1="154.708" y1="138.802" x2="154.287" y2="38.9725" stroke="white" stroke-width="3"/>
<path fill-rule="evenodd" clip-rule="evenodd" d="M150.795 260.59C217.508 260.59 271.59 206.508 271.59 139.795C271.59 73.0818 217.508 19 150.795 19C84.0818 19 30 73.0818 30 139.795C30 206.508 84.0818 260.59 150.795 260.59ZM150.795 248.511C210.837 248.511 259.511 199.837 259.511 139.795C259.511 79.7531 210.837 31.0795 150.795 31.0795C90.7531 31.0795 42.0795 79.7531 42.0795 139.795C42.0795 199.837 90.7531 248.511 150.795 248.511Z" fill="#EC7F5D"/>
<path d="M197.715 116.834L285.9 239.626H109.53L197.715 116.834Z" fill="#414A97"/>
</g>
<defs>
<clipPath id="clip0_13_2">
<rect width="300" height="300" fill="white"/>
</clipPath>
</defs>
</svg>
