<svg xmlns="http://www.w3.org/2000/svg" xmlns:xlink="http://www.w3.org/1999/xlink" width="80" height="80" viewBox="0 0 80 80" fill="none"><g opacity="1"  transform="translate(0 0)  rotate(0)"><path id="路径" fill-rule="evenodd" style="fill:#FFFFFF" opacity="1" d="M0 64C0 72.84 7.16 80 16 80L64 80C72.84 80 80 72.84 80 64L80 16C80 7.16 72.84 0 64 0L16 0C7.16 0 0 7.16 0 16L0 64Z"></path><path id="路径" fill-rule="evenodd" style="fill:#FD7753" opacity="0.8" d="M18.25 28.1L34.86 39.1L39.73 35.87L39.73 13.84L18.25 28.07L18.25 28.1Z"></path><path id="路径" fill-rule="evenodd" style="fill:#FD7753" opacity="0.8" d="M39.73 42.34L34.86 39.11L18.25 50.11L18.25 50.15L39.73 64.37L39.73 42.34Z"></path><path id="路径" fill-rule="evenodd" style="fill:#FD7753" opacity="0.8" d="M41.83 36.22L46.71 39.45L63.31 28.45L63.31 28.42L41.83 14.19L41.83 36.22Z"></path><path id="路径" fill-rule="evenodd" style="fill:#FD7753" opacity="0.8" d="M63.31 50.45L46.71 39.45L41.83 42.68L41.83 64.71L63.31 50.48L63.31 50.45Z"></path><path id="路径" fill-rule="evenodd" style="fill:#FD7753" opacity="1" d="M34.86 39.1L18.25 28.1L18.25 50.1L34.86 39.1Z"></path><path id="路径" fill-rule="evenodd" style="fill:#FD7753" opacity="1" d="M46.72 39.45L63.32 50.45L63.32 28.45L46.72 39.45Z"></path></g></svg>