<svg xmlns="http://www.w3.org/2000/svg" xmlns:xlink="http://www.w3.org/1999/xlink" width="20" height="20" viewBox="0 0 20 20" fill="none"><g opacity="1"  transform="translate(0 0)  rotate(0)"><mask id="bg-mask-0" fill="white"><use transform="translate(0 0)  rotate(NaN)" xlink:href="#path_0"></use></mask><g mask="url(#bg-mask-0)" ><g opacity="1"  transform="translate(1.8798828125 2.28997802734375)  rotate(0)"><path  id="Stroke 1" style="fill:#FF4747; opacity:1;" d="M6.24023,7.17499h10.02977c0.3452,0 0.625,0.27982 0.625,0.625c0,0.34518 -0.2798,0.625 -0.625,0.625h-10.02977c-0.34517,0 -0.625,-0.27982 -0.625,-0.625c0,-0.34518 0.27983,-0.625 0.625,-0.625z"></path><path  id="路径" style="fill:#FF4747; opacity:1;" d="M13.399,5.82303l-0.0002,-0.00018c-0.1136,-0.11317 -0.184,-0.26979 -0.184,-0.44285c0,-0.34517 0.2799,-0.625 0.625,-0.625c0.1722,0 0.328,0.06959 0.4411,0.18216l0.0001,0.00016l2.4399,2.42984c0.2453,0.24428 0.2453,0.64141 0,0.88569l-2.4397,2.42975l-0.0003,0.0003c-0.1131,0.1125 -0.2689,0.1821 -0.4411,0.1821c-0.3451,0 -0.625,-0.2798 -0.625,-0.625c0,-0.173 0.0704,-0.32967 0.184,-0.44284l0.0003,-0.00029l1.995,-1.98686z"></path><path  id="路径" style="fill:#FF4747; opacity:1;" d="M12.3717,4.00521c0.0022,0.02128 0.0033,0.04288 0.0033,0.06474c0,0.34518 -0.2798,0.625 -0.625,0.625c-0.3282,0 -0.5973,-0.25298 -0.623,-0.57458c-0.12273,-1.35036 -0.48953,-2.25185 -1.1004,-2.70446c-0.71153,-0.52727 -2.0804,-0.79091 -4.1066,-0.79091c-2.52938,0 -4.07852,0.46319 -4.64741,1.38957c-0.43173,0.70301 -0.64759,2.60149 -0.64759,5.69543c0,3.09393 0.21586,4.9924 0.64759,5.6954c0.56889,0.9264 2.11803,1.3896 4.64741,1.3896c2.0262,0 3.39507,-0.26363 4.1066,-0.7909c0.61087,-0.4526 0.97767,-1.3541 1.1004,-2.7045c0.0257,-0.3216 0.2948,-0.5746 0.623,-0.5746c0.3452,0 0.625,0.2799 0.625,0.625c0,0.0219 -0.0011,0.0435 -0.0033,0.0648c-0.28247,3.0868 -2.43303,4.6302 -6.4517,4.6302c-2.99555,0 -4.89974,-0.6618 -5.71259,-1.9854c-0.55494,-0.90367 -0.83241,-3.0202 -0.83241,-6.3496c0,-3.32939 0.27747,-5.44592 0.83241,-6.34957c0.81285,-1.32362 2.71704,-1.98543 5.71259,-1.98543c4.01867,0 6.16923,1.5434 6.4517,4.63021z"></path></g></g></g><defs><rect id="path_0" x="0" y="0" width="20" height="20" /></defs></svg>