<svg xmlns="http://www.w3.org/2000/svg" xmlns:xlink="http://www.w3.org/1999/xlink" width="32" height="32" viewBox="0 0 32 32" fill="none"><g opacity="1"  transform="translate(0 0)  rotate(0)"><mask id="mask-0" fill="white"><path d="M0 32L32 32L32 0L0 0L0 32Z"  ></path></mask><g mask="url(#mask-0)"></g><g mask="url(#mask-0)"><path id="路径" fill-rule="evenodd" style="fill:#FD7753" opacity="1" d="M12 13.33C12.73 13.33 13.33 12.73 13.33 12L13.33 5.33C13.33 4.6 12.73 4 12 4L5.33 4C4.6 4 4 4.6 4 5.33L4 12C4 12.73 4.6 13.33 5.33 13.33L12 13.33Z"></path></g><g mask="url(#mask-0)"><path id="路径" fill-rule="evenodd" style="fill:#5B9CFE" opacity="1" d="M26.6699 13.33C27.3999 13.33 27.9999 12.73 27.9999 12L27.9999 5.33C27.9999 4.6 27.3999 4 26.6699 4L19.9999 4C19.2699 4 18.6699 4.6 18.6699 5.33L18.6699 12C18.6699 12.73 19.2699 13.33 19.9999 13.33L26.6699 13.33Z"></path></g><g mask="url(#mask-0)"><path id="路径" fill-rule="evenodd" style="fill:#FD7753" opacity="1" d="M26.6699 28C27.3999 28 27.9999 27.4 27.9999 26.67L27.9999 20C27.9999 19.27 27.3999 18.67 26.6699 18.67L19.9999 18.67C19.2699 18.67 18.6699 19.27 18.6699 20L18.6699 26.67C18.6699 27.4 19.2699 28 19.9999 28L26.6699 28Z"></path></g><g mask="url(#mask-0)"><path id="路径" fill-rule="evenodd" style="fill:#5B9CFE" opacity="1" d="M12 28C12.73 28 13.33 27.4 13.33 26.67L13.33 20C13.33 19.27 12.73 18.67 12 18.67L5.33 18.67C4.6 18.67 4 19.27 4 20L4 26.67C4 27.4 4.6 28 5.33 28L12 28Z"></path></g></g></svg>