<svg xmlns="http://www.w3.org/2000/svg" xmlns:xlink="http://www.w3.org/1999/xlink" width="36" height="36" viewBox="0 0 36 36" fill="none"><g opacity="1"  transform="translate(0 0)  rotate(0)"><mask id="bg-mask-0" fill="white"><use transform="translate(0 0)  rotate(0)" xlink:href="#path_0"></use></mask><g mask="url(#bg-mask-0)" ><path id="路径" fill-rule="evenodd" style="fill:#2EB67D" opacity="0.15" d="M0 18C0 27.94 8.06 36 18 36C27.94 36 36 27.94 36 18C36 8.06 27.94 0 18 0C8.06 0 0 8.06 0 18Z"></path><path id="路径" fill-rule="evenodd" style="fill:#2EB67D" opacity="1" d="M6 18C6 24.63 11.37 30 18 30C24.63 30 30 24.63 30 18C30 11.37 24.63 6 18 6C11.37 6 6 11.37 6 18Z"></path><g opacity="1"  transform="translate(12.330078125 11.330078125)  rotate(0)"><path id="Location" fill-rule="evenodd" style="fill:#FFFFFF" opacity="1" d="M0,5.54c0,-3.06 2.56,-5.54 5.66,-5.54c3.11,0 5.67,2.48 5.67,5.54c0,1.55 -0.56,2.98 -1.49,4.2c-1.02,1.34 -2.27,2.51 -3.69,3.42c-0.32,0.22 -0.62,0.23 -0.97,0c-1.42,-0.91 -2.68,-2.08 -3.69,-3.42c-0.93,-1.22 -1.49,-2.65 -1.49,-4.2zM5.6698,7.5501c1.02,0 1.87,-0.81 1.87,-1.83c0,-1.02 -0.85,-1.87 -1.87,-1.87c-1.03,0 -1.87,0.85 -1.87,1.87c0,1.02 0.84,1.83 1.87,1.83z"></path></g></g></g><defs><rect id="path_0" x="0" y="0" width="36" height="36" /></defs></svg>