<svg xmlns="http://www.w3.org/2000/svg" xmlns:xlink="http://www.w3.org/1999/xlink" width="28" height="28" viewBox="0 0 28 28" fill="none"><g opacity="1"  transform="translate(0 0)  rotate(0)"><mask id="bg-mask-0" fill="white"><use transform="translate(0 0)  rotate(NaN)" xlink:href="#path_0"></use></mask><g mask="url(#bg-mask-0)" ><g opacity="1"  transform="translate(4.080078125 2.3300018310546875)  rotate(0)"><path  id="路径" style="fill:#666E7A; opacity:1;" d="M14.3025,5.95M14.3025,5.95c0,-1.24671 -0.51917,-2.37806 -1.5575,-3.39406c-1.14347,-1.11896 -2.55847,-1.67844 -4.245,-1.67844c-1.6865,0 -3.10151,0.55948 -4.24504,1.67844c-1.03831,1.016 -1.55746,2.14735 -1.55746,3.39406c0,1.40995 -0.36853,2.72706 -1.10558,3.95133c-0.47628,0.79111 -0.71442,1.564 -0.71442,2.31867h-0.8775l0.8743,-0.0749l-0.8743,0.0749l0.8743,-0.0749c0.16138,1.88493 2.70328,2.8274 7.6257,2.8274c4.92187,0 7.46377,-0.94253 7.6257,-2.8276l0.8743,0.0751h-0.8775h0.8775h-0.8775c0,-0.75467 -0.23813,-1.52756 -0.7144,-2.31867c-0.73707,-1.22427 -1.1056,-2.54138 -1.1056,-3.95133zM16.0575,5.95c0,1.08494 0.2847,2.10032 0.8541,3.04615c0.64393,1.06957 0.9659,2.14418 0.9659,3.22385c0,0.0251 -0.0011,0.0501 0,0c0,0.0251 -0.0011,0.0501 -0.0032,0.0751c-0.25387,2.95493 -3.37863,4.4324 -9.3743,4.4324c-5.99653,0 -9.1213,-1.47753 -9.3743,-4.4326c-0.00213,-0.0249 -0.0032,-0.0499 0,0c-0.00213,-0.0249 -0.0032,-0.0499 -0.0032,-0.0749c0,-1.07967 0.32196,-2.15428 0.96587,-3.22385c0.56942,-0.94583 0.85413,-1.96121 0.85413,-3.04615c0,-1.73879 0.69501,-3.28827 2.08504,-4.64844c1.4846,-1.45271 3.30875,-2.17906 5.47246,-2.17906c2.16373,0 3.9879,0.72635 5.4725,2.17906c1.39,1.36017 2.085,2.90965 2.085,4.64844z"></path><path  id="路径" style="fill:#666E7A; opacity:1;" d="M7.02002,21.1225c0.25974,0 0.49312,0.1129 0.65379,0.2922c0.51251,0.56713 1.10791,0.84973 1.7862,0.8478c0.67579,-0.00193 1.26769,-0.28433 1.77569,-0.8472c0.1607,-0.1797 0.3943,-0.2928 0.6543,-0.2928c0.4846,0 0.8775,0.3929 0.8775,0.8775c0,0.2268 -0.0861,0.4336 -0.2273,0.5893c-0.85533,0.94873 -1.88039,1.4248 -3.07517,1.4282c-1.20041,0.0034 -2.23178,-0.47227 -3.09411,-1.427c-0.1419,-0.1559 -0.2284,-0.3631 -0.2284,-0.5905c0,-0.4846 0.39287,-0.8775 0.8775,-0.8775z"></path></g></g></g><defs><rect id="path_0" x="0" y="0" width="28" height="28" /></defs></svg>