<svg xmlns="http://www.w3.org/2000/svg" xmlns:xlink="http://www.w3.org/1999/xlink" width="32" height="32" viewBox="0 0 32 32" fill="none"><g opacity="1"  transform="translate(0 0)  rotate(0)"><mask id="mask-0" fill="white"><path d="M0 32L32 32L32 0L0 0L0 32Z"  ></path></mask><g mask="url(#mask-0)"></g><g mask="url(#mask-0)"><path id="路径" fill-rule="evenodd" style="fill:#012C54" opacity="1" d="M3.88001 7.29002C3.74001 7.18002 3.56001 7.13002 3.38001 7.15002C3.20001 7.18002 3.04001 7.26002 2.92001 7.40002C2.81001 7.54002 2.75001 7.72002 2.76001 7.89002L3.50001 22.43L6.95001 22L4.17001 7.72002C4.13001 7.55002 4.03001 7.39002 3.88001 7.29002Z"></path></g><g mask="url(#mask-0)"><path id="路径" fill-rule="evenodd" style="fill:#012C54" opacity="1" d="M29.24 7.88001C29.25 7.71001 29.19 7.53001 29.08 7.39001C28.96 7.25001 28.8 7.17001 28.62 7.14001C28.44 7.12001 28.26 7.17001 28.12 7.28001C27.97 7.38001 27.87 7.54001 27.83 7.71001L25.05 22L28.49 22.42L29.24 7.88001Z"></path></g><g mask="url(#mask-0)"><path id="路径" fill-rule="evenodd" style="fill:#FF7F5C" opacity="1" d="M0 25.62C0 26.68 0.42 27.7 1.17 28.45C1.92 29.2 2.94 29.62 4 29.62L28 29.62C29.06 29.62 30.08 29.2 30.83 28.45C31.58 27.7 32 26.68 32 25.62L32 22.41C32 21.88 31.79 21.37 31.41 21C31.04 20.62 30.53 20.41 30 20.41L2 20.41C1.47 20.41 0.96 20.62 0.59 21C0.21 21.37 0 21.88 0 22.41L0 25.62Z"></path></g><g mask="url(#mask-0)"><path id="路径" fill-rule="evenodd" style="fill:#FD744E" opacity="1" d="M30.0001 20.41L20.8101 20.41C19.6001 24.11 17.2401 27.34 14.0801 29.62L28.0001 29.62C29.0601 29.62 30.0801 29.2 30.8301 28.45C31.5801 27.7 32.0001 26.68 32.0001 25.62L32.0001 22.41C32.0001 21.88 31.7901 21.37 31.4101 21C31.0401 20.62 30.5301 20.41 30.0001 20.41Z"></path></g><g mask="url(#mask-0)"><path id="路径" fill-rule="evenodd" style="fill:#F3A28B" opacity="1" d="M7.16992 21.91L16.1999 21.91C16.6099 21.91 16.9499 21.57 16.9499 21.16C16.9499 20.75 16.6099 20.41 16.1999 20.41L7.16992 20.41C6.75992 20.41 6.41992 20.75 6.41992 21.16C6.41992 21.57 6.75992 21.91 7.16992 21.91Z"></path></g><g mask="url(#mask-0)"><path id="路径" fill-rule="evenodd" style="fill:#F9CABD" opacity="1" d="M8.6001 21.91L14.1201 21.91C14.5301 21.91 14.8701 21.57 14.8701 21.16C14.8701 20.75 14.5301 20.41 14.1201 20.41L8.6001 20.41C8.1901 20.41 7.8501 20.75 7.8501 21.16C7.8501 21.57 8.1901 21.91 8.6001 21.91Z"></path></g><g mask="url(#mask-0)"><path id="路径" fill-rule="evenodd" style="fill:#FED0C3" opacity="1" d="M23.49 25.23C23.49 25.81 23.96 26.28 24.55 26.28L27.63 26.28C28.22 26.28 28.69 25.81 28.69 25.23L28.69 25.08C28.69 24.5 28.22 24.03 27.63 24.03L24.55 24.03C23.96 24.03 23.49 24.5 23.49 25.08L23.49 25.23Z"></path></g><g mask="url(#mask-0)"><path id="路径" fill-rule="evenodd" style="fill:#FFE7E0" opacity="1" d="M4.29004 25.17C4.29004 25.78 4.79004 26.28 5.41004 26.28C6.02004 26.28 6.52004 25.78 6.52004 25.17C6.52004 24.55 6.02004 24.05 5.41004 24.05C4.79004 24.05 4.29004 24.55 4.29004 25.17Z"></path></g><g mask="url(#mask-0)"><path id="路径" fill-rule="evenodd" style="fill:#FFE7E0" opacity="1" d="M8.45996 25.17C8.45996 25.78 8.95996 26.28 9.57996 26.28C10.19 26.28 10.69 25.78 10.69 25.17C10.69 24.55 10.19 24.05 9.57996 24.05C8.95996 24.05 8.45996 24.55 8.45996 25.17Z"></path></g><g mask="url(#mask-0)"><path id="路径" fill-rule="evenodd" style="fill:#FD8C6D" opacity="1" d="M24.03 5.11C23.9 4.89001 23.71 4.71 23.5 4.56001C21.26 3.13 18.66 2.37 16 2.38C13.35 2.37 10.75 3.14 8.51995 4.57C8.29995 4.71 8.11995 4.89001 7.97995 5.11C7.83995 5.33 7.74995 5.58 7.71995 5.83C7.67995 6.09 7.69995 6.35001 7.77995 6.6C7.85995 6.85 7.98995 7.07 8.16995 7.26C8.44995 7.57 8.81995 7.77 9.23995 7.82C9.64995 7.88 10.06 7.79 10.41 7.56C12.08 6.49001 14.02 5.92 16 5.92C17.9799 5.92 19.91 6.49001 21.58 7.56C21.93 7.79 22.34 7.88 22.76 7.82C23.17 7.77 23.54 7.57 23.82 7.26C24 7.07 24.13 6.85 24.21 6.6C24.29 6.36 24.32 6.10001 24.29 5.84C24.26 5.58 24.17 5.33 24.03 5.11Z"></path></g><g mask="url(#mask-0)"><path id="路径" fill-rule="evenodd" style="fill:#FB8160" opacity="1" d="M17.0901 2.42004C18.2301 3.71004 19.1901 5.15004 19.9401 6.70004C20.5101 6.94004 21.0701 7.23004 21.5901 7.56004C21.9401 7.79004 22.3501 7.88004 22.7701 7.82004C23.1801 7.77004 23.5601 7.57004 23.8301 7.26004C24.0101 7.07004 24.1401 6.85004 24.2201 6.60004C24.3001 6.36004 24.3301 6.09004 24.3001 5.84004C24.2701 5.58004 24.1801 5.33004 24.0401 5.11004C23.9001 4.89004 23.7201 4.71004 23.5001 4.56004C21.5801 3.33004 19.3701 2.59004 17.0901 2.42004Z"></path></g><g mask="url(#mask-0)"><path id="路径" fill-rule="evenodd" style="fill:#FA9A80" opacity="1" d="M15.1899 3.92004C15.3799 3.90004 15.5499 3.82004 15.6799 3.68004C15.7999 3.54004 15.8699 3.36004 15.8699 3.17004C15.8699 3.07004 15.8499 2.97004 15.8099 2.87004C15.7699 2.78004 15.6999 2.69004 15.6299 2.62004C15.5499 2.55004 15.4599 2.50004 15.3699 2.46004C15.2699 2.43004 15.1699 2.41004 15.0599 2.42004C13.3299 2.54004 11.6299 2.98004 10.0599 3.73004C9.92989 3.79004 9.82989 3.88004 9.74989 4.00004C9.67989 4.12004 9.63989 4.26004 9.63989 4.40004C9.63989 4.53004 9.66989 4.65004 9.73989 4.77004C9.79989 4.88004 9.88989 4.97004 9.99989 5.04004C10.1099 5.11004 10.2299 5.14004 10.3599 5.15004C10.4799 5.15004 10.6099 5.13004 10.7299 5.07004C12.1299 4.41004 13.6399 4.02004 15.1899 3.92004Z"></path></g><g mask="url(#mask-0)"><path id="路径" fill-rule="evenodd" style="fill:#F7A48D" opacity="1" d="M11.8301 4.61997C12.4801 4.38997 13.1501 4.20997 13.8301 4.08997C14.0101 4.05997 14.1701 3.96997 14.2801 3.83997C14.3901 3.70997 14.4601 3.53997 14.4601 3.36997L14.4601 3.32997C14.4601 3.21997 14.4401 3.10997 14.3901 3.00997C14.3401 2.91997 14.2801 2.82997 14.1901 2.75997C14.1101 2.68997 14.0101 2.63997 13.9101 2.60997C13.8001 2.58997 13.7001 2.57997 13.5901 2.59997C12.8101 2.73997 12.0401 2.94997 11.3001 3.21997C11.1601 3.26997 11.0401 3.35997 10.9601 3.47997C10.8701 3.60997 10.8301 3.74997 10.8301 3.89997L10.8301 3.92997C10.8301 4.04997 10.8601 4.16997 10.9101 4.27997C10.9701 4.37997 11.0501 4.46997 11.1501 4.53997C11.2501 4.60997 11.3601 4.64997 11.4801 4.66997C11.6001 4.67997 11.7201 4.65997 11.8301 4.61997Z"></path></g><g mask="url(#mask-0)"><path id="路径" fill-rule="evenodd" style="fill:#F5A189" opacity="1" d="M19.0701 8.91005C18.1001 8.51005 17.0601 8.30005 16.0101 8.30005C14.9501 8.30005 13.9101 8.51005 12.9301 8.92005C12.6701 9.02005 12.4301 9.19005 12.2501 9.41005C12.0701 9.63005 11.9401 9.89005 11.8701 10.17C11.8101 10.45 11.8201 10.74 11.8901 11.02C11.9601 11.29 12.1001 11.55 12.2901 11.76C12.5301 12.03 12.8501 12.22 13.2001 12.3C13.5501 12.38 13.9201 12.35 14.2501 12.21C14.8101 11.97 15.4001 11.85 16.0101 11.85C16.6101 11.85 17.2001 11.97 17.7601 12.21C18.0901 12.34 18.4601 12.37 18.8101 12.29C19.1601 12.21 19.4701 12.02 19.7101 11.76C19.9101 11.54 20.0501 11.29 20.1201 11.01C20.1901 10.74 20.2001 10.45 20.1401 10.17C20.0701 9.89005 19.9401 9.63005 19.7601 9.41005C19.5701 9.19005 19.3401 9.02005 19.0701 8.91005Z"></path></g><g mask="url(#mask-0)"><path id="路径" fill-rule="evenodd" style="fill:#F6B09D" opacity="1" d="M14.3501 15.7199C14.3501 16.6199 15.0901 17.3599 16.0001 17.3599C16.9001 17.3599 17.6401 16.6199 17.6401 15.7199C17.6401 14.8099 16.9001 14.0699 16.0001 14.0699C15.0901 14.0699 14.3501 14.8099 14.3501 15.7199Z"></path></g></g></svg>