<svg xmlns="http://www.w3.org/2000/svg" xmlns:xlink="http://www.w3.org/1999/xlink" width="20" height="20" viewBox="0 0 20 20" fill="none"><g opacity="1"  transform="translate(0 0)  rotate(0)"><path id="Bookmark" fill-rule="evenodd" style="fill:#FD7753" opacity="1" d="M3.84,18.66c-0.47,0 -0.84,-0.38 -0.84,-0.85v-12.65c0,-2.27 1.83,-3.16 4.08,-3.16h5.14c2.26,0 4.09,0.89 4.11,3.16v12.65c0,0.14 -0.03,0.28 -0.1,0.41c-0.11,0.2 -0.29,0.35 -0.52,0.42c-0.21,0.06 -0.45,0.03 -0.65,-0.09l-5.4,-2.7l-5.41,2.7c-0.12,0.07 -0.27,0.11 -0.41,0.11zM5.8701,7.6898c0,0.37 0.29,0.66 0.65,0.66h6.27c0.36,0 0.65,-0.29 0.65,-0.66c0,-0.37 -0.29,-0.66 -0.65,-0.66h-6.27c-0.36,0 -0.65,0.29 -0.65,0.66z"></path></g></svg>