<svg xmlns="http://www.w3.org/2000/svg" xmlns:xlink="http://www.w3.org/1999/xlink" width="20" height="20" viewBox="0 0 20 20" fill="none"><g opacity="1"  transform="translate(0 0)  rotate(0)"><path  id="路径" style="fill:#666E7A; opacity:1;" d="M4.125,17.2499M4.125,17.2499c0,0.061 0.02724,0.1074 0.08172,0.1392c0.05731,0.03353 0.11507,0.03437 0.17327,0.0025l5.31379,-2.9865c0.19067,-0.1072 0.42352,-0.1069 0.61382,0.0008l5.27,2.98c0.1122,0.0635 0.2474,-0.0174 0.2474,-0.146v-12.10998c0,-0.89218 -0.2738,-1.54806 -0.8214,-1.96764c-0.53713,-0.41157 -1.32833,-0.61736 -2.3736,-0.61736h-5.3c-1.03444,0 -1.82517,0.19601 -2.37219,0.58802c-0.55521,0.39788 -0.83281,1.01354 -0.83281,1.84698zM2.875,17.2499v-12.26998c0,-2.45667 1.485,-3.685 4.455,-3.685h5.3c1.3278,0 2.37243,0.29171 3.1339,0.87514c0.87407,0.66975 1.3111,1.65637 1.3111,2.95986v12.10998c0,1.0861 -1.1677,1.7689 -2.1126,1.2341l-5.27004,-2.98l0.30764,-0.5441l0.3062,0.5449l-5.32619,2.9934c-0.47182,0.2582 -0.9399,0.25153 -1.40423,-0.02c-0.46719,-0.27313 -0.70078,-0.67923 -0.70078,-1.2183z"></path><path  id="Stroke 3" style="fill:#666E7A; opacity:1;" d="M6.88989,6.90503h6.10011c0.3452,0 0.625,0.27982 0.625,0.625c0,0.34518 -0.2798,0.625 -0.625,0.625h-6.10011c-0.34518,0 -0.625,-0.27982 -0.625,-0.625c0,-0.34518 0.27982,-0.625 0.625,-0.625z"></path></g></svg>