<svg xmlns="http://www.w3.org/2000/svg" xmlns:xlink="http://www.w3.org/1999/xlink" width="120" height="120" viewBox="0 0 120 120" fill="none"><g opacity="1"  transform="translate(0 0)  rotate(0)"><mask id="bg-mask-0" fill="white"><use transform="translate(0 0)  rotate(0)" xlink:href="#path_0"></use></mask><g mask="url(#bg-mask-0)" ><path id="路径" fill-rule="evenodd" style="fill:#FD7753" opacity="0.1" d="M0 60C0 93.14 26.86 120 60 120C93.14 120 120 93.14 120 60C120 26.86 93.14 0 60 0C26.86 0 0 26.86 0 60Z"></path><g opacity="1"  transform="translate(21.81982421875 21.820068359375)  rotate(0)"><mask id="bg-mask-1" fill="white"><use transform="translate(0 0)  rotate(0)" xlink:href="#path_1"></use></mask><g mask="url(#bg-mask-1)" ><path id="路径" fill-rule="evenodd" style="fill:#FD7753" opacity="1" d="M0 38.18C0 59.27 17.09 76.36 38.18 76.36C59.27 76.36 76.36 59.27 76.36 38.18C76.36 17.09 59.27 0 38.18 0C17.09 0 0 17.09 0 38.18Z"></path><path  id="路径" style="fill:#FFFFFF; opacity:1;" d="M47.1608,28.0723l0.0007,-0.0008c0.4936,-0.4935 1.1754,-0.7988 1.9285,-0.7988c1.5063,0 2.7273,1.2211 2.7273,2.7273c0,0.7531 -0.3053,1.4349 -0.7988,1.9285l-0.0008,0.0008l-14.9992,14.9992c-1.0651,1.065 -2.7919,1.065 -3.857,0l-6.82,-6.82l0.0001,-0.0001c-0.4936,-0.4935 -0.7989,-1.1753 -0.7989,-1.9284c0,-1.5063 1.2211,-2.7273 2.7273,-2.7273c0.7582,0 1.4441,0.3093 1.9384,0.8087l4.8816,4.8817z"></path></g></g></g></g><defs><rect id="path_0" x="0" y="0" width="120" height="120" /><rect id="path_1" x="0" y="0" width="76.36" height="76.36" /></defs></svg>