<svg xmlns="http://www.w3.org/2000/svg" xmlns:xlink="http://www.w3.org/1999/xlink" width="254" height="160" viewBox="0 0 254 160" fill="none"><g opacity="1"  transform="translate(0 0)  rotate(0)"><mask id="bg-mask-0" fill="white"><use transform="translate(0 0)  rotate(0)" xlink:href="#path_0"></use></mask><g mask="url(#bg-mask-0)" ><path id="路径" fill-rule="evenodd" style="fill:#FD7753" opacity="1" d="M4 160L250 160C252.21 160 254 158.21 254 156L254 4C254 1.79 252.21 0 250 0L4 0C1.79 0 0 1.79 0 4L0 156C0 158.21 1.79 160 4 160Z"></path><mask id="mask-1" fill="white"><path d="M4 160L250 160C252.21 160 254 158.21 254 156L254 4C254 1.79 252.21 0 250 0L4 0C1.79 0 0 1.79 0 4L0 156C0 158.21 1.79 160 4 160Z"  ></path></mask><g mask="url(#mask-1)"></g><g mask="url(#mask-1)"><path id="bg" fill-rule="evenodd" fill="url(#linear_0)" opacity="1" d="M4 160L250 160C252.21 160 254 158.21 254 156L254 4C254 1.79 252.21 0 250 0L4 0C1.79 0 0 1.79 0 4L0 156C0 158.21 1.79 160 4 160Z"></path></g><g mask="url(#mask-1)"><path id="路径" fill-rule="evenodd" style="fill:#FF8A6A" opacity="1" d="M49 144.5C49 123.79 32.21 107 11.5 107C-9.21 107 -26 123.79 -26 144.5C-26 165.21 -9.21 182 11.5 182C32.21 182 49 165.21 49 144.5Z"></path></g><g mask="url(#mask-1)"><g opacity="1" transform="translate(24 60)  rotate(0)"><a xlink:href="https://" xlink:title="跳转" target="_blank"><text><tspan x="0" y="14.104000000000001" font-size="12" line-height="20" fill="#FFFFFF" opacity="1" font-family="HarmonyOSSansSC-Regular" font-weight="Regular" letter-spacing="0.2"  >本周获得</tspan><tspan x="48.8" y="14.104000000000001" font-size="12" line-height="20" fill="#FFFFFF" opacity="1" font-family="HarmonyOSSansSC-Regular" font-weight="Regular" letter-spacing="0"  >你</tspan><tspan x="0" y="34.104" font-size="12" line-height="20" fill="#FFFFFF" opacity="1" font-family="HarmonyOSSansSC-Regular" font-weight="Regular" letter-spacing="0.2"  >梦想中的工</tspan><tspan x="61" y="34.104" font-size="12" line-height="20" fill="#FFFFFF" opacity="1" font-family="HarmonyOSSansSC-Regular" font-weight="Regular" letter-spacing="0" >作</tspan></text></a></g></g><g mask="url(#mask-1)"><g opacity="1" transform="translate(24 26)  rotate(0)"><a xlink:href="https://" xlink:title="跳转" target="_blank"><text><tspan x="0" y="17.472" font-size="16" line-height="24" fill="#FFFFFF" opacity="1" font-family="HarmonyOSSansSC-Regular" font-weight="Regular" letter-spacing="0.3"  >本周热门工</tspan><tspan x="81.5" y="17.472" font-size="16" line-height="24" fill="#FFFFFF" opacity="1" font-family="HarmonyOSSansSC-Regular" font-weight="Regular" letter-spacing="0" >作</tspan></text></a></g></g><g mask="url(#mask-1)"><g opacity="1"  transform="translate(125 64)  rotate(0)"><g opacity="1"  transform="translate(37.47998046875 78.1600341796875)  rotate(0)"><path id="路径" fill-rule="evenodd" style="fill:#455A64" opacity="1" d="M10.4 5.72L9.97 7.61L0 51.68L1.74 51.53L9.1 27.27L23.15 26.73L23.95 52.52L26.16 52.52L26.69 26.6L26.76 26.6L28.25 26.54L40.7 26.06L48.08 52.53L50.19 52.53L39.65 5.51L44.67 5.51C47.01 5.51 52.03 -0.65 24.78 0.06C6.87 0.52 5.69 3.16 6.6 4.71C6.82 5.06 7.13 5.34 7.5 5.53C7.87 5.71 8.28 5.79 8.69 5.75C9.13 5.72 9.71 5.72 10.4 5.72Z"></path><path id="路径" fill-rule="evenodd" style="fill:#455A64" opacity="1" d="M35 5.5L27.15 5.5L26.79 23.27L28.16 23.23L28.69 23.23L39.82 22.87L35 5.5Z"></path><path id="路径" fill-rule="evenodd" style="fill:#455A64" opacity="1" d="M23.0299 23.41L22.4999 5.72998C20.0799 5.72998 17.6799 5.76998 15.6199 5.76998L15.0799 7.60998L10.1699 23.81L23.0299 23.41Z"></path></g><path id="路径" fill-rule="evenodd" style="fill:#FFFFFF" opacity="1" d="M41.9001 130.45L42.5301 130.4L42.4501 121.88L32.2401 121.94L32.2401 127.64C32.2401 127.64 23.5901 129.74 25.6901 130.39C27.5701 130.98 39.0801 130.63 41.9001 130.45Z"></path><path id="路径" fill-rule="evenodd" style="fill:#263238" opacity="1" d="M42.4899 129.87C42.4899 129.78 38.6699 129.7 33.9699 129.7C29.2599 129.7 25.4399 129.78 25.4399 129.87C25.4399 129.97 29.2599 130.05 33.9699 130.05C38.6699 130.05 42.4899 129.97 42.4899 129.87Z"></path><path id="路径" fill-rule="evenodd" style="fill:#263238" opacity="1" d="M31.31 127.78C31.26 127.85 31.38 128.09 31.59 128.36C31.79 128.64 31.97 128.84 32.06 128.79C32.14 128.75 32.06 128.45 31.85 128.16C31.64 127.86 31.37 127.71 31.31 127.78Z"></path><path id="路径" fill-rule="evenodd" style="fill:#263238" opacity="1" d="M30.72 127.92C30.65 127.96 30.77 128.28 30.96 128.61C31.15 128.93 31.32 129.22 31.42 129.19C31.51 129.15 31.46 128.82 31.26 128.46C31.06 128.11 30.79 127.89 30.72 127.92Z"></path><path id="路径" fill-rule="evenodd" style="fill:#263238" opacity="1" d="M40.7299 128.57C41.0499 128.32 41.4299 128.15 41.8299 128.09C42.1399 128.04 42.3699 128.09 42.3699 128.04C42.3699 128 42.1999 127.87 41.8299 127.84C41.3599 127.84 40.8999 128 40.5199 128.3C40.1699 128.58 39.8699 128.93 39.6399 129.33C39.4599 129.61 39.3799 129.81 39.4199 129.84C39.4599 129.84 39.6099 129.72 39.8299 129.46C40.0999 129.14 40.3999 128.84 40.7299 128.57Z"></path><path id="路径" fill-rule="evenodd" style="fill:#263238" opacity="1" d="M33.02 128.12C33.05 128.05 32.82 127.91 32.57 127.82C32.31 127.72 32.08 127.66 32.03 127.74C31.98 127.82 32.15 128.02 32.45 128.12C32.74 128.23 32.98 128.19 33.02 128.12Z"></path><path id="路径" fill-rule="evenodd" style="fill:#263238" opacity="1" d="M33.4099 127.2C33.3999 127.11 33.1299 127.03 32.7999 127.02C32.4699 127.01 32.1999 127.09 32.1899 127.18C32.1899 127.28 32.4499 127.36 32.7899 127.36C33.1399 127.36 33.4199 127.29 33.4099 127.2Z"></path><path id="路径" fill-rule="evenodd" style="fill:#FFFFFF" opacity="1" d="M63.4399 130.45L64.0699 130.4L63.9899 121.88L53.7799 121.94L53.7799 127.64C53.7799 127.64 45.1299 129.74 47.2299 130.39C49.1099 130.98 60.6199 130.63 63.4399 130.45Z"></path><path id="路径" fill-rule="evenodd" style="fill:#263238" opacity="1" d="M64.04 129.87C64.04 129.78 60.22 129.7 55.52 129.7C50.81 129.7 46.99 129.78 46.99 129.87C46.99 129.97 50.81 130.05 55.52 130.05C60.22 130.05 64.04 129.97 64.04 129.87Z"></path><path id="路径" fill-rule="evenodd" style="fill:#263238" opacity="1" d="M52.8601 127.78C52.8101 127.85 52.9401 128.09 53.1401 128.36C53.3301 128.64 53.5201 128.84 53.6101 128.79C53.6901 128.75 53.6101 128.45 53.4001 128.16C53.1901 127.86 52.9201 127.71 52.8601 127.78Z"></path><path id="路径" fill-rule="evenodd" style="fill:#263238" opacity="1" d="M52.26 127.92C52.19 127.96 52.31 128.28 52.5 128.61C52.69 128.93 52.87 129.22 52.96 129.19C53.05 129.15 53 128.82 52.8 128.46C52.6 128.11 52.33 127.89 52.26 127.92Z"></path><path id="路径" fill-rule="evenodd" style="fill:#263238" opacity="1" d="M62.28 128.57C62.6 128.32 62.98 128.15 63.38 128.09C63.69 128.04 63.92 128.09 63.92 128.04C63.92 128 63.74 127.87 63.38 127.84C62.91 127.84 62.45 128 62.07 128.3C61.72 128.58 61.42 128.93 61.19 129.33C61.01 129.61 60.93 129.81 60.97 129.84C61.01 129.84 61.16 129.72 61.38 129.46C61.65 129.14 61.95 128.84 62.28 128.57Z"></path><path id="路径" fill-rule="evenodd" style="fill:#263238" opacity="1" d="M54.5701 128.12C54.6001 128.05 54.3701 127.91 54.1201 127.82C53.8601 127.72 53.6301 127.66 53.5801 127.74C53.5301 127.82 53.7101 128.02 54.0001 128.12C54.2901 128.23 54.5301 128.19 54.5701 128.12Z"></path><path id="路径" fill-rule="evenodd" style="fill:#263238" opacity="1" d="M54.96 127.2C54.95 127.11 54.68 127.03 54.35 127.02C54.02 127.01 53.75 127.09 53.74 127.18C53.74 127.28 54 127.36 54.34 127.36C54.69 127.36 54.97 127.29 54.96 127.2Z"></path><g opacity="1"  transform="translate(67.60009765625 6.4000244140625)  rotate(0)"><path id="路径" fill-rule="evenodd" style="fill:#263238" opacity="1" d="M11.91 9.6C11.85 9.66 11.77 9.71 11.69 9.75C11.57 9.8 11.43 9.81 11.31 9.78C11.18 9.76 11.06 9.7 10.96 9.62C10.89 9.55 10.84 9.46 10.8 9.37C10.77 9.27 10.75 9.17 10.76 9.07C10.77 8.97 10.79 8.87 10.84 8.78C10.89 8.69 10.95 8.61 11.03 8.55C11.23 8.38 11.49 8.29 11.76 8.3C12.03 8.31 12.28 8.42 12.47 8.61C12.7 8.85 12.88 9.13 12.99 9.44C13.11 9.75 13.16 10.08 13.14 10.41C13.15 10.78 13.06 11.14 12.88 11.46C12.8 11.58 12.72 11.68 12.61 11.78C12.33 11.61 12.02 11.48 11.69 11.4C11 11.23 10.25 11.28 9.62 10.95C9.09 10.65 8.69 10.17 8.49 9.59C8.49 9.53 8.49 9.47 8.49 9.41C8.56 8.47 8.69 7.55 8.87 6.63C8.99 5.74 8.96 4.83 8.8 3.95C8.68 3.2 8.38 2.48 7.94 1.86C7.49 1.24 6.91 0.72 6.24 0.36C5.78 0.13 5.28 0.01 4.76 0C4.25 -0.01 3.74 0.1 3.27 0.31C3.02 0.42 2.79 0.57 2.58 0.76L2.47 0.88C2.15 1.04 1.87 1.26 1.65 1.53L0 16.42L12.1 23.82C13.05 23.79 13.98 23.61 14.86 23.28C15.31 23.12 15.7 22.85 16.02 22.5C16.34 22.15 16.58 21.73 16.71 21.28C16.82 20.82 16.75 20.33 16.51 19.91C16.28 19.5 15.89 19.19 15.43 19.05C15.01 18.95 14.49 19.01 14.24 18.66C13.99 18.31 14.17 17.9 14.31 17.53C14.76 16.35 14.77 15.04 14.34 13.85C14.04 13.06 13.5 12.38 12.81 11.91C12.91 11.81 13 11.7 13.07 11.58C13.27 11.22 13.37 10.82 13.36 10.41C13.37 10.04 13.31 9.68 13.17 9.35C13.04 9.01 12.83 8.7 12.57 8.45C12.34 8.24 12.04 8.13 11.73 8.13C11.42 8.13 11.12 8.24 10.89 8.45C10.81 8.53 10.74 8.63 10.69 8.74C10.65 8.84 10.62 8.96 10.62 9.08C10.62 9.19 10.65 9.31 10.69 9.42C10.74 9.52 10.81 9.62 10.89 9.7C11.01 9.79 11.14 9.85 11.29 9.87C11.43 9.89 11.58 9.86 11.71 9.8C11.89 9.71 11.91 9.6 11.91 9.6Z"></path><path id="路径" fill-rule="evenodd" style="fill:#263238" opacity="1" d="M6.13008 0.550044C5.69008 0.320044 5.21008 0.190044 4.72008 0.170044C4.23008 0.150044 3.74008 0.230044 3.28008 0.420044C3.03008 0.520044 2.79008 0.660044 2.58008 0.830044C3.36008 0.490044 4.24008 0.470044 5.03008 0.780044C5.59008 1.04004 6.10008 1.42004 6.53008 1.88004C6.95008 2.34004 7.27008 2.87004 7.49008 3.46004C7.90008 4.64004 8.11008 5.88004 8.11008 7.12004C8.12008 7.64004 8.16008 8.15004 8.23008 8.65004C8.32008 7.94004 8.50008 7.26004 8.57008 6.59004C8.69008 5.73004 8.67008 4.86004 8.52008 4.01004C8.41008 3.29004 8.14008 2.60004 7.72008 2.00004C7.31008 1.40004 6.76008 0.910044 6.13008 0.550044Z"></path></g><path id="路径" fill-rule="evenodd" style="fill:#FFBE9D" opacity="1" d="M62.89 0.219971L59.3 2.07997C58.38 2.55997 57.62 3.27997 57.08 4.16997C56.55 5.04997 56.27 6.06997 56.28 7.10997C56.31 9.85997 56.38 13.6 56.56 15.72C56.87 19.36 60.56 19.66 60.56 19.66C60.56 19.66 60.72 20.98 60.82 22.28C60.82 22.28 60.02 33.07 63.81 32.97C66.61 32.9 68.49 27.02 69.28 23.93L69.7 22.23L69.7 22.14L69.7 22.07L69.62 11.84L69.74 11.96C69.86 12.06 70 12.12 70.16 12.14C70.32 12.16 70.48 12.13 70.62 12.06C70.82 11.97 71 11.84 71.15 11.68C71.3 11.52 71.42 11.33 71.49 11.13C71.64 10.71 71.64 10.25 71.49 9.82997C71.42 9.54997 71.25 9.29997 71.02 9.11997C70.56 8.90997 70.04 8.88997 69.57 9.04997L69.54 5.62997L62.89 0.219971Z"></path><path id="路径" fill-rule="evenodd" style="fill:#263238" opacity="1" d="M57.4199 9.33005C57.3599 9.36005 57.3099 9.39005 57.2599 9.43005C57.2199 9.48005 57.1799 9.53005 57.1599 9.59005C57.1399 9.65005 57.1299 9.71005 57.1299 9.78005C57.1299 9.84005 57.1399 9.90005 57.1699 9.95005C57.1899 10.01 57.2299 10.06 57.2699 10.1C57.3199 10.15 57.3699 10.18 57.4299 10.2C57.4799 10.22 57.5399 10.23 57.6099 10.23C57.7299 10.23 57.8499 10.18 57.9299 10.09C58.0199 10.01 58.0699 9.89005 58.0699 9.77005C58.0699 9.64005 58.0199 9.52005 57.9299 9.44005C57.8499 9.35005 57.7299 9.30005 57.6099 9.30005C57.5399 9.30005 57.4799 9.31005 57.4199 9.33005Z"></path><path id="路径" fill-rule="evenodd" style="fill:#263238" opacity="1" d="M58.4999 9.11005C58.5499 9.04005 58.4499 8.97005 58.2899 8.87005C58.0599 8.72005 57.7999 8.66005 57.5299 8.69005C57.2699 8.71005 57.0199 8.81005 56.8199 8.99005C56.6799 9.12005 56.6299 9.25005 56.6599 9.27005C56.7199 9.33005 57.0599 9.03005 57.5599 8.99005C58.0599 8.95005 58.4399 9.18005 58.4999 9.11005Z"></path><path id="路径" fill-rule="evenodd" style="fill:#263238" opacity="1" d="M63.01 10.08C63.13 10.08 63.25 10.03 63.33 9.94002C63.42 9.86002 63.47 9.74002 63.47 9.62002C63.47 9.49002 63.42 9.37002 63.33 9.29002C63.25 9.20002 63.13 9.15002 63.01 9.15002C62.88 9.15002 62.76 9.20002 62.68 9.29002C62.59 9.37002 62.54 9.49002 62.54 9.62002C62.54 9.74002 62.59 9.86002 62.68 9.94002C62.76 10.03 62.88 10.08 63.01 10.08Z"></path><path id="路径" fill-rule="evenodd" style="fill:#263238" opacity="1" d="M64.08 8.96002C64.13 8.89002 64.03 8.81002 63.87 8.70002C63.64 8.56002 63.38 8.50002 63.11 8.52002C62.85 8.55002 62.6 8.65002 62.4 8.83002C62.26 8.95002 62.21 9.09002 62.24 9.11002C62.3 9.17002 62.64 8.87002 63.14 8.83002C63.64 8.78002 64.02 9.02002 64.08 8.96002Z"></path><path id="路径" fill-rule="evenodd" style="fill:#263238" opacity="1" d="M59.6 11.71L59.29 12.78C59.22 12.95 59.21 13.14 59.26 13.32C59.28 13.36 59.31 13.4 59.35 13.43C59.39 13.46 59.43 13.48 59.48 13.49C59.56 13.5 59.63 13.5 59.7 13.49C59.98 13.51 60.26 13.48 60.53 13.43C60.26 13.36 59.98 13.34 59.7 13.35C59.57 13.35 59.46 13.33 59.43 13.24C59.41 13.1 59.43 12.96 59.49 12.84L59.81 11.77C60.11 10.87 60.35 9.96003 60.51 9.03003C60.14 9.90003 59.83 10.79 59.6 11.71Z"></path><path id="路径" fill-rule="evenodd" style="fill:#FAFAFA" opacity="1" d="M60.55 15.28C60.86 15.35 61.18 15.33 61.47 15.2C61.74 15.12 61.98 14.93 62.13 14.68C62.28 14.43 62.33 14.13 62.26 13.84C62.3 13.8 60.81 14.74 59.79 14.76C59.98 15.02 60.25 15.2 60.55 15.28Z"></path><path id="路径" fill-rule="evenodd" style="fill:#EB996E" opacity="1" d="M65.33 17.92C63.93 18.95 62.27 19.56 60.54 19.67L60.64 20.56C64.3 20.62 65.33 17.92 65.33 17.92Z"></path><path id="路径" fill-rule="evenodd" style="fill:#263238" opacity="1" d="M63.43 0C55.57 -0.12 55.75 7.55 55.75 7.55C57.36 7.77 58.51 7.34 60.07 6.94C61.62 6.55 63.1 5.53 63.64 4.02C63.83 5.02 64.29 5.94 64.97 6.7C65.12 6.86 65.39 7.01 65.51 6.83C65.53 6.78 65.54 6.72 65.54 6.67C65.54 6.61 65.53 6.55 65.51 6.5L65.19 5.22C65.74 6.23 66.45 7.14 67.3 7.9C68.19 8.62 70.9 9.72 70.49 8.66C70.39 8.39 71.29 0.12 63.43 0Z"></path><path id="路径" fill-rule="evenodd" style="fill:#EB996E" opacity="1" d="M70.5299 10.17C70.6299 10.3 70.6899 10.45 70.6899 10.62C70.6899 10.78 70.6299 10.94 70.5299 11.06C70.4299 11.19 70.2799 11.27 70.1199 11.3C69.8699 11.34 69.6899 11.28 69.6699 11.3C69.6499 11.32 69.8099 11.48 70.1399 11.48C70.3399 11.47 70.5299 11.39 70.6799 11.26C70.7999 11.14 70.8899 10.99 70.9299 10.82C70.9799 10.65 70.9699 10.48 70.9099 10.32C70.8499 10.15 70.7499 10.01 70.6099 9.89997C70.4799 9.79997 70.3099 9.72997 70.1399 9.71997C69.8099 9.70997 69.6499 9.89997 69.6699 9.89997C69.6899 9.93997 69.8499 9.85997 70.1199 9.93997C70.2799 9.95997 70.4299 10.05 70.5299 10.17Z"></path><path id="路径" fill-rule="evenodd" style="fill:#FFFFFF" opacity="1" d="M82.72 35.5699L84.07 35.2999C84.07 35.2999 81.13 22.0699 70.9 22.0699L69.7 22.0699L69.7 22.1299L69.7 22.2299L69.27 23.9199C68.48 27.0199 66.59 32.8999 63.8 32.9699C60.26 33.0599 60.73 23.6799 60.81 22.4199C60.72 22.4299 60.63 22.4499 60.55 22.4899C60.55 22.4899 49.43 23.0999 44.47 32.8599L53.04 39.1199L55.14 37.8599C55.14 37.8599 55.83 51.6499 54.65 55.4099C53.32 59.6499 51.26 64.3599 51.26 64.3599C60.69 63.6199 71.41 64.0399 82.84 65.0999L75.22 37.0999C77.78 36.9599 80.31 36.4499 82.72 35.5699Z"></path><path id="路径" fill-rule="evenodd" style="fill:#263238" opacity="1" d="M73.54 42.18C73.5 42.18 73.13 42.54 72.37 42.96C71.41 43.52 70.31 43.8 69.2 43.76C68.09 43.72 67.01 43.36 66.09 42.73C65.4 42.26 65.04 41.86 65.02 41.87C65.01 41.88 65.08 42 65.24 42.19C65.46 42.45 65.72 42.69 66 42.89C66.92 43.59 68.04 43.99 69.21 44.04C70.37 44.08 71.52 43.76 72.49 43.13C72.78 42.94 73.05 42.72 73.3 42.48C73.47 42.3 73.54 42.18 73.54 42.18Z"></path><path id="路径" fill-rule="evenodd" style="fill:#263238" opacity="1" d="M73.3399 33.3C73.4999 33.78 73.6999 34.39 73.9399 35.11C74.4499 36.63 75.1399 38.74 75.8999 41.07C76.6599 43.41 77.2699 45.53 77.7299 47.07C77.9399 47.82 78.1199 48.41 78.2699 48.9C78.3199 49.12 78.3999 49.35 78.4999 49.56C78.4899 49.33 78.4499 49.09 78.3799 48.87C78.2899 48.43 78.1199 47.8 77.9199 47.02C77.5099 45.46 76.8999 43.33 76.1599 40.99C75.4199 38.65 74.6899 36.55 74.1299 35.04C73.8499 34.29 73.6099 33.68 73.4399 33.27C73.3599 33.05 73.2699 32.83 73.1499 32.63C73.1899 32.86 73.2499 33.08 73.3399 33.3Z"></path><path id="路径" fill-rule="evenodd" style="fill:#263238" opacity="1" d="M72.5901 27.29C72.9301 27.62 73.3501 27.87 73.8101 28.02C74.2301 28.25 74.7001 28.38 75.1801 28.39C74.7901 28.12 74.3701 27.91 73.9101 27.77C73.5001 27.54 73.0501 27.38 72.5901 27.29Z"></path><path id="路径" fill-rule="evenodd" style="fill:#263238" opacity="1" d="M78.8301 29.9399C78.5301 30.3899 78.3201 30.8899 78.1901 31.4199C77.9801 31.9099 77.8501 32.4399 77.8201 32.9799C78.1101 32.5299 78.3301 32.0299 78.4601 31.4999C78.6701 31.0099 78.7901 30.4799 78.8301 29.9399Z"></path><path id="路径" fill-rule="evenodd" style="fill:#263238" opacity="1" d="M69.2099 34.8899C68.9499 35.3199 68.7599 35.7899 68.6399 36.2799C69.2999 35.4999 69.7499 34.5699 69.9499 33.5699C69.6399 33.9699 69.3899 34.4099 69.2099 34.8899Z"></path><path id="路径" fill-rule="evenodd" style="fill:#263238" opacity="1" d="M64.8501 36.84C65.0501 37.34 65.3501 37.79 65.7501 38.16C66.0801 38.59 66.4901 38.94 66.9701 39.19L66.9901 39.19C66.3401 38.35 65.6201 37.57 64.8501 36.84Z"></path><g opacity="1"  transform="translate(70.739990234375 38.75)  rotate(0)"><path id="路径" fill-rule="evenodd" style="fill:#263238" opacity="1" d="M0.4,2.68l-0.4,0.24l0.31,-0.32c0,0 0.01,0 0.01,-0.01l0.09,0.08c0.04,-0.09 0.06,-0.15 0.04,-0.16c-0.01,-0.01 -0.06,0.02 -0.13,0.08c0.19,-0.22 0.67,-0.69 1.2,-1.25c0.41,-0.49 0.86,-0.94 1.35,-1.34c-0.28,0.58 -0.67,1.1 -1.15,1.53c-0.4,0.43 -0.84,0.82 -1.32,1.15zM0.41,2.67l-0.09,-0.08c0.07,-0.06 0.12,-0.09 0.13,-0.08c0.02,0.01 0,0.07 -0.04,0.16z"></path><path id="路径" fill-rule="evenodd" style="fill:#263238" opacity="1" d="M0.450068 2.51001C0.440068 2.50001 0.390068 2.53001 0.320068 2.59001L0.410068 2.67001C0.450068 2.58001 0.470068 2.52001 0.450068 2.51001Z"></path></g><path id="路径" fill-rule="evenodd" style="fill:#263238" opacity="1" d="M72.3301 46.71C72.6601 47.13 73.0901 47.48 73.5801 47.71C74.0201 48.02 74.5201 48.23 75.0501 48.32C74.6401 47.98 74.2001 47.7 73.7201 47.47C73.2901 47.16 72.8201 46.91 72.3301 46.71Z"></path><path id="路径" fill-rule="evenodd" style="fill:#263238" opacity="1" d="M66.51 48.79C66.92 48.43 67.27 48.01 67.54 47.54C67.89 47.12 68.16 46.64 68.34 46.13C67.93 46.49 67.58 46.91 67.31 47.38C66.96 47.8 66.69 48.28 66.51 48.79Z"></path><path id="路径" fill-rule="evenodd" style="fill:#263238" opacity="1" d="M61.8601 44.9499C61.8201 45.0099 62.2401 45.4199 62.8101 45.8699C63.1301 46.1799 63.5101 46.4199 63.9301 46.5699C63.9601 46.5099 63.5601 46.0899 62.9801 45.6499C62.4001 45.1999 61.9101 44.8899 61.8601 44.9499Z"></path><path id="路径" fill-rule="evenodd" style="fill:#263238" opacity="1" d="M59.54 41.49C59.54 41.55 60.05 41.28 60.61 40.88C61.17 40.48 61.59 40.1 61.55 40.04C61.15 40.17 60.78 40.38 60.47 40.65C59.91 41.05 59.54 41.43 59.54 41.49Z"></path><path id="路径" fill-rule="evenodd" style="fill:#263238" opacity="1" d="M59.1301 34.75C59.0701 34.79 59.3501 35.28 59.7701 35.83C60.1901 36.38 60.5701 36.78 60.6301 36.74C60.7001 36.69 60.4001 36.22 59.9901 35.66C59.5801 35.12 59.1901 34.71 59.1301 34.75Z"></path><path id="路径" fill-rule="evenodd" style="fill:#263238" opacity="1" d="M71.5099 25.47C71.1799 25.81 70.9099 26.21 70.7299 26.65C70.4599 27.04 70.2799 27.48 70.1899 27.95C70.5199 27.61 70.7899 27.22 70.9699 26.78C71.2399 26.38 71.4199 25.94 71.5099 25.47Z"></path><path id="路径" fill-rule="evenodd" style="fill:#263238" opacity="1" d="M55.6499 26.9C55.9999 27.28 56.4199 27.59 56.8799 27.82C57.2899 28.12 57.7599 28.35 58.2499 28.5C57.8999 28.12 57.4799 27.81 57.0199 27.58C56.6099 27.27 56.1499 27.04 55.6499 26.9Z"></path><path id="路径" fill-rule="evenodd" style="fill:#263238" opacity="1" d="M50.8701 28.79C50.9401 28.83 51.2501 28.43 51.5701 27.91C51.8801 27.39 52.0801 26.93 52.0101 26.89C51.9401 26.86 51.6401 27.25 51.3201 27.77C51.0101 28.29 50.8001 28.74 50.8701 28.79Z"></path><path id="路径" fill-rule="evenodd" style="fill:#263238" opacity="1" d="M56.0601 61.48C56.7601 62.17 57.5901 62.72 58.5001 63.09C58.1701 62.72 57.7901 62.41 57.3501 62.18C56.9701 61.87 56.5301 61.63 56.0601 61.48Z"></path><path id="路径" fill-rule="evenodd" style="fill:#263238" opacity="1" d="M74.46 63.3C74.52 63.35 75 62.92 75.54 62.33C76.08 61.73 76.47 61.22 76.41 61.16C76.36 61.11 75.88 61.54 75.34 62.13C74.8 62.73 74.41 63.24 74.46 63.3Z"></path><path id="路径" fill-rule="evenodd" style="fill:#263238" opacity="1" d="M64.25 61.03C64.22 61.74 64.22 62.46 64.25 63.17C64.46 62.86 64.55 62.48 64.51 62.1C64.51 61.48 64.32 61.03 64.25 61.03Z"></path><path id="路径" fill-rule="evenodd" style="fill:#263238" opacity="1" d="M69.2701 62.65C69.6701 62.94 70.1101 63.15 70.5801 63.28C69.8601 62.63 69.0201 62.12 68.1101 61.78C68.4401 62.14 68.8301 62.43 69.2701 62.65Z"></path><path id="路径" fill-rule="evenodd" style="fill:#263238" opacity="1" d="M78.23 64.74L81.61 65.04L82.53 65.11C82.64 65.12 82.74 65.12 82.85 65.11C82.75 65.08 82.64 65.07 82.53 65.06L81.62 64.94C80.82 64.84 79.67 64.7 78.25 64.55C75.4 64.25 71.46 63.88 67.08 63.8C62.71 63.71 58.75 63.85 55.89 64.01C54.46 64.1 53.3 64.18 52.51 64.25L51.59 64.33L51.27 64.38C51.38 64.4 51.48 64.4 51.59 64.38L52.51 64.34L55.9 64.2C58.76 64.09 62.72 63.99 67.08 64.06C71.44 64.13 75.38 64.49 78.23 64.74Z"></path><g opacity="0.2"  transform="translate(73.139892578125 32.6300048828125)  rotate(0)"><path id="路径" fill-rule="evenodd" style="fill:#000000" opacity="0.2" d="M5.62 17.08L0 0L2.68 17.82C2.68 17.82 5.16 17.82 5.62 17.08Z"></path><path id="路径" fill-rule="evenodd" style="fill:#000000" opacity="0.2" d="M5.62 17.08L0 0L2.68 17.82C2.68 17.82 5.16 17.82 5.62 17.08Z"></path></g><path id="路径" fill-rule="evenodd" style="fill:#263238" opacity="1" d="M31.0601 126.76L43.8101 126.76L45.8301 79.76L49.5801 80.24C49.1001 97.84 50.9301 126.76 50.9301 126.76L65.0901 126.07L64.2901 80.93C64.2901 80.93 83.3301 82.22 82.8501 65.12C82.8601 65.11 67.8601 63.29 57.5801 64.02C51.2701 64.51 47.8301 64.08 40.8801 64.73C38.5401 65.04 36.3801 66.18 34.8001 67.94C33.2201 69.7 32.3301 71.97 32.2801 74.34L31.0601 126.76Z"></path><path id="路径" fill-rule="evenodd" style="fill:#455A64" opacity="1" d="M61.39 63.89C61.31 63.88 61.23 63.88 61.14 63.89C60.96 63.9 60.73 63.92 60.42 63.94C59.79 64 58.88 64.11 57.77 64.29C56.45 64.45 55.16 64.77 53.92 65.25C53.19 65.57 52.52 65.99 51.92 66.52C51.28 67.08 50.76 67.78 50.39 68.55C49.73 70.05 49.42 71.68 49.48 73.32C49.51 74.8 49.58 76.13 49.58 77.27C49.58 78.42 49.58 79.32 49.58 79.95C49.56 80.28 49.56 80.61 49.58 80.93C49.6 80.85 49.61 80.76 49.62 80.68C49.64 80.52 49.68 80.27 49.68 79.95C49.72 79.31 49.76 78.4 49.77 77.27C49.78 76.15 49.73 74.8 49.73 73.32C49.69 71.73 50 70.14 50.64 68.67C50.99 67.93 51.49 67.27 52.1 66.72C52.67 66.21 53.32 65.8 54.02 65.49C55.24 65 56.5 64.67 57.8 64.48C58.9 64.28 59.8 64.15 60.43 64.05C60.75 64.02 61.07 63.96 61.39 63.89Z"></path><path id="路径" fill-rule="evenodd" style="fill:#455A64" opacity="1" d="M45.83 79.78C45.82 79.19 45.67 78.61 45.3899 78.09C45.2099 77.53 44.9799 77 44.7 76.48C44.7099 77.07 44.86 77.65 45.1399 78.17C45.32 78.73 45.5499 79.26 45.83 79.78Z"></path><path id="路径" fill-rule="evenodd" style="fill:#455A64" opacity="1" d="M45.82 79.73C46.09 79.04 46.18 78.29 46.1 77.55C46.1 76.82 45.97 76.1 45.7299 75.41C45.6399 75.41 45.77 76.42 45.82 77.59C45.88 78.75 45.74 79.73 45.82 79.73Z"></path><path id="路径" fill-rule="evenodd" style="fill:#455A64" opacity="1" d="M64.3201 80.91C64.2701 80.14 64.1501 79.38 63.9701 78.63C63.8701 77.86 63.6601 77.1 63.3301 76.4C63.3901 77.17 63.5101 77.93 63.7001 78.68C63.7801 79.45 64.0001 80.2 64.3201 80.91Z"></path><path id="路径" fill-rule="evenodd" style="fill:#455A64" opacity="1" d="M64.3501 80.91C64.8301 79.45 64.9201 77.89 64.6001 76.39C64.5201 77.14 64.4901 77.9 64.5001 78.65C64.4001 79.4 64.3601 80.15 64.3501 80.91Z"></path><path id="路径" fill-rule="evenodd" style="fill:#455A64" opacity="1" d="M31.01 123.69C31.01 123.77 33.8 123.83 37.25 123.83C40.7 123.83 43.49 123.77 43.49 123.69C43.49 123.61 40.7 123.55 37.25 123.55C33.8 123.55 31.01 123.61 31.01 123.69Z"></path><path id="路径" fill-rule="evenodd" style="fill:#455A64" opacity="1" d="M50.73 123.45C50.73 123.53 53.91 123.59 57.83 123.59C61.74 123.59 64.92 123.53 64.92 123.45C64.92 123.37 61.74 123.31 57.83 123.31C53.91 123.31 50.73 123.37 50.73 123.45Z"></path><g opacity="1"  transform="translate(59.31005859375 72.77001953125)  rotate(0)"><path id="路径" fill-rule="evenodd" style="fill:#455A64" opacity="1" d="M1.1 47.64C1.14 48.51 1.14 49.19 1.14 49.68C1.14 49.19 1.14 48.51 1.14 47.64C1.14 45.86 1.13 43.3 1.08 40.14C1 33.81 0.78 25.07 0.5 15.42C0.44 13 0.37 10.65 0.32 8.37C0.27 7.23 0.16 6.11 0.21 5.04C0.21 3.98 0.53 2.96 1.13 2.09C1.76 1.32 2.63 0.77 3.61 0.55C4.53 0.34 5.48 0.23 6.43 0.23L11.61 0.23L19.11 0.19L21.15 0.19L21.68 0.19L21.86 0.19C21.83 0.15 21.79 0.12 21.75 0.09L21.22 0.09L19.18 0.05L11.68 0L6.5 0C5.53 0 4.56 0.1 3.61 0.32C2.58 0.55 1.66 1.11 0.99 1.93C0.36 2.83 0.02 3.91 0.02 5.02C-0.04 6.13 0.07 7.25 0.11 8.38C0.17 10.65 0.23 13.01 0.3 15.42C0.57 25.07 0.82 33.81 0.95 40.14C1.01 43.3 1.06 45.86 1.1 47.64Z"></path><path id="路径" fill-rule="evenodd" style="fill:#455A64" opacity="1" d="M1.13988 50.22C1.12988 50.28 1.12988 50.34 1.13988 50.4C1.13988 50.34 1.13988 50.28 1.13988 50.22Z"></path></g><path id="路径" fill-rule="evenodd" style="fill:#000000" opacity="0.2" d="M49.96 70.03C47.58 73.68 48.07 80.03 48.07 80.03L49.58 80.21L49.96 70.03Z"></path><g opacity="1"  transform="translate(39.949951171875 73.47998046875)  rotate(0)"><path id="路径" fill-rule="evenodd" style="fill:#455A64" opacity="1" d="M0.0100098 47.74C0.0100098 48.41 0.0100098 48.96 0.0100098 49.35C0.0100098 49.52 0.0100098 49.66 0.0100098 49.78C0.0300098 49.66 0.0300098 49.52 0.0300098 49.35C0.0500098 48.98 0.0700098 48.44 0.10001 47.74C0.15001 46.31 0.23001 44.27 0.31001 41.76C0.46001 36.68 0.67001 29.7 0.90001 21.99C1.00001 18.13 1.09001 14.46 1.19001 11.11C1.23001 9.44 1.27001 7.84 1.30001 6.36C1.34001 4.88 1.40001 3.47 1.94001 2.35C2.19001 1.82 2.56001 1.35 3.04001 1C3.47001 0.69 3.95001 0.47 4.46001 0.33C5.29001 0.13 6.15001 0.08 6.99001 0.18C7.70001 0.26 8.23001 0.37 8.60001 0.44L9.02001 0.51C9.07001 0.52 9.11001 0.52 9.16001 0.51C9.16001 0.51 9.12001 0.49 9.04001 0.49L8.63001 0.38C8.26001 0.3 7.72001 0.17 7.02001 0.07C6.16001 -0.05 5.28001 -0.02 4.43001 0.18C3.90001 0.31 3.39001 0.54 2.94001 0.86C2.44001 1.22 2.04001 1.7 1.77001 2.26C1.19001 3.44 1.13001 4.87 1.08001 6.36C1.04001 7.84 0.99001 9.43 0.94001 11.11C0.84001 14.45 0.74001 18.12 0.63001 21.98C0.44001 29.69 0.25001 36.67 0.12001 41.75C0.0800098 44.27 0.0300098 46.3 0.0100098 47.74Z"></path><path id="路径" fill-rule="evenodd" style="fill:#455A64" opacity="1" d="M0.01 49.92C0.01 49.87 0.01 49.82 0.01 49.78C0 49.82 0 49.87 0.01 49.92Z"></path></g><path id="路径" fill-rule="evenodd" style="fill:#FFBE9D" opacity="1" d="M33.16 57.7301C34.99 57.9401 64.67 57.5401 64.67 57.5401L64.28 51.4701C64.28 51.4701 45.06 51.5501 44.49 51.2001C43.93 50.8501 55.61 39.0401 55.61 39.0401L48.12 33.5601C48.12 33.5601 34.66 47.0601 32.09 50.0801C29.9 52.6601 31.33 57.5201 33.16 57.7301Z"></path><path id="路径" fill-rule="evenodd" style="fill:#FFBE9D" opacity="1" d="M78.7501 49.71C78.8801 51.05 53.8601 51.11 53.8601 51.11L55.7801 57.38C55.7801 57.38 81.6701 57.9 86.4901 57.38C91.3201 56.86 88.7701 50.66 88.2801 49.19C87.7901 47.73 83.7001 35.33 83.7001 35.33L74.9501 37.18C74.9501 37.18 78.6301 48.38 78.7501 49.71Z"></path><path id="路径" fill-rule="evenodd" style="fill:#263238" opacity="1" d="M81.1801 57.2099L80.8901 55.9499L64.8201 55.3599L56.9201 31.0699L29.0701 31.4699L38.3701 57.2299L81.1801 57.2099Z"></path><path id="路径" fill-rule="evenodd" style="fill:#FAFAFA" opacity="1" d="M45.6701 44.39C45.9001 44.58 46.1701 44.7 46.4601 44.73C46.7401 44.76 47.0401 44.71 47.3001 44.59C47.5601 44.46 47.7801 44.26 47.9301 44.01C48.0801 43.77 48.1601 43.48 48.1501 43.19C48.1101 42.76 47.8901 42.37 47.5601 42.09C47.2301 41.82 46.8001 41.69 46.3701 41.73C46.0901 41.78 45.8201 41.91 45.6101 42.1C45.4001 42.3 45.2401 42.56 45.1701 42.84C45.1001 43.12 45.1001 43.41 45.1901 43.69C45.2801 43.97 45.4501 44.21 45.6701 44.39Z"></path><path id="路径" fill-rule="evenodd" style="fill:#455A64" opacity="1" d="M0 130.62L2.19 130.62L2.19 61.02L103.32 61.02L103.32 130.67L129.17 130.67L129.17 61.02L129.17 56.66L103.32 56.66L2.19 56.66L1.09 56.66L0 56.66L0 130.62Z"></path></g></g></g></g><defs><rect id="path_0" x="0" y="0" width="254" height="160" /><radialGradient id="linear_0" cx="-2.7522856663616535%" cy="-3.7500089745743814%" fx="-2.7522856663616535%" fy="-3.7500089745743814%" r="1.3515953536048997" gradientTransform="translate(-0.027522856663616535 -0.037500089745743814) scale(0.6299212598425197 1) rotate(55.96993174607081) scale(1 2.6894715369740982) translate(0.027522856663616535 0.037500089745743814)" ><stop offset="0" stop-color="#FD8868" stop-opacity="1" /><stop offset="1" stop-color="#FD7753" stop-opacity="1" /></radialGradient></defs></svg>