<svg xmlns="http://www.w3.org/2000/svg" xmlns:xlink="http://www.w3.org/1999/xlink" width="64" height="64" viewBox="0 0 64 64" fill="none"><g opacity="1"  transform="translate(0 0)  rotate(0)"><mask id="bg-mask-0" fill="white"><use transform="translate(0 0)  rotate(0)" xlink:href="#path_0"></use></mask><g mask="url(#bg-mask-0)" ><path id="路径" fill-rule="evenodd" style="fill:#FD7753" opacity="0.15" d="M0 32C0 49.67 14.33 64 32 64C49.67 64 64 49.67 64 32C64 14.33 49.67 0 32 0C14.33 0 0 14.33 0 32Z"></path><path id="路径" fill-rule="evenodd" style="fill:#FD7753" opacity="1" d="M8 32C8 45.25 18.75 56 32 56C45.25 56 56 45.25 56 32C56 18.75 45.25 8 32 8C18.75 8 8 18.75 8 32Z"></path><g opacity="1"  transform="translate(23.5 22)  rotate(0)"><path id="Paper Upload" fill-rule="evenodd" style="fill:#FFFFFF" opacity="1" d="M10.21,0.46v3.22c0,1.83 1.48,3.33 3.3,3.34c0.75,0 1.34,0.01 1.8,0.01c0.3,0 0.81,-0.01 1.23,-0.01c0.25,0 0.46,0.2 0.46,0.45v8.04c0,2.48 -2,4.49 -4.46,4.49h-7.87c-2.58,0 -4.67,-2.11 -4.67,-4.71v-10.78c0,-2.48 1.99,-4.51 4.47,-4.51h5.28c0.25,0 0.46,0.21 0.46,0.46zM16.1099,5.56c-0.82,0 -1.77,0 -2.46,-0.01c-1.1,0 -2,-0.91 -2,-2.01v-2.64c0,-0.43 0.52,-0.64 0.81,-0.33c1.07,1.12 2.94,3.08 3.99,4.18c0.29,0.31 0.07,0.81 -0.34,0.81zM8.1398,6.74c-0.1,0 -0.2,0.02 -0.29,0.06c-0.09,0.04 -0.16,0.09 -0.23,0.16l-2.83,2.88c-0.29,0.29 -0.29,0.76 0,1.05c0.28,0.29 0.75,0.29 1.03,0l1.58,-1.6v4.83c0,0.41 0.32,0.74 0.74,0.74c0.41,0 0.73,-0.33 0.73,-0.74v-4.83l1.58,1.6c0.28,0.29 0.75,0.29 1.04,0c0.29,-0.29 0.29,-0.76 0.01,-1.05l-2.84,-2.88c-0.07,-0.07 -0.15,-0.12 -0.24,-0.16c-0.09,-0.04 -0.18,-0.06 -0.28,-0.06z"></path></g></g></g><defs><rect id="path_0" x="0" y="0" width="64" height="64" /></defs></svg>