<svg xmlns="http://www.w3.org/2000/svg" xmlns:xlink="http://www.w3.org/1999/xlink" width="16" height="16" viewBox="0 0 16 16" fill="none"><g opacity="1"  transform="translate(0 0)  rotate(0)"><path id="3 Friends" fill-rule="evenodd" style="fill:#666E7A" opacity="1" d="M5.16004,5.48992c0,-1.57 1.25,-2.82 2.81,-2.82c1.55,0 2.79996,1.25 2.79996,2.82c0,1.56 -1.24996,2.82 -2.79996,2.82c-1.56,0 -2.81,-1.26 -2.81,-2.82zM4.22994,3.13992c0.16,0 0.32,0.02 0.47,0.05c0.02,0 0.04,0.01 0.05,0.03c0.02,0.02 0.01,0.06 -0.01,0.07c-0.45,0.64 -0.71,1.42 -0.71,2.25c0,0.8 0.24,1.55 0.66,2.17c0.04,0.06 0,0.14 -0.07,0.16c-0.11,0.02 -0.22,0.03 -0.33,0.03c-1.09,0.03 -2.08,-0.68 -2.35,-1.75c-0.4,-1.59 0.78,-3.01 2.29,-3.01zM11.98,5.53992c0,-0.83 -0.26,-1.61 -0.71,-2.25c-0.02,-0.01 -0.03,-0.05 -0.01,-0.07c0.01,-0.02 0.03,-0.03 0.05,-0.03c0.15,-0.03 0.31,-0.05 0.47,-0.05c1.51,0 2.69,1.42 2.29,3.01c-0.27,1.07 -1.26,1.78 -2.35,1.75c-0.11,0 -0.22,-0.01 -0.33,-0.03c-0.07,-0.02 -0.11,-0.1 -0.07,-0.16c0.42,-0.62 0.66,-1.37 0.66,-2.17zM2.22004,9.00982c0.34,-0.08 1.28,-0.2 2.16,-0.19c0.01,0 0.02,0.01 0.02,0.02c0,0.01 0,0.02 -0.02,0.03c-0.4,0.2 -1.96,1.08 -1.77,2.91998c0.01,0.08 -0.05,0.15 -0.13,0.14c-0.39,-0.06 -1.38,-0.27 -1.68,-0.94c-0.17,-0.35 -0.17,-0.76 0,-1.10998c0.2,-0.43 0.68,-0.72 1.42,-0.87zM13.7801,9.00982c0.74,0.15 1.22,0.44 1.42,0.87c0.17,0.34998 0.17,0.75998 0,1.10998c-0.3,0.67 -1.29,0.88 -1.68,0.94c-0.08,0.01 -0.14,-0.06 -0.13,-0.14c0.19,-1.83998 -1.37,-2.71998 -1.77,-2.91998c-0.02,-0.01 -0.02,-0.02 -0.02,-0.03c0,-0.01 0.01,-0.02 0.02,-0.02c0.88,-0.01 1.82,0.11 2.16,0.19zM7.97014,9.69992c2.28996,0 4.23996,0.35998 4.23996,1.80998c0,1.45 -1.94,1.83 -4.23996,1.83c-2.29,0 -4.24,-0.36 -4.24,-1.81c0,-1.45 1.94,-1.82998 4.24,-1.82998z"></path></g></svg>